G04 ================== begin FILE IDENTIFICATION RECORD ==================*
G04 Layout Name:  E:/A_Project/AA_Proj/allegro/AA_05122213.brd*
G04 Film Name:    BOTTOM*
G04 File Format:  Gerber RS274X*
G04 File Origin:  Cadence Allegro 17.2-S057*
G04 Origin Date:  Thu May 14 15:01:31 2020*
G04 *
G04 Layer:  ETCH/BOTTOM*
G04 Layer:  PIN/BOTTOM*
G04 Layer:  VIA CLASS/BOTTOM*
G04 *
G04 Offset:    (0.0 0.0)*
G04 Mirror:    No*
G04 Mode:      Positive*
G04 Rotation:  0*
G04 FullContactRelief:  No*
G04 UndefLineWidth:     6.0*
G04 ================== end FILE IDENTIFICATION RECORD ====================*
%FSLAX25Y25*MOIN*%
%IR0*IPPOS*OFA0.00000B0.00000*MIA0B0*SFA1.00000B1.00000*%
%AMMACRO32*
21,1,.0788,.0787,0.0,0.0,179.926*
1,1,.0787,-.0394,.000051*
1,1,.0787,.0394,-.000051*%
%ADD32MACRO32*%
%AMMACRO22*
21,1,.0315,.0394,0.0,0.0,135.*%
%ADD22MACRO22*%
%AMMACRO16*
21,1,.0374,.0394,0.0,0.0,135.*%
%ADD16MACRO16*%
%ADD30O,.0787X.1772*%
%ADD31O,.1575X.0787*%
%ADD11C,.02*%
%ADD19O,.0522X.0236*%
%ADD26C,.0554*%
%ADD25R,.0591X.0315*%
%ADD29O,.1378X.2165*%
%AMMACRO15*
21,1,.0315,.0394,0.0,0.0,45.*%
%ADD15MACRO15*%
%ADD12R,.0394X.0315*%
%ADD10C,.0709*%
%ADD28O,.2165X.1378*%
%ADD17R,.0315X.0394*%
%ADD14R,.063X.0945*%
%ADD27R,.0554X.0554*%
%ADD21R,.0394X.0374*%
%AMMACRO18*
21,1,.0374,.0394,0.0,0.0,45.*%
%ADD18MACRO18*%
%ADD13R,.0374X.0394*%
%ADD20R,.0709X.0709*%
%ADD24R,.0866X.0571*%
%ADD23R,.0472X.0787*%
%ADD33C,.006*%
%ADD34C,.01*%
%ADD35C,.03*%
%ADD36C,.05*%
%ADD37C,.08*%
%ADD38C,.056*%
%ADD40C,.0818*%
%ADD41C,.0972*%
%ADD39C,.0678*%
G75*
%LPD*%
G75*
G36*
G01X15760Y125910D02*
X213430D01*
G02X213900Y125580I1J-499D01*
G01X214280Y124550D01*
X214200Y124250D01*
X214080Y124150D01*
G03X209440Y114190I8370J-9960D01*
G03X222440Y101190I13000J0D01*
G03X228730Y102810I7J12992D01*
G01X228850Y102880D01*
X229110Y102870D01*
X229960Y102370D01*
G02X230210Y101940I-250J-433D01*
G01Y-101910D01*
G02X229960Y-102340I-500J3D01*
G01X229110Y-102840D01*
X228850Y-102850D01*
X228730Y-102780D01*
G03X222440Y-101160I-6283J-11372D01*
G01X222410D01*
G02X222280Y-100180I1J499D01*
G03X220950Y-89860I-1336J5074D01*
G01X213060Y-89850D01*
G03X213050Y-100340I0J-5245D01*
G01X216810Y-100350D01*
G02X217290Y-100740I-6J-497D01*
G01X217530Y-101880D01*
X217380Y-102190D01*
X217210Y-102260D01*
G03X209440Y-114160I5228J-11900D01*
G03X214110Y-124140I12999J0D01*
G01X214240Y-124250D01*
X214320Y-124550D01*
X213940Y-125580D01*
G02X213470Y-125910I-470J169D01*
G01X-129610D01*
G02X-131570Y-123950I0J1960D01*
G01Y-107830D01*
G03X-138110Y-101290I-6540J0D01*
G01X-184290D01*
G03X-190830Y-107830I0J-6540D01*
G01Y-123950D01*
G02X-192790Y-125910I-1960J0D01*
G01X-213470D01*
G02X-213940Y-125580I0J499D01*
G01X-214320Y-124550D01*
X-214240Y-124250D01*
X-214110Y-124140D01*
G03X-209440Y-114160I-8329J9980D01*
G03X-215470Y-103190I-12994J0D01*
G01X-215600Y-103110D01*
X-215710Y-102850D01*
X-215540Y-101640D01*
X-215350Y-101420D01*
X-215200Y-101380D01*
G03X-211640Y-96700I-1296J4680D01*
G03X-213970Y-92550I-4861J0D01*
G02X-214210Y-92130I261J428D01*
G01Y-91270D01*
G02X-213970Y-90850I501J-8D01*
G03X-211640Y-86700I-2531J4150D01*
G03X-221360I-4860J0D01*
G03X-219030Y-90850I4861J0D01*
G02X-218790Y-91270I-261J-428D01*
G01Y-92130D01*
G02X-219030Y-92550I-501J8D01*
G03X-221360Y-96700I2531J-4150D01*
G03X-220390Y-99620I4862J-6D01*
G01X-220290Y-99740D01*
X-220280Y-100020D01*
X-220870Y-101090D01*
X-221120Y-101230D01*
X-221280Y-101210D01*
G03X-222440Y-101160I-1139J-12951D01*
G03X-228730Y-102780I-7J-12992D01*
G01X-228850Y-102850D01*
X-229110Y-102840D01*
X-229960Y-102340D01*
G02X-230210Y-101910I250J433D01*
G01Y101940D01*
G02X-229960Y102370I500J-3D01*
G01X-229110Y102870D01*
X-228850Y102880D01*
X-228730Y102810D01*
G03X-222440Y101190I6283J11372D01*
G03X-209440Y114190I0J13000D01*
G03X-214080Y124150I-13010J0D01*
G01X-214200Y124250D01*
X-214280Y124550D01*
X-213900Y125580D01*
G02X-213430Y125910I469J-169D01*
G01X-1480D01*
G02X-1000Y125570I6J-501D01*
G01X-640Y124520D01*
X-730Y124230D01*
X-860Y124120D01*
G03X-2720Y120300I2993J-3820D01*
G03X-390Y116150I4861J0D01*
G02X-150Y115730I-261J-428D01*
G01Y114870D01*
G02X-390Y114450I-501J8D01*
G03X-2720Y110300I2531J-4150D01*
G03X2140Y105440I4860J0D01*
G03X6290Y107770I0J4861D01*
G02X6710Y108010I428J-261D01*
G01X7570D01*
G02X7990Y107770I-8J-501D01*
G03X10230Y105830I4151J2529D01*
G01X10370Y105770D01*
X10530Y105530D01*
Y94160D01*
G02X10410Y93830I-500J-5D01*
G03X9830Y92300I1728J-1530D01*
G03X12140Y89990I2310J0D01*
G01X17000D01*
G03X19310Y92300I0J2310D01*
G03X18730Y93830I-2308J0D01*
G02X18610Y94160I380J325D01*
G01Y115440D01*
G03X18140Y116580I-1618J0D01*
G01X16650Y118070D01*
X16590Y118350D01*
X16650Y118490D01*
G03X17000Y120300I-4505J1810D01*
G03X15140Y124120I-4853J0D01*
G01X15010Y124230D01*
X14920Y124520D01*
X15280Y125570D01*
G02X15760Y125910I474J-161D01*
G37*
%LPC*%
G75*
G36*
G01X186110Y102270D02*
X193990D01*
G02Y91770I0J-5250D01*
G01X186110D01*
G02Y102270I0J5250D01*
G37*
G36*
G01X35070Y-37280D02*
Y-31580D01*
G02X36380Y-30260I1310J10D01*
G01X45040D01*
G02X46350Y-31580I0J-1310D01*
G01Y-37280D01*
G02X45040Y-38600I-1310J-10D01*
G01X36380D01*
G02X35070Y-37280I0J1310D01*
G37*
G36*
G01X67740D02*
Y-31580D01*
G02X69050Y-30260I1310J10D01*
G01X77710D01*
G02X79020Y-31580I0J-1310D01*
G01Y-37280D01*
G02X77710Y-38600I-1310J-10D01*
G01X69050D01*
G02X67740Y-37280I0J1310D01*
G37*
G36*
G01X35070Y-90820D02*
Y-85120D01*
G02X36380Y-83800I1310J10D01*
G01X45040D01*
G02X46350Y-85120I0J-1310D01*
G01Y-90820D01*
G02X45040Y-92140I-1310J-10D01*
G01X36380D01*
G02X35070Y-90820I0J1310D01*
G37*
G36*
G01X67740D02*
Y-85120D01*
G02X69050Y-83800I1310J10D01*
G01X77710D01*
G02X79020Y-85120I0J-1310D01*
G01Y-90820D01*
G02X77710Y-92140I-1310J-10D01*
G01X69050D01*
G02X67740Y-90820I0J1310D01*
G37*
G36*
G01X-134850Y76500D02*
Y85960D01*
G02X-133540Y87270I1310J0D01*
G01X-127240D01*
G02X-125930Y85960I0J-1310D01*
G01Y76500D01*
G02X-127240Y75190I-1310J0D01*
G01X-133540D01*
G02X-134850Y76500I0J1310D01*
G37*
G36*
G01Y53040D02*
Y62500D01*
G02X-133540Y63810I1310J0D01*
G01X-127240D01*
G02X-125930Y62500I0J-1310D01*
G01Y53040D01*
G02X-127240Y51730I-1310J0D01*
G01X-133540D01*
G02X-134850Y53040I0J1310D01*
G37*
G36*
G01X-94190Y5640D02*
X-96830Y8280D01*
G02Y10140I924J930D01*
G01X-94050Y12920D01*
G02X-92190I930J-924D01*
G01X-89550Y10280D01*
G02Y8420I-924J-930D01*
G01X-92330Y5640D01*
G02X-94190I-930J924D01*
G37*
G36*
G01X-58560Y-9490D02*
X-61200Y-6850D01*
G02Y-4990I924J930D01*
G01X-58420Y-2210D01*
G02X-56560I930J-924D01*
G01X-53920Y-4850D01*
G02Y-6710I-924J-930D01*
G01X-56700Y-9490D01*
G02X-58560I-930J924D01*
G37*
G36*
G01X-26750Y-28260D02*
X-29390Y-25620D01*
G02Y-23760I924J930D01*
G01X-26610Y-20980D01*
G02X-24750I930J-924D01*
G01X-22110Y-23620D01*
G02Y-25480I-924J-930D01*
G01X-24890Y-28260D01*
G02X-26750I-930J924D01*
G37*
G36*
G01X182720Y18580D02*
Y22320D01*
G02X184030Y23630I1310J0D01*
G01X187970D01*
G02X189280Y22320I0J-1310D01*
G01Y18580D01*
G02X187970Y17270I-1310J0D01*
G01X184030D01*
G02X182720Y18580I0J1310D01*
G37*
G36*
G01X-198980Y-72680D02*
Y-69520D01*
G02X-197670Y-68210I1310J0D01*
G01X-193730D01*
G02X-192420Y-69520I0J-1310D01*
G01Y-72680D01*
G02X-193730Y-73990I-1310J0D01*
G01X-197670D01*
G02X-198980Y-72680I0J1310D01*
G37*
G36*
G01X-17040Y-18540D02*
X-19260Y-16320D01*
G02Y-14460I923J930D01*
G01X-16480Y-11680D01*
G02X-14620I930J-923D01*
G01X-12400Y-13900D01*
G02Y-15760I-923J-930D01*
G01X-15180Y-18540D01*
G02X-17040I-930J923D01*
G37*
G36*
G01X-163700Y50250D02*
Y54190D01*
G02X-162390Y55500I1310J0D01*
G01X-158650D01*
G02X-157340Y54190I0J-1310D01*
G01Y50250D01*
G02X-158650Y48940I-1310J0D01*
G01X-162390D01*
G02X-163700Y50250I0J1310D01*
G37*
G36*
G01X-60820Y35600D02*
X-63600Y38380D01*
G02Y40240I924J930D01*
G01X-60960Y42880D01*
G02X-59100I930J-924D01*
G01X-56320Y40100D01*
G02Y38240I-924J-930D01*
G01X-58960Y35600D01*
G02X-60820I-930J924D01*
G37*
G36*
G01X-69820Y26100D02*
X-72600Y28880D01*
G02Y30740I924J930D01*
G01X-69960Y33380D01*
G02X-68100I930J-924D01*
G01X-65320Y30600D01*
G02Y28740I-924J-930D01*
G01X-67960Y26100D01*
G02X-69820I-930J924D01*
G37*
G36*
G01X-30540Y14070D02*
X-33320Y16850D01*
G02Y18710I924J930D01*
G01X-30680Y21350D01*
G02X-28820I930J-924D01*
G01X-26040Y18570D01*
G02Y16710I-924J-930D01*
G01X-28680Y14070D01*
G02X-30540I-930J924D01*
G37*
G36*
G01X-77070Y-40960D02*
X-79850Y-38180D01*
G02Y-36320I924J930D01*
G01X-77210Y-33680D01*
G02X-75350I930J-924D01*
G01X-72570Y-36460D01*
G02Y-38320I-924J-930D01*
G01X-75210Y-40960D01*
G02X-77070I-930J924D01*
G37*
G36*
G01X-15560Y-910D02*
X-18340Y1870D01*
G02Y3730I924J930D01*
G01X-15700Y6370D01*
G02X-13840I930J-924D01*
G01X-11060Y3590D01*
G02Y1730I-924J-930D01*
G01X-13700Y-910D01*
G02X-15560I-930J924D01*
G37*
G36*
G01X220950Y-52060D02*
G02X220940Y-62550I-10J-5245D01*
G01X213050Y-62540D01*
G02X213060Y-52050I10J5245D01*
G01X220950Y-52060D01*
G37*
G36*
G01X161480Y-82650D02*
X111160D01*
G02Y-75030I0J3810D01*
G01X161480D01*
G02X176460Y-81240I-7J-21189D01*
G01X177010Y-81780D01*
X177260Y-81850D01*
X177400Y-81810D01*
G02X179560Y-81520I2162J-7910D01*
G01X187440D01*
G02Y-97920I-5J-8200D01*
G01X179560D01*
G02X171650Y-87560I3J8202D01*
G01X171690Y-87420D01*
X171620Y-87170D01*
X171080Y-86620D01*
G03X161480Y-82650I-9593J-9605D01*
G37*
G36*
G01X191510Y-69980D02*
G02X175300Y-68220I-8009J1763D01*
G01Y-60340D01*
G02X191510Y-58580I8201J-3D01*
G01X191550Y-58750D01*
X191810Y-58970D01*
X193550D01*
G02X210310Y-65920I0J-23683D01*
G01X215120Y-70740D01*
G03X215470Y-70890I358J352D01*
G01X217010D01*
G02X217800Y-70950I-6J-5310D01*
G01X217840Y-70960D01*
X220950D01*
G02X220940Y-81450I-10J-5245D01*
G01X217790D01*
G02X216990Y-81510I-796J5250D01*
G01X213050Y-81500D01*
G02X209300Y-79940I10J5310D01*
G01X202790Y-73420D01*
G03X193550Y-69590I-9240J-9231D01*
G01X191810D01*
X191550Y-69810D01*
X191510Y-69980D01*
G37*
G36*
G01X-89880Y-65210D02*
X-78380Y-53710D01*
X-78310Y-53560D01*
Y-53460D01*
G02X-75990Y-51280I2320J-144D01*
G02X-73670Y-53600I0J-2320D01*
G02X-73800Y-54380I-2322J-14D01*
G03X-73750Y-54820I469J-170D01*
G02X-73690Y-54920I-1958J-1243D01*
G01X-73640Y-55010D01*
X-73510Y-55110D01*
X-72680Y-55380D01*
X-72520Y-55370D01*
X-72420Y-55330D01*
G02X-71500Y-55140I920J-2132D01*
G02X-69180Y-57460I0J-2320D01*
G02X-71360Y-59780I-2324J0D01*
G01X-71460D01*
X-71610Y-59850D01*
X-90900Y-79140D01*
G02X-92040Y-79610I-1140J1148D01*
G01X-160830D01*
G03X-161180Y-79760I7J-500D01*
G01X-179260Y-97840D01*
G02X-180400Y-98310I-1140J1148D01*
G01X-185330D01*
G03X-185660Y-98440I6J-499D01*
G02X-187200Y-99020I-1535J1742D01*
G02Y-94380I0J2320D01*
G02X-185660Y-94960I5J-2322D01*
G03X-185330Y-95090I336J369D01*
G01X-181270D01*
G03X-180920Y-94940I-7J500D01*
G01X-162840Y-76860D01*
G02X-161700Y-76390I1140J-1148D01*
G01X-92910D01*
G03X-92560Y-76240I-7J500D01*
G01X-90210Y-73890D01*
G03X-90080Y-73440I-357J347D01*
G01X-90270Y-72490D01*
X-90430Y-72310D01*
X-90550Y-72260D01*
G02X-92020Y-70100I852J2160D01*
G02X-91880Y-69310I2319J-4D01*
G03X-91930Y-68870I-471J169D01*
G02X-92310Y-67600I1932J1270D01*
G02X-90130Y-65280I2324J0D01*
G01X-90030D01*
X-89880Y-65210D01*
G37*
G36*
G01X-27480Y-66990D02*
X-39280Y-55190D01*
X-39430Y-55120D01*
X-39530D01*
G02X-41710Y-52800I144J2320D01*
G02X-39390Y-50480I2320J0D01*
G02X-37070Y-52660I0J-2324D01*
G01Y-52760D01*
X-37000Y-52910D01*
X-25200Y-64710D01*
X-25050Y-64780D01*
X-24950D01*
G02X-22770Y-67100I-144J-2320D01*
G02X-25090Y-69420I-2320J0D01*
G02X-27410Y-67240I0J2324D01*
G01Y-67140D01*
X-27480Y-66990D01*
G37*
G36*
G01X8910Y-48800D02*
X9680Y-48090D01*
X9770Y-47870D01*
X9750Y-47750D01*
G02X9740Y-47500I2311J218D01*
G02X14380I2320J0D01*
G02X13800Y-49040I-2322J-5D01*
G03X13670Y-49370I369J-336D01*
G01Y-53940D01*
G03X13790Y-54270I500J-5D01*
G02X14370Y-55800I-1728J-1530D01*
G02X12060Y-58110I-2310J0D01*
G01X8100D01*
G02X5790Y-55800I0J2310D01*
G01Y-51100D01*
G02X8100Y-48790I2310J0D01*
G02X8560Y-48840I-18J-2308D01*
G01X8680Y-48860D01*
X8910Y-48800D01*
G37*
G36*
G01X16880Y-53940D02*
Y-45760D01*
G03X16760Y-45430I-500J5D01*
G02X16180Y-43900I1728J1530D01*
G02X18490Y-41590I2310J0D01*
G01X21200D01*
G02X23510Y-43900I0J-2310D01*
G02X22930Y-45430I-2308J0D01*
G03X22810Y-45760I380J-325D01*
G01Y-53930D01*
G03X22940Y-54260I499J6D01*
G02X23520Y-55800I-1742J-1535D01*
G02X21200Y-58120I-2320J0D01*
G02X20090Y-57840I-5J2321D01*
G03X19610I-240J-438D01*
G02X18490Y-58130I-1120J2018D01*
G02X16170Y-55810I0J2320D01*
G02X16750Y-54270I2322J5D01*
G03X16880Y-53940I-369J336D01*
G37*
G36*
G01X-147730Y-33710D02*
Y-29770D01*
G02X-146420Y-28460I1310J0D01*
G01X-142680D01*
G02X-141370Y-29770I0J-1310D01*
G01Y-33710D01*
G02X-141520Y-34320I-1315J0D01*
G03X-141580Y-34560I440J-237D01*
G01Y-34830D01*
G03X-141520Y-35070I500J-3D01*
G02X-141370Y-35680I-1165J-610D01*
G01Y-39620D01*
G02X-142680Y-40930I-1310J0D01*
G01X-146420D01*
G02X-147730Y-39620I0J1310D01*
G01Y-35680D01*
G02X-147580Y-35070I1315J0D01*
G03X-147520Y-34830I-440J237D01*
G01Y-34560D01*
G03X-147580Y-34320I-500J3D01*
G02X-147730Y-33710I1165J610D01*
G37*
G36*
G01X166150Y-17240D02*
X171750Y-11640D01*
X171820Y-11380D01*
X171770Y-11240D01*
G02X171580Y-10000I3901J1232D01*
G02X175670Y-14090I4090J0D01*
G02X174430Y-13900I-8J4091D01*
G01X174290Y-13850D01*
X174030Y-13920D01*
X169410Y-18540D01*
G03X169300Y-19080I353J-353D01*
G01X169360Y-19220D01*
X169610Y-19390D01*
X170220D01*
G03X170570Y-19240I-7J500D01*
G01X170950Y-18860D01*
G02X171690Y-18440I1137J-1141D01*
G03X172010Y-18180I-128J484D01*
G02X175670Y-15910I3660J-1816D01*
G02Y-24090I0J-4090D01*
G02X172580Y-22680I0J4091D01*
G03X172300Y-22520I-374J-329D01*
G01X172010Y-22460D01*
G03X171720Y-22480I-112J-486D01*
G02X171090Y-22610I-634J1479D01*
G01X160570D01*
G03X160170Y-22810I0J-499D01*
G01X159620Y-23540D01*
X159570Y-23770D01*
X159600Y-23880D01*
G02X159760Y-25000I-3928J-1133D01*
G02X151580I-4090J0D01*
G02X151810Y-23650I4077J0D01*
G03Y-23340I-474J155D01*
G01X151730Y-23070D01*
G03X151560Y-22820I-479J-143D01*
G02X150680Y-21000I1442J1820D01*
G02X152000Y-18910I2315J0D01*
G01X152100Y-18860D01*
X152240Y-18690D01*
X152480Y-17720D01*
X152440Y-17510D01*
X152370Y-17420D01*
G02X151580Y-15000I3312J2420D01*
G02X159760I4090J0D01*
G02X159560Y-16270I-4091J-6D01*
G03Y-16590I474J-160D01*
G01X159660Y-16860D01*
G03X159840Y-17110I476J153D01*
G02X160040Y-17260I-1290J-1928D01*
G03X160370Y-17390I336J369D01*
G01X165800D01*
G03X166150Y-17240I-7J500D01*
G37*
G36*
G01X-164500Y40100D02*
G02X-164970Y41210I1141J1138D01*
G03X-165100Y41530I-499J-16D01*
G02X-165680Y43070I1742J1535D01*
G02X-161040I2320J0D01*
G02X-161310Y41970I-2323J-13D01*
G01X-161400Y41820D01*
X-161350Y41510D01*
X-133410Y13570D01*
X-133260Y13500D01*
X-133160D01*
G02X-130980Y11180I-144J-2320D01*
G02X-133300Y8860I-2320J0D01*
G02X-135620Y11040I0J2324D01*
G01Y11140D01*
X-135690Y11290D01*
X-164500Y40100D01*
G37*
G36*
G01X69360Y76390D02*
X75690D01*
Y76510D01*
X94310D01*
G02X94810Y76010I0J-500D01*
G01Y56590D01*
G02X94310Y56090I-500J0D01*
G01X76190D01*
G02X75690Y56590I-1J500D01*
G01Y66170D01*
G03X75190Y66670I-499J1D01*
G01X69360D01*
G02X68040Y67980I-5J1315D01*
G01Y75080D01*
G02X69360Y76390I1315J-5D01*
G37*
G36*
G01X-190710Y70670D02*
Y73830D01*
G03X-190840Y74160I-499J-6D01*
G02X-191420Y75700I1742J1535D01*
G02X-186780I2320J0D01*
G02X-186800Y75410I-2319J14D01*
G03X-186720Y75080I496J-54D01*
G01X-186560Y74820D01*
G03X-186290Y74610I423J266D01*
G02X-184680Y72400I-712J-2210D01*
G02X-185260Y70860I-2322J-5D01*
G03X-185390Y70530I369J-336D01*
G01Y67570D01*
G03X-185260Y67240I499J6D01*
G02X-184680Y65700I-1742J-1535D01*
G02X-189320I-2320J0D01*
G01Y65840D01*
G03X-189400Y66150I-497J37D01*
G01X-189570Y66400D01*
G03X-189830Y66600I-418J-275D01*
G02X-191420Y68800I727J2200D01*
G02X-190840Y70340I2322J5D01*
G03X-190710Y70670I-369J336D01*
G37*
G36*
G01X-183120Y70260D02*
Y74540D01*
G03X-183240Y74870I-500J5D01*
G02X-183820Y76400I1728J1530D01*
G02X-181510Y78710I2310J0D01*
G01X-167520D01*
G02X-165210Y76400I0J-2310D01*
G02X-165790Y74870I-2308J0D01*
G03X-165910Y74540I380J-325D01*
G01Y70260D01*
G03X-165790Y69930I500J-5D01*
G02X-165210Y68400I-1728J-1530D01*
G02X-167520Y66090I-2310J0D01*
G01X-181510D01*
G02X-183820Y68400I0J2310D01*
G02X-183240Y69930I2308J0D01*
G03X-183120Y70260I-380J325D01*
G37*
G36*
G01X144330Y82330D02*
X174460D01*
G03X174960Y82830I1J499D01*
G01Y83440D01*
G02X185460I5250J5D01*
G01Y73600D01*
G02X174960I-5250J-5D01*
G01Y74210D01*
G03X174460Y74710I-499J1D01*
G01X144750D01*
G02X144300Y74680I-478J3778D01*
G01X110830D01*
G02Y82300I0J3810D01*
G01X143880D01*
G02X144330Y82330I478J-3778D01*
G37*
G36*
G01X13490Y70780D02*
G02X17100Y79490I12327J-6D01*
G01X21760Y84160D01*
X21800Y84500D01*
X21710Y84650D01*
G02X21520Y85330I1122J680D01*
G01Y89270D01*
G02X22150Y90390I1311J0D01*
G01X22260Y90460D01*
X22390Y90690D01*
Y91610D01*
X22190Y91870D01*
X22010Y91920D01*
G02X21030Y93180I329J1267D01*
G01Y101060D01*
G02X22340Y102370I1310J0D01*
G01X27060D01*
G02X28370Y101060I0J-1310D01*
G01Y99930D01*
G03X28870Y99430I500J0D01*
G01X57070D01*
G02Y94810I0J-2310D01*
G01X28870D01*
G03X28370Y94310I0J-500D01*
G01Y93180D01*
G02X27390Y91920I-1309J7D01*
G01X27210Y91870D01*
X27010Y91610D01*
Y90690D01*
X27140Y90460D01*
X27250Y90390D01*
G02X27880Y89270I-681J-1120D01*
G01Y85330D01*
G02X27090Y84130I-1306J0D01*
G03X26800Y83800I194J-463D01*
G02X25240Y81110I-5816J1576D01*
G01X20360Y76230D01*
G03X18110Y70780I5461J-5444D01*
G01Y21070D01*
G02X14500Y12360I-12327J6D01*
G01X-3550Y-5700D01*
X-3620Y-5950D01*
X-3590Y-6080D01*
G02X-3940Y-7320I-1274J-310D01*
G01X-6720Y-10100D01*
G02X-8580I-930J924D01*
G01X-11220Y-7460D01*
G02Y-5600I924J930D01*
G01X-8440Y-2820D01*
G02X-7200Y-2470I930J-924D01*
G01X-7070Y-2500D01*
X-6820Y-2430D01*
X11240Y15620D01*
G03X13490Y21070I-5461J5444D01*
G01Y70780D01*
G37*
G36*
G01X69090Y93110D02*
Y97500D01*
G03X68990Y97800I-499J0D01*
G02X68040Y100690I3921J2890D01*
G02X77760I4860J0D01*
G02X76810Y97800I-4871J0D01*
G03X76710Y97500I399J-300D01*
G01Y93110D01*
X76860Y92870D01*
X77000Y92800D01*
G02X77760Y91620I-551J-1190D01*
G01Y84520D01*
G02X76440Y83210I-1315J5D01*
G01X69360D01*
G02X68040Y84520I-5J1315D01*
G01Y91620D01*
G02X68800Y92800I1311J-10D01*
G01X68940Y92870D01*
X69090Y93110D01*
G37*
G36*
G01X-980Y-98610D02*
G02X7320I4150J-2531D01*
G03X7740Y-98850I428J261D01*
G01X8600D01*
G03X9020Y-98610I-8J501D01*
G02X13170Y-96280I4150J-2531D01*
G02Y-106000I0J-4860D01*
G02X9020Y-103670I0J4861D01*
G03X8600Y-103430I-428J-261D01*
G01X7740D01*
G03X7320Y-103670I8J-501D01*
G02X-980I-4150J2531D01*
G03X-1400Y-103430I-428J-261D01*
G01X-2260D01*
G03X-2680Y-103670I8J-501D01*
G02X-6830Y-106000I-4150J2531D01*
G02Y-96280I0J4860D01*
G02X-2680Y-98610I0J-4861D01*
G03X-2260Y-98850I428J261D01*
G01X-1400D01*
G03X-980Y-98610I-8J501D01*
G37*
G36*
G01X141120D02*
G02X149420I4150J-2531D01*
G03X149840Y-98850I428J261D01*
G01X150700D01*
G03X151120Y-98610I-8J501D01*
G02X155270Y-96280I4150J-2531D01*
G02Y-106000I0J-4860D01*
G02X151120Y-103670I0J4861D01*
G03X150700Y-103430I-428J-261D01*
G01X149840D01*
G03X149420Y-103670I8J-501D01*
G02X141120I-4150J2531D01*
G03X140700Y-103430I-428J-261D01*
G01X139840D01*
G03X139420Y-103670I8J-501D01*
G02X131120I-4150J2531D01*
G03X130700Y-103430I-428J-261D01*
G01X129840D01*
G03X129420Y-103670I8J-501D01*
G02X125270Y-106000I-4150J2531D01*
G02Y-96280I0J4860D01*
G02X129420Y-98610I0J-4861D01*
G03X129840Y-98850I428J261D01*
G01X130700D01*
G03X131120Y-98610I-8J501D01*
G02X139420I4150J-2531D01*
G03X139840Y-98850I428J261D01*
G01X140700D01*
G03X141120Y-98610I-8J501D01*
G37*
G36*
G01X-130940Y-86160D02*
X-129280Y-84500D01*
X-129210Y-84350D01*
Y-84250D01*
G02X-126900Y-82090I2310J-155D01*
G02X-125270Y-82770I-6J-2308D01*
G01X-101090Y-106950D01*
G02X-100410Y-108580I-1628J-1636D01*
G01Y-110550D01*
G03X-100250Y-110910I499J6D01*
G01X-99660Y-111480D01*
X-99470Y-111550D01*
X-99360D01*
G02X-99140Y-111540I330J-4845D01*
G02Y-121260I0J-4860D01*
G02X-103290Y-118930I0J4861D01*
G03X-103710Y-118690I-428J-261D01*
G01X-104570D01*
G03X-104990Y-118930I8J-501D01*
G02X-113290I-4150J2531D01*
G03X-113710Y-118690I-428J-261D01*
G01X-114570D01*
G03X-114990Y-118930I8J-501D01*
G02X-119140Y-121260I-4150J2531D01*
G02X-124000Y-116400I0J4860D01*
G02X-121050Y-111930I4862J0D01*
G01X-120910Y-111870D01*
X-120750Y-111630D01*
Y-105330D01*
G03X-120900Y-104980I-500J-7D01*
G01X-122910Y-102970D01*
G03X-123420Y-102850I-352J-354D01*
G01X-124410Y-103180D01*
X-124580Y-103390D01*
X-124600Y-103530D01*
G02X-126900Y-105520I-2300J334D01*
G02X-129220Y-103340I0J2324D01*
G01Y-103240D01*
X-129290Y-103090D01*
X-130940Y-101440D01*
G02X-131410Y-100300I1148J1140D01*
G01Y-87300D01*
G02X-130940Y-86160I1618J0D01*
G37*
G36*
G01X-66630Y-49530D02*
X-63990Y-46890D01*
G02X-62130I930J-924D01*
G01X-59350Y-49670D01*
G02X-58970Y-50450I-923J-932D01*
G01X-58960Y-50540D01*
X-58900Y-50680D01*
X-58330Y-51250D01*
X-58190Y-51310D01*
X-58100Y-51320D01*
G02X-57320Y-51700I-152J-1303D01*
G01X-54540Y-54480D01*
G02Y-56340I-924J-930D01*
G01X-57180Y-58980D01*
G02X-59040I-930J924D01*
G01X-61820Y-56200D01*
G02X-62200Y-55420I923J932D01*
G01X-62210Y-55330D01*
X-62270Y-55190D01*
X-62840Y-54620D01*
X-62980Y-54560D01*
X-63070Y-54550D01*
G02X-63850Y-54170I152J1303D01*
G01X-66630Y-51390D01*
G02Y-49530I924J930D01*
G37*
G36*
G01X-43250Y-37620D02*
X-40470Y-34840D01*
G02X-38610I930J-924D01*
G01X-35970Y-37480D01*
G02X-35710Y-38960I-926J-926D01*
G01X-35770Y-39110D01*
X-35720Y-39410D01*
X-15570Y-59570D01*
G02X-14900Y-60930I-1623J-1645D01*
G01X-14890Y-61090D01*
X-14720Y-61300D01*
X-13720Y-61650D01*
G03X-13200Y-61530I164J475D01*
G01X-12140Y-60460D01*
G02X-11000Y-59990I1140J-1148D01*
G01X31230D01*
G03X31580Y-59840I-7J500D01*
G01X48680Y-42740D01*
G02X49820Y-42270I1140J-1148D01*
G01X58630D01*
X58890Y-42080D01*
X58940Y-41910D01*
G02X60180Y-40990I1240J-376D01*
G01X66120D01*
G02X67420Y-42290I0J-1300D01*
G01Y-49800D01*
G02X66120Y-51100I-1300J0D01*
G01X60180D01*
G02X58940Y-50180I0J1296D01*
G01X58890Y-50010D01*
X58630Y-49820D01*
X47920D01*
G03X47570Y-49970I7J-500D01*
G01X43130Y-54410D01*
G03X43020Y-54950I353J-353D01*
G01X43080Y-55090D01*
X43330Y-55260D01*
X58630D01*
X58890Y-55070D01*
X58940Y-54900D01*
G02X60180Y-53980I1240J-376D01*
G01X66120D01*
G02X67420Y-55280I0J-1300D01*
G01Y-75780D01*
G02X66120Y-77080I-1300J0D01*
G01X60410D01*
G03X59910Y-77580I0J-500D01*
G01Y-96370D01*
X60070Y-96610D01*
X60210Y-96670D01*
G02X62450Y-98610I-1911J-4469D01*
G03X62870Y-98850I428J261D01*
G01X63730D01*
G03X64150Y-98610I-8J501D01*
G02X68300Y-96280I4150J-2531D01*
G02Y-106000I0J-4860D01*
G02X64150Y-103670I0J4861D01*
G03X63730Y-103430I-428J-261D01*
G01X62870D01*
G03X62450Y-103670I8J-501D01*
G02X54150I-4150J2531D01*
G03X53730Y-103430I-428J-261D01*
G01X52870D01*
G03X52450Y-103670I8J-501D01*
G02X48300Y-106000I-4150J2531D01*
G02Y-96280I0J4860D01*
G02X50110Y-96630I0J-4855D01*
G01X50250Y-96690D01*
X50530Y-96630D01*
X55240Y-91920D01*
G03X55390Y-91570I-350J357D01*
G01Y-74370D01*
G02X55860Y-73230I1618J0D01*
G01X58730Y-70360D01*
G03X58880Y-70010I-349J357D01*
G01Y-58980D01*
G03X58380Y-58480I-500J0D01*
G01X40820D01*
G03X40470Y-58630I7J-500D01*
G01X33460Y-65640D01*
G02X32320Y-66110I-1140J1148D01*
G01X-6830D01*
G03X-7160Y-66240I6J-499D01*
G02X-8700Y-66820I-1535J1742D01*
G02X-10160Y-66310I-8J2323D01*
G01X-10230Y-66240D01*
X-10390Y-66190D01*
X-11160Y-66230D01*
G03X-11490Y-66380I28J-499D01*
G01X-28050Y-82940D01*
G02X-29190Y-83410I-1140J1148D01*
G01X-47090D01*
G02X-48230Y-82940I0J1618D01*
G01X-61090Y-70080D01*
X-61240Y-70010D01*
X-61340D01*
G02X-63520Y-67690I144J2320D01*
G02X-61200Y-65370I2320J0D01*
G02X-60910Y-65390I-14J-2319D01*
G01X-60800Y-65400D01*
X-60630Y-65350D01*
X-59900Y-64780D01*
X-59810Y-64620D01*
X-59790Y-64510D01*
G02X-58080Y-62550I2301J-281D01*
G03X-57740Y-62250I-126J486D01*
G02X-55600Y-60820I2140J-886D01*
G02X-53280Y-63000I0J-2324D01*
G01Y-63100D01*
X-53210Y-63250D01*
X-49390Y-67070D01*
G03X-49000Y-67220I358J350D01*
G01X-48130Y-67150D01*
X-47940Y-67040D01*
X-47870Y-66950D01*
G02X-47630Y-66670I1866J-1357D01*
G01X-45790Y-64810D01*
G02X-45490Y-64550I1656J-1608D01*
G01X-45400Y-64490D01*
X-45290Y-64300D01*
X-45220Y-63420D01*
G03X-45360Y-63030I-496J42D01*
G01X-46250Y-62140D01*
X-46400Y-62070D01*
X-46500D01*
G02X-48660Y-59760I155J2310D01*
G02X-47980Y-58130I2308J-6D01*
G01X-45190Y-55350D01*
G02X-43560Y-54670I1636J-1628D01*
G02X-41250Y-56830I0J-2315D01*
G01Y-56930D01*
X-41180Y-57080D01*
X-30900Y-67360D01*
X-30750Y-67430D01*
X-30650D01*
G02X-28600Y-68980I-141J-2318D01*
G03X-28280Y-69290I471J166D01*
G02X-26670Y-71500I-712J-2210D01*
G02X-28990Y-73820I-2320J0D01*
G02X-30430Y-73320I0J2324D01*
G01X-30500Y-73260D01*
X-30650Y-73210D01*
X-30940D01*
X-31190Y-73380D01*
X-31240Y-73530D01*
G02X-33410Y-75020I-2170J835D01*
G02X-35600Y-73460I0J2317D01*
G03X-36500Y-73360I-474J-163D01*
G02X-36830Y-73770I-1950J1232D01*
G01X-40580Y-77530D01*
G03X-40690Y-78070I353J-353D01*
G01X-40630Y-78210D01*
X-40380Y-78380D01*
X-30260D01*
G03X-29910Y-78230I-7J500D01*
G01X-16870Y-65200D01*
G03X-16750Y-64680I-355J356D01*
G01X-17100Y-63680D01*
X-17310Y-63510D01*
X-17470Y-63500D01*
G02X-18830Y-62830I285J2293D01*
G01X-39130Y-42540D01*
X-39350Y-42470D01*
X-39470Y-42490D01*
G02X-40610Y-42120I-210J1294D01*
G01X-43250Y-39480D01*
G02Y-37620I924J930D01*
G37*
G36*
G01X-95270Y-20910D02*
X-92630Y-18270D01*
G02X-90770I930J-924D01*
G01X-87990Y-21050D01*
G02Y-22910I-924J-930D01*
G01X-90630Y-25550D01*
G02X-91940Y-25880I-929J924D01*
G01X-92070Y-25840D01*
X-92340Y-25910D01*
X-104940Y-38500D01*
G02X-113650Y-42110I-8716J8717D01*
G01X-119600D01*
G02X-121910Y-39800I0J2310D01*
G02X-121050Y-38000I2314J0D01*
G01X-120960Y-37920D01*
X-120860Y-37730D01*
Y-37610D01*
G03X-121360Y-37110I-501J-1D01*
G01X-121660D01*
G03X-122010Y-37260I7J-500D01*
G01X-124610Y-39860D01*
X-124680Y-40010D01*
Y-40110D01*
G02X-127000Y-42290I-2320J144D01*
G02X-129320Y-39970I0J2320D01*
G02X-127140Y-37650I2324J0D01*
G01X-127040D01*
X-126890Y-37580D01*
X-123670Y-34360D01*
G02X-122530Y-33890I1140J-1148D01*
G01X-117210D01*
G03X-116860Y-33740I-7J500D01*
G01X-114130Y-31010D01*
X-114110Y-30630D01*
X-114240Y-30470D01*
G02X-114170Y-28690I994J852D01*
G01X-111950Y-26470D01*
G02X-111030Y-26080I933J-922D01*
G01X-110920D01*
X-110750Y-26010D01*
X-110110Y-25370D01*
X-110040Y-25200D01*
Y-25090D01*
G02X-109650Y-24170I1312J-13D01*
G01X-107430Y-21950D01*
G02X-105570I930J-923D01*
G01X-102790Y-24730D01*
G02Y-26590I-923J-930D01*
G01X-105010Y-28810D01*
G02X-105930Y-29200I-933J922D01*
G01X-106040D01*
X-106210Y-29270D01*
X-106850Y-29910D01*
X-106920Y-30080D01*
Y-30190D01*
G02X-107310Y-31110I-1312J13D01*
G01X-109530Y-33330D01*
G02X-111310Y-33400I-928J924D01*
G01X-111470Y-33270D01*
X-111850Y-33290D01*
X-115200Y-36640D01*
G03X-115310Y-37180I353J-353D01*
G01X-115250Y-37320D01*
X-115000Y-37490D01*
X-113650D01*
G03X-108200Y-35240I6J7711D01*
G01X-95610Y-22640D01*
X-95550Y-22380D01*
X-95590Y-22240D01*
G02X-95270Y-20910I1246J404D01*
G37*
G36*
G01X98420Y27650D02*
Y28990D01*
G02X103040I2310J0D01*
G01Y26490D01*
G02X102360Y24860I-2308J6D01*
G01X97470Y19970D01*
G02X95840Y19290I-1636J1628D01*
G01X70030D01*
G02X68400Y19970I6J2308D01*
G01X65290Y23070D01*
G03X64940Y23220I-357J-349D01*
G01X59210D01*
G02X58300Y23590I0J1304D01*
G01X58220Y23670D01*
X58050Y23740D01*
X57140D01*
X56970Y23670D01*
X56890Y23600D01*
G02X55980Y23220I-922J928D01*
G01X52820D01*
G02X51660Y23920I0J1312D01*
G01X51600Y24050D01*
X51360Y24190D01*
X48980D01*
X48750Y24050D01*
X48680Y23920D01*
G02X47520Y23220I-1160J611D01*
G01X43780D01*
G02X42470Y24530I0J1310D01*
G01Y28470D01*
G02X43780Y29780I1310J0D01*
G01X47520D01*
G02X48680Y29080I0J-1311D01*
G01X48750Y28950D01*
X48980Y28810D01*
X51360D01*
X51600Y28950D01*
X51660Y29080D01*
G02X52820Y29780I1160J-612D01*
G01X55980D01*
G02X56890Y29400I-12J-1308D01*
G01X56970Y29330D01*
X57140Y29260D01*
X58050D01*
X58220Y29330D01*
X58300Y29410D01*
G02X59210Y29780I910J-934D01*
G01X67110D01*
G02X68410Y28480I0J-1300D01*
G01Y26690D01*
G03X68560Y26340I499J7D01*
G01X70840Y24060D01*
G03X71190Y23910I357J350D01*
G01X94680D01*
G03X95030Y24060I-7J500D01*
G01X98270Y27300D01*
G03X98420Y27650I-350J357D01*
G37*
G36*
G01X169840Y31400D02*
G02X170400Y31120I-748J-2196D01*
G01X170500Y31050D01*
X170720Y31020D01*
X171680Y31310D01*
X171850Y31450D01*
X171890Y31560D01*
G02X175670Y34090I3780J-1559D01*
G02Y25910I0J-4090D01*
G02X172380Y27580I6J4087D01*
G01X172310Y27670D01*
X172120Y27770D01*
X171110Y27820D01*
X170910Y27740D01*
X170830Y27650D01*
G02X169100Y26880I-1730J1558D01*
G02X167560Y27460I-5J2322D01*
G03X167230Y27590I-336J-369D01*
G01X160510D01*
G03X160100Y27380I-3J-500D01*
G01X159550Y26630D01*
X159520Y26400D01*
X159560Y26280D01*
G02X159760Y25000I-3893J-1264D01*
G02X159650Y24040I-4092J-17D01*
G01X159620Y23920D01*
X159660Y23710D01*
X160230Y23000D01*
G03X160620Y22810I392J309D01*
G01X172490D01*
G03X172840Y22950I3J501D01*
G02X175670Y24090I2830J-2943D01*
G02Y15910I0J-4090D01*
G02X172840Y17050I0J4083D01*
G03X172490Y17190I-347J-361D01*
G01X160620D01*
G03X160230Y17000I2J-499D01*
G01X159660Y16290D01*
X159620Y16080D01*
X159650Y15960D01*
G02X159760Y15000I-3982J-943D01*
G02X159380Y13280I-4083J0D01*
G01X159340Y13190D01*
X159330Y13020D01*
X159590Y12180D01*
X159690Y12050D01*
X159780Y12000D01*
G02X160140Y11740I-1173J-2004D01*
G03X160470Y11610I336J369D01*
G01X171590D01*
G03X172040Y11880I6J501D01*
G02X175670Y14090I3630J-1876D01*
G02Y5910I0J-4090D01*
G02X172040Y8120I0J4086D01*
G03X171590Y8390I-444J-231D01*
G01X160470D01*
G03X160140Y8260I6J-499D01*
G02X159780Y8000I-1533J1744D01*
G01X159690Y7950D01*
X159590Y7820D01*
X159330Y6980D01*
X159340Y6810D01*
X159380Y6720D01*
G02X159690Y5780I-3702J-1742D01*
G01X159710Y5660D01*
X159820Y5500D01*
X160670Y5000D01*
X160870Y4980D01*
X160980Y5020D01*
G02X161380Y5080I392J-1251D01*
G01X165120D01*
G02X166430Y3770I0J-1310D01*
G01Y-170D01*
G02X165800Y-1290I-1311J0D01*
G01X165690Y-1360D01*
X165560Y-1590D01*
Y-1750D01*
G02X160000Y-7310I-5560J0D01*
G01X159300D01*
G03X158900Y-7500I-7J-502D01*
G02X155670Y-9090I-3236J2497D01*
G02Y-910I0J4090D01*
G02X158900Y-2500I-6J-4087D01*
G03X159300Y-2690I393J312D01*
G01X160000D01*
G03X160940Y-1750I0J940D01*
G01Y-1590D01*
X160810Y-1360D01*
X160700Y-1290D01*
G02X160070Y-170I681J1120D01*
G01Y1210D01*
G03X159770Y1670I-500J2D01*
G01X158800Y2100D01*
X158520Y2060D01*
X158400Y1960D01*
G02X155670Y910I-2735J3038D01*
G02X151580Y5000I0J4090D01*
G02X155360Y9080I4092J0D01*
G01X155460Y9090D01*
X155610Y9160D01*
X156210Y9790D01*
X156280Y9950D01*
Y10050D01*
Y10140D01*
G03X156160Y10500I-497J34D01*
G01X155950Y10740D01*
G03X155580Y10910I-376J-330D01*
G02X151580Y15000I91J4090D01*
G02X151690Y15960I4092J17D01*
G01X151720Y16080D01*
X151680Y16290D01*
X151110Y17000D01*
G03X150720Y17190I-392J-309D01*
G01X137870D01*
G03X137520Y17040I7J-499D01*
G01X136490Y16010D01*
G02X134500Y15190I-1985J1992D01*
G02X131690Y18000I0J2810D01*
G02X132510Y19990I2812J5D01*
G01X134510Y21990D01*
G02X136500Y22810I1985J-1992D01*
G01X143940D01*
G03X144390Y23090I1J500D01*
G01X144860Y24020D01*
X144830Y24290D01*
X144740Y24410D01*
G02X144370Y25170I1866J1378D01*
G03X144050Y25510I-484J-135D01*
G02X142480Y27700I742J2190D01*
G02X144660Y30020I2324J0D01*
G01X144760D01*
X144910Y30090D01*
X147030Y32210D01*
G02X148170Y32680I1140J-1148D01*
G01X165430D01*
G03X165760Y32810I-6J499D01*
G02X167300Y33390I1535J-1742D01*
G02X169520Y31730I0J-2314D01*
G03X169840Y31400I480J145D01*
G37*
G36*
G01X-54280Y39660D02*
X-51640Y42300D01*
G02X-49780I930J-924D01*
G01X-47000Y39520D01*
G02X-46620Y38690I-927J-926D01*
G01X-46610Y38590D01*
X-46540Y38440D01*
X-45920Y37840D01*
X-45760Y37780D01*
X-45660Y37770D01*
G02X-44780Y37390I-43J-1309D01*
G01X-42000Y34610D01*
G02X-41620Y33810I-925J-930D01*
G01X-41610Y33720D01*
X-41540Y33570D01*
X-40980Y33000D01*
X-40830Y32930D01*
X-40740Y32920D01*
G02X-39960Y32540I-152J-1303D01*
G01X-37180Y29760D01*
G02Y27900I-924J-930D01*
G01X-39820Y25260D01*
G02X-41680I-930J924D01*
G01X-44460Y28040D01*
G02X-44840Y28840I925J930D01*
G01X-44850Y28930D01*
X-44920Y29080D01*
X-45480Y29650D01*
X-45630Y29720D01*
X-45720Y29730D01*
G02X-46500Y30110I152J1303D01*
G01X-49280Y32890D01*
G02X-49660Y33720I927J926D01*
G01X-49670Y33820D01*
X-49740Y33970D01*
X-50360Y34570D01*
X-50520Y34630D01*
X-50620Y34640D01*
G02X-51500Y35020I43J1309D01*
G01X-54280Y37800D01*
G02Y39660I924J930D01*
G37*
G36*
G01X-116260Y47180D02*
G02X-107960I4150J-2531D01*
G03X-107540Y46940I428J261D01*
G01X-106680D01*
G03X-106260Y47180I-8J501D01*
G02X-102110Y49510I4150J-2531D01*
G02X-97250Y44650I0J-4860D01*
G02X-100180Y40190I-4859J0D01*
G01X-100320Y40130D01*
X-100480Y39890D01*
Y39060D01*
X-100290Y38800D01*
X-100130Y38750D01*
G02X-99590Y38430I-378J-1254D01*
G03X-99240Y38290I346J359D01*
G01X-98540D01*
G03X-98190Y38430I4J499D01*
G02X-97260Y38810I923J-931D01*
G01X-94120D01*
G02X-92800Y37500I10J-1310D01*
G01Y36060D01*
G03X-92660Y35710I498J-4D01*
G01X-82320Y25370D01*
G03X-81610I355J351D01*
G01X-79900Y27080D01*
G02X-78040I930J-924D01*
G01X-75400Y24440D01*
G02Y22580I-924J-930D01*
G01X-78180Y19800D01*
G02X-80040I-930J924D01*
G01X-80360Y20120D01*
X-80560Y20190D01*
X-80680Y20170D01*
G02X-81350Y20130I-661J5441D01*
G02X-85220Y21740I8J5476D01*
G01X-95590Y32100D01*
G03X-95940Y32250I-357J-350D01*
G01X-97260D01*
G02X-98190Y32630I-7J1311D01*
G03X-98540Y32770I-346J-359D01*
G01X-99240D01*
G03X-99590Y32630I-4J-499D01*
G02X-100130Y32310I-918J934D01*
G01X-100290Y32260D01*
X-100480Y32000D01*
Y31280D01*
G02X-100950Y30140I-1618J0D01*
G01X-108240Y22850D01*
G03X-108390Y22500I350J-357D01*
G01Y7910D01*
G02X-108860Y6770I-1618J0D01*
G01X-109620Y6010D01*
X-109690Y5860D01*
Y5760D01*
G02X-112010Y3580I-2320J144D01*
G02X-114330Y5900I0J2320D01*
G02X-114040Y7020I2308J0D01*
G03X-114060Y7530I-440J238D01*
G02X-114430Y8790I1960J1260D01*
G02X-113850Y10330I2322J5D01*
G03X-113720Y10660I-369J336D01*
G01Y32000D01*
X-113910Y32260D01*
X-114070Y32310D01*
G02X-114610Y32630I378J1254D01*
G03X-114960Y32770I-346J-359D01*
G01X-115660D01*
G03X-116010Y32630I-4J-499D01*
G02X-116940Y32250I-923J931D01*
G01X-120080D01*
G02X-121400Y33560I-10J1310D01*
G01Y37500D01*
G02X-120620Y38700I1313J0D01*
G01X-120480Y38760D01*
X-120320Y39000D01*
Y39450D01*
G03X-120820Y39950I-501J-1D01*
G01X-120880D01*
X-120940Y39930D01*
G02X-122110Y39790I-1158J4721D01*
G02Y49510I0J4860D01*
G02X-117960Y47180I0J-4861D01*
G03X-117540Y46940I428J261D01*
G01X-116680D01*
G03X-116260Y47180I-8J501D01*
G37*
G36*
G01X-214130Y41550D02*
G02X-216460Y45700I2531J4150D01*
G02X-206740I4860J0D01*
G02X-209070Y41550I-4861J0D01*
G03X-209310Y41130I261J-428D01*
G01Y40270D01*
G03X-209070Y39850I501J8D01*
G02Y31550I-2531J-4150D01*
G03X-209310Y31130I261J-428D01*
G01Y30270D01*
G03X-209070Y29850I501J8D01*
G02Y21550I-2531J-4150D01*
G03X-209310Y21130I261J-428D01*
G01Y20270D01*
G03X-209070Y19850I501J8D01*
G02Y11550I-2531J-4150D01*
G03X-209310Y11130I261J-428D01*
G01Y10270D01*
G03X-209070Y9850I501J8D01*
G02X-207130Y7610I-2529J-4151D01*
G01X-207070Y7470D01*
X-206830Y7310D01*
X-198630D01*
G03X-198190Y7580I-3J499D01*
G01X-197710Y8490D01*
X-197730Y8760D01*
X-197810Y8880D01*
G02X-198220Y10200I1920J1320D01*
G02X-195900Y12520I2320J0D01*
G02X-194360Y11940I5J-2322D01*
G03X-194030Y11810I336J369D01*
G01X-178070D01*
G03X-177740Y11940I-6J499D01*
G02X-177590Y12060I1525J-1752D01*
G01X-177550Y12580D01*
G03X-177700Y12970I-500J32D01*
G01X-183970Y19240D01*
X-184160Y19310D01*
X-184260D01*
X-184330D01*
G02X-186570Y21040I0J2315D01*
G03X-186910Y21390I-484J-130D01*
G02X-188520Y23600I712J2210D01*
G02X-186200Y25920I2320J0D01*
G02X-184660Y25340I5J-2322D01*
G03X-184330Y25210I336J369D01*
G01X-183480D01*
G02X-182340Y24740I0J-1618D01*
G01X-171100Y13500D01*
X-170950Y13430D01*
X-170850D01*
G02X-170600Y13400I-151J-2317D01*
G01X-170550Y13390D01*
X-170510D01*
G03X-170010Y13890I0J500D01*
G01Y21740D01*
G03X-170130Y22070I-500J5D01*
G02X-170710Y23600I1728J1530D01*
G02X-168400Y25910I2310J0D01*
G01X-166480D01*
G03X-165980Y26410I0J500D01*
G01Y26600D01*
X-166220Y26880D01*
X-166410Y26900D01*
G03X-167550Y26990I-1175J-7616D01*
G01X-181650D01*
G02X-190360Y30600I6J12327D01*
G01X-203630Y43870D01*
G02X-204310Y45500I1628J1636D01*
G02X-202000Y47810I2310J0D01*
G02X-200370Y47130I-6J-2308D01*
G01X-187100Y33860D01*
G03X-181650Y31610I5444J5461D01*
G01X-167550D01*
G02X-158840Y28000I-6J-12327D01*
G01X-130680Y-160D01*
G03X-125230Y-2410I5444J5461D01*
G01X-109580D01*
G03X-109230Y-2260I-7J500D01*
G01X-107980Y-1010D01*
G02X-107480Y-700I923J-930D01*
G03X-107170Y-380I-166J471D01*
G02X-106850Y130I1242J-424D01*
G01X-104070Y2910D01*
G02X-102210I930J-924D01*
G01X-99570Y270D01*
G02Y-1590I-924J-930D01*
G01X-102350Y-4370D01*
G02X-102850Y-4680I-923J930D01*
G03X-103160Y-5000I166J-471D01*
G02X-103480Y-5510I-1242J424D01*
G01X-106260Y-8290D01*
G02X-108120I-930J924D01*
G01X-109230Y-7180D01*
G03X-109590Y-7030I-357J-350D01*
G01X-125230D01*
G02X-133940Y-3420I6J12327D01*
G01X-162100Y24740D01*
G03X-162900Y25430I-5424J-5480D01*
G03X-163560Y25380I-302J-399D01*
G01X-163680Y25260D01*
G03X-163760Y24680I364J-346D01*
G02X-163490Y23600I-2039J-1084D01*
G02X-164070Y22070I-2308J0D01*
G03X-164190Y21740I380J-325D01*
G01Y13070D01*
G03X-164060Y12740I499J6D01*
G02X-163480Y11200I-1742J-1535D01*
G02X-165790Y8880I-2320J0D01*
G01X-165900D01*
X-166070Y8810D01*
X-166640Y8230D01*
G03X-166790Y7880I349J-357D01*
G01Y7630D01*
G02X-167260Y6490I-1618J0D01*
G01X-168130Y5620D01*
X-168200Y5470D01*
Y5370D01*
G02X-170520Y3190I-2320J144D01*
G02X-172840Y5510I0J2320D01*
G02X-172640Y6460I2322J7D01*
G03X-172720Y6990I-454J202D01*
G02X-173290Y8380I1749J1529D01*
G01Y8480D01*
X-173360Y8630D01*
X-173590Y8860D01*
G03X-174300I-355J-352D01*
G01X-174320Y8840D01*
X-174340Y8810D01*
G02X-176200Y7880I-1860J1395D01*
G02X-177740Y8460I-5J2322D01*
G03X-178070Y8590I-336J-369D01*
G01X-180570D01*
G03X-181010Y8320I3J-499D01*
G01X-181490Y7410D01*
X-181470Y7140D01*
X-181390Y7020D01*
G02X-180980Y5700I-1920J-1320D01*
G02X-183300Y3380I-2320J0D01*
G02X-184840Y3960I-5J2322D01*
G03X-185170Y4090I-336J-369D01*
G01X-187850D01*
G03X-188290Y3810I8J-499D01*
G01X-188760Y2880D01*
X-188740Y2610D01*
X-188650Y2490D01*
G02X-188190Y1110I-1858J-1386D01*
G02X-190510Y-1210I-2320J0D01*
G02X-192050Y-630I-5J2322D01*
G01X-192120Y-560D01*
X-192280Y-500D01*
X-192590D01*
G03X-193090Y-1000I1J-501D01*
G01Y-1040D01*
G02X-193080Y-1210I-2307J-221D01*
G02X-194400Y-3300I-2315J0D01*
G01X-194480Y-3340D01*
X-194600Y-3460D01*
X-194950Y-4190D01*
X-194970Y-4360D01*
X-194950Y-4440D01*
G02X-194880Y-4990I-2248J-566D01*
G02X-196310Y-7130I-2316J0D01*
G03X-196550Y-7350I200J-459D01*
G01X-196700Y-7620D01*
G03X-196750Y-7950I440J-235D01*
G02X-196720Y-8350I-2292J-373D01*
G02X-198210Y-10520I-2325J0D01*
G03X-198530Y-11000I178J-465D01*
G01Y-11100D01*
G02X-198570Y-11520I-2309J8D01*
G03X-197740Y-11980I491J-93D01*
G02X-196180Y-11380I1560J-1728D01*
G02X-193860Y-13700I0J-2320D01*
G02X-194440Y-15240I-2322J-5D01*
G03X-194570Y-15570I369J-336D01*
G01Y-24230D01*
G03X-194440Y-24560I499J6D01*
G02X-193860Y-26100I-1742J-1535D01*
G02X-196180Y-28420I-2320J0D01*
G02X-197800Y-27760I0J2318D01*
G01X-197880Y-27690D01*
X-198050Y-27620D01*
X-198980Y-27640D01*
X-199150Y-27710D01*
X-199220Y-27790D01*
G02X-200350Y-28450I-1687J1592D01*
G03X-200720Y-28840I121J-485D01*
G02X-202250Y-30590I-2276J446D01*
G03X-202570Y-30930I164J-475D01*
G02X-204800Y-32620I-2230J626D01*
G02X-205500Y-32510I6J2319D01*
G01X-205630Y-32470D01*
X-205870Y-32520D01*
X-206720Y-33240D01*
X-206810Y-33470D01*
X-206790Y-33610D01*
G02X-206740Y-34300I-4810J-695D01*
G02X-209070Y-38450I-4861J0D01*
G03X-209310Y-38870I261J-428D01*
G01Y-39730D01*
G03X-209070Y-40150I501J8D01*
G02Y-48450I-2531J-4150D01*
G03X-209310Y-48870I261J-428D01*
G01Y-49730D01*
G03X-209070Y-50150I501J8D01*
G02X-207130Y-52390I-2529J-4151D01*
G01X-207070Y-52530D01*
X-206830Y-52690D01*
X-113750D01*
G03X-113400Y-52540I-7J500D01*
G01X-99420Y-38560D01*
X-99350Y-38410D01*
Y-38310D01*
G02X-97040Y-36150I2310J-155D01*
G02X-95410Y-36830I-6J-2308D01*
G01X-92620Y-39620D01*
G02X-91950Y-40990I-1624J-1643D01*
G03X-91800Y-41300I495J48D01*
G01X-91580Y-41520D01*
G03X-91260Y-41660I349J362D01*
G02X-89100Y-43970I-155J-2310D01*
G02X-89240Y-44760I-2319J4D01*
G03X-89190Y-45200I471J-169D01*
G02X-88810Y-46470I-1932J-1270D01*
G02X-90990Y-48790I-2324J0D01*
G01X-91090D01*
X-91240Y-48860D01*
X-95390Y-53010D01*
X-95460Y-53160D01*
Y-53260D01*
G02X-97780Y-55440I-2320J144D01*
G02X-98910Y-55140I10J2317D01*
G03X-99420Y-55150I-246J-439D01*
G02X-100620Y-55490I-1208J1978D01*
G02X-101760Y-55190I0J2316D01*
G03X-102260I-250J-433D01*
G02X-103420Y-55500I-1160J2015D01*
G02X-104570Y-55200I-8J2322D01*
G03X-105050Y-55190I-249J-433D01*
G02X-106150Y-55470I-1105J2039D01*
G02X-107280Y-55170I10J2317D01*
G03X-107790Y-55180I-246J-439D01*
G02X-108990Y-55520I-1208J1978D01*
G02X-110550Y-54920I0J2328D01*
G01X-110700Y-54780D01*
X-111090Y-54790D01*
X-111740Y-55440D01*
G02X-112880Y-55910I-1140J1148D01*
G01X-206830D01*
X-207070Y-56070D01*
X-207130Y-56210D01*
G02X-209070Y-58450I-4469J1911D01*
G03X-209310Y-58870I261J-428D01*
G01Y-59730D01*
G03X-209070Y-60150I501J8D01*
G02Y-68450I-2531J-4150D01*
G03X-209310Y-68870I261J-428D01*
G01Y-69730D01*
G03X-209070Y-70150I501J8D01*
G02X-206740Y-74300I-2531J-4150D01*
G02X-211600Y-79160I-4860J0D01*
G02X-215750Y-76830I0J4861D01*
G03X-216170Y-76590I-428J-261D01*
G01X-217030D01*
G03X-217450Y-76830I8J-501D01*
G02X-221600Y-79160I-4150J2531D01*
G02X-226460Y-74300I0J4860D01*
G02X-224130Y-70150I4861J0D01*
G03X-223890Y-69730I-261J428D01*
G01Y-68870D01*
G03X-224130Y-68450I-501J-8D01*
G02Y-60150I2531J4150D01*
G03X-223890Y-59730I-261J428D01*
G01Y-58870D01*
G03X-224130Y-58450I-501J-8D01*
G02Y-50150I2531J4150D01*
G03X-223890Y-49730I-261J428D01*
G01Y-48870D01*
G03X-224130Y-48450I-501J-8D01*
G02Y-40150I2531J4150D01*
G03X-223890Y-39730I-261J428D01*
G01Y-38870D01*
G03X-224130Y-38450I-501J-8D01*
G02Y-30150I2531J4150D01*
G03X-223890Y-29730I-261J428D01*
G01Y-28870D01*
G03X-224130Y-28450I-501J-8D01*
G02Y-20150I2531J4150D01*
G03X-223890Y-19730I-261J428D01*
G01Y-18870D01*
G03X-224130Y-18450I-501J-8D01*
G02Y-10150I2531J4150D01*
G03X-223890Y-9730I-261J428D01*
G01Y-8870D01*
G03X-224130Y-8450I-501J-8D01*
G02Y-150I2531J4150D01*
G03X-223890Y270I-261J428D01*
G01Y1130D01*
G03X-224130Y1550I-501J-8D01*
G02Y9850I2531J4150D01*
G03X-223890Y10270I-261J428D01*
G01Y11130D01*
G03X-224130Y11550I-501J-8D01*
G02X-226460Y15700I2531J4150D01*
G02X-221600Y20560I4860J0D01*
G02X-217450Y18230I0J-4861D01*
G03X-217030Y17990I428J261D01*
G01X-216170D01*
G03X-215750Y18230I-8J501D01*
G02X-214130Y19850I4150J-2530D01*
G03X-213890Y20270I-261J428D01*
G01Y21130D01*
G03X-214130Y21550I-501J-8D01*
G02Y29850I2531J4150D01*
G03X-213890Y30270I-261J428D01*
G01Y31130D01*
G03X-214130Y31550I-501J-8D01*
G02X-215750Y33170I2530J4150D01*
G03X-216170Y33410I-428J-261D01*
G01X-217030D01*
G03X-217450Y33170I8J-501D01*
G02X-221600Y30840I-4150J2531D01*
G02Y40560I0J4860D01*
G02X-217450Y38230I0J-4861D01*
G03X-217030Y37990I428J261D01*
G01X-216170D01*
G03X-215750Y38230I-8J501D01*
G02X-214130Y39850I4150J-2530D01*
G03X-213890Y40270I-261J428D01*
G01Y41130D01*
G03X-214130Y41550I-501J-8D01*
G37*
G36*
G01X-224130Y81550D02*
G02X-226460Y85700I2531J4150D01*
G02X-221600Y90560I4860J0D01*
G02X-217450Y88230I0J-4861D01*
G03X-217030Y87990I428J261D01*
G01X-216170D01*
G03X-215750Y88230I-8J501D01*
G02X-211600Y90560I4150J-2531D01*
G02X-206740Y85700I0J-4860D01*
G02X-209070Y81550I-4861J0D01*
G03X-209310Y81130I261J-428D01*
G01Y80270D01*
G03X-209070Y79850I501J8D01*
G02Y71550I-2531J-4150D01*
G03X-209310Y71130I261J-428D01*
G01Y70270D01*
G03X-209070Y69850I501J8D01*
G02X-206740Y65700I-2531J-4150D01*
G02X-211600Y60840I-4860J0D01*
G02X-215750Y63170I0J4861D01*
G03X-216170Y63410I-428J-261D01*
G01X-217030D01*
G03X-217450Y63170I8J-501D01*
G02X-219070Y61550I-4150J2530D01*
G03X-219310Y61130I261J-428D01*
G01Y60270D01*
G03X-219070Y59850I501J8D01*
G02X-216740Y55700I-2531J-4150D01*
G02X-226460I-4860J0D01*
G02X-224130Y59850I4861J0D01*
G03X-223890Y60270I-261J428D01*
G01Y61130D01*
G03X-224130Y61550I-501J-8D01*
G02Y69850I2531J4150D01*
G03X-223890Y70270I-261J428D01*
G01Y71130D01*
G03X-224130Y71550I-501J-8D01*
G02Y79850I2531J4150D01*
G03X-223890Y80270I-261J428D01*
G01Y81130D01*
G03X-224130Y81550I-501J-8D01*
G37*
G36*
G01X-82940Y90350D02*
X-82880Y90430D01*
G02X-81860Y90920I1022J-821D01*
G01X-74780D01*
G02X-73460Y89600I5J-1315D01*
G01Y82520D01*
G02X-74780Y81200I-1315J-5D01*
G01X-75560D01*
G03X-76020Y80900I-3J-498D01*
G01X-76080Y80760D01*
X-76020Y80460D01*
X-72980Y77420D01*
G03X-72670Y77280I348J357D01*
G01X-71950Y77210D01*
X-71780Y77250D01*
X-71710Y77300D01*
G02X-70970Y77530I740J-1075D01*
G01X-67030D01*
G02X-65720Y76220I0J-1310D01*
G01Y72480D01*
G02X-67030Y71170I-1310J0D01*
G01X-70970D01*
G02X-72210Y72050I0J1314D01*
G03X-72350Y72270I-478J-149D01*
G01X-72560Y72450D01*
G03X-72800Y72570I-335J-371D01*
G02X-72860Y72580I268J1791D01*
G01X-72910Y72590D01*
X-72960D01*
G03X-73460Y72090I-3J-497D01*
G01Y65980D01*
G02X-73950Y64960I-1311J2D01*
G01X-74040Y64890D01*
X-74130Y64690D01*
X-74140Y63690D01*
X-74050Y63490D01*
X-73960Y63420D01*
G02X-73800Y63270I-1621J-1890D01*
G03X-73440Y63120I357J351D01*
G01X-71880D01*
X-71600Y63380D01*
X-71580Y63580D01*
G02X-70280Y64790I1306J-100D01*
G01X-67120D01*
G02X-66200Y64410I-3J-1311D01*
G03X-65850Y64270I346J359D01*
G01X-65150D01*
G03X-64800Y64410I4J499D01*
G02X-63880Y64790I923J-931D01*
G01X-60720D01*
G02X-59420Y63580I-6J-1310D01*
G01X-59400Y63380D01*
X-59120Y63120D01*
X-58500D01*
G02X-57360Y62650I0J-1618D01*
G01X-45990Y51280D01*
X-45840Y51210D01*
X-45740D01*
G02X-43560Y48890I-144J-2320D01*
G02X-45880Y46570I-2320J0D01*
G02X-48200Y48750I0J2324D01*
G01Y48850D01*
X-48270Y49000D01*
X-58150Y58880D01*
G03X-58540Y59030I-358J-348D01*
G01X-59410Y58960D01*
X-59600Y58860D01*
X-59670Y58770D01*
G02X-60720Y58230I-1059J769D01*
G01X-63880D01*
G02X-64800Y58610I3J1311D01*
G03X-65150Y58750I-346J-359D01*
G01X-65850D01*
G03X-66200Y58610I-4J-499D01*
G02X-67120Y58230I-923J931D01*
G01X-70280D01*
G02X-71580Y59440I6J1310D01*
G01X-71600Y59640D01*
X-71880Y59900D01*
X-73440D01*
G03X-73800Y59750I-3J-501D01*
G02X-75560Y59020I-1760J1757D01*
G01X-78420D01*
G02X-80910Y61510I0J2490D01*
G02X-79570Y63720I2492J0D01*
G01X-79440Y63790D01*
X-79300Y64020D01*
Y64160D01*
G03X-79800Y64660I-497J3D01*
G01X-80410D01*
G03X-80760Y64520I-4J-499D01*
G01X-83090Y62190D01*
G03X-83240Y61830I350J-357D01*
G01Y60460D01*
X-83050Y60200D01*
X-82890Y60150D01*
G02X-81130Y57770I-729J-2380D01*
G02X-83620Y55280I-2490J0D01*
G01X-86480D01*
G02X-88060Y55850I5J2488D01*
G03X-88380Y55960I-313J-391D01*
G01X-95830D01*
G03X-96330Y55460I0J-500D01*
G01Y53040D01*
G02X-97640Y51730I-1310J0D01*
G01X-103940D01*
G02X-105250Y53040I0J1310D01*
G01Y62500D01*
G02X-103940Y63810I1310J0D01*
G01X-97640D01*
G02X-96330Y62500I0J-1310D01*
G01Y60080D01*
G03X-95830Y59580I500J0D01*
G01X-88380D01*
G03X-88060Y59690I7J501D01*
G02X-87210Y60150I1587J-1917D01*
G01X-87050Y60200D01*
X-86860Y60460D01*
Y62790D01*
G02X-86330Y64070I1811J0D01*
G01X-83320Y67080D01*
G03X-83180Y67430I-359J346D01*
G01Y73060D01*
G02X-81860Y74380I1315J5D01*
G01X-76260D01*
G03X-75800Y74680I3J498D01*
G01X-75740Y74820D01*
X-75800Y75120D01*
X-79600Y78920D01*
G02X-80130Y80200I1281J1280D01*
G01Y80700D01*
G03X-80630Y81200I-499J1D01*
G01X-81860D01*
G02X-82350Y81300I12J1311D01*
G01X-82470Y81340D01*
X-82710Y81320D01*
X-83500Y80780D01*
G03X-83720Y80370I279J-414D01*
G01Y79660D01*
G02X-85030Y78340I-1310J-10D01*
G01X-88970D01*
G02X-90170Y79120I0J1313D01*
G01X-90230Y79260D01*
X-90470Y79420D01*
X-95830D01*
G03X-96330Y78920I0J-500D01*
G01Y76500D01*
G02X-97640Y75190I-1310J0D01*
G01X-103940D01*
G02X-105250Y76500I0J1310D01*
G01Y85960D01*
G02X-103940Y87270I1310J0D01*
G01X-97640D01*
G02X-96330Y85960I0J-1310D01*
G01Y83540D01*
G03X-95830Y83040I500J0D01*
G01X-90470D01*
X-90230Y83200D01*
X-90170Y83340D01*
G02X-89900Y83730I1196J-540D01*
G03X-89760Y84080I-359J346D01*
G01Y84780D01*
G03X-89900Y85130I-499J4D01*
G02X-90280Y86060I931J923D01*
G01Y89200D01*
G02X-88970Y90520I1310J10D01*
G01X-85030D01*
G02X-84250Y90260I-4J-1314D01*
G01X-84170Y90200D01*
X-83990Y90150D01*
X-83110Y90260D01*
X-82940Y90350D01*
G37*
G36*
G01X-163760Y98230D02*
G02X-155460I4150J-2531D01*
G03X-155040Y97990I428J261D01*
G01X-154180D01*
G03X-153760Y98230I-8J501D01*
G02X-149610Y100560I4150J-2531D01*
G02Y90840I0J-4860D01*
G02X-153760Y93170I0J4861D01*
G03X-154180Y93410I-428J-261D01*
G01X-155040D01*
G03X-155460Y93170I8J-501D01*
G02X-163760I-4150J2531D01*
G03X-164180Y93410I-428J-261D01*
G01X-165040D01*
G03X-165460Y93170I8J-501D01*
G02X-173760I-4150J2531D01*
G03X-174180Y93410I-428J-261D01*
G01X-175040D01*
G03X-175460Y93170I8J-501D01*
G02X-183760I-4150J2531D01*
G03X-184180Y93410I-428J-261D01*
G01X-185040D01*
G03X-185460Y93170I8J-501D01*
G02X-193760I-4150J2531D01*
G03X-194180Y93410I-428J-261D01*
G01X-195040D01*
G03X-195460Y93170I8J-501D01*
G02X-199610Y90840I-4150J2531D01*
G02Y100560I0J4860D01*
G02X-195460Y98230I0J-4861D01*
G03X-195040Y97990I428J261D01*
G01X-194180D01*
G03X-193760Y98230I-8J501D01*
G02X-185460I4150J-2531D01*
G03X-185040Y97990I428J261D01*
G01X-184180D01*
G03X-183760Y98230I-8J501D01*
G02X-175460I4150J-2531D01*
G03X-175040Y97990I428J261D01*
G01X-174180D01*
G03X-173760Y98230I-8J501D01*
G02X-165460I4150J-2531D01*
G03X-165040Y97990I428J261D01*
G01X-164180D01*
G03X-163760Y98230I-8J501D01*
G37*
G36*
G01X121120Y103220D02*
G02X129420I4150J-2531D01*
G03X129840Y102980I428J261D01*
G01X130700D01*
G03X131120Y103220I-8J501D01*
G02X135270Y105550I4150J-2531D01*
G02Y95830I0J-4860D01*
G02X131120Y98160I0J4861D01*
G03X130700Y98400I-428J-261D01*
G01X129840D01*
G03X129420Y98160I8J-501D01*
G02X121120I-4150J2531D01*
G03X120700Y98400I-428J-261D01*
G01X119840D01*
G03X119420Y98160I8J-501D01*
G02X111120I-4150J2531D01*
G03X110700Y98400I-428J-261D01*
G01X109840D01*
G03X109420Y98160I8J-501D01*
G02X105270Y95830I-4150J2531D01*
G02Y105550I0J4860D01*
G02X109420Y103220I0J-4861D01*
G03X109840Y102980I428J261D01*
G01X110700D01*
G03X111120Y103220I-8J501D01*
G02X119420I4150J-2531D01*
G03X119840Y102980I428J261D01*
G01X120700D01*
G03X121120Y103220I-8J501D01*
G37*
G36*
G01X-112150Y103530D02*
G02X-103850I4150J-2531D01*
G03X-103430Y103290I428J261D01*
G01X-102570D01*
G03X-102150Y103530I-8J501D01*
G02X-98000Y105860I4150J-2531D01*
G02X-93140Y101000I0J-4860D01*
G02X-96090Y96530I-4862J0D01*
G01X-96230Y96470D01*
X-96390Y96230D01*
Y92470D01*
G03X-96260Y92140I499J6D01*
G02X-95680Y90600I-1742J-1535D01*
G02X-100320I-2320J0D01*
G02X-99740Y92140I2322J5D01*
G03X-99610Y92470I-369J336D01*
G01Y96230D01*
X-99770Y96470D01*
X-99910Y96530D01*
G02X-102150Y98470I1911J4469D01*
G03X-102570Y98710I-428J-261D01*
G01X-103430D01*
G03X-103850Y98470I8J-501D01*
G02X-106090Y96530I-4151J2529D01*
G01X-106230Y96470D01*
X-106390Y96230D01*
Y94370D01*
G03X-106260Y94040I499J6D01*
G02X-105680Y92500I-1742J-1535D01*
G02X-110320I-2320J0D01*
G02X-109740Y94040I2322J5D01*
G03X-109610Y94370I-369J336D01*
G01Y96230D01*
X-109770Y96470D01*
X-109910Y96530D01*
G02X-112150Y98470I1911J4469D01*
G03X-112570Y98710I-428J-261D01*
G01X-113430D01*
G03X-113850Y98470I8J-501D01*
G02X-118000Y96140I-4150J2531D01*
G02Y105860I0J4860D01*
G02X-113850Y103530I0J-4861D01*
G03X-113430Y103290I428J261D01*
G01X-112570D01*
G03X-112150Y103530I-8J501D01*
G37*
G36*
G01X-71850Y98470D02*
G02X-76000Y96140I-4150J2531D01*
G02Y105860I0J4860D01*
G02X-71850Y103530I0J-4861D01*
G03X-71430Y103290I428J261D01*
G01X-70570D01*
G03X-70150Y103530I-8J501D01*
G02X-66000Y105860I4150J-2531D01*
G02X-61140Y101000I0J-4860D01*
G02X-63910Y96610I-4864J0D01*
G03X-64190Y96160I219J-449D01*
G01Y92420D01*
G03X-64100Y92130I500J-4D01*
G02X-63680Y90800I-1896J-1330D01*
G02X-68320I-2320J0D01*
G02X-67900Y92130I2316J0D01*
G03X-67810Y92420I-410J286D01*
G01Y96160D01*
G03X-68090Y96610I-499J1D01*
G02X-70150Y98470I2092J4388D01*
G03X-70570Y98710I-428J-261D01*
G01X-71430D01*
G03X-71850Y98470I8J-501D01*
G37*
G36*
G01X-22440Y115360D02*
G02X-23020Y116900I1742J1535D01*
G02X-18380I2320J0D01*
G02X-18960Y115360I-2322J-5D01*
G03X-19090Y115030I369J-336D01*
G01Y94270D01*
G03X-18960Y93940I499J6D01*
G02X-18380Y92400I-1742J-1535D01*
G02X-20700Y90080I-2320J0D01*
G02X-21900Y90420I8J2318D01*
G01X-22020Y90490D01*
X-22280D01*
X-23160Y90000D01*
G03X-23420Y89560I241J-439D01*
G01Y89220D01*
G02X-23800Y88300I-1311J3D01*
G03X-23940Y87950I359J-346D01*
G01Y87250D01*
G03X-23800Y86900I499J-4D01*
G02X-23420Y85980I-931J-923D01*
G01Y82820D01*
G02X-24730Y81510I-1310J0D01*
G01X-28670D01*
G02X-29240Y81650I20J1310D01*
G03X-29680I-220J-454D01*
G02X-30250Y81510I-590J1170D01*
G01X-34190D01*
G02X-34760Y81650I20J1310D01*
G03X-35200I-220J-454D01*
G02X-35770Y81510I-590J1170D01*
G01X-39710D01*
G02X-41020Y82820I0J1310D01*
G01Y85980D01*
G02X-40640Y86900I1311J-3D01*
G03X-40500Y87250I-359J346D01*
G01Y87950D01*
G03X-40640Y88300I-499J4D01*
G02X-41020Y89220I931J923D01*
G01Y89280D01*
G03X-41260Y89710I-501J2D01*
G01X-42120Y90220D01*
X-42380D01*
X-42500Y90160D01*
G02X-43600Y89880I-1105J2039D01*
G02X-45920Y92200I0J2320D01*
G02X-45500Y93530I2316J0D01*
G03X-45410Y93820I-410J286D01*
G01Y98150D01*
G02X-44880Y99430I1811J0D01*
G01X-43580Y100730D01*
X-43510Y100870D01*
X-43490Y100940D01*
G02X-41210Y102860I2280J-394D01*
G02X-40250Y102650I-4J-2319D01*
G01X-40100Y102590D01*
X-39800Y102640D01*
X-39690Y102750D01*
G03Y103460I-351J355D01*
G01X-40690Y104460D01*
X-40840Y104530D01*
X-40940D01*
G02X-43120Y106850I144J2320D01*
G02X-40800Y109170I2320J0D01*
G02X-38480Y106990I0J-2324D01*
G01Y106890D01*
X-38410Y106740D01*
X-36600Y104930D01*
G02X-36130Y103790I-1148J-1140D01*
G01Y94380D01*
G03X-36000Y94040I500J-4D01*
G01X-35790Y93810D01*
G03X-35520Y93660I367J342D01*
G02X-35200Y93550I-262J-1282D01*
G03X-34760I220J454D01*
G02X-34440Y93660I582J-1172D01*
G03X-34170Y93810I-97J492D01*
G01X-33960Y94040D01*
G03X-33830Y94380I-370J336D01*
G01Y98430D01*
G02X-33360Y99570I1618J0D01*
G01X-32190Y100740D01*
X-32120Y100890D01*
Y100990D01*
G02X-29800Y103170I2320J-144D01*
G02X-29450Y103140I-22J-2318D01*
G01X-29330Y103120D01*
X-29110Y103200D01*
X-29020Y103280D01*
G03Y103990I-352J355D01*
G01X-29570Y104540D01*
X-29720Y104610D01*
X-29820D01*
G02X-32000Y106930I144J2320D01*
G02X-29680Y109250I2320J0D01*
G02X-27360Y107070I0J-2324D01*
G01Y106970D01*
X-27290Y106820D01*
X-25560Y105090D01*
G02X-25090Y103950I-1148J-1140D01*
G01Y94380D01*
G03X-24960Y94040I500J-4D01*
G01X-24750Y93810D01*
G03X-24480Y93660I367J342D01*
G02X-23990Y93460I-240J-1289D01*
G01X-23910Y93400D01*
X-23720Y93360D01*
X-22820Y93530D01*
X-22670Y93630D01*
X-22610Y93720D01*
G02X-22440Y93940I1920J-1308D01*
G03X-22310Y94270I-369J336D01*
G01Y115030D01*
G03X-22440Y115360I-499J-6D01*
G37*
G54D38*
X-155130Y114840D03*
X-170870D03*
G54D40*
X175670Y-30000D03*
G54D41*
X105270Y-101140D03*
X155270Y100690D03*
G54D39*
X-41340Y-100440D03*
X-58660D03*
%LPD*%
G75*
G36*
G01X93200Y74400D02*
Y58200D01*
G02X92700Y57700I-500J0D01*
G01X77800D01*
G02X77300Y58200I0J500D01*
G01Y74400D01*
G02X77800Y74900I500J0D01*
G01X92700D01*
G02X93200Y74400I0J-500D01*
G37*
G54D10*
X-221600Y-74300D03*
Y-44300D03*
Y-54300D03*
Y-64300D03*
Y-24300D03*
Y-34300D03*
Y-4300D03*
Y-14300D03*
Y15700D03*
Y5700D03*
Y45700D03*
Y35700D03*
Y25700D03*
Y65700D03*
Y55700D03*
Y85700D03*
Y75700D03*
X-216500Y-96700D03*
Y-86700D03*
X-211600Y-74300D03*
Y-44300D03*
Y-54300D03*
Y-64300D03*
Y-24300D03*
Y-34300D03*
Y-4300D03*
Y-14300D03*
Y15700D03*
Y5700D03*
Y45700D03*
Y35700D03*
Y25700D03*
Y65700D03*
Y55700D03*
Y85700D03*
Y75700D03*
X-199610Y95700D03*
X-189610D03*
X-179610D03*
X-169610D03*
X-159610D03*
X-132110Y44650D03*
X-149610Y95700D03*
X-128000Y101000D03*
X-119140Y-116400D03*
X-109140D03*
X-112110Y44650D03*
X-122110D03*
X-108000Y101000D03*
X-118000D03*
X-99140Y-116400D03*
X-89140D03*
X-102110Y44650D03*
X-98000Y101000D03*
X-66000D03*
X-76000D03*
X-6830Y-101140D03*
X3170D03*
X-7860Y110300D03*
X2140D03*
X-7860Y120300D03*
X2140D03*
X13170Y-101140D03*
X23170D03*
X12140Y110300D03*
Y120300D03*
X48300Y-101140D03*
X58300D03*
X68300D03*
X72900Y100690D03*
X78300Y-101140D03*
X82900Y100690D03*
X105270Y-101140D03*
X115270D03*
Y100690D03*
X105270D03*
X125270Y-101140D03*
X135270D03*
X145270D03*
Y100690D03*
X135270D03*
X125270D03*
X155270Y-101140D03*
Y100690D03*
G54D20*
X-78320Y69520D03*
Y86060D03*
X72900Y71530D03*
Y88070D03*
G54D11*
G01X-202000Y45500D02*
X-188730Y32230D01*
G03X-181650Y29300I7080J7089D01*
G01X-167550D01*
G02X-160470Y26370I0J-10019D01*
G01X-132310Y-1790D01*
G03X-125230Y-4720I7080J7089D01*
G01X-107190D01*
X-107120Y-4650D01*
G01X-99140Y-116400D02*
X-102720Y-112820D01*
Y-108580D01*
X-126900Y-84400D01*
G01X-91630Y-21930D02*
X-106570Y-36870D01*
G02X-113650Y-39800I-7080J7089D01*
G01X-119600D01*
G01X-95750Y35530D02*
X-83590Y23370D01*
G03X-79110I2240J2240D01*
G01X-79040Y23440D01*
G01X-39540Y-38410D02*
X-39610Y-38480D01*
G01D02*
Y-38740D01*
G03X-39570Y-38830I127J3D01*
G01X-17200Y-61200D01*
G01X-7580Y-6460D02*
X12870Y13990D01*
G03X15800Y21070I-7089J7080D01*
G01Y70780D01*
G02X18730Y77860I10019J0D01*
G01X21970Y81100D01*
G01X24700Y97120D02*
Y87300D01*
G01D02*
Y85370D01*
G02X23610Y82740I-3718J0D01*
G01X21970Y81100D01*
G01X34580Y97120D02*
X24700D01*
G01X45650Y26500D02*
X54400D01*
G01X57070Y97120D02*
X34580D01*
G01X65520Y26500D02*
Y26110D01*
X70030Y21600D01*
X95840D01*
X100730Y26490D01*
Y28990D01*
G01X65520Y26500D02*
X60800D01*
G01X155670Y-5000D02*
X160000D01*
G03X163250Y-1750I0J3250D01*
G01Y1750D01*
X-200910Y-26200D03*
X-203000Y-28400D03*
X-204800Y-24900D03*
Y-30300D03*
X-206600Y-26700D03*
X-200910Y-15600D03*
X-203000Y-20500D03*
X-206600Y-21000D03*
X-200840Y-11100D03*
X-205700D03*
X-205650Y-8350D03*
X-205700Y-4990D03*
Y-1210D03*
X-207800Y1110D03*
X-202000Y45500D03*
X-187200Y-96700D03*
X-195700Y-71110D03*
X-196180Y-26100D03*
X-181870Y-17580D03*
X-196180Y-13700D03*
X-199040Y-8350D03*
X-197200Y-4990D03*
X-195400Y-1210D03*
X-190510Y1110D03*
X-183300Y5700D03*
X-195900Y10200D03*
X-184330Y21630D03*
X-186200Y23600D03*
X-187000Y65700D03*
X-195850Y51000D03*
Y56520D03*
Y45480D03*
X-176650Y49020D03*
X-187000Y72400D03*
X-178810Y68400D03*
Y76400D03*
X-181510Y68400D03*
Y76400D03*
X-189100Y68800D03*
Y75700D03*
X-176200Y10200D03*
X-170990Y11110D03*
X-170970Y8520D03*
X-170520Y5510D03*
X-165800Y11200D03*
X-166620Y35530D03*
X-163360Y43070D03*
X-168400Y23600D03*
X-165800D03*
X-166380Y50980D03*
X-166330Y47050D03*
X-160520Y52950D03*
X-170240Y68400D03*
Y76400D03*
X-173120Y68400D03*
Y76400D03*
X-176110Y68400D03*
Y76400D03*
X-167520Y68400D03*
Y76400D03*
X-168120Y107680D03*
X-135610Y-25840D03*
X-144600Y-37650D03*
X-144550Y-31740D03*
X-133300Y11180D03*
X-150680Y39270D03*
X-141600Y40950D03*
X-126900Y-96700D03*
Y-103200D03*
Y-90800D03*
Y-84400D03*
X-108990Y-53200D03*
X-119600Y-39800D03*
X-127000Y-39970D03*
X-112010Y5900D03*
X-112110Y8790D03*
X-118500Y35530D03*
X-108000Y92500D03*
X-89700Y-70100D03*
X-106150Y-53150D03*
X-100620Y-53170D03*
X-103420Y-53180D03*
X-91130Y-46470D03*
X-97780Y-53120D03*
X-89990Y-67600D03*
X-94250Y-41250D03*
X-91420Y-43970D03*
X-94220Y-43980D03*
X-96990Y-41200D03*
X-97040Y-38460D03*
X-106230Y-25380D03*
X-103500Y-800D03*
X-94800Y-19800D03*
X-107120Y-4650D03*
X-91630Y-21930D03*
X-98860Y17800D03*
X-93190Y9280D03*
X-85960Y32740D03*
X-95750Y35530D03*
X-98000Y90600D03*
X-73230Y-95520D03*
X-62710Y-50790D03*
X-66840Y-61160D03*
X-75690Y-56090D03*
X-75990Y-53600D03*
X-71500Y-57460D03*
X-84940Y-43060D03*
X-76210Y-37320D03*
X-68960Y29740D03*
X-79040Y23440D03*
X-66840Y49820D03*
X-78320Y86060D03*
X-66200Y84400D03*
X-66000Y90800D03*
X-42530Y-76210D03*
X-44450Y-77830D03*
X-40300Y-74000D03*
X-55600Y-63140D03*
X-57490Y-64790D03*
X-58140Y-55340D03*
X-46000Y-68300D03*
X-44160Y-66440D03*
X-39390Y-52800D03*
X-43760Y-59560D03*
X-58440Y-67550D03*
X-46350Y-59760D03*
X-61200Y-67690D03*
X-43560Y-56980D03*
X-41600Y-41720D03*
X-39610Y-38480D03*
X-57560Y-5850D03*
X-40820Y28900D03*
X-41910Y44510D03*
X-45140Y24580D03*
X-59960Y39240D03*
X-50640Y38660D03*
X-45640Y33750D03*
X-45880Y48890D03*
X-43600Y92200D03*
X-41210Y100540D03*
X-40800Y106850D03*
X-49770Y116900D03*
X-38460Y-72140D03*
X-28990Y-71500D03*
X-33410Y-72700D03*
X-30790Y-69750D03*
X-17200Y-61200D03*
X-25090Y-67100D03*
X-19900Y-33320D03*
X-25750Y-24620D03*
X-29710Y17710D03*
X-21290Y23370D03*
X-32200Y84400D03*
X-26500D03*
X-37700D03*
X-20700Y92400D03*
X-29680Y106930D03*
X-29800Y100850D03*
X-20700Y116900D03*
X-8700Y-64500D03*
X-15840Y-15100D03*
X-7580Y-6460D03*
X-14700Y2400D03*
X-3950Y51230D03*
X-14530Y61810D03*
X21200Y-55800D03*
X18490Y-55810D03*
X12060Y-55800D03*
Y-47500D03*
X8100Y-55800D03*
Y-51100D03*
X21200Y-43900D03*
X18490D03*
X21200Y60820D03*
X21970Y81100D03*
X17000Y92300D03*
X12140D03*
X45650Y26500D03*
X45250Y68880D03*
X40330Y76990D03*
X34230Y106180D03*
X34580Y97120D03*
X63270Y-69900D03*
X63070Y-74200D03*
X69450Y-61200D03*
X63350D03*
X63170Y-65500D03*
X74440Y43480D03*
X61790Y47700D03*
X57070Y97120D03*
X85600Y59700D03*
X90000Y66190D03*
X87000D03*
X84000D03*
X81000D03*
X90000Y63190D03*
X87000D03*
X84000D03*
X81000D03*
X85520Y87310D03*
X90000Y69190D03*
X87000D03*
X84000D03*
X81000D03*
X111160Y-78840D03*
X111030Y-61600D03*
X107460Y28990D03*
X115420Y43480D03*
X100730Y28990D03*
X110900Y61280D03*
X110830Y78490D03*
X134700Y-9250D03*
X134500Y18000D03*
X144400Y-78840D03*
X144250Y-61600D03*
X158500Y-19000D03*
X153000Y-21000D03*
X163250Y1750D03*
X158600Y10000D03*
X144800Y27700D03*
X146600Y25800D03*
X144250Y61280D03*
X144300Y78490D03*
X186000Y20000D03*
X167300Y31070D03*
X169100Y29200D03*
G54D21*
X-69000Y68250D03*
Y74350D03*
X186000Y20450D03*
Y26550D03*
G54D12*
X-195700Y-71100D03*
Y-64700D03*
X-87000Y81230D03*
Y87630D03*
X-26700Y90800D03*
Y84400D03*
X-32220Y90800D03*
Y84400D03*
X-37740D03*
Y90800D03*
G54D30*
X180210Y78520D03*
X203830D03*
G54D13*
X-154420Y52220D03*
X-160520D03*
X-150650Y-31740D03*
X-144550D03*
X-150650Y-37650D03*
X-144550D03*
X18600Y87300D03*
X24700D03*
X39550Y26500D03*
X45650D03*
X163250Y1800D03*
X169350D03*
G54D31*
X190050Y97020D03*
G54D22*
X-15830Y-15110D03*
X-20350Y-10590D03*
G54D23*
X24700Y108140D03*
Y97120D03*
G54D14*
X-130390Y57770D03*
Y81230D03*
X-100790Y57770D03*
Y81230D03*
G54D32*
X217000Y-95100D03*
Y-76200D03*
Y-57300D03*
G54D33*
G01X-97040Y-38460D02*
X-112880Y-54300D01*
X-211600D01*
G01X-200910Y-26200D02*
Y-15600D01*
G01X-203000Y-20500D02*
Y-28400D01*
G01X-204800Y-30300D02*
Y-24900D01*
G01X-206600Y-26700D02*
Y-21000D01*
G01X-205700Y-11100D02*
X-200840D01*
G01X-205650Y-8350D02*
X-199040D01*
G01X-205700Y-4990D02*
X-197200D01*
G01X-195400Y-1210D02*
X-205700D01*
G01X-190510Y1110D02*
X-207800D01*
G01X-183300Y5700D02*
X-211600D01*
G01X-71500Y-57460D02*
X-92040Y-78000D01*
X-161700D01*
X-180400Y-96700D01*
X-187200D01*
G01X-196180Y-26100D02*
Y-13700D01*
G01X-195900Y10200D02*
X-176200D01*
G01X-186200Y23600D02*
X-183480D01*
X-170990Y11110D01*
G01X-184330Y21630D02*
X-184230D01*
X-184100Y21500D01*
X-183950D01*
X-170970Y8520D01*
G01X-187000Y65700D02*
Y72400D01*
G01X-178810Y68400D02*
Y76400D01*
G01X-181510Y68400D02*
Y76400D01*
G01X-189100Y68800D02*
Y75700D01*
G01X-168400Y23600D02*
Y7630D01*
X-170520Y5510D01*
G01X-165800Y11200D02*
Y23600D01*
G01X-163360Y43070D02*
Y41240D01*
X-133300Y11180D01*
G01X-170240Y68400D02*
Y76400D01*
G01X-173120Y68400D02*
Y76400D01*
G01X-176110Y68400D02*
Y76400D01*
G01X-167520Y68400D02*
Y76400D01*
G01X-144550Y-37750D02*
Y-37650D01*
G01X-126900Y-96700D02*
X-119140Y-104460D01*
Y-116400D01*
G01X-126900Y-90800D02*
X-109140Y-108560D01*
Y-116400D01*
G01X-126900Y-84400D02*
X-129800Y-87300D01*
Y-100300D01*
X-126900Y-103200D01*
G01X-96990Y-41200D02*
X-108990Y-53200D01*
G01X-110740Y-29900D02*
X-116340Y-35500D01*
X-122530D01*
X-127000Y-39970D01*
G01X-102090Y35530D02*
Y31280D01*
X-110000Y23370D01*
Y7910D01*
X-112010Y5900D01*
G01X-112110Y8790D02*
Y35530D01*
G01D02*
Y44650D01*
G01X-75690Y-56090D02*
X-89700Y-70100D01*
G01X-94250Y-41250D02*
X-106150Y-53150D01*
G01X-91420Y-43970D02*
X-100620Y-53170D01*
G01X-94220Y-43980D02*
X-103420Y-53180D01*
G01X-91130Y-46470D02*
X-97780Y-53120D01*
G01X-75990Y-53600D02*
X-89990Y-67600D01*
G01X-102090Y35530D02*
Y40270D01*
X-102110Y40290D01*
Y44650D01*
G01X-108000Y92500D02*
Y101000D01*
G01X-98000Y90600D02*
Y101000D01*
G01X-76990Y61510D02*
X-68700D01*
G01X-70740Y68250D02*
X-69000D01*
G01X-55600Y-63140D02*
X-42530Y-76210D01*
G01X-57490Y-64790D02*
X-44450Y-77830D01*
G01X-46000Y-68300D02*
X-40300Y-74000D01*
G01X-44160Y-66440D02*
X-38460Y-72140D01*
G01X63150Y-43880D02*
X49820D01*
X32100Y-61600D01*
X-11000D01*
X-29390Y-79990D01*
X-46000D01*
X-58440Y-67550D01*
G01X63150Y-48210D02*
X47050D01*
X32560Y-62700D01*
X-10090D01*
X-29190Y-81800D01*
X-47090D01*
X-61200Y-67690D01*
G01X-28990Y-71500D02*
X-29090Y-71600D01*
X-31720D01*
X-43760Y-59560D01*
G01X-46350Y-59760D02*
X-33410Y-72700D01*
G01X-43560Y-56980D02*
X-30790Y-69750D01*
G01X-45880Y48890D02*
X-58500Y61510D01*
X-62300D01*
G01X-40800Y106850D02*
X-37740Y103790D01*
Y90800D01*
G01X-39390Y-52800D02*
X-25090Y-67100D01*
G01X-20700Y92400D02*
Y116900D01*
G01X-26700Y90800D02*
Y103950D01*
X-29680Y106930D01*
G01X-32220Y90800D02*
Y98430D01*
X-29800Y100850D01*
G01X-8700Y-64500D02*
X32320D01*
X39950Y-56870D01*
X63150D01*
G01X21200Y-43900D02*
Y-55800D01*
G01X18490Y-55810D02*
Y-43900D01*
G01X12060Y-55800D02*
Y-47500D01*
G01X8100Y-55800D02*
Y-51100D01*
G01X17000Y92300D02*
Y115440D01*
X12140Y120300D01*
G01Y110300D02*
Y92300D01*
G01X48300Y-101140D02*
X57000Y-92440D01*
Y-74370D01*
X61470Y-69900D01*
X63270D01*
G01X58300Y-101140D02*
Y-75810D01*
X59910Y-74200D01*
X63070D01*
G01X158500Y-19000D02*
X166670D01*
X175670Y-10000D01*
G01X153000Y-21000D02*
X171090D01*
X172090Y-20000D01*
X175670D01*
G01X158600Y10000D02*
X175670D01*
G01X144800Y27700D02*
X148170Y31070D01*
X167300D01*
G01X146600Y25800D02*
X150000Y29200D01*
X169100D01*
G54D24*
X40710Y-87970D03*
Y-34430D03*
X73380Y-87970D03*
Y-34430D03*
G54D15*
X-106220Y-25380D03*
X-110740Y-29900D03*
G54D34*
G01X-118510Y35530D02*
Y41050D01*
X-122110Y44650D01*
G01X-91630Y-21910D02*
Y-21930D01*
G01X-100790Y57770D02*
X-85050D01*
G01X-78320Y86060D02*
X-80960D01*
X-82530Y87630D01*
X-87000D01*
G01X-100790Y81230D02*
X-87000D01*
G01X-85050Y57770D02*
Y62790D01*
X-78320Y69520D01*
G01Y86060D02*
Y80200D01*
X-72470Y74350D01*
X-69000D01*
G01X-66000Y101000D02*
Y90800D01*
G01X-58180Y-55340D02*
X-58140D01*
G01X-43600Y92200D02*
Y98150D01*
X-41210Y100540D01*
G01X-39610Y-38480D02*
Y-38410D01*
G01X-25750Y-24620D02*
Y-24450D01*
G01X-29680Y17710D02*
X-29710D01*
G01X-14700Y2730D02*
Y2400D01*
G54D25*
X63150Y-74190D03*
Y-69860D03*
Y-48210D03*
Y-52540D03*
Y-56870D03*
Y-61200D03*
Y-65530D03*
Y-43880D03*
G54D16*
X-107120Y-4650D03*
X-102800Y-8970D03*
X-98890Y-5050D03*
X-103210Y-730D03*
X-88870Y4960D03*
X-93190Y9280D03*
X-74720Y19120D03*
X-79040Y23440D03*
X-43930Y-34160D03*
X-39610Y-38480D03*
X-53240Y-10170D03*
X-57560Y-5850D03*
X-25750Y-24620D03*
X-30070Y-20300D03*
X-11900Y-2140D03*
X-7580Y-6460D03*
G54D35*
G01X175670Y20000D02*
X136500D01*
X134500Y18000D01*
G54D17*
X-112110Y35530D03*
X-118510D03*
X-102090D03*
X-95690D03*
X-62300Y61510D03*
X-68700D03*
X60800Y26500D03*
X54400D03*
X71920D03*
X65520D03*
G54D26*
X155670Y-25000D03*
Y-5000D03*
Y-15000D03*
Y5000D03*
Y15000D03*
Y35000D03*
Y25000D03*
X175670Y-30000D03*
Y0D03*
Y-10000D03*
Y-20000D03*
Y20000D03*
Y10000D03*
Y30000D03*
G54D36*
G01X72900Y71530D02*
X78660D01*
G01X72900Y100690D02*
Y88070D01*
G01X81000Y69190D02*
X84000Y66190D01*
G01X78660Y71530D02*
X81000Y69190D01*
G01X111160Y-78840D02*
X144400D01*
G01X144300Y78490D02*
X110830D01*
G01X183500Y-89720D02*
X179560D01*
X173770Y-83930D01*
G03X161480Y-78840I-12290J-12292D01*
G01X144400D01*
G01X180210Y78520D02*
X144330D01*
X144300Y78490D01*
G54D18*
X-91630Y-21910D03*
X-87310Y-17590D03*
X-62990Y-50530D03*
X-71890Y-33000D03*
X-76210Y-37320D03*
X-64640Y34060D03*
X-68960Y29740D03*
X-53860Y-51020D03*
X-58180Y-55340D03*
X-58670Y-46210D03*
X-49960Y29430D03*
X-45640Y33750D03*
X-55640Y43560D03*
X-59960Y39240D03*
X-54960Y34340D03*
X-50640Y38660D03*
X-45140Y24580D03*
X-40820Y28900D03*
X-19020Y-1590D03*
X-14700Y2730D03*
X-34000Y13390D03*
X-29680Y17710D03*
G54D27*
X155670Y-35000D03*
G54D37*
G01X183500Y-64280D02*
X193550D01*
G02X206550Y-69670I0J-18372D01*
G01X213060Y-76190D01*
X217000Y-76200D01*
G54D28*
X183500Y-89720D03*
G54D19*
X-85050Y57770D03*
X-76990Y54030D03*
Y61510D03*
G54D29*
X183500Y-64280D03*
M02*
