G04 ================== begin FILE IDENTIFICATION RECORD ==================*
G04 Layout Name:  E:/A_Project/AA_Proj/allegro/AA_05122213.brd*
G04 Film Name:    DRILL_DRAWING*
G04 File Format:  Gerber RS274X*
G04 File Origin:  Cadence Allegro 17.2-S057*
G04 Origin Date:  Thu May 14 15:01:31 2020*
G04 *
G04 Layer:  MANUFACTURING/NCLEGEND-1-2*
G04 *
G04 Offset:    (0.0 0.0)*
G04 Mirror:    No*
G04 Mode:      Positive*
G04 Rotation:  0*
G04 FullContactRelief:  No*
G04 UndefLineWidth:     6.0*
G04 ================== end FILE IDENTIFICATION RECORD ====================*
%FSLAX25Y25*MOIN*%
%IR0*IPPOS*OFA0.00000B0.00000*MIA0B0*SFA1.00000B1.00000*%
%AMMACRO19*
1,1,.006,.0059,0.0*
20,1,.006,.0059,0.0,.00581,-.001025,0.0*
1,1,.006,.00581,-.001025*
20,1,.006,.00581,-.001025,.005544,-.002018,0.0*
1,1,.006,.005544,-.002018*
20,1,.006,.005544,-.002018,.00511,-.00295,0.0*
1,1,.006,.00511,-.00295*
20,1,.006,.00511,-.00295,.00452,-.003792,0.0*
1,1,.006,.00452,-.003792*
20,1,.006,.00452,-.003792,.003792,-.00452,0.0*
1,1,.006,.003792,-.00452*
20,1,.006,.003792,-.00452,.00295,-.00511,0.0*
1,1,.006,.00295,-.00511*
20,1,.006,.00295,-.00511,.002018,-.005544,0.0*
1,1,.006,.002018,-.005544*
20,1,.006,.002018,-.005544,.001025,-.00581,0.0*
1,1,.006,.001025,-.00581*
20,1,.006,.001025,-.00581,0.0,-.0059,0.0*
1,1,.006,0.0,-.0059*
20,1,.006,0.0,-.0059,-.001025,-.00581,0.0*
1,1,.006,-.001025,-.00581*
20,1,.006,-.001025,-.00581,-.002018,-.005544,0.0*
1,1,.006,-.002018,-.005544*
20,1,.006,-.002018,-.005544,-.00295,-.00511,0.0*
1,1,.006,-.00295,-.00511*
20,1,.006,-.00295,-.00511,-.003792,-.00452,0.0*
1,1,.006,-.003792,-.00452*
20,1,.006,-.003792,-.00452,-.00452,-.003792,0.0*
1,1,.006,-.00452,-.003792*
20,1,.006,-.00452,-.003792,-.00511,-.00295,0.0*
1,1,.006,-.00511,-.00295*
20,1,.006,-.00511,-.00295,-.005544,-.002018,0.0*
1,1,.006,-.005544,-.002018*
20,1,.006,-.005544,-.002018,-.00581,-.001025,0.0*
1,1,.006,-.00581,-.001025*
20,1,.006,-.00581,-.001025,-.0059,0.0,0.0*
1,1,.006,-.0059,0.0*
20,1,.006,-.0059,0.0,-.00581,.001025,0.0*
1,1,.006,-.00581,.001025*
20,1,.006,-.00581,.001025,-.005544,.002018,0.0*
1,1,.006,-.005544,.002018*
20,1,.006,-.005544,.002018,-.00511,.00295,0.0*
1,1,.006,-.00511,.00295*
20,1,.006,-.00511,.00295,-.00452,.003792,0.0*
1,1,.006,-.00452,.003792*
20,1,.006,-.00452,.003792,-.003792,.00452,0.0*
1,1,.006,-.003792,.00452*
20,1,.006,-.003792,.00452,-.00295,.00511,0.0*
1,1,.006,-.00295,.00511*
20,1,.006,-.00295,.00511,-.002018,.005544,0.0*
1,1,.006,-.002018,.005544*
20,1,.006,-.002018,.005544,-.001025,.00581,0.0*
1,1,.006,-.001025,.00581*
20,1,.006,-.001025,.00581,0.0,.0059,0.0*
1,1,.006,0.0,.0059*
20,1,.006,0.0,.0059,.001025,.00581,0.0*
1,1,.006,.001025,.00581*
20,1,.006,.001025,.00581,.002018,.005544,0.0*
1,1,.006,.002018,.005544*
20,1,.006,.002018,.005544,.00295,.00511,0.0*
1,1,.006,.00295,.00511*
20,1,.006,.00295,.00511,.003792,.00452,0.0*
1,1,.006,.003792,.00452*
20,1,.006,.003792,.00452,.00452,.003792,0.0*
1,1,.006,.00452,.003792*
20,1,.006,.00452,.003792,.00511,.00295,0.0*
1,1,.006,.00511,.00295*
20,1,.006,.00511,.00295,.005544,.002018,0.0*
1,1,.006,.005544,.002018*
20,1,.006,.005544,.002018,.00581,.001025,0.0*
1,1,.006,.00581,.001025*
20,1,.006,.00581,.001025,.0059,0.0,0.0*
1,1,.006,.0059,0.0*
1,1,.006,-.005,-.0017*
20,1,.006,-.005,-.0017,-.005,.0018,0.0*
1,1,.006,-.005,.0018*
20,1,.006,-.005,.0018,-.0035,-.0011,0.0*
1,1,.006,-.0035,-.0011*
20,1,.006,-.0035,-.0011,-.0019,.0018,0.0*
1,1,.006,-.0019,.0018*
20,1,.006,-.0019,.0018,-.0019,-.0017,0.0*
1,1,.006,-.0019,-.0017*
1,1,.006,.0013,-.0017*
20,1,.006,.0013,-.0017,-.001,-.0017,0.0*
1,1,.006,-.001,-.0017*
20,1,.006,-.001,-.0017,-.001,.0018,0.0*
1,1,.006,-.001,.0018*
20,1,.006,-.001,.0018,.0013,.0018,0.0*
1,1,.006,.0013,.0018*
1,1,.006,.0004,.0001*
20,1,.006,.0004,.0001,-.001,.0001,0.0*
1,1,.006,-.001,.0001*
1,1,.006,.005,.0015*
20,1,.006,.005,.0015,.0047,.0017,0.0*
1,1,.006,.0047,.0017*
20,1,.006,.0047,.0017,.0043,.0018,0.0*
1,1,.006,.0043,.0018*
20,1,.006,.0043,.0018,.0038,.0018,0.0*
1,1,.006,.0038,.0018*
20,1,.006,.0038,.0018,.0033,.0016,0.0*
1,1,.006,.0033,.0016*
20,1,.006,.0033,.0016,.0029,.0013,0.0*
1,1,.006,.0029,.0013*
20,1,.006,.0029,.0013,.0026,.001,0.0*
1,1,.006,.0026,.001*
20,1,.006,.0026,.001,.0023,.0004,0.0*
1,1,.006,.0023,.0004*
20,1,.006,.0023,.0004,.0023,-.0001,0.0*
1,1,.006,.0023,-.0001*
20,1,.006,.0023,-.0001,.0024,-.0007,0.0*
1,1,.006,.0024,-.0007*
20,1,.006,.0024,-.0007,.0026,-.001,0.0*
1,1,.006,.0026,-.001*
20,1,.006,.0026,-.001,.0029,-.0014,0.0*
1,1,.006,.0029,-.0014*
20,1,.006,.0029,-.0014,.0033,-.0016,0.0*
1,1,.006,.0033,-.0016*
20,1,.006,.0033,-.0016,.0037,-.0017,0.0*
1,1,.006,.0037,-.0017*
20,1,.006,.0037,-.0017,.0042,-.0017,0.0*
1,1,.006,.0042,-.0017*
20,1,.006,.0042,-.0017,.0046,-.0016,0.0*
1,1,.006,.0046,-.0016*
20,1,.006,.0046,-.0016,.0049,-.0014,0.0*
1,1,.006,.0049,-.0014*
20,1,.006,.0049,-.0014,.0052,-.0012,0.0*
1,1,.006,.0052,-.0012*
%
%ADD19MACRO19*%
%AMMACRO15*
1,1,.006,.0295,-.0197*
20,1,.006,.0295,-.0197,-.0295,-.0197,0.0*
1,1,.006,-.0295,-.0197*
20,1,.006,-.0295,-.0197,-.032921,-.019401,0.0*
1,1,.006,-.032921,-.019401*
20,1,.006,-.032921,-.019401,-.036238,-.018512,0.0*
1,1,.006,-.036238,-.018512*
20,1,.006,-.036238,-.018512,-.03935,-.017061,0.0*
1,1,.006,-.03935,-.017061*
20,1,.006,-.03935,-.017061,-.042163,-.015091,0.0*
1,1,.006,-.042163,-.015091*
20,1,.006,-.042163,-.015091,-.044591,-.012663,0.0*
1,1,.006,-.044591,-.012663*
20,1,.006,-.044591,-.012663,-.046561,-.00985,0.0*
1,1,.006,-.046561,-.00985*
20,1,.006,-.046561,-.00985,-.048012,-.006738,0.0*
1,1,.006,-.048012,-.006738*
20,1,.006,-.048012,-.006738,-.048901,-.003421,0.0*
1,1,.006,-.048901,-.003421*
20,1,.006,-.048901,-.003421,-.0492,0.0,0.0*
1,1,.006,-.0492,0.0*
20,1,.006,-.0492,0.0,-.048901,.003421,0.0*
1,1,.006,-.048901,.003421*
20,1,.006,-.048901,.003421,-.048012,.006738,0.0*
1,1,.006,-.048012,.006738*
20,1,.006,-.048012,.006738,-.046561,.00985,0.0*
1,1,.006,-.046561,.00985*
20,1,.006,-.046561,.00985,-.044591,.012663,0.0*
1,1,.006,-.044591,.012663*
20,1,.006,-.044591,.012663,-.042163,.015091,0.0*
1,1,.006,-.042163,.015091*
20,1,.006,-.042163,.015091,-.03935,.017061,0.0*
1,1,.006,-.03935,.017061*
20,1,.006,-.03935,.017061,-.036238,.018512,0.0*
1,1,.006,-.036238,.018512*
20,1,.006,-.036238,.018512,-.032921,.019401,0.0*
1,1,.006,-.032921,.019401*
20,1,.006,-.032921,.019401,-.0295,.0197,0.0*
1,1,.006,-.0295,.0197*
20,1,.006,-.0295,.0197,.0295,.0197,0.0*
1,1,.006,.0295,.0197*
20,1,.006,.0295,.0197,.032921,.019401,0.0*
1,1,.006,.032921,.019401*
20,1,.006,.032921,.019401,.036238,.018512,0.0*
1,1,.006,.036238,.018512*
20,1,.006,.036238,.018512,.03935,.017061,0.0*
1,1,.006,.03935,.017061*
20,1,.006,.03935,.017061,.042163,.015091,0.0*
1,1,.006,.042163,.015091*
20,1,.006,.042163,.015091,.044591,.012663,0.0*
1,1,.006,.044591,.012663*
20,1,.006,.044591,.012663,.046561,.00985,0.0*
1,1,.006,.046561,.00985*
20,1,.006,.046561,.00985,.048012,.006738,0.0*
1,1,.006,.048012,.006738*
20,1,.006,.048012,.006738,.048901,.003421,0.0*
1,1,.006,.048901,.003421*
20,1,.006,.048901,.003421,.0492,0.0,0.0*
1,1,.006,.0492,0.0*
20,1,.006,.0492,0.0,.048901,-.003421,0.0*
1,1,.006,.048901,-.003421*
20,1,.006,.048901,-.003421,.048012,-.006738,0.0*
1,1,.006,.048012,-.006738*
20,1,.006,.048012,-.006738,.046561,-.00985,0.0*
1,1,.006,.046561,-.00985*
20,1,.006,.046561,-.00985,.044591,-.012663,0.0*
1,1,.006,.044591,-.012663*
20,1,.006,.044591,-.012663,.042163,-.015091,0.0*
1,1,.006,.042163,-.015091*
20,1,.006,.042163,-.015091,.03935,-.017061,0.0*
1,1,.006,.03935,-.017061*
20,1,.006,.03935,-.017061,.036238,-.018512,0.0*
1,1,.006,.036238,-.018512*
20,1,.006,.036238,-.018512,.032921,-.019401,0.0*
1,1,.006,.032921,-.019401*
20,1,.006,.032921,-.019401,.0295,-.0197,0.0*
1,1,.006,.0295,-.0197*
1,1,.006,-.0068,-.0072*
20,1,.006,-.0068,-.0072,-.0042,-.0088,0.0*
1,1,.006,-.0042,-.0088*
20,1,.006,-.0042,-.0088,-.0013,-.0098,0.0*
1,1,.006,-.0013,-.0098*
20,1,.006,-.0013,-.0098,.0014,-.0098,0.0*
1,1,.006,.0014,-.0098*
20,1,.006,.0014,-.0098,.004,-.0088,0.0*
1,1,.006,.004,-.0088*
20,1,.006,.004,-.0088,.006,-.0072,0.0*
1,1,.006,.006,-.0072*
20,1,.006,.006,-.0072,.0069,-.0049,0.0*
1,1,.006,.0069,-.0049*
20,1,.006,.0069,-.0049,.0063,-.0026,0.0*
1,1,.006,.0063,-.0026*
20,1,.006,.0063,-.0026,.0046,-.0006,0.0*
1,1,.006,.0046,-.0006*
20,1,.006,.0046,-.0006,.0017,.0007,0.0*
1,1,.006,.0017,.0007*
20,1,.006,.0017,.0007,-.0022,.0014,0.0*
1,1,.006,-.0022,.0014*
20,1,.006,-.0022,.0014,-.0045,.0027,0.0*
1,1,.006,-.0045,.0027*
20,1,.006,-.0045,.0027,-.0055,.005,0.0*
1,1,.006,-.0055,.005*
20,1,.006,-.0055,.005,-.0049,.0073,0.0*
1,1,.006,-.0049,.0073*
20,1,.006,-.0049,.0073,-.0032,.0089,0.0*
1,1,.006,-.0032,.0089*
20,1,.006,-.0032,.0089,-.0009,.0099,0.0*
1,1,.006,-.0009,.0099*
20,1,.006,-.0009,.0099,.0014,.0099,0.0*
1,1,.006,.0014,.0099*
20,1,.006,.0014,.0099,.0037,.0092,0.0*
1,1,.006,.0037,.0092*
20,1,.006,.0037,.0092,.0056,.0076,0.0*
1,1,.006,.0056,.0076*
%
%ADD15MACRO15*%
%AMMACRO18*
1,1,.006,.00885,0.0*
20,1,.006,.00885,0.0,.008716,-.001537,0.0*
1,1,.006,.008716,-.001537*
20,1,.006,.008716,-.001537,.008316,-.003027,0.0*
1,1,.006,.008316,-.003027*
20,1,.006,.008316,-.003027,.007664,-.004425,0.0*
1,1,.006,.007664,-.004425*
20,1,.006,.007664,-.004425,.006779,-.005689,0.0*
1,1,.006,.006779,-.005689*
20,1,.006,.006779,-.005689,.005689,-.006779,0.0*
1,1,.006,.005689,-.006779*
20,1,.006,.005689,-.006779,.004425,-.007664,0.0*
1,1,.006,.004425,-.007664*
20,1,.006,.004425,-.007664,.003027,-.008316,0.0*
1,1,.006,.003027,-.008316*
20,1,.006,.003027,-.008316,.001537,-.008716,0.0*
1,1,.006,.001537,-.008716*
20,1,.006,.001537,-.008716,0.0,-.00885,0.0*
1,1,.006,0.0,-.00885*
20,1,.006,0.0,-.00885,-.001537,-.008716,0.0*
1,1,.006,-.001537,-.008716*
20,1,.006,-.001537,-.008716,-.003027,-.008316,0.0*
1,1,.006,-.003027,-.008316*
20,1,.006,-.003027,-.008316,-.004425,-.007664,0.0*
1,1,.006,-.004425,-.007664*
20,1,.006,-.004425,-.007664,-.005689,-.006779,0.0*
1,1,.006,-.005689,-.006779*
20,1,.006,-.005689,-.006779,-.006779,-.005689,0.0*
1,1,.006,-.006779,-.005689*
20,1,.006,-.006779,-.005689,-.007664,-.004425,0.0*
1,1,.006,-.007664,-.004425*
20,1,.006,-.007664,-.004425,-.008316,-.003027,0.0*
1,1,.006,-.008316,-.003027*
20,1,.006,-.008316,-.003027,-.008716,-.001537,0.0*
1,1,.006,-.008716,-.001537*
20,1,.006,-.008716,-.001537,-.00885,0.0,0.0*
1,1,.006,-.00885,0.0*
20,1,.006,-.00885,0.0,-.008716,.001537,0.0*
1,1,.006,-.008716,.001537*
20,1,.006,-.008716,.001537,-.008316,.003027,0.0*
1,1,.006,-.008316,.003027*
20,1,.006,-.008316,.003027,-.007664,.004425,0.0*
1,1,.006,-.007664,.004425*
20,1,.006,-.007664,.004425,-.006779,.005689,0.0*
1,1,.006,-.006779,.005689*
20,1,.006,-.006779,.005689,-.005689,.006779,0.0*
1,1,.006,-.005689,.006779*
20,1,.006,-.005689,.006779,-.004425,.007664,0.0*
1,1,.006,-.004425,.007664*
20,1,.006,-.004425,.007664,-.003027,.008316,0.0*
1,1,.006,-.003027,.008316*
20,1,.006,-.003027,.008316,-.001537,.008716,0.0*
1,1,.006,-.001537,.008716*
20,1,.006,-.001537,.008716,0.0,.00885,0.0*
1,1,.006,0.0,.00885*
20,1,.006,0.0,.00885,.001537,.008716,0.0*
1,1,.006,.001537,.008716*
20,1,.006,.001537,.008716,.003027,.008316,0.0*
1,1,.006,.003027,.008316*
20,1,.006,.003027,.008316,.004425,.007664,0.0*
1,1,.006,.004425,.007664*
20,1,.006,.004425,.007664,.005689,.006779,0.0*
1,1,.006,.005689,.006779*
20,1,.006,.005689,.006779,.006779,.005689,0.0*
1,1,.006,.006779,.005689*
20,1,.006,.006779,.005689,.007664,.004425,0.0*
1,1,.006,.007664,.004425*
20,1,.006,.007664,.004425,.008316,.003027,0.0*
1,1,.006,.008316,.003027*
20,1,.006,.008316,.003027,.008716,.001537,0.0*
1,1,.006,.008716,.001537*
20,1,.006,.008716,.001537,.00885,0.0,0.0*
1,1,.006,.00885,0.0*
1,1,.006,-.0075,-.0026*
20,1,.006,-.0075,-.0026,-.0075,.0026,0.0*
1,1,.006,-.0075,.0026*
20,1,.006,-.0075,.0026,-.0052,-.0017,0.0*
1,1,.006,-.0052,-.0017*
20,1,.006,-.0052,-.0017,-.0029,.0026,0.0*
1,1,.006,-.0029,.0026*
20,1,.006,-.0029,.0026,-.0029,-.0026,0.0*
1,1,.006,-.0029,-.0026*
1,1,.006,.0018,-.0026*
20,1,.006,.0018,-.0026,-.0016,-.0026,0.0*
1,1,.006,-.0016,-.0026*
20,1,.006,-.0016,-.0026,-.0016,.0026,0.0*
1,1,.006,-.0016,.0026*
20,1,.006,-.0016,.0026,.0018,.0026,0.0*
1,1,.006,.0018,.0026*
1,1,.006,.0004,.0001*
20,1,.006,.0004,.0001,-.0016,.0001,0.0*
1,1,.006,-.0016,.0001*
1,1,.006,.0073,.0022*
20,1,.006,.0073,.0022,.0068,.0024,0.0*
1,1,.006,.0068,.0024*
20,1,.006,.0068,.0024,.0062,.0026,0.0*
1,1,.006,.0062,.0026*
20,1,.006,.0062,.0026,.0055,.0026,0.0*
1,1,.006,.0055,.0026*
20,1,.006,.0055,.0026,.0047,.0023,0.0*
1,1,.006,.0047,.0023*
20,1,.006,.0047,.0023,.0041,.0019,0.0*
1,1,.006,.0041,.0019*
20,1,.006,.0041,.0019,.0037,.0014,0.0*
1,1,.006,.0037,.0014*
20,1,.006,.0037,.0014,.0033,.0005,0.0*
1,1,.006,.0033,.0005*
20,1,.006,.0033,.0005,.0032,-.0003,0.0*
1,1,.006,.0032,-.0003*
20,1,.006,.0032,-.0003,.0034,-.001,0.0*
1,1,.006,.0034,-.001*
20,1,.006,.0034,-.001,.0037,-.0016,0.0*
1,1,.006,.0037,-.0016*
20,1,.006,.0037,-.0016,.0042,-.0021,0.0*
1,1,.006,.0042,-.0021*
20,1,.006,.0042,-.0021,.0048,-.0024,0.0*
1,1,.006,.0048,-.0024*
20,1,.006,.0048,-.0024,.0054,-.0026,0.0*
1,1,.006,.0054,-.0026*
20,1,.006,.0054,-.0026,.006,-.0026,0.0*
1,1,.006,.006,-.0026*
20,1,.006,.006,-.0026,.0066,-.0024,0.0*
1,1,.006,.0066,-.0024*
20,1,.006,.0066,-.0024,.0071,-.0022,0.0*
1,1,.006,.0071,-.0022*
20,1,.006,.0071,-.0022,.0076,-.0018,0.0*
1,1,.006,.0076,-.0018*
%
%ADD18MACRO18*%
%AMMACRO10*
1,1,.006,.05905,0.0*
20,1,.006,.05905,0.0,.029525,.051139,0.0*
1,1,.006,.029525,.051139*
20,1,.006,.029525,.051139,-.029525,.051139,0.0*
1,1,.006,-.029525,.051139*
20,1,.006,-.029525,.051139,-.05905,0.0,0.0*
1,1,.006,-.05905,0.0*
20,1,.006,-.05905,0.0,-.029525,-.051139,0.0*
1,1,.006,-.029525,-.051139*
20,1,.006,-.029525,-.051139,.029525,-.051139,0.0*
1,1,.006,.029525,-.051139*
20,1,.006,.029525,-.051139,.05905,0.0,0.0*
1,1,.006,.05905,0.0*
1,1,.006,-.0345,-.012*
20,1,.006,-.0345,-.012,-.0345,.0121,0.0*
1,1,.006,-.0345,.0121*
20,1,.006,-.0345,.0121,-.0241,-.008,0.0*
1,1,.006,-.0241,-.008*
20,1,.006,-.0241,-.008,-.0136,.0121,0.0*
1,1,.006,-.0136,.0121*
20,1,.006,-.0136,.0121,-.0136,-.012,0.0*
1,1,.006,-.0136,-.012*
1,1,.006,.0082,-.012*
20,1,.006,.0082,-.012,-.0079,-.012,0.0*
1,1,.006,-.0079,-.012*
20,1,.006,-.0079,-.012,-.0079,.0121,0.0*
1,1,.006,-.0079,.0121*
20,1,.006,-.0079,.0121,.0082,.0121,0.0*
1,1,.006,.0082,.0121*
1,1,.006,.0018,.0005*
20,1,.006,.0018,.0005,-.0079,.0005,0.0*
1,1,.006,-.0079,.0005*
1,1,.006,.0332,.0101*
20,1,.006,.0332,.0101,.0308,.0113,0.0*
1,1,.006,.0308,.0113*
20,1,.006,.0308,.0113,.028,.0121,0.0*
1,1,.006,.028,.0121*
20,1,.006,.028,.0121,.0248,.0121,0.0*
1,1,.006,.0248,.0121*
20,1,.006,.0248,.0121,.0211,.0109,0.0*
1,1,.006,.0211,.0109*
20,1,.006,.0211,.0109,.0183,.0089,0.0*
1,1,.006,.0183,.0089*
20,1,.006,.0183,.0089,.0163,.0065,0.0*
1,1,.006,.0163,.0065*
20,1,.006,.0163,.0065,.0147,.0025,0.0*
1,1,.006,.0147,.0025*
20,1,.006,.0147,.0025,.0143,-.0012,0.0*
1,1,.006,.0143,-.0012*
20,1,.006,.0143,-.0012,.0151,-.0048,0.0*
1,1,.006,.0151,-.0048*
20,1,.006,.0151,-.0048,.0163,-.0072,0.0*
1,1,.006,.0163,-.0072*
20,1,.006,.0163,-.0072,.0187,-.0096,0.0*
1,1,.006,.0187,-.0096*
20,1,.006,.0187,-.0096,.0215,-.0112,0.0*
1,1,.006,.0215,-.0112*
20,1,.006,.0215,-.0112,.0243,-.012,0.0*
1,1,.006,.0243,-.012*
20,1,.006,.0243,-.012,.0272,-.012,0.0*
1,1,.006,.0272,-.012*
20,1,.006,.0272,-.012,.03,-.0112,0.0*
1,1,.006,.03,-.0112*
20,1,.006,.03,-.0112,.0324,-.01,0.0*
1,1,.006,.0324,-.01*
20,1,.006,.0324,-.01,.0344,-.0084,0.0*
1,1,.006,.0344,-.0084*
%
%ADD10MACRO10*%
%AMMACRO14*
1,1,.006,.05905,.0197*
20,1,.006,.05905,.0197,.05905,-.0197,0.0*
1,1,.006,.05905,-.0197*
20,1,.006,.05905,-.0197,-.05905,-.0197,0.0*
1,1,.006,-.05905,-.0197*
20,1,.006,-.05905,-.0197,-.05905,.0197,0.0*
1,1,.006,-.05905,.0197*
20,1,.006,-.05905,.0197,.05905,.0197,0.0*
1,1,.006,.05905,.0197*
1,1,.006,-.0068,-.0072*
20,1,.006,-.0068,-.0072,-.0042,-.0088,0.0*
1,1,.006,-.0042,-.0088*
20,1,.006,-.0042,-.0088,-.0013,-.0098,0.0*
1,1,.006,-.0013,-.0098*
20,1,.006,-.0013,-.0098,.0014,-.0098,0.0*
1,1,.006,.0014,-.0098*
20,1,.006,.0014,-.0098,.004,-.0088,0.0*
1,1,.006,.004,-.0088*
20,1,.006,.004,-.0088,.006,-.0072,0.0*
1,1,.006,.006,-.0072*
20,1,.006,.006,-.0072,.0069,-.0049,0.0*
1,1,.006,.0069,-.0049*
20,1,.006,.0069,-.0049,.0063,-.0026,0.0*
1,1,.006,.0063,-.0026*
20,1,.006,.0063,-.0026,.0046,-.0006,0.0*
1,1,.006,.0046,-.0006*
20,1,.006,.0046,-.0006,.0017,.0007,0.0*
1,1,.006,.0017,.0007*
20,1,.006,.0017,.0007,-.0022,.0014,0.0*
1,1,.006,-.0022,.0014*
20,1,.006,-.0022,.0014,-.0045,.0027,0.0*
1,1,.006,-.0045,.0027*
20,1,.006,-.0045,.0027,-.0055,.005,0.0*
1,1,.006,-.0055,.005*
20,1,.006,-.0055,.005,-.0049,.0073,0.0*
1,1,.006,-.0049,.0073*
20,1,.006,-.0049,.0073,-.0032,.0089,0.0*
1,1,.006,-.0032,.0089*
20,1,.006,-.0032,.0089,-.0009,.0099,0.0*
1,1,.006,-.0009,.0099*
20,1,.006,-.0009,.0099,.0014,.0099,0.0*
1,1,.006,.0014,.0099*
20,1,.006,.0014,.0099,.0037,.0092,0.0*
1,1,.006,.0037,.0092*
20,1,.006,.0037,.0092,.0056,.0076,0.0*
1,1,.006,.0056,.0076*
%
%ADD14MACRO14*%
%AMMACRO20*
1,1,.006,.0197,0.0*
20,1,.006,.0197,0.0,-.0197,0.0,0.0*
1,1,.006,-.0197,0.0*
1,1,.006,0.0,.0197*
20,1,.006,0.0,.0197,0.0,-.0197,0.0*
1,1,.006,0.0,-.0197*
%
%ADD20MACRO20*%
%AMMACRO21*
1,1,.006,-.0295,.0197*
20,1,.006,-.0295,.0197,.0295,.0197,0.0*
1,1,.006,.0295,.0197*
20,1,.006,.0295,.0197,.032921,.019401,0.0*
1,1,.006,.032921,.019401*
20,1,.006,.032921,.019401,.036238,.018512,0.0*
1,1,.006,.036238,.018512*
20,1,.006,.036238,.018512,.03935,.017061,0.0*
1,1,.006,.03935,.017061*
20,1,.006,.03935,.017061,.042163,.015091,0.0*
1,1,.006,.042163,.015091*
20,1,.006,.042163,.015091,.044591,.012663,0.0*
1,1,.006,.044591,.012663*
20,1,.006,.044591,.012663,.046561,.00985,0.0*
1,1,.006,.046561,.00985*
20,1,.006,.046561,.00985,.048012,.006738,0.0*
1,1,.006,.048012,.006738*
20,1,.006,.048012,.006738,.048901,.003421,0.0*
1,1,.006,.048901,.003421*
20,1,.006,.048901,.003421,.0492,0.0,0.0*
1,1,.006,.0492,0.0*
20,1,.006,.0492,0.0,.048901,-.003421,0.0*
1,1,.006,.048901,-.003421*
20,1,.006,.048901,-.003421,.048012,-.006738,0.0*
1,1,.006,.048012,-.006738*
20,1,.006,.048012,-.006738,.046561,-.00985,0.0*
1,1,.006,.046561,-.00985*
20,1,.006,.046561,-.00985,.044591,-.012663,0.0*
1,1,.006,.044591,-.012663*
20,1,.006,.044591,-.012663,.042163,-.015091,0.0*
1,1,.006,.042163,-.015091*
20,1,.006,.042163,-.015091,.03935,-.017061,0.0*
1,1,.006,.03935,-.017061*
20,1,.006,.03935,-.017061,.036238,-.018512,0.0*
1,1,.006,.036238,-.018512*
20,1,.006,.036238,-.018512,.032921,-.019401,0.0*
1,1,.006,.032921,-.019401*
20,1,.006,.032921,-.019401,.0295,-.0197,0.0*
1,1,.006,.0295,-.0197*
20,1,.006,.0295,-.0197,-.0295,-.0197,0.0*
1,1,.006,-.0295,-.0197*
20,1,.006,-.0295,-.0197,-.032921,-.019401,0.0*
1,1,.006,-.032921,-.019401*
20,1,.006,-.032921,-.019401,-.036238,-.018512,0.0*
1,1,.006,-.036238,-.018512*
20,1,.006,-.036238,-.018512,-.03935,-.017061,0.0*
1,1,.006,-.03935,-.017061*
20,1,.006,-.03935,-.017061,-.042163,-.015091,0.0*
1,1,.006,-.042163,-.015091*
20,1,.006,-.042163,-.015091,-.044591,-.012663,0.0*
1,1,.006,-.044591,-.012663*
20,1,.006,-.044591,-.012663,-.046561,-.00985,0.0*
1,1,.006,-.046561,-.00985*
20,1,.006,-.046561,-.00985,-.048012,-.006738,0.0*
1,1,.006,-.048012,-.006738*
20,1,.006,-.048012,-.006738,-.048901,-.003421,0.0*
1,1,.006,-.048901,-.003421*
20,1,.006,-.048901,-.003421,-.0492,0.0,0.0*
1,1,.006,-.0492,0.0*
20,1,.006,-.0492,0.0,-.048901,.003421,0.0*
1,1,.006,-.048901,.003421*
20,1,.006,-.048901,.003421,-.048012,.006738,0.0*
1,1,.006,-.048012,.006738*
20,1,.006,-.048012,.006738,-.046561,.00985,0.0*
1,1,.006,-.046561,.00985*
20,1,.006,-.046561,.00985,-.044591,.012663,0.0*
1,1,.006,-.044591,.012663*
20,1,.006,-.044591,.012663,-.042163,.015091,0.0*
1,1,.006,-.042163,.015091*
20,1,.006,-.042163,.015091,-.03935,.017061,0.0*
1,1,.006,-.03935,.017061*
20,1,.006,-.03935,.017061,-.036238,.018512,0.0*
1,1,.006,-.036238,.018512*
20,1,.006,-.036238,.018512,-.032921,.019401,0.0*
1,1,.006,-.032921,.019401*
20,1,.006,-.032921,.019401,-.0295,.0197,0.0*
1,1,.006,-.0295,.0197*
1,1,.006,-.0068,-.0072*
20,1,.006,-.0068,-.0072,-.0042,-.0088,0.0*
1,1,.006,-.0042,-.0088*
20,1,.006,-.0042,-.0088,-.0013,-.0098,0.0*
1,1,.006,-.0013,-.0098*
20,1,.006,-.0013,-.0098,.0014,-.0098,0.0*
1,1,.006,.0014,-.0098*
20,1,.006,.0014,-.0098,.004,-.0088,0.0*
1,1,.006,.004,-.0088*
20,1,.006,.004,-.0088,.006,-.0072,0.0*
1,1,.006,.006,-.0072*
20,1,.006,.006,-.0072,.0069,-.0049,0.0*
1,1,.006,.0069,-.0049*
20,1,.006,.0069,-.0049,.0063,-.0026,0.0*
1,1,.006,.0063,-.0026*
20,1,.006,.0063,-.0026,.0046,-.0006,0.0*
1,1,.006,.0046,-.0006*
20,1,.006,.0046,-.0006,.0017,.0007,0.0*
1,1,.006,.0017,.0007*
20,1,.006,.0017,.0007,-.0022,.0014,0.0*
1,1,.006,-.0022,.0014*
20,1,.006,-.0022,.0014,-.0045,.0027,0.0*
1,1,.006,-.0045,.0027*
20,1,.006,-.0045,.0027,-.0055,.005,0.0*
1,1,.006,-.0055,.005*
20,1,.006,-.0055,.005,-.0049,.0073,0.0*
1,1,.006,-.0049,.0073*
20,1,.006,-.0049,.0073,-.0032,.0089,0.0*
1,1,.006,-.0032,.0089*
20,1,.006,-.0032,.0089,-.0009,.0099,0.0*
1,1,.006,-.0009,.0099*
20,1,.006,-.0009,.0099,.0014,.0099,0.0*
1,1,.006,.0014,.0099*
20,1,.006,.0014,.0099,.0037,.0092,0.0*
1,1,.006,.0037,.0092*
20,1,.006,.0037,.0092,.0056,.0076,0.0*
1,1,.006,.0056,.0076*
%
%ADD21MACRO21*%
%AMMACRO17*
1,1,.006,-.0197,.0689*
20,1,.006,-.0197,.0689,.0197,.0689,0.0*
1,1,.006,.0197,.0689*
20,1,.006,.0197,.0689,.0197,-.0689,0.0*
1,1,.006,.0197,-.0689*
20,1,.006,.0197,-.0689,-.0197,-.0689,0.0*
1,1,.006,-.0197,-.0689*
20,1,.006,-.0197,-.0689,-.0197,.0689,0.0*
1,1,.006,-.0197,.0689*
1,1,.006,-.0068,-.0072*
20,1,.006,-.0068,-.0072,-.0042,-.0088,0.0*
1,1,.006,-.0042,-.0088*
20,1,.006,-.0042,-.0088,-.0013,-.0098,0.0*
1,1,.006,-.0013,-.0098*
20,1,.006,-.0013,-.0098,.0014,-.0098,0.0*
1,1,.006,.0014,-.0098*
20,1,.006,.0014,-.0098,.004,-.0088,0.0*
1,1,.006,.004,-.0088*
20,1,.006,.004,-.0088,.006,-.0072,0.0*
1,1,.006,.006,-.0072*
20,1,.006,.006,-.0072,.0069,-.0049,0.0*
1,1,.006,.0069,-.0049*
20,1,.006,.0069,-.0049,.0063,-.0026,0.0*
1,1,.006,.0063,-.0026*
20,1,.006,.0063,-.0026,.0046,-.0006,0.0*
1,1,.006,.0046,-.0006*
20,1,.006,.0046,-.0006,.0017,.0007,0.0*
1,1,.006,.0017,.0007*
20,1,.006,.0017,.0007,-.0022,.0014,0.0*
1,1,.006,-.0022,.0014*
20,1,.006,-.0022,.0014,-.0045,.0027,0.0*
1,1,.006,-.0045,.0027*
20,1,.006,-.0045,.0027,-.0055,.005,0.0*
1,1,.006,-.0055,.005*
20,1,.006,-.0055,.005,-.0049,.0073,0.0*
1,1,.006,-.0049,.0073*
20,1,.006,-.0049,.0073,-.0032,.0089,0.0*
1,1,.006,-.0032,.0089*
20,1,.006,-.0032,.0089,-.0009,.0099,0.0*
1,1,.006,-.0009,.0099*
20,1,.006,-.0009,.0099,.0014,.0099,0.0*
1,1,.006,.0014,.0099*
20,1,.006,.0014,.0099,.0037,.0092,0.0*
1,1,.006,.0037,.0092*
20,1,.006,.0037,.0092,.0056,.0076,0.0*
1,1,.006,.0056,.0076*
%
%ADD17MACRO17*%
%AMMACRO11*
1,1,.006,.00985,0.0*
20,1,.006,.00985,0.0,.0097,-.00171,0.0*
1,1,.006,.0097,-.00171*
20,1,.006,.0097,-.00171,.009256,-.003369,0.0*
1,1,.006,.009256,-.003369*
20,1,.006,.009256,-.003369,.00853,-.004925,0.0*
1,1,.006,.00853,-.004925*
20,1,.006,.00853,-.004925,.007546,-.006331,0.0*
1,1,.006,.007546,-.006331*
20,1,.006,.007546,-.006331,.006331,-.007546,0.0*
1,1,.006,.006331,-.007546*
20,1,.006,.006331,-.007546,.004925,-.00853,0.0*
1,1,.006,.004925,-.00853*
20,1,.006,.004925,-.00853,.003369,-.009256,0.0*
1,1,.006,.003369,-.009256*
20,1,.006,.003369,-.009256,.00171,-.0097,0.0*
1,1,.006,.00171,-.0097*
20,1,.006,.00171,-.0097,0.0,-.00985,0.0*
1,1,.006,0.0,-.00985*
20,1,.006,0.0,-.00985,-.00171,-.0097,0.0*
1,1,.006,-.00171,-.0097*
20,1,.006,-.00171,-.0097,-.003369,-.009256,0.0*
1,1,.006,-.003369,-.009256*
20,1,.006,-.003369,-.009256,-.004925,-.00853,0.0*
1,1,.006,-.004925,-.00853*
20,1,.006,-.004925,-.00853,-.006331,-.007546,0.0*
1,1,.006,-.006331,-.007546*
20,1,.006,-.006331,-.007546,-.007546,-.006331,0.0*
1,1,.006,-.007546,-.006331*
20,1,.006,-.007546,-.006331,-.00853,-.004925,0.0*
1,1,.006,-.00853,-.004925*
20,1,.006,-.00853,-.004925,-.009256,-.003369,0.0*
1,1,.006,-.009256,-.003369*
20,1,.006,-.009256,-.003369,-.0097,-.00171,0.0*
1,1,.006,-.0097,-.00171*
20,1,.006,-.0097,-.00171,-.00985,0.0,0.0*
1,1,.006,-.00985,0.0*
20,1,.006,-.00985,0.0,-.0097,.00171,0.0*
1,1,.006,-.0097,.00171*
20,1,.006,-.0097,.00171,-.009256,.003369,0.0*
1,1,.006,-.009256,.003369*
20,1,.006,-.009256,.003369,-.00853,.004925,0.0*
1,1,.006,-.00853,.004925*
20,1,.006,-.00853,.004925,-.007546,.006331,0.0*
1,1,.006,-.007546,.006331*
20,1,.006,-.007546,.006331,-.006331,.007546,0.0*
1,1,.006,-.006331,.007546*
20,1,.006,-.006331,.007546,-.004925,.00853,0.0*
1,1,.006,-.004925,.00853*
20,1,.006,-.004925,.00853,-.003369,.009256,0.0*
1,1,.006,-.003369,.009256*
20,1,.006,-.003369,.009256,-.00171,.0097,0.0*
1,1,.006,-.00171,.0097*
20,1,.006,-.00171,.0097,0.0,.00985,0.0*
1,1,.006,0.0,.00985*
20,1,.006,0.0,.00985,.00171,.0097,0.0*
1,1,.006,.00171,.0097*
20,1,.006,.00171,.0097,.003369,.009256,0.0*
1,1,.006,.003369,.009256*
20,1,.006,.003369,.009256,.004925,.00853,0.0*
1,1,.006,.004925,.00853*
20,1,.006,.004925,.00853,.006331,.007546,0.0*
1,1,.006,.006331,.007546*
20,1,.006,.006331,.007546,.007546,.006331,0.0*
1,1,.006,.007546,.006331*
20,1,.006,.007546,.006331,.00853,.004925,0.0*
1,1,.006,.00853,.004925*
20,1,.006,.00853,.004925,.009256,.003369,0.0*
1,1,.006,.009256,.003369*
20,1,.006,.009256,.003369,.0097,.00171,0.0*
1,1,.006,.0097,.00171*
20,1,.006,.0097,.00171,.00985,0.0,0.0*
1,1,.006,.00985,0.0*
1,1,.006,-.0042,.0042*
20,1,.006,-.0042,.0042,-.0042,-.0041,0.0*
1,1,.006,-.0042,-.0041*
1,1,.006,-.0073,.0042*
20,1,.006,-.0073,.0042,-.001,.0042,0.0*
1,1,.006,-.001,.0042*
1,1,.006,.0013,-.0041*
20,1,.006,.0013,-.0041,.0013,.0042,0.0*
1,1,.006,.0013,.0042*
1,1,.006,.0072,.0042*
20,1,.006,.0072,.0042,.0072,-.0041,0.0*
1,1,.006,.0072,-.0041*
1,1,.006,.0072,0.0*
20,1,.006,.0072,0.0,.0013,0.0,0.0*
1,1,.006,.0013,0.0*
%
%ADD11MACRO11*%
%AMMACRO12*
1,1,.006,-.0492,-.0394*
20,1,.006,-.0492,-.0394,-.0492,.0394,0.0*
1,1,.006,-.0492,.0394*
20,1,.006,-.0492,.0394,-.048453,.047943,0.0*
1,1,.006,-.048453,.047943*
20,1,.006,-.048453,.047943,-.046233,.056227,0.0*
1,1,.006,-.046233,.056227*
20,1,.006,-.046233,.056227,-.042608,.064,0.0*
1,1,.006,-.042608,.064*
20,1,.006,-.042608,.064,-.037689,.071025,0.0*
1,1,.006,-.037689,.071025*
20,1,.006,-.037689,.071025,-.031625,.077089,0.0*
1,1,.006,-.031625,.077089*
20,1,.006,-.031625,.077089,-.0246,.082008,0.0*
1,1,.006,-.0246,.082008*
20,1,.006,-.0246,.082008,-.016827,.085633,0.0*
1,1,.006,-.016827,.085633*
20,1,.006,-.016827,.085633,-.008543,.087853,0.0*
1,1,.006,-.008543,.087853*
20,1,.006,-.008543,.087853,0.0,.0886,0.0*
1,1,.006,0.0,.0886*
20,1,.006,0.0,.0886,.008543,.087853,0.0*
1,1,.006,.008543,.087853*
20,1,.006,.008543,.087853,.016827,.085633,0.0*
1,1,.006,.016827,.085633*
20,1,.006,.016827,.085633,.0246,.082008,0.0*
1,1,.006,.0246,.082008*
20,1,.006,.0246,.082008,.031625,.077089,0.0*
1,1,.006,.031625,.077089*
20,1,.006,.031625,.077089,.037689,.071025,0.0*
1,1,.006,.037689,.071025*
20,1,.006,.037689,.071025,.042608,.064,0.0*
1,1,.006,.042608,.064*
20,1,.006,.042608,.064,.046233,.056227,0.0*
1,1,.006,.046233,.056227*
20,1,.006,.046233,.056227,.048453,.047943,0.0*
1,1,.006,.048453,.047943*
20,1,.006,.048453,.047943,.0492,.0394,0.0*
1,1,.006,.0492,.0394*
20,1,.006,.0492,.0394,.0492,-.0394,0.0*
1,1,.006,.0492,-.0394*
20,1,.006,.0492,-.0394,.048453,-.047943,0.0*
1,1,.006,.048453,-.047943*
20,1,.006,.048453,-.047943,.046233,-.056227,0.0*
1,1,.006,.046233,-.056227*
20,1,.006,.046233,-.056227,.042608,-.064,0.0*
1,1,.006,.042608,-.064*
20,1,.006,.042608,-.064,.037689,-.071025,0.0*
1,1,.006,.037689,-.071025*
20,1,.006,.037689,-.071025,.031625,-.077089,0.0*
1,1,.006,.031625,-.077089*
20,1,.006,.031625,-.077089,.0246,-.082008,0.0*
1,1,.006,.0246,-.082008*
20,1,.006,.0246,-.082008,.016827,-.085633,0.0*
1,1,.006,.016827,-.085633*
20,1,.006,.016827,-.085633,.008543,-.087853,0.0*
1,1,.006,.008543,-.087853*
20,1,.006,.008543,-.087853,0.0,-.0886,0.0*
1,1,.006,0.0,-.0886*
20,1,.006,0.0,-.0886,-.008543,-.087853,0.0*
1,1,.006,-.008543,-.087853*
20,1,.006,-.008543,-.087853,-.016827,-.085633,0.0*
1,1,.006,-.016827,-.085633*
20,1,.006,-.016827,-.085633,-.0246,-.082008,0.0*
1,1,.006,-.0246,-.082008*
20,1,.006,-.0246,-.082008,-.031625,-.077089,0.0*
1,1,.006,-.031625,-.077089*
20,1,.006,-.031625,-.077089,-.037689,-.071025,0.0*
1,1,.006,-.037689,-.071025*
20,1,.006,-.037689,-.071025,-.042608,-.064,0.0*
1,1,.006,-.042608,-.064*
20,1,.006,-.042608,-.064,-.046233,-.056227,0.0*
1,1,.006,-.046233,-.056227*
20,1,.006,-.046233,-.056227,-.048453,-.047943,0.0*
1,1,.006,-.048453,-.047943*
20,1,.006,-.048453,-.047943,-.0492,-.0394,0.0*
1,1,.006,-.0492,-.0394*
1,1,.006,-.0172,-.018*
20,1,.006,-.0172,-.018,-.0107,-.0221,0.0*
1,1,.006,-.0107,-.0221*
20,1,.006,-.0107,-.0221,-.0033,-.0246,0.0*
1,1,.006,-.0033,-.0246*
20,1,.006,-.0033,-.0246,.0033,-.0246,0.0*
1,1,.006,.0033,-.0246*
20,1,.006,.0033,-.0246,.0098,-.0221,0.0*
1,1,.006,.0098,-.0221*
20,1,.006,.0098,-.0221,.0148,-.018,0.0*
1,1,.006,.0148,-.018*
20,1,.006,.0148,-.018,.0172,-.0123,0.0*
1,1,.006,.0172,-.0123*
20,1,.006,.0172,-.0123,.0156,-.0066,0.0*
1,1,.006,.0156,-.0066*
20,1,.006,.0156,-.0066,.0115,-.0016,0.0*
1,1,.006,.0115,-.0016*
20,1,.006,.0115,-.0016,.0041,.0016,0.0*
1,1,.006,.0041,.0016*
20,1,.006,.0041,.0016,-.0057,.0033,0.0*
1,1,.006,-.0057,.0033*
20,1,.006,-.0057,.0033,-.0115,.0066,0.0*
1,1,.006,-.0115,.0066*
20,1,.006,-.0115,.0066,-.0139,.0123,0.0*
1,1,.006,-.0139,.0123*
20,1,.006,-.0139,.0123,-.0123,.018,0.0*
1,1,.006,-.0123,.018*
20,1,.006,-.0123,.018,-.0082,.0221,0.0*
1,1,.006,-.0082,.0221*
20,1,.006,-.0082,.0221,-.0025,.0246,0.0*
1,1,.006,-.0025,.0246*
20,1,.006,-.0025,.0246,.0033,.0246,0.0*
1,1,.006,.0033,.0246*
20,1,.006,.0033,.0246,.009,.023,0.0*
1,1,.006,.009,.023*
20,1,.006,.009,.023,.0139,.0189,0.0*
1,1,.006,.0139,.0189*
%
%ADD12MACRO12*%
%AMMACRO13*
1,1,.006,-.0394,.0492*
20,1,.006,-.0394,.0492,.0394,.0492,0.0*
1,1,.006,.0394,.0492*
20,1,.006,.0394,.0492,.047943,.048453,0.0*
1,1,.006,.047943,.048453*
20,1,.006,.047943,.048453,.056227,.046233,0.0*
1,1,.006,.056227,.046233*
20,1,.006,.056227,.046233,.064,.042608,0.0*
1,1,.006,.064,.042608*
20,1,.006,.064,.042608,.071025,.037689,0.0*
1,1,.006,.071025,.037689*
20,1,.006,.071025,.037689,.077089,.031625,0.0*
1,1,.006,.077089,.031625*
20,1,.006,.077089,.031625,.082008,.0246,0.0*
1,1,.006,.082008,.0246*
20,1,.006,.082008,.0246,.085633,.016827,0.0*
1,1,.006,.085633,.016827*
20,1,.006,.085633,.016827,.087853,.008543,0.0*
1,1,.006,.087853,.008543*
20,1,.006,.087853,.008543,.0886,0.0,0.0*
1,1,.006,.0886,0.0*
20,1,.006,.0886,0.0,.087853,-.008543,0.0*
1,1,.006,.087853,-.008543*
20,1,.006,.087853,-.008543,.085633,-.016827,0.0*
1,1,.006,.085633,-.016827*
20,1,.006,.085633,-.016827,.082008,-.0246,0.0*
1,1,.006,.082008,-.0246*
20,1,.006,.082008,-.0246,.077089,-.031625,0.0*
1,1,.006,.077089,-.031625*
20,1,.006,.077089,-.031625,.071025,-.037689,0.0*
1,1,.006,.071025,-.037689*
20,1,.006,.071025,-.037689,.064,-.042608,0.0*
1,1,.006,.064,-.042608*
20,1,.006,.064,-.042608,.056227,-.046233,0.0*
1,1,.006,.056227,-.046233*
20,1,.006,.056227,-.046233,.047943,-.048453,0.0*
1,1,.006,.047943,-.048453*
20,1,.006,.047943,-.048453,.0394,-.0492,0.0*
1,1,.006,.0394,-.0492*
20,1,.006,.0394,-.0492,-.0394,-.0492,0.0*
1,1,.006,-.0394,-.0492*
20,1,.006,-.0394,-.0492,-.047943,-.048453,0.0*
1,1,.006,-.047943,-.048453*
20,1,.006,-.047943,-.048453,-.056227,-.046233,0.0*
1,1,.006,-.056227,-.046233*
20,1,.006,-.056227,-.046233,-.064,-.042608,0.0*
1,1,.006,-.064,-.042608*
20,1,.006,-.064,-.042608,-.071025,-.037689,0.0*
1,1,.006,-.071025,-.037689*
20,1,.006,-.071025,-.037689,-.077089,-.031625,0.0*
1,1,.006,-.077089,-.031625*
20,1,.006,-.077089,-.031625,-.082008,-.0246,0.0*
1,1,.006,-.082008,-.0246*
20,1,.006,-.082008,-.0246,-.085633,-.016827,0.0*
1,1,.006,-.085633,-.016827*
20,1,.006,-.085633,-.016827,-.087853,-.008543,0.0*
1,1,.006,-.087853,-.008543*
20,1,.006,-.087853,-.008543,-.0886,0.0,0.0*
1,1,.006,-.0886,0.0*
20,1,.006,-.0886,0.0,-.087853,.008543,0.0*
1,1,.006,-.087853,.008543*
20,1,.006,-.087853,.008543,-.085633,.016827,0.0*
1,1,.006,-.085633,.016827*
20,1,.006,-.085633,.016827,-.082008,.0246,0.0*
1,1,.006,-.082008,.0246*
20,1,.006,-.082008,.0246,-.077089,.031625,0.0*
1,1,.006,-.077089,.031625*
20,1,.006,-.077089,.031625,-.071025,.037689,0.0*
1,1,.006,-.071025,.037689*
20,1,.006,-.071025,.037689,-.064,.042608,0.0*
1,1,.006,-.064,.042608*
20,1,.006,-.064,.042608,-.056227,.046233,0.0*
1,1,.006,-.056227,.046233*
20,1,.006,-.056227,.046233,-.047943,.048453,0.0*
1,1,.006,-.047943,.048453*
20,1,.006,-.047943,.048453,-.0394,.0492,0.0*
1,1,.006,-.0394,.0492*
1,1,.006,-.0172,-.018*
20,1,.006,-.0172,-.018,-.0107,-.0221,0.0*
1,1,.006,-.0107,-.0221*
20,1,.006,-.0107,-.0221,-.0033,-.0246,0.0*
1,1,.006,-.0033,-.0246*
20,1,.006,-.0033,-.0246,.0033,-.0246,0.0*
1,1,.006,.0033,-.0246*
20,1,.006,.0033,-.0246,.0098,-.0221,0.0*
1,1,.006,.0098,-.0221*
20,1,.006,.0098,-.0221,.0148,-.018,0.0*
1,1,.006,.0148,-.018*
20,1,.006,.0148,-.018,.0172,-.0123,0.0*
1,1,.006,.0172,-.0123*
20,1,.006,.0172,-.0123,.0156,-.0066,0.0*
1,1,.006,.0156,-.0066*
20,1,.006,.0156,-.0066,.0115,-.0016,0.0*
1,1,.006,.0115,-.0016*
20,1,.006,.0115,-.0016,.0041,.0016,0.0*
1,1,.006,.0041,.0016*
20,1,.006,.0041,.0016,-.0057,.0033,0.0*
1,1,.006,-.0057,.0033*
20,1,.006,-.0057,.0033,-.0115,.0066,0.0*
1,1,.006,-.0115,.0066*
20,1,.006,-.0115,.0066,-.0139,.0123,0.0*
1,1,.006,-.0139,.0123*
20,1,.006,-.0139,.0123,-.0123,.018,0.0*
1,1,.006,-.0123,.018*
20,1,.006,-.0123,.018,-.0082,.0221,0.0*
1,1,.006,-.0082,.0221*
20,1,.006,-.0082,.0221,-.0025,.0246,0.0*
1,1,.006,-.0025,.0246*
20,1,.006,-.0025,.0246,.0033,.0246,0.0*
1,1,.006,.0033,.0246*
20,1,.006,.0033,.0246,.009,.023,0.0*
1,1,.006,.009,.023*
20,1,.006,.009,.023,.0139,.0189,0.0*
1,1,.006,.0139,.0189*
%
%ADD13MACRO13*%
%AMMACRO16*
1,1,.006,.005,0.0*
20,1,.006,.005,0.0,.004924,-.000868,0.0*
1,1,.006,.004924,-.000868*
20,1,.006,.004924,-.000868,.004698,-.00171,0.0*
1,1,.006,.004698,-.00171*
20,1,.006,.004698,-.00171,.00433,-.0025,0.0*
1,1,.006,.00433,-.0025*
20,1,.006,.00433,-.0025,.00383,-.003214,0.0*
1,1,.006,.00383,-.003214*
20,1,.006,.00383,-.003214,.003214,-.00383,0.0*
1,1,.006,.003214,-.00383*
20,1,.006,.003214,-.00383,.0025,-.00433,0.0*
1,1,.006,.0025,-.00433*
20,1,.006,.0025,-.00433,.00171,-.004698,0.0*
1,1,.006,.00171,-.004698*
20,1,.006,.00171,-.004698,.000868,-.004924,0.0*
1,1,.006,.000868,-.004924*
20,1,.006,.000868,-.004924,0.0,-.005,0.0*
1,1,.006,0.0,-.005*
20,1,.006,0.0,-.005,-.000868,-.004924,0.0*
1,1,.006,-.000868,-.004924*
20,1,.006,-.000868,-.004924,-.00171,-.004698,0.0*
1,1,.006,-.00171,-.004698*
20,1,.006,-.00171,-.004698,-.0025,-.00433,0.0*
1,1,.006,-.0025,-.00433*
20,1,.006,-.0025,-.00433,-.003214,-.00383,0.0*
1,1,.006,-.003214,-.00383*
20,1,.006,-.003214,-.00383,-.00383,-.003214,0.0*
1,1,.006,-.00383,-.003214*
20,1,.006,-.00383,-.003214,-.00433,-.0025,0.0*
1,1,.006,-.00433,-.0025*
20,1,.006,-.00433,-.0025,-.004698,-.00171,0.0*
1,1,.006,-.004698,-.00171*
20,1,.006,-.004698,-.00171,-.004924,-.000868,0.0*
1,1,.006,-.004924,-.000868*
20,1,.006,-.004924,-.000868,-.005,0.0,0.0*
1,1,.006,-.005,0.0*
20,1,.006,-.005,0.0,-.004924,.000868,0.0*
1,1,.006,-.004924,.000868*
20,1,.006,-.004924,.000868,-.004698,.00171,0.0*
1,1,.006,-.004698,.00171*
20,1,.006,-.004698,.00171,-.00433,.0025,0.0*
1,1,.006,-.00433,.0025*
20,1,.006,-.00433,.0025,-.00383,.003214,0.0*
1,1,.006,-.00383,.003214*
20,1,.006,-.00383,.003214,-.003214,.00383,0.0*
1,1,.006,-.003214,.00383*
20,1,.006,-.003214,.00383,-.0025,.00433,0.0*
1,1,.006,-.0025,.00433*
20,1,.006,-.0025,.00433,-.00171,.004698,0.0*
1,1,.006,-.00171,.004698*
20,1,.006,-.00171,.004698,-.000868,.004924,0.0*
1,1,.006,-.000868,.004924*
20,1,.006,-.000868,.004924,0.0,.005,0.0*
1,1,.006,0.0,.005*
20,1,.006,0.0,.005,.000868,.004924,0.0*
1,1,.006,.000868,.004924*
20,1,.006,.000868,.004924,.00171,.004698,0.0*
1,1,.006,.00171,.004698*
20,1,.006,.00171,.004698,.0025,.00433,0.0*
1,1,.006,.0025,.00433*
20,1,.006,.0025,.00433,.003214,.00383,0.0*
1,1,.006,.003214,.00383*
20,1,.006,.003214,.00383,.00383,.003214,0.0*
1,1,.006,.00383,.003214*
20,1,.006,.00383,.003214,.00433,.0025,0.0*
1,1,.006,.00433,.0025*
20,1,.006,.00433,.0025,.004698,.00171,0.0*
1,1,.006,.004698,.00171*
20,1,.006,.004698,.00171,.004924,.000868,0.0*
1,1,.006,.004924,.000868*
20,1,.006,.004924,.000868,.005,0.0,0.0*
1,1,.006,.005,0.0*
1,1,.006,-.0039,.0005*
20,1,.006,-.0039,.0005,-.003,-.0015,0.0*
1,1,.006,-.003,-.0015*
20,1,.006,-.003,-.0015,-.0021,.0005,0.0*
1,1,.006,-.0021,.0005*
1,1,.006,.0001,.0005*
20,1,.006,.0001,.0005,.0001,-.0015,0.0*
1,1,.006,.0001,-.0015*
1,1,.006,.0001,.0013*
20,1,.006,.0001,.0013,0.0,.0013,0.0*
1,1,.006,0.0,.0013*
20,1,.006,0.0,.0013,0.0,.0015,0.0*
1,1,.006,0.0,.0015*
20,1,.006,0.0,.0015,.0001,.0015,0.0*
1,1,.006,.0001,.0015*
20,1,.006,.0001,.0015,.0002,.0015,0.0*
1,1,.006,.0002,.0015*
20,1,.006,.0002,.0015,.0002,.0013,0.0*
1,1,.006,.0002,.0013*
20,1,.006,.0002,.0013,.0001,.0013,0.0*
1,1,.006,.0001,.0013*
1,1,.006,.0041,-.0015*
20,1,.006,.0041,-.0015,.0041,.0005,0.0*
1,1,.006,.0041,.0005*
1,1,.006,.0041,.0002*
20,1,.006,.0041,.0002,.0039,.0003,0.0*
1,1,.006,.0039,.0003*
20,1,.006,.0039,.0003,.0036,.0004,0.0*
1,1,.006,.0036,.0004*
20,1,.006,.0036,.0004,.0033,.0005,0.0*
1,1,.006,.0033,.0005*
20,1,.006,.0033,.0005,.0029,.0004,0.0*
1,1,.006,.0029,.0004*
20,1,.006,.0029,.0004,.0026,.0002,0.0*
1,1,.006,.0026,.0002*
20,1,.006,.0026,.0002,.0024,-.0001,0.0*
1,1,.006,.0024,-.0001*
20,1,.006,.0024,-.0001,.0023,-.0005,0.0*
1,1,.006,.0023,-.0005*
20,1,.006,.0023,-.0005,.0024,-.0009,0.0*
1,1,.006,.0024,-.0009*
20,1,.006,.0024,-.0009,.0026,-.0012,0.0*
1,1,.006,.0026,-.0012*
20,1,.006,.0026,-.0012,.0029,-.0014,0.0*
1,1,.006,.0029,-.0014*
20,1,.006,.0029,-.0014,.0033,-.0015,0.0*
1,1,.006,.0033,-.0015*
20,1,.006,.0033,-.0015,.0036,-.0015,0.0*
1,1,.006,.0036,-.0015*
20,1,.006,.0036,-.0015,.0039,-.0013,0.0*
1,1,.006,.0039,-.0013*
20,1,.006,.0039,-.0013,.0041,-.0011,0.0*
1,1,.006,.0041,-.0011*
%
%ADD16MACRO16*%
%ADD22C,.006*%
G75*
%LPD*%
G75*
G54D10*
X-222440Y-114160D03*
Y114190D03*
X-195450Y-358890D03*
X222440Y-114160D03*
Y114190D03*
G54D11*
X-221600Y-74300D03*
Y-44300D03*
Y-54300D03*
Y-64300D03*
Y-24300D03*
Y-34300D03*
Y-4300D03*
Y-14300D03*
Y15700D03*
Y5700D03*
Y45700D03*
Y35700D03*
Y25700D03*
Y65700D03*
Y55700D03*
Y85700D03*
Y75700D03*
X-216500Y-96700D03*
Y-86700D03*
X-211600Y-74300D03*
Y-44300D03*
Y-54300D03*
Y-64300D03*
Y-24300D03*
Y-34300D03*
Y-4300D03*
Y-14300D03*
Y15700D03*
Y5700D03*
Y45700D03*
Y35700D03*
Y25700D03*
Y65700D03*
Y55700D03*
Y85700D03*
Y75700D03*
X-199610Y95700D03*
X-195450Y-279150D03*
X-189610Y95700D03*
X-179610D03*
X-169610D03*
X-159610D03*
X-132110Y44650D03*
X-149610Y95700D03*
X-128000Y101000D03*
X-119140Y-116400D03*
X-109140D03*
X-112110Y44650D03*
X-122110D03*
X-108000Y101000D03*
X-118000D03*
X-99140Y-116400D03*
X-89140D03*
X-102110Y44650D03*
X-98000Y101000D03*
X-66000D03*
X-76000D03*
X-6830Y-101140D03*
X3170D03*
X-7860Y110300D03*
X2140D03*
X-7860Y120300D03*
X2140D03*
X13170Y-101140D03*
X23170D03*
X12140Y110300D03*
Y120300D03*
X48300Y-101140D03*
X58300D03*
X68300D03*
X72900Y100690D03*
X78300Y-101140D03*
X82900Y100690D03*
X105270Y-101140D03*
X115270D03*
Y100690D03*
X105270D03*
X125270Y-101140D03*
X135270D03*
X145270D03*
Y100690D03*
X135270D03*
X125270D03*
X155270Y-101140D03*
Y100690D03*
G54D20*
X-195450Y-252570D03*
X155670Y-25000D03*
Y-35000D03*
Y-5000D03*
Y-15000D03*
Y5000D03*
Y15000D03*
Y35000D03*
Y25000D03*
X175670Y-30000D03*
Y0D03*
Y-10000D03*
Y-20000D03*
Y20000D03*
Y10000D03*
Y30000D03*
G54D12*
X-195450Y-491790D03*
X183500Y-64280D03*
G54D21*
X217000Y-95100D03*
Y-76200D03*
Y-57300D03*
G54D22*
G01X-240400Y-505080D02*
Y-137700D01*
X255600D01*
Y-505080D01*
X-240400D01*
G01Y-478500D02*
X255600D01*
G01X-240400Y-451920D02*
X255600D01*
G01X-240400Y-425340D02*
X255600D01*
G01X-240400Y-398760D02*
X255600D01*
G01X-240400Y-372180D02*
X255600D01*
G01X-240400Y-345600D02*
X255600D01*
G01X-240400Y-319020D02*
X255600D01*
G01X-240400Y-292440D02*
X255600D01*
G01X-240400Y-265860D02*
X255600D01*
G01X-240400Y-239280D02*
X255600D01*
G01X-229400Y-206450D02*
Y-193950D01*
X-223500D01*
G01X-225680Y-199990D02*
X-229400D01*
G01X-215910Y-193950D02*
X-212190D01*
G01X-214050D02*
Y-206450D01*
G01X-215910D02*
X-212190D01*
G01X-200720Y-200200D02*
X-197620D01*
Y-203950D01*
X-198550Y-205200D01*
X-199640Y-206030D01*
X-201180Y-206450D01*
X-202730Y-206030D01*
X-203820Y-205200D01*
X-204750Y-203950D01*
X-205370Y-202490D01*
X-205680Y-200830D01*
Y-199370D01*
X-205370Y-198120D01*
X-204750Y-196660D01*
X-203820Y-195410D01*
X-202890Y-194580D01*
X-201650Y-193950D01*
X-200570D01*
X-199330Y-194370D01*
X-198390Y-195200D01*
G01X-192660Y-193950D02*
Y-202910D01*
X-192040Y-204780D01*
X-190800Y-206030D01*
X-189250Y-206450D01*
X-187700Y-206030D01*
X-186460Y-204780D01*
X-185840Y-202910D01*
Y-193950D01*
G01X-179950Y-206450D02*
Y-193950D01*
X-176080D01*
X-174840Y-194580D01*
X-174060Y-195410D01*
X-173750Y-197080D01*
X-174060Y-198740D01*
X-174990Y-199780D01*
X-176080Y-200410D01*
X-179950D01*
G01X-176080D02*
X-173750Y-206450D01*
G01X-161350D02*
X-167550D01*
Y-193950D01*
X-161350D01*
G01X-163830Y-199990D02*
X-167550D01*
G01X-240400Y-212700D02*
X255600D01*
G01X-240400Y-187700D02*
X255600D01*
G01X-240400Y-162700D02*
X255600D01*
G01X-150500Y-187700D02*
Y-505080D01*
G01X-150810Y-156450D02*
Y-143950D01*
X-147710D01*
X-146470Y-144580D01*
X-145540Y-145410D01*
X-144760Y-146660D01*
X-144140Y-148120D01*
X-143990Y-150200D01*
X-144140Y-152280D01*
X-144760Y-153740D01*
X-145540Y-154990D01*
X-146470Y-155830D01*
X-147710Y-156450D01*
X-150810D01*
G01X-138100D02*
Y-143950D01*
X-134230D01*
X-132990Y-144580D01*
X-132210Y-145410D01*
X-131900Y-147080D01*
X-132210Y-148740D01*
X-133140Y-149780D01*
X-134230Y-150410D01*
X-138100D01*
G01X-134230D02*
X-131900Y-156450D01*
G01X-124460Y-143950D02*
X-120740D01*
G01X-122600D02*
Y-156450D01*
G01X-124460D02*
X-120740D01*
G01X-113300Y-143950D02*
Y-156450D01*
X-107100D01*
G01X-100900Y-143950D02*
Y-156450D01*
X-94700D01*
G01X-69590Y-144990D02*
X-70520Y-144370D01*
X-71600Y-143950D01*
X-72840D01*
X-74240Y-144580D01*
X-75320Y-145620D01*
X-76100Y-146870D01*
X-76720Y-148950D01*
X-76880Y-150830D01*
X-76560Y-152700D01*
X-76100Y-153950D01*
X-75170Y-155200D01*
X-74080Y-156030D01*
X-73000Y-156450D01*
X-71920D01*
X-70830Y-156030D01*
X-69900Y-155410D01*
X-69120Y-154580D01*
G01X-63860Y-156450D02*
Y-143950D01*
G01X-57340D02*
Y-156450D01*
G01Y-150200D02*
X-63860D01*
G01X-52080Y-156450D02*
X-48200Y-143950D01*
X-44320Y-156450D01*
G01X-45720Y-152080D02*
X-50680D01*
G01X-38900Y-156450D02*
Y-143950D01*
X-35030D01*
X-33790Y-144580D01*
X-33010Y-145410D01*
X-32700Y-147080D01*
X-33010Y-148740D01*
X-33940Y-149780D01*
X-35030Y-150410D01*
X-38900D01*
G01X-35030D02*
X-32700Y-156450D01*
G01X-23400Y-143950D02*
Y-156450D01*
G01X-26960Y-143950D02*
X-19840D01*
G01X-11000Y-156870D02*
X-11310Y-156660D01*
Y-156240D01*
X-11000Y-156030D01*
X-10690Y-156240D01*
Y-156660D01*
X-11000Y-156870D01*
G01Y-151240D02*
X-11310Y-151030D01*
Y-150620D01*
X-11000Y-150410D01*
X-10690Y-150620D01*
Y-151030D01*
X-11000Y-151240D01*
G01X13800Y-143950D02*
Y-156450D01*
G01X10240Y-143950D02*
X17360D01*
G01X26200Y-156450D02*
X24960Y-156240D01*
X23880Y-155410D01*
X22940Y-154160D01*
X22320Y-152700D01*
X22010Y-151030D01*
Y-149370D01*
X22320Y-147700D01*
X22940Y-146240D01*
X23880Y-144990D01*
X24960Y-144160D01*
X26200Y-143950D01*
X27440Y-144160D01*
X28520Y-144990D01*
X29460Y-146240D01*
X30080Y-147700D01*
X30390Y-149370D01*
Y-151030D01*
X30080Y-152700D01*
X29460Y-154160D01*
X28520Y-155410D01*
X27440Y-156240D01*
X26200Y-156450D01*
G01X35500D02*
Y-143950D01*
X39220D01*
X40460Y-144580D01*
X41390Y-146030D01*
X41700Y-147700D01*
X41390Y-149370D01*
X40610Y-150620D01*
X39220Y-151240D01*
X35500D01*
G01X63400Y-143950D02*
Y-156450D01*
G01X61230Y-148120D02*
X65570D01*
G01X75800Y-156450D02*
X74870Y-156240D01*
X73940Y-155410D01*
X73320Y-153950D01*
X73010Y-152280D01*
X73320Y-150620D01*
X73940Y-149160D01*
X74870Y-148330D01*
X75800Y-148120D01*
X76730Y-148330D01*
X77660Y-149160D01*
X78280Y-150620D01*
X78440Y-152280D01*
X78280Y-153950D01*
X77660Y-155410D01*
X76730Y-156240D01*
X75800Y-156450D01*
G01X101840Y-149780D02*
X102460Y-149160D01*
X102920Y-148120D01*
X103240Y-146660D01*
X102920Y-145410D01*
X102310Y-144580D01*
X101220Y-143950D01*
X97040D01*
Y-156450D01*
X102150D01*
X103240Y-155620D01*
X103860Y-154370D01*
X104160Y-152910D01*
X103860Y-151450D01*
X102920Y-150200D01*
X101840Y-149780D01*
X97040D01*
G01X113000Y-156450D02*
X111760Y-156240D01*
X110680Y-155410D01*
X109740Y-154160D01*
X109120Y-152700D01*
X108810Y-151030D01*
Y-149370D01*
X109120Y-147700D01*
X109740Y-146240D01*
X110680Y-144990D01*
X111760Y-144160D01*
X113000Y-143950D01*
X114240Y-144160D01*
X115320Y-144990D01*
X116260Y-146240D01*
X116880Y-147700D01*
X117190Y-149370D01*
Y-151030D01*
X116880Y-152700D01*
X116260Y-154160D01*
X115320Y-155410D01*
X114240Y-156240D01*
X113000Y-156450D01*
G01X125400Y-143950D02*
Y-156450D01*
G01X121840Y-143950D02*
X128960D01*
G01X137800D02*
Y-156450D01*
G01X134240Y-143950D02*
X141360D01*
G01X150200Y-156450D02*
X148960Y-156240D01*
X147880Y-155410D01*
X146940Y-154160D01*
X146320Y-152700D01*
X146010Y-151030D01*
Y-149370D01*
X146320Y-147700D01*
X146940Y-146240D01*
X147880Y-144990D01*
X148960Y-144160D01*
X150200Y-143950D01*
X151440Y-144160D01*
X152520Y-144990D01*
X153460Y-146240D01*
X154080Y-147700D01*
X154390Y-149370D01*
Y-151030D01*
X154080Y-152700D01*
X153460Y-154160D01*
X152520Y-155410D01*
X151440Y-156240D01*
X150200Y-156450D01*
G01X158570D02*
Y-143950D01*
X162600Y-154370D01*
X166630Y-143950D01*
Y-156450D01*
G01X-105550Y-498040D02*
Y-485540D01*
X-107410Y-488040D01*
G01Y-498040D02*
X-103690D01*
G01X-93460D02*
X-93150Y-495330D01*
X-92680Y-493040D01*
X-92070Y-490960D01*
X-91290Y-488670D01*
X-90050Y-485540D01*
X-96250D01*
G01X-81060Y-498040D02*
X-80750Y-495330D01*
X-80280Y-493040D01*
X-79670Y-490960D01*
X-78890Y-488670D01*
X-77650Y-485540D01*
X-83850D01*
G01X-68350Y-498460D02*
X-68660Y-498250D01*
Y-497830D01*
X-68350Y-497620D01*
X-68040Y-497830D01*
Y-498250D01*
X-68350Y-498460D01*
G01X-58900Y-487620D02*
X-57960Y-486370D01*
X-56880Y-485750D01*
X-55640Y-485540D01*
X-54090Y-485960D01*
X-53000Y-487000D01*
X-52690Y-488250D01*
X-52850Y-489500D01*
X-53470Y-490540D01*
X-56570Y-492620D01*
X-57960Y-494080D01*
X-58900Y-496170D01*
X-59210Y-498040D01*
X-52690D01*
G01X-45870Y-489710D02*
X-41230Y-498040D01*
G01Y-489710D02*
X-45870Y-498040D01*
G01X-33790Y-496580D02*
X-32700Y-497620D01*
X-31460Y-498040D01*
X-30220Y-497620D01*
X-29140Y-496370D01*
X-28360Y-494500D01*
X-28050Y-492620D01*
Y-490330D01*
X-28360Y-488460D01*
X-29140Y-486790D01*
X-30070Y-485960D01*
X-31150Y-485540D01*
X-32390Y-485960D01*
X-33320Y-486790D01*
X-33940Y-488040D01*
X-34250Y-489710D01*
X-33940Y-491160D01*
X-33160Y-492620D01*
X-32230Y-493460D01*
X-31150Y-493670D01*
X-29910Y-493250D01*
X-28980Y-492210D01*
X-28050Y-490330D01*
G01X-18750Y-498040D02*
X-17670Y-497830D01*
X-16430Y-497210D01*
X-15650Y-496170D01*
X-15340Y-494710D01*
X-15650Y-493250D01*
X-16580Y-492000D01*
X-17980Y-491370D01*
X-19520D01*
X-20460Y-490960D01*
X-21230Y-489920D01*
X-21540Y-488460D01*
X-21070Y-487000D01*
X-19990Y-485960D01*
X-18750Y-485540D01*
X-17510Y-485960D01*
X-16430Y-487000D01*
X-15960Y-488460D01*
X-16270Y-489920D01*
X-17040Y-490960D01*
X-17980Y-491370D01*
X-19520D01*
X-20920Y-492000D01*
X-21850Y-493250D01*
X-22160Y-494710D01*
X-21850Y-496170D01*
X-21070Y-497210D01*
X-19830Y-497830D01*
X-18750Y-498040D01*
G01X-6350Y-498460D02*
X-6660Y-498250D01*
Y-497830D01*
X-6350Y-497620D01*
X-6040Y-497830D01*
Y-498250D01*
X-6350Y-498460D01*
G01X7910Y-498040D02*
Y-485540D01*
X2170Y-494500D01*
X9930D01*
G01X-105550Y-471460D02*
Y-458960D01*
X-107410Y-461460D01*
G01Y-471460D02*
X-103690D01*
G01X-93460D02*
X-93150Y-468750D01*
X-92680Y-466460D01*
X-92070Y-464380D01*
X-91290Y-462090D01*
X-90050Y-458960D01*
X-96250D01*
G01X-81060Y-471460D02*
X-80750Y-468750D01*
X-80280Y-466460D01*
X-79670Y-464380D01*
X-78890Y-462090D01*
X-77650Y-458960D01*
X-83850D01*
G01X-68350Y-471880D02*
X-68660Y-471670D01*
Y-471250D01*
X-68350Y-471040D01*
X-68040Y-471250D01*
Y-471670D01*
X-68350Y-471880D01*
G01X-58900Y-461040D02*
X-57960Y-459790D01*
X-56880Y-459170D01*
X-55640Y-458960D01*
X-54090Y-459380D01*
X-53000Y-460420D01*
X-52690Y-461670D01*
X-52850Y-462920D01*
X-53470Y-463960D01*
X-56570Y-466040D01*
X-57960Y-467500D01*
X-58900Y-469590D01*
X-59210Y-471460D01*
X-52690D01*
G01X-45870Y-463130D02*
X-41230Y-471460D01*
G01Y-463130D02*
X-45870Y-471460D01*
G01X-33790Y-470000D02*
X-32700Y-471040D01*
X-31460Y-471460D01*
X-30220Y-471040D01*
X-29140Y-469790D01*
X-28360Y-467920D01*
X-28050Y-466040D01*
Y-463750D01*
X-28360Y-461880D01*
X-29140Y-460210D01*
X-30070Y-459380D01*
X-31150Y-458960D01*
X-32390Y-459380D01*
X-33320Y-460210D01*
X-33940Y-461460D01*
X-34250Y-463130D01*
X-33940Y-464580D01*
X-33160Y-466040D01*
X-32230Y-466880D01*
X-31150Y-467090D01*
X-29910Y-466670D01*
X-28980Y-465630D01*
X-28050Y-463750D01*
G01X-18750Y-471460D02*
X-17670Y-471250D01*
X-16430Y-470630D01*
X-15650Y-469590D01*
X-15340Y-468130D01*
X-15650Y-466670D01*
X-16580Y-465420D01*
X-17980Y-464790D01*
X-19520D01*
X-20460Y-464380D01*
X-21230Y-463340D01*
X-21540Y-461880D01*
X-21070Y-460420D01*
X-19990Y-459380D01*
X-18750Y-458960D01*
X-17510Y-459380D01*
X-16430Y-460420D01*
X-15960Y-461880D01*
X-16270Y-463340D01*
X-17040Y-464380D01*
X-17980Y-464790D01*
X-19520D01*
X-20920Y-465420D01*
X-21850Y-466670D01*
X-22160Y-468130D01*
X-21850Y-469590D01*
X-21070Y-470630D01*
X-19830Y-471250D01*
X-18750Y-471460D01*
G01X-6350Y-471880D02*
X-6660Y-471670D01*
Y-471250D01*
X-6350Y-471040D01*
X-6040Y-471250D01*
Y-471670D01*
X-6350Y-471880D01*
G01X7910Y-471460D02*
Y-458960D01*
X2170Y-467920D01*
X9930D01*
G01X-105550Y-444880D02*
Y-432380D01*
X-107410Y-434880D01*
G01Y-444880D02*
X-103690D01*
G01X-96560Y-442380D02*
X-95630Y-443840D01*
X-94390Y-444670D01*
X-92990Y-444880D01*
X-91750Y-444670D01*
X-90510Y-443630D01*
X-89740Y-442380D01*
X-89590Y-441130D01*
X-89890Y-439670D01*
X-90980Y-438630D01*
X-92070Y-438210D01*
X-93460D01*
G01X-92070D02*
X-91140Y-437590D01*
X-90360Y-436550D01*
X-90050Y-435300D01*
X-90360Y-434050D01*
X-91140Y-433010D01*
X-92530Y-432380D01*
X-93920Y-432590D01*
X-95320Y-433420D01*
G01X-81060Y-444880D02*
X-80750Y-442170D01*
X-80280Y-439880D01*
X-79670Y-437800D01*
X-78890Y-435510D01*
X-77650Y-432380D01*
X-83850D01*
G01X-68350Y-445300D02*
X-68660Y-445090D01*
Y-444670D01*
X-68350Y-444460D01*
X-68040Y-444670D01*
Y-445090D01*
X-68350Y-445300D01*
G01X-55950Y-444880D02*
X-54870Y-444670D01*
X-53630Y-444050D01*
X-52850Y-443010D01*
X-52540Y-441550D01*
X-52850Y-440090D01*
X-53780Y-438840D01*
X-55180Y-438210D01*
X-56720D01*
X-57660Y-437800D01*
X-58430Y-436760D01*
X-58740Y-435300D01*
X-58270Y-433840D01*
X-57190Y-432800D01*
X-55950Y-432380D01*
X-54710Y-432800D01*
X-53630Y-433840D01*
X-53160Y-435300D01*
X-53470Y-436760D01*
X-54240Y-437800D01*
X-55180Y-438210D01*
X-56720D01*
X-58120Y-438840D01*
X-59050Y-440090D01*
X-59360Y-441550D01*
X-59050Y-443010D01*
X-58270Y-444050D01*
X-57030Y-444670D01*
X-55950Y-444880D01*
G01X-45870Y-436550D02*
X-41230Y-444880D01*
G01Y-436550D02*
X-45870Y-444880D01*
G01X-34560Y-442380D02*
X-33630Y-443840D01*
X-32390Y-444670D01*
X-30990Y-444880D01*
X-29750Y-444670D01*
X-28510Y-443630D01*
X-27740Y-442380D01*
X-27590Y-441130D01*
X-27890Y-439670D01*
X-28980Y-438630D01*
X-30070Y-438210D01*
X-31460D01*
G01X-30070D02*
X-29140Y-437590D01*
X-28360Y-436550D01*
X-28050Y-435300D01*
X-28360Y-434050D01*
X-29140Y-433010D01*
X-30530Y-432380D01*
X-31920Y-432590D01*
X-33320Y-433420D01*
G01X-21390Y-443420D02*
X-20300Y-444460D01*
X-19060Y-444880D01*
X-17820Y-444460D01*
X-16740Y-443210D01*
X-15960Y-441340D01*
X-15650Y-439460D01*
Y-437170D01*
X-15960Y-435300D01*
X-16740Y-433630D01*
X-17670Y-432800D01*
X-18750Y-432380D01*
X-19990Y-432800D01*
X-20920Y-433630D01*
X-21540Y-434880D01*
X-21850Y-436550D01*
X-21540Y-438000D01*
X-20760Y-439460D01*
X-19830Y-440300D01*
X-18750Y-440510D01*
X-17510Y-440090D01*
X-16580Y-439050D01*
X-15650Y-437170D01*
G01X-6350Y-445300D02*
X-6660Y-445090D01*
Y-444670D01*
X-6350Y-444460D01*
X-6040Y-444670D01*
Y-445090D01*
X-6350Y-445300D01*
G01X7910Y-444880D02*
Y-432380D01*
X2170Y-441340D01*
X9930D01*
G01X-105550Y-418300D02*
Y-405800D01*
X-107410Y-408300D01*
G01Y-418300D02*
X-103690D01*
G01X-93150D02*
Y-405800D01*
X-95010Y-408300D01*
G01Y-418300D02*
X-91290D01*
G01X-80750D02*
X-79670Y-418090D01*
X-78430Y-417470D01*
X-77650Y-416430D01*
X-77340Y-414970D01*
X-77650Y-413510D01*
X-78580Y-412260D01*
X-79980Y-411630D01*
X-81520D01*
X-82460Y-411220D01*
X-83230Y-410180D01*
X-83540Y-408720D01*
X-83070Y-407260D01*
X-81990Y-406220D01*
X-80750Y-405800D01*
X-79510Y-406220D01*
X-78430Y-407260D01*
X-77960Y-408720D01*
X-78270Y-410180D01*
X-79040Y-411220D01*
X-79980Y-411630D01*
X-81520D01*
X-82920Y-412260D01*
X-83850Y-413510D01*
X-84160Y-414970D01*
X-83850Y-416430D01*
X-83070Y-417470D01*
X-81830Y-418090D01*
X-80750Y-418300D01*
G01X-68350Y-418720D02*
X-68660Y-418510D01*
Y-418090D01*
X-68350Y-417880D01*
X-68040Y-418090D01*
Y-418510D01*
X-68350Y-418720D01*
G01X-55950Y-418300D02*
Y-405800D01*
X-57810Y-408300D01*
G01Y-418300D02*
X-54090D01*
G01X-45870Y-409970D02*
X-41230Y-418300D01*
G01Y-409970D02*
X-45870Y-418300D01*
G01X-34560Y-415800D02*
X-33630Y-417260D01*
X-32390Y-418090D01*
X-30990Y-418300D01*
X-29750Y-418090D01*
X-28510Y-417050D01*
X-27740Y-415800D01*
X-27590Y-414550D01*
X-27890Y-413090D01*
X-28980Y-412050D01*
X-30070Y-411630D01*
X-31460D01*
G01X-30070D02*
X-29140Y-411010D01*
X-28360Y-409970D01*
X-28050Y-408720D01*
X-28360Y-407470D01*
X-29140Y-406430D01*
X-30530Y-405800D01*
X-31920Y-406010D01*
X-33320Y-406840D01*
G01X-21390Y-416840D02*
X-20300Y-417880D01*
X-19060Y-418300D01*
X-17820Y-417880D01*
X-16740Y-416630D01*
X-15960Y-414760D01*
X-15650Y-412880D01*
Y-410590D01*
X-15960Y-408720D01*
X-16740Y-407050D01*
X-17670Y-406220D01*
X-18750Y-405800D01*
X-19990Y-406220D01*
X-20920Y-407050D01*
X-21540Y-408300D01*
X-21850Y-409970D01*
X-21540Y-411420D01*
X-20760Y-412880D01*
X-19830Y-413720D01*
X-18750Y-413930D01*
X-17510Y-413510D01*
X-16580Y-412470D01*
X-15650Y-410590D01*
G01X-6350Y-418720D02*
X-6660Y-418510D01*
Y-418090D01*
X-6350Y-417880D01*
X-6040Y-418090D01*
Y-418510D01*
X-6350Y-418720D01*
G01X7910Y-418300D02*
Y-405800D01*
X2170Y-414760D01*
X9930D01*
G01X-127100Y-206450D02*
Y-193950D01*
X-121200D01*
G01X-123380Y-199990D02*
X-127100D01*
G01X-113610Y-193950D02*
X-109890D01*
G01X-111750D02*
Y-206450D01*
G01X-113610D02*
X-109890D01*
G01X-102910D02*
Y-193950D01*
X-95790Y-206450D01*
Y-193950D01*
G01X-88810D02*
X-85090D01*
G01X-86950D02*
Y-206450D01*
G01X-88810D02*
X-85090D01*
G01X-77810Y-204780D02*
X-76560Y-205830D01*
X-75170Y-206450D01*
X-73930D01*
X-72690Y-205830D01*
X-71760Y-204780D01*
X-71290Y-203320D01*
X-71600Y-201870D01*
X-72380Y-200620D01*
X-73780Y-199780D01*
X-75630Y-199370D01*
X-76720Y-198530D01*
X-77190Y-197080D01*
X-76870Y-195620D01*
X-76100Y-194580D01*
X-75020Y-193950D01*
X-73930D01*
X-72840Y-194370D01*
X-71910Y-195410D01*
G01X-65410Y-206450D02*
Y-193950D01*
G01X-58890D02*
Y-206450D01*
G01Y-200200D02*
X-65410D01*
G01X-46650Y-206450D02*
X-52850D01*
Y-193950D01*
X-46650D01*
G01X-49130Y-199990D02*
X-52850D01*
G01X-40760Y-206450D02*
Y-193950D01*
X-37660D01*
X-36420Y-194580D01*
X-35490Y-195410D01*
X-34710Y-196660D01*
X-34090Y-198120D01*
X-33940Y-200200D01*
X-34090Y-202280D01*
X-34710Y-203740D01*
X-35490Y-204990D01*
X-36420Y-205830D01*
X-37660Y-206450D01*
X-40760D01*
G01X-29600Y-210620D02*
X-20300D01*
G01X-15810Y-204780D02*
X-14560Y-205830D01*
X-13170Y-206450D01*
X-11930D01*
X-10690Y-205830D01*
X-9760Y-204780D01*
X-9290Y-203320D01*
X-9600Y-201870D01*
X-10380Y-200620D01*
X-11780Y-199780D01*
X-13630Y-199370D01*
X-14720Y-198530D01*
X-15190Y-197080D01*
X-14870Y-195620D01*
X-14100Y-194580D01*
X-13020Y-193950D01*
X-11930D01*
X-10840Y-194370D01*
X-9910Y-195410D01*
G01X-2010Y-193950D02*
X1710D01*
G01X-150D02*
Y-206450D01*
G01X-2010D02*
X1710D01*
G01X9300Y-193950D02*
X15200D01*
X9300Y-206450D01*
X15200D01*
G01X27750D02*
X21550D01*
Y-193950D01*
X27750D01*
G01X25270Y-199990D02*
X21550D01*
G01X-120280Y-181450D02*
X-116400Y-168950D01*
X-112520Y-181450D01*
G01X-113920Y-177080D02*
X-118880D01*
G01X-107100Y-168950D02*
Y-181450D01*
X-100900D01*
G01X-94700Y-168950D02*
Y-181450D01*
X-88500D01*
G01X-70210Y-168950D02*
Y-177910D01*
X-69590Y-179780D01*
X-68350Y-181030D01*
X-66800Y-181450D01*
X-65250Y-181030D01*
X-64010Y-179780D01*
X-63390Y-177910D01*
Y-168950D01*
G01X-57960Y-181450D02*
Y-168950D01*
X-50840Y-181450D01*
Y-168950D01*
G01X-43860D02*
X-40140D01*
G01X-42000D02*
Y-181450D01*
G01X-43860D02*
X-40140D01*
G01X-29600Y-168950D02*
Y-181450D01*
G01X-33160Y-168950D02*
X-26040D01*
G01X-20460Y-179780D02*
X-19210Y-180830D01*
X-17820Y-181450D01*
X-16580D01*
X-15340Y-180830D01*
X-14410Y-179780D01*
X-13940Y-178320D01*
X-14250Y-176870D01*
X-15030Y-175620D01*
X-16430Y-174780D01*
X-18280Y-174370D01*
X-19370Y-173530D01*
X-19840Y-172080D01*
X-19520Y-170620D01*
X-18750Y-169580D01*
X-17670Y-168950D01*
X-16580D01*
X-15490Y-169370D01*
X-14560Y-170410D01*
G01X3720Y-181450D02*
X7600Y-168950D01*
X11480Y-181450D01*
G01X10080Y-177080D02*
X5120D01*
G01X16900Y-181450D02*
Y-168950D01*
X20770D01*
X22010Y-169580D01*
X22790Y-170410D01*
X23100Y-172080D01*
X22790Y-173740D01*
X21860Y-174780D01*
X20770Y-175410D01*
X16900D01*
G01X20770D02*
X23100Y-181450D01*
G01X35500D02*
X29300D01*
Y-168950D01*
X35500D01*
G01X33020Y-174990D02*
X29300D01*
G01X55340Y-168950D02*
X59060D01*
G01X57200D02*
Y-181450D01*
G01X55340D02*
X59060D01*
G01X66040D02*
Y-168950D01*
X73160Y-181450D01*
Y-168950D01*
G01X90370Y-181450D02*
Y-168950D01*
X94400Y-179370D01*
X98430Y-168950D01*
Y-181450D01*
G01X104940Y-168950D02*
X108660D01*
G01X106800D02*
Y-181450D01*
G01X104940D02*
X108660D01*
G01X116100Y-168950D02*
Y-181450D01*
X122300D01*
G01X128340Y-179780D02*
X129590Y-180830D01*
X130980Y-181450D01*
X132220D01*
X133460Y-180830D01*
X134390Y-179780D01*
X134860Y-178320D01*
X134550Y-176870D01*
X133770Y-175620D01*
X132370Y-174780D01*
X130520Y-174370D01*
X129430Y-173530D01*
X128960Y-172080D01*
X129280Y-170620D01*
X130050Y-169580D01*
X131130Y-168950D01*
X132220D01*
X133310Y-169370D01*
X134240Y-170410D01*
G01X-101990Y-390260D02*
X-100900Y-391300D01*
X-99660Y-391720D01*
X-98420Y-391300D01*
X-97340Y-390050D01*
X-96560Y-388180D01*
X-96250Y-386300D01*
Y-384010D01*
X-96560Y-382140D01*
X-97340Y-380470D01*
X-98270Y-379640D01*
X-99350Y-379220D01*
X-100590Y-379640D01*
X-101520Y-380470D01*
X-102140Y-381720D01*
X-102450Y-383390D01*
X-102140Y-384840D01*
X-101360Y-386300D01*
X-100430Y-387140D01*
X-99350Y-387350D01*
X-98110Y-386930D01*
X-97180Y-385890D01*
X-96250Y-384010D01*
G01X-86950Y-391720D02*
X-85870Y-391510D01*
X-84630Y-390890D01*
X-83850Y-389850D01*
X-83540Y-388390D01*
X-83850Y-386930D01*
X-84780Y-385680D01*
X-86180Y-385050D01*
X-87720D01*
X-88660Y-384640D01*
X-89430Y-383600D01*
X-89740Y-382140D01*
X-89270Y-380680D01*
X-88190Y-379640D01*
X-86950Y-379220D01*
X-85710Y-379640D01*
X-84630Y-380680D01*
X-84160Y-382140D01*
X-84470Y-383600D01*
X-85240Y-384640D01*
X-86180Y-385050D01*
X-87720D01*
X-89120Y-385680D01*
X-90050Y-386930D01*
X-90360Y-388390D01*
X-90050Y-389850D01*
X-89270Y-390890D01*
X-88030Y-391510D01*
X-86950Y-391720D01*
G01X-74550Y-392140D02*
X-74860Y-391930D01*
Y-391510D01*
X-74550Y-391300D01*
X-74240Y-391510D01*
Y-391930D01*
X-74550Y-392140D01*
G01X-60290Y-391720D02*
Y-379220D01*
X-66030Y-388180D01*
X-58270D01*
G01X-52070Y-383390D02*
X-47430Y-391720D01*
G01Y-383390D02*
X-52070Y-391720D01*
G01X-40760Y-389220D02*
X-39830Y-390680D01*
X-38590Y-391510D01*
X-37190Y-391720D01*
X-35950Y-391510D01*
X-34710Y-390470D01*
X-33940Y-389220D01*
X-33790Y-387970D01*
X-34090Y-386510D01*
X-35180Y-385470D01*
X-36270Y-385050D01*
X-37660D01*
G01X-36270D02*
X-35340Y-384430D01*
X-34560Y-383390D01*
X-34250Y-382140D01*
X-34560Y-380890D01*
X-35340Y-379850D01*
X-36730Y-379220D01*
X-38120Y-379430D01*
X-39520Y-380260D01*
G01X-27590Y-390260D02*
X-26500Y-391300D01*
X-25260Y-391720D01*
X-24020Y-391300D01*
X-22940Y-390050D01*
X-22160Y-388180D01*
X-21850Y-386300D01*
Y-384010D01*
X-22160Y-382140D01*
X-22940Y-380470D01*
X-23870Y-379640D01*
X-24950Y-379220D01*
X-26190Y-379640D01*
X-27120Y-380470D01*
X-27740Y-381720D01*
X-28050Y-383390D01*
X-27740Y-384840D01*
X-26960Y-386300D01*
X-26030Y-387140D01*
X-24950Y-387350D01*
X-23710Y-386930D01*
X-22780Y-385890D01*
X-21850Y-384010D01*
G01X-12550Y-392140D02*
X-12860Y-391930D01*
Y-391510D01*
X-12550Y-391300D01*
X-12240Y-391510D01*
Y-391930D01*
X-12550Y-392140D01*
G01X1710Y-391720D02*
Y-379220D01*
X-4030Y-388180D01*
X3730D01*
G01X-74550Y-365140D02*
Y-352640D01*
X-76410Y-355140D01*
G01Y-365140D02*
X-72690D01*
G01X-65560Y-362640D02*
X-64630Y-364100D01*
X-63390Y-364930D01*
X-61990Y-365140D01*
X-60750Y-364930D01*
X-59510Y-363890D01*
X-58740Y-362640D01*
X-58590Y-361390D01*
X-58890Y-359930D01*
X-59980Y-358890D01*
X-61070Y-358470D01*
X-62460D01*
G01X-61070D02*
X-60140Y-357850D01*
X-59360Y-356810D01*
X-59050Y-355560D01*
X-59360Y-354310D01*
X-60140Y-353270D01*
X-61530Y-352640D01*
X-62920Y-352850D01*
X-64320Y-353680D01*
G01X-50060Y-365140D02*
X-49750Y-362430D01*
X-49280Y-360140D01*
X-48670Y-358060D01*
X-47890Y-355770D01*
X-46650Y-352640D01*
X-52850D01*
G01X-37350Y-365560D02*
X-37660Y-365350D01*
Y-364930D01*
X-37350Y-364720D01*
X-37040Y-364930D01*
Y-365350D01*
X-37350Y-365560D01*
G01X-24950Y-365140D02*
X-23870Y-364930D01*
X-22630Y-364310D01*
X-21850Y-363270D01*
X-21540Y-361810D01*
X-21850Y-360350D01*
X-22780Y-359100D01*
X-24180Y-358470D01*
X-25720D01*
X-26660Y-358060D01*
X-27430Y-357020D01*
X-27740Y-355560D01*
X-27270Y-354100D01*
X-26190Y-353060D01*
X-24950Y-352640D01*
X-23710Y-353060D01*
X-22630Y-354100D01*
X-22160Y-355560D01*
X-22470Y-357020D01*
X-23240Y-358060D01*
X-24180Y-358470D01*
X-25720D01*
X-27120Y-359100D01*
X-28050Y-360350D01*
X-28360Y-361810D01*
X-28050Y-363270D01*
X-27270Y-364310D01*
X-26030Y-364930D01*
X-24950Y-365140D01*
G01X-71760Y-336060D02*
X-70830Y-337520D01*
X-69590Y-338350D01*
X-68190Y-338560D01*
X-66950Y-338350D01*
X-65710Y-337310D01*
X-64940Y-336060D01*
X-64790Y-334810D01*
X-65090Y-333350D01*
X-66180Y-332310D01*
X-67270Y-331890D01*
X-68660D01*
G01X-67270D02*
X-66340Y-331270D01*
X-65560Y-330230D01*
X-65250Y-328980D01*
X-65560Y-327730D01*
X-66340Y-326690D01*
X-67730Y-326060D01*
X-69120Y-326270D01*
X-70520Y-327100D01*
G01X-59360Y-336690D02*
X-58430Y-337730D01*
X-57350Y-338350D01*
X-55950Y-338560D01*
X-54550Y-338140D01*
X-53470Y-337310D01*
X-52690Y-335850D01*
X-52540Y-334190D01*
X-52850Y-332520D01*
X-53630Y-331480D01*
X-54710Y-330640D01*
X-55790Y-330440D01*
X-56880Y-330640D01*
X-58270Y-331480D01*
X-57810Y-326060D01*
X-53630D01*
G01X-43550Y-338980D02*
X-43860Y-338770D01*
Y-338350D01*
X-43550Y-338140D01*
X-43240Y-338350D01*
Y-338770D01*
X-43550Y-338980D01*
G01X-29290Y-338560D02*
Y-326060D01*
X-35030Y-335020D01*
X-27270D01*
G01X-71300Y-301560D02*
X-70360Y-300310D01*
X-69280Y-299690D01*
X-68040Y-299480D01*
X-66490Y-299900D01*
X-65400Y-300940D01*
X-65090Y-302190D01*
X-65250Y-303440D01*
X-65870Y-304480D01*
X-68970Y-306560D01*
X-70360Y-308020D01*
X-71300Y-310110D01*
X-71610Y-311980D01*
X-65090D01*
G01X-59360Y-309480D02*
X-58430Y-310940D01*
X-57190Y-311770D01*
X-55790Y-311980D01*
X-54550Y-311770D01*
X-53310Y-310730D01*
X-52540Y-309480D01*
X-52390Y-308230D01*
X-52690Y-306770D01*
X-53780Y-305730D01*
X-54870Y-305310D01*
X-56260D01*
G01X-54870D02*
X-53940Y-304690D01*
X-53160Y-303650D01*
X-52850Y-302400D01*
X-53160Y-301150D01*
X-53940Y-300110D01*
X-55330Y-299480D01*
X-56720Y-299690D01*
X-58120Y-300520D01*
G01X-43550Y-312400D02*
X-43860Y-312190D01*
Y-311770D01*
X-43550Y-311560D01*
X-43240Y-311770D01*
Y-312190D01*
X-43550Y-312400D01*
G01X-34100Y-306770D02*
X-33010Y-305310D01*
X-32080Y-304480D01*
X-30840Y-304060D01*
X-29750Y-304480D01*
X-28980Y-305310D01*
X-28360Y-306560D01*
X-28200Y-308020D01*
X-28360Y-309270D01*
X-28980Y-310520D01*
X-29910Y-311560D01*
X-30990Y-311980D01*
X-32230Y-311560D01*
X-33320Y-310310D01*
X-33940Y-308440D01*
X-34100Y-306360D01*
X-33790Y-303650D01*
X-33320Y-302190D01*
X-32550Y-300730D01*
X-31460Y-299690D01*
X-30380Y-299480D01*
X-29290Y-299900D01*
X-28510Y-300940D01*
G01X-71760Y-282900D02*
X-70830Y-284360D01*
X-69590Y-285190D01*
X-68190Y-285400D01*
X-66950Y-285190D01*
X-65710Y-284150D01*
X-64940Y-282900D01*
X-64790Y-281650D01*
X-65090Y-280190D01*
X-66180Y-279150D01*
X-67270Y-278730D01*
X-68660D01*
G01X-67270D02*
X-66340Y-278110D01*
X-65560Y-277070D01*
X-65250Y-275820D01*
X-65560Y-274570D01*
X-66340Y-273530D01*
X-67730Y-272900D01*
X-69120Y-273110D01*
X-70520Y-273940D01*
G01X-58590Y-283940D02*
X-57500Y-284980D01*
X-56260Y-285400D01*
X-55020Y-284980D01*
X-53940Y-283730D01*
X-53160Y-281860D01*
X-52850Y-279980D01*
Y-277690D01*
X-53160Y-275820D01*
X-53940Y-274150D01*
X-54870Y-273320D01*
X-55950Y-272900D01*
X-57190Y-273320D01*
X-58120Y-274150D01*
X-58740Y-275400D01*
X-59050Y-277070D01*
X-58740Y-278520D01*
X-57960Y-279980D01*
X-57030Y-280820D01*
X-55950Y-281030D01*
X-54710Y-280610D01*
X-53780Y-279570D01*
X-52850Y-277690D01*
G01X-43550Y-285820D02*
X-43860Y-285610D01*
Y-285190D01*
X-43550Y-284980D01*
X-43240Y-285190D01*
Y-285610D01*
X-43550Y-285820D01*
G01X-29290Y-285400D02*
Y-272900D01*
X-35030Y-281860D01*
X-27270D01*
G01X-71760Y-256320D02*
X-70830Y-257780D01*
X-69590Y-258610D01*
X-68190Y-258820D01*
X-66950Y-258610D01*
X-65710Y-257570D01*
X-64940Y-256320D01*
X-64790Y-255070D01*
X-65090Y-253610D01*
X-66180Y-252570D01*
X-67270Y-252150D01*
X-68660D01*
G01X-67270D02*
X-66340Y-251530D01*
X-65560Y-250490D01*
X-65250Y-249240D01*
X-65560Y-247990D01*
X-66340Y-246950D01*
X-67730Y-246320D01*
X-69120Y-246530D01*
X-70520Y-247360D01*
G01X-59360Y-256950D02*
X-58430Y-257990D01*
X-57350Y-258610D01*
X-55950Y-258820D01*
X-54550Y-258400D01*
X-53470Y-257570D01*
X-52690Y-256110D01*
X-52540Y-254450D01*
X-52850Y-252780D01*
X-53630Y-251740D01*
X-54710Y-250900D01*
X-55790Y-250700D01*
X-56880Y-250900D01*
X-58270Y-251740D01*
X-57810Y-246320D01*
X-53630D01*
G01X-43550Y-259240D02*
X-43860Y-259030D01*
Y-258610D01*
X-43550Y-258400D01*
X-43240Y-258610D01*
Y-259030D01*
X-43550Y-259240D01*
G01X-29290Y-258820D02*
Y-246320D01*
X-35030Y-255280D01*
X-27270D01*
G01X-68350Y-232240D02*
Y-219740D01*
X-70210Y-222240D01*
G01Y-232240D02*
X-66490D01*
G01X-59360Y-229740D02*
X-58430Y-231200D01*
X-57190Y-232030D01*
X-55790Y-232240D01*
X-54550Y-232030D01*
X-53310Y-230990D01*
X-52540Y-229740D01*
X-52390Y-228490D01*
X-52690Y-227030D01*
X-53780Y-225990D01*
X-54870Y-225570D01*
X-56260D01*
G01X-54870D02*
X-53940Y-224950D01*
X-53160Y-223910D01*
X-52850Y-222660D01*
X-53160Y-221410D01*
X-53940Y-220370D01*
X-55330Y-219740D01*
X-56720Y-219950D01*
X-58120Y-220780D01*
G01X-43550Y-232660D02*
X-43860Y-232450D01*
Y-232030D01*
X-43550Y-231820D01*
X-43240Y-232030D01*
Y-232450D01*
X-43550Y-232660D01*
G01X-31150Y-219740D02*
X-32390Y-220160D01*
X-33320Y-221200D01*
X-33940Y-222450D01*
X-34410Y-224120D01*
X-34560Y-225990D01*
X-34410Y-227870D01*
X-33940Y-229530D01*
X-33320Y-230780D01*
X-32390Y-231820D01*
X-31150Y-232240D01*
X-29910Y-231820D01*
X-28980Y-230780D01*
X-28360Y-229530D01*
X-27890Y-227870D01*
X-27740Y-225990D01*
X-27890Y-224120D01*
X-28360Y-222450D01*
X-28980Y-221200D01*
X-29910Y-220160D01*
X-31150Y-219740D01*
G01X51000Y-187700D02*
Y-505080D01*
G01X55190Y-365140D02*
Y-352640D01*
X62310Y-365140D01*
Y-352640D01*
G01X71150Y-365140D02*
X69910Y-364930D01*
X68830Y-364100D01*
X67890Y-362850D01*
X67270Y-361390D01*
X66960Y-359720D01*
Y-358060D01*
X67270Y-356390D01*
X67890Y-354930D01*
X68830Y-353680D01*
X69910Y-352850D01*
X71150Y-352640D01*
X72390Y-352850D01*
X73470Y-353680D01*
X74410Y-354930D01*
X75030Y-356390D01*
X75340Y-358060D01*
Y-359720D01*
X75030Y-361390D01*
X74410Y-362850D01*
X73470Y-364100D01*
X72390Y-364930D01*
X71150Y-365140D01*
G01X79990D02*
Y-352640D01*
X87110Y-365140D01*
Y-352640D01*
G01X93940Y-360970D02*
X97960D01*
G01X105250Y-365140D02*
Y-352640D01*
X108970D01*
X110210Y-353270D01*
X111140Y-354720D01*
X111450Y-356390D01*
X111140Y-358060D01*
X110360Y-359310D01*
X108970Y-359930D01*
X105250D01*
G01X117650Y-352640D02*
Y-365140D01*
X123850D01*
G01X129270D02*
X133150Y-352640D01*
X137030Y-365140D01*
G01X135630Y-360770D02*
X130670D01*
G01X145550Y-352640D02*
Y-365140D01*
G01X141990Y-352640D02*
X149110D01*
G01X161050Y-365140D02*
X154850D01*
Y-352640D01*
X161050D01*
G01X158570Y-358680D02*
X154850D01*
G01X166940Y-365140D02*
Y-352640D01*
X170040D01*
X171280Y-353270D01*
X172210Y-354100D01*
X172990Y-355350D01*
X173610Y-356810D01*
X173760Y-358890D01*
X173610Y-360970D01*
X172990Y-362430D01*
X172210Y-363680D01*
X171280Y-364520D01*
X170040Y-365140D01*
X166940D01*
G01X55190Y-338560D02*
Y-326060D01*
X62310Y-338560D01*
Y-326060D01*
G01X71150Y-338560D02*
X69910Y-338350D01*
X68830Y-337520D01*
X67890Y-336270D01*
X67270Y-334810D01*
X66960Y-333140D01*
Y-331480D01*
X67270Y-329810D01*
X67890Y-328350D01*
X68830Y-327100D01*
X69910Y-326270D01*
X71150Y-326060D01*
X72390Y-326270D01*
X73470Y-327100D01*
X74410Y-328350D01*
X75030Y-329810D01*
X75340Y-331480D01*
Y-333140D01*
X75030Y-334810D01*
X74410Y-336270D01*
X73470Y-337520D01*
X72390Y-338350D01*
X71150Y-338560D01*
G01X79990D02*
Y-326060D01*
X87110Y-338560D01*
Y-326060D01*
G01X93940Y-334390D02*
X97960D01*
G01X105250Y-338560D02*
Y-326060D01*
X108970D01*
X110210Y-326690D01*
X111140Y-328140D01*
X111450Y-329810D01*
X111140Y-331480D01*
X110360Y-332730D01*
X108970Y-333350D01*
X105250D01*
G01X117650Y-326060D02*
Y-338560D01*
X123850D01*
G01X129270D02*
X133150Y-326060D01*
X137030Y-338560D01*
G01X135630Y-334190D02*
X130670D01*
G01X145550Y-326060D02*
Y-338560D01*
G01X141990Y-326060D02*
X149110D01*
G01X161050Y-338560D02*
X154850D01*
Y-326060D01*
X161050D01*
G01X158570Y-332100D02*
X154850D01*
G01X166940Y-338560D02*
Y-326060D01*
X170040D01*
X171280Y-326690D01*
X172210Y-327520D01*
X172990Y-328770D01*
X173610Y-330230D01*
X173760Y-332310D01*
X173610Y-334390D01*
X172990Y-335850D01*
X172210Y-337100D01*
X171280Y-337940D01*
X170040Y-338560D01*
X166940D01*
G01X55190Y-311980D02*
Y-299480D01*
X62310Y-311980D01*
Y-299480D01*
G01X71150Y-311980D02*
X69910Y-311770D01*
X68830Y-310940D01*
X67890Y-309690D01*
X67270Y-308230D01*
X66960Y-306560D01*
Y-304900D01*
X67270Y-303230D01*
X67890Y-301770D01*
X68830Y-300520D01*
X69910Y-299690D01*
X71150Y-299480D01*
X72390Y-299690D01*
X73470Y-300520D01*
X74410Y-301770D01*
X75030Y-303230D01*
X75340Y-304900D01*
Y-306560D01*
X75030Y-308230D01*
X74410Y-309690D01*
X73470Y-310940D01*
X72390Y-311770D01*
X71150Y-311980D01*
G01X79990D02*
Y-299480D01*
X87110Y-311980D01*
Y-299480D01*
G01X93940Y-307810D02*
X97960D01*
G01X105250Y-311980D02*
Y-299480D01*
X108970D01*
X110210Y-300110D01*
X111140Y-301560D01*
X111450Y-303230D01*
X111140Y-304900D01*
X110360Y-306150D01*
X108970Y-306770D01*
X105250D01*
G01X117650Y-299480D02*
Y-311980D01*
X123850D01*
G01X129270D02*
X133150Y-299480D01*
X137030Y-311980D01*
G01X135630Y-307610D02*
X130670D01*
G01X145550Y-299480D02*
Y-311980D01*
G01X141990Y-299480D02*
X149110D01*
G01X161050Y-311980D02*
X154850D01*
Y-299480D01*
X161050D01*
G01X158570Y-305520D02*
X154850D01*
G01X166940Y-311980D02*
Y-299480D01*
X170040D01*
X171280Y-300110D01*
X172210Y-300940D01*
X172990Y-302190D01*
X173610Y-303650D01*
X173760Y-305730D01*
X173610Y-307810D01*
X172990Y-309270D01*
X172210Y-310520D01*
X171280Y-311360D01*
X170040Y-311980D01*
X166940D01*
G01X80450Y-498040D02*
Y-485540D01*
X84170D01*
X85410Y-486170D01*
X86340Y-487620D01*
X86650Y-489290D01*
X86340Y-490960D01*
X85560Y-492210D01*
X84170Y-492830D01*
X80450D01*
G01X92850Y-485540D02*
Y-498040D01*
X99050D01*
G01X104470D02*
X108350Y-485540D01*
X112230Y-498040D01*
G01X110830Y-493670D02*
X105870D01*
G01X120750Y-485540D02*
Y-498040D01*
G01X117190Y-485540D02*
X124310D01*
G01X136250Y-498040D02*
X130050D01*
Y-485540D01*
X136250D01*
G01X133770Y-491580D02*
X130050D01*
G01X142140Y-498040D02*
Y-485540D01*
X145240D01*
X146480Y-486170D01*
X147410Y-487000D01*
X148190Y-488250D01*
X148810Y-489710D01*
X148960Y-491790D01*
X148810Y-493870D01*
X148190Y-495330D01*
X147410Y-496580D01*
X146480Y-497420D01*
X145240Y-498040D01*
X142140D01*
G01X80450Y-471460D02*
Y-458960D01*
X84170D01*
X85410Y-459590D01*
X86340Y-461040D01*
X86650Y-462710D01*
X86340Y-464380D01*
X85560Y-465630D01*
X84170Y-466250D01*
X80450D01*
G01X92850Y-458960D02*
Y-471460D01*
X99050D01*
G01X104470D02*
X108350Y-458960D01*
X112230Y-471460D01*
G01X110830Y-467090D02*
X105870D01*
G01X120750Y-458960D02*
Y-471460D01*
G01X117190Y-458960D02*
X124310D01*
G01X136250Y-471460D02*
X130050D01*
Y-458960D01*
X136250D01*
G01X133770Y-465000D02*
X130050D01*
G01X142140Y-471460D02*
Y-458960D01*
X145240D01*
X146480Y-459590D01*
X147410Y-460420D01*
X148190Y-461670D01*
X148810Y-463130D01*
X148960Y-465210D01*
X148810Y-467290D01*
X148190Y-468750D01*
X147410Y-470000D01*
X146480Y-470840D01*
X145240Y-471460D01*
X142140D01*
G01X80450Y-444880D02*
Y-432380D01*
X84170D01*
X85410Y-433010D01*
X86340Y-434460D01*
X86650Y-436130D01*
X86340Y-437800D01*
X85560Y-439050D01*
X84170Y-439670D01*
X80450D01*
G01X92850Y-432380D02*
Y-444880D01*
X99050D01*
G01X104470D02*
X108350Y-432380D01*
X112230Y-444880D01*
G01X110830Y-440510D02*
X105870D01*
G01X120750Y-432380D02*
Y-444880D01*
G01X117190Y-432380D02*
X124310D01*
G01X136250Y-444880D02*
X130050D01*
Y-432380D01*
X136250D01*
G01X133770Y-438420D02*
X130050D01*
G01X142140Y-444880D02*
Y-432380D01*
X145240D01*
X146480Y-433010D01*
X147410Y-433840D01*
X148190Y-435090D01*
X148810Y-436550D01*
X148960Y-438630D01*
X148810Y-440710D01*
X148190Y-442170D01*
X147410Y-443420D01*
X146480Y-444260D01*
X145240Y-444880D01*
X142140D01*
G01X80450Y-418300D02*
Y-405800D01*
X84170D01*
X85410Y-406430D01*
X86340Y-407880D01*
X86650Y-409550D01*
X86340Y-411220D01*
X85560Y-412470D01*
X84170Y-413090D01*
X80450D01*
G01X92850Y-405800D02*
Y-418300D01*
X99050D01*
G01X104470D02*
X108350Y-405800D01*
X112230Y-418300D01*
G01X110830Y-413930D02*
X105870D01*
G01X120750Y-405800D02*
Y-418300D01*
G01X117190Y-405800D02*
X124310D01*
G01X136250Y-418300D02*
X130050D01*
Y-405800D01*
X136250D01*
G01X133770Y-411840D02*
X130050D01*
G01X142140Y-418300D02*
Y-405800D01*
X145240D01*
X146480Y-406430D01*
X147410Y-407260D01*
X148190Y-408510D01*
X148810Y-409970D01*
X148960Y-412050D01*
X148810Y-414130D01*
X148190Y-415590D01*
X147410Y-416840D01*
X146480Y-417680D01*
X145240Y-418300D01*
X142140D01*
G01X80450Y-391720D02*
Y-379220D01*
X84170D01*
X85410Y-379850D01*
X86340Y-381300D01*
X86650Y-382970D01*
X86340Y-384640D01*
X85560Y-385890D01*
X84170Y-386510D01*
X80450D01*
G01X92850Y-379220D02*
Y-391720D01*
X99050D01*
G01X104470D02*
X108350Y-379220D01*
X112230Y-391720D01*
G01X110830Y-387350D02*
X105870D01*
G01X120750Y-379220D02*
Y-391720D01*
G01X117190Y-379220D02*
X124310D01*
G01X136250Y-391720D02*
X130050D01*
Y-379220D01*
X136250D01*
G01X133770Y-385260D02*
X130050D01*
G01X142140Y-391720D02*
Y-379220D01*
X145240D01*
X146480Y-379850D01*
X147410Y-380680D01*
X148190Y-381930D01*
X148810Y-383390D01*
X148960Y-385470D01*
X148810Y-387550D01*
X148190Y-389010D01*
X147410Y-390260D01*
X146480Y-391100D01*
X145240Y-391720D01*
X142140D01*
G01X80450Y-285400D02*
Y-272900D01*
X84170D01*
X85410Y-273530D01*
X86340Y-274980D01*
X86650Y-276650D01*
X86340Y-278320D01*
X85560Y-279570D01*
X84170Y-280190D01*
X80450D01*
G01X92850Y-272900D02*
Y-285400D01*
X99050D01*
G01X104470D02*
X108350Y-272900D01*
X112230Y-285400D01*
G01X110830Y-281030D02*
X105870D01*
G01X120750Y-272900D02*
Y-285400D01*
G01X117190Y-272900D02*
X124310D01*
G01X136250Y-285400D02*
X130050D01*
Y-272900D01*
X136250D01*
G01X133770Y-278940D02*
X130050D01*
G01X142140Y-285400D02*
Y-272900D01*
X145240D01*
X146480Y-273530D01*
X147410Y-274360D01*
X148190Y-275610D01*
X148810Y-277070D01*
X148960Y-279150D01*
X148810Y-281230D01*
X148190Y-282690D01*
X147410Y-283940D01*
X146480Y-284780D01*
X145240Y-285400D01*
X142140D01*
G01X80450Y-258820D02*
Y-246320D01*
X84170D01*
X85410Y-246950D01*
X86340Y-248400D01*
X86650Y-250070D01*
X86340Y-251740D01*
X85560Y-252990D01*
X84170Y-253610D01*
X80450D01*
G01X92850Y-246320D02*
Y-258820D01*
X99050D01*
G01X104470D02*
X108350Y-246320D01*
X112230Y-258820D01*
G01X110830Y-254450D02*
X105870D01*
G01X120750Y-246320D02*
Y-258820D01*
G01X117190Y-246320D02*
X124310D01*
G01X136250Y-258820D02*
X130050D01*
Y-246320D01*
X136250D01*
G01X133770Y-252360D02*
X130050D01*
G01X142140Y-258820D02*
Y-246320D01*
X145240D01*
X146480Y-246950D01*
X147410Y-247780D01*
X148190Y-249030D01*
X148810Y-250490D01*
X148960Y-252570D01*
X148810Y-254650D01*
X148190Y-256110D01*
X147410Y-257360D01*
X146480Y-258200D01*
X145240Y-258820D01*
X142140D01*
G01X80450Y-232240D02*
Y-219740D01*
X84170D01*
X85410Y-220370D01*
X86340Y-221820D01*
X86650Y-223490D01*
X86340Y-225160D01*
X85560Y-226410D01*
X84170Y-227030D01*
X80450D01*
G01X92850Y-219740D02*
Y-232240D01*
X99050D01*
G01X104470D02*
X108350Y-219740D01*
X112230Y-232240D01*
G01X110830Y-227870D02*
X105870D01*
G01X120750Y-219740D02*
Y-232240D01*
G01X117190Y-219740D02*
X124310D01*
G01X136250Y-232240D02*
X130050D01*
Y-219740D01*
X136250D01*
G01X133770Y-225780D02*
X130050D01*
G01X142140Y-232240D02*
Y-219740D01*
X145240D01*
X146480Y-220370D01*
X147410Y-221200D01*
X148190Y-222450D01*
X148810Y-223910D01*
X148960Y-225990D01*
X148810Y-228070D01*
X148190Y-229530D01*
X147410Y-230780D01*
X146480Y-231620D01*
X145240Y-232240D01*
X142140D01*
G01X80450Y-206450D02*
Y-193950D01*
X84170D01*
X85410Y-194580D01*
X86340Y-196030D01*
X86650Y-197700D01*
X86340Y-199370D01*
X85560Y-200620D01*
X84170Y-201240D01*
X80450D01*
G01X92850Y-193950D02*
Y-206450D01*
X99050D01*
G01X104470D02*
X108350Y-193950D01*
X112230Y-206450D01*
G01X110830Y-202080D02*
X105870D01*
G01X120750Y-193950D02*
Y-206450D01*
G01X117190Y-193950D02*
X124310D01*
G01X136250Y-206450D02*
X130050D01*
Y-193950D01*
X136250D01*
G01X133770Y-199990D02*
X130050D01*
G01X142140Y-206450D02*
Y-193950D01*
X145240D01*
X146480Y-194580D01*
X147410Y-195410D01*
X148190Y-196660D01*
X148810Y-198120D01*
X148960Y-200200D01*
X148810Y-202280D01*
X148190Y-203740D01*
X147410Y-204990D01*
X146480Y-205830D01*
X145240Y-206450D01*
X142140D01*
G01X178100Y-187700D02*
Y-505080D01*
G01X210650Y-285400D02*
X211730Y-285190D01*
X212970Y-284570D01*
X213750Y-283530D01*
X214060Y-282070D01*
X213750Y-280610D01*
X212820Y-279360D01*
X211420Y-278730D01*
X209880D01*
X208940Y-278320D01*
X208170Y-277280D01*
X207860Y-275820D01*
X208330Y-274360D01*
X209410Y-273320D01*
X210650Y-272900D01*
X211890Y-273320D01*
X212970Y-274360D01*
X213440Y-275820D01*
X213130Y-277280D01*
X212360Y-278320D01*
X211420Y-278730D01*
X209880D01*
X208480Y-279360D01*
X207550Y-280610D01*
X207240Y-282070D01*
X207550Y-283530D01*
X208330Y-284570D01*
X209570Y-285190D01*
X210650Y-285400D01*
G01X224910D02*
Y-272900D01*
X219170Y-281860D01*
X226930D01*
G01X210650Y-258820D02*
Y-246320D01*
X208790Y-248820D01*
G01Y-258820D02*
X212510D01*
G01X219640Y-256950D02*
X220570Y-257990D01*
X221650Y-258610D01*
X223050Y-258820D01*
X224450Y-258400D01*
X225530Y-257570D01*
X226310Y-256110D01*
X226460Y-254450D01*
X226150Y-252780D01*
X225370Y-251740D01*
X224290Y-250900D01*
X223210Y-250700D01*
X222120Y-250900D01*
X220730Y-251740D01*
X221190Y-246320D01*
X225370D01*
G01X201500Y-221820D02*
X202440Y-220570D01*
X203520Y-219950D01*
X204760Y-219740D01*
X206310Y-220160D01*
X207400Y-221200D01*
X207710Y-222450D01*
X207550Y-223700D01*
X206930Y-224740D01*
X203830Y-226820D01*
X202440Y-228280D01*
X201500Y-230370D01*
X201190Y-232240D01*
X207710D01*
G01X213900Y-221820D02*
X214840Y-220570D01*
X215920Y-219950D01*
X217160Y-219740D01*
X218710Y-220160D01*
X219800Y-221200D01*
X220110Y-222450D01*
X219950Y-223700D01*
X219330Y-224740D01*
X216230Y-226820D01*
X214840Y-228280D01*
X213900Y-230370D01*
X213590Y-232240D01*
X220110D01*
G01X226300Y-227030D02*
X227390Y-225570D01*
X228320Y-224740D01*
X229560Y-224320D01*
X230650Y-224740D01*
X231420Y-225570D01*
X232040Y-226820D01*
X232200Y-228280D01*
X232040Y-229530D01*
X231420Y-230780D01*
X230490Y-231820D01*
X229410Y-232240D01*
X228170Y-231820D01*
X227080Y-230570D01*
X226460Y-228700D01*
X226300Y-226620D01*
X226610Y-223910D01*
X227080Y-222450D01*
X227850Y-220990D01*
X228940Y-219950D01*
X230020Y-219740D01*
X231110Y-220160D01*
X231890Y-221200D01*
G01X204450Y-206450D02*
X203210Y-206240D01*
X202130Y-205410D01*
X201190Y-204160D01*
X200570Y-202700D01*
X200260Y-201030D01*
Y-199370D01*
X200570Y-197700D01*
X201190Y-196240D01*
X202130Y-194990D01*
X203210Y-194160D01*
X204450Y-193950D01*
X205690Y-194160D01*
X206770Y-194990D01*
X207710Y-196240D01*
X208330Y-197700D01*
X208640Y-199370D01*
Y-201030D01*
X208330Y-202700D01*
X207710Y-204160D01*
X206770Y-205410D01*
X205690Y-206240D01*
X204450Y-206450D01*
G01X205690Y-203120D02*
X207550Y-206450D01*
G01X216850Y-193950D02*
Y-206450D01*
G01X213290Y-193950D02*
X220410D01*
G01X229250Y-206450D02*
Y-200830D01*
X226150Y-193950D01*
G01X232350D02*
X229250Y-200830D01*
G01X216850Y-498040D02*
Y-485540D01*
X214990Y-488040D01*
G01Y-498040D02*
X218710D01*
G01X216850Y-471460D02*
Y-458960D01*
X214990Y-461460D01*
G01Y-471460D02*
X218710D01*
G01X213900Y-434460D02*
X214840Y-433210D01*
X215920Y-432590D01*
X217160Y-432380D01*
X218710Y-432800D01*
X219800Y-433840D01*
X220110Y-435090D01*
X219950Y-436340D01*
X219330Y-437380D01*
X216230Y-439460D01*
X214840Y-440920D01*
X213900Y-443010D01*
X213590Y-444880D01*
X220110D01*
G01X216850Y-418300D02*
Y-405800D01*
X214990Y-408300D01*
G01Y-418300D02*
X218710D01*
G01X213440Y-389220D02*
X214370Y-390680D01*
X215610Y-391510D01*
X217010Y-391720D01*
X218250Y-391510D01*
X219490Y-390470D01*
X220260Y-389220D01*
X220410Y-387970D01*
X220110Y-386510D01*
X219020Y-385470D01*
X217930Y-385050D01*
X216540D01*
G01X217930D02*
X218860Y-384430D01*
X219640Y-383390D01*
X219950Y-382140D01*
X219640Y-380890D01*
X218860Y-379850D01*
X217470Y-379220D01*
X216080Y-379430D01*
X214680Y-380260D01*
G01X218710Y-365140D02*
Y-352640D01*
X212970Y-361600D01*
X220730D01*
G01X213900Y-328140D02*
X214840Y-326890D01*
X215920Y-326270D01*
X217160Y-326060D01*
X218710Y-326480D01*
X219800Y-327520D01*
X220110Y-328770D01*
X219950Y-330020D01*
X219330Y-331060D01*
X216230Y-333140D01*
X214840Y-334600D01*
X213900Y-336690D01*
X213590Y-338560D01*
X220110D01*
G01X213900Y-301560D02*
X214840Y-300310D01*
X215920Y-299690D01*
X217160Y-299480D01*
X218710Y-299900D01*
X219800Y-300940D01*
X220110Y-302190D01*
X219950Y-303440D01*
X219330Y-304480D01*
X216230Y-306560D01*
X214840Y-308020D01*
X213900Y-310110D01*
X213590Y-311980D01*
X220110D01*
G54D13*
X-195450Y-465210D03*
X183500Y-89720D03*
G54D14*
X-195450Y-412050D03*
X190050Y97020D03*
G54D15*
X-195450Y-385470D03*
G54D16*
X-200910Y-26200D03*
X-203000Y-28400D03*
X-204800Y-24900D03*
Y-30300D03*
X-206600Y-26700D03*
X-200910Y-15600D03*
X-203000Y-20500D03*
X-206600Y-21000D03*
X-200840Y-11100D03*
X-205700D03*
X-205650Y-8350D03*
X-205700Y-4990D03*
Y-1210D03*
X-207800Y1110D03*
X-202000Y45500D03*
X-195450Y-225990D03*
X-187200Y-96700D03*
X-195700Y-71110D03*
X-196180Y-26100D03*
X-181870Y-17580D03*
X-196180Y-13700D03*
X-199040Y-8350D03*
X-197200Y-4990D03*
X-195400Y-1210D03*
X-190510Y1110D03*
X-183300Y5700D03*
X-195900Y10200D03*
X-184330Y21630D03*
X-186200Y23600D03*
X-187000Y65700D03*
X-195850Y51000D03*
Y56520D03*
Y45480D03*
X-176650Y49020D03*
X-187000Y72400D03*
X-178810Y68400D03*
Y76400D03*
X-181510Y68400D03*
Y76400D03*
X-189100Y68800D03*
Y75700D03*
X-176200Y10200D03*
X-170990Y11110D03*
X-170970Y8520D03*
X-170520Y5510D03*
X-165800Y11200D03*
X-166620Y35530D03*
X-163360Y43070D03*
X-168400Y23600D03*
X-165800D03*
X-166380Y50980D03*
X-166330Y47050D03*
X-160520Y52950D03*
X-170240Y68400D03*
Y76400D03*
X-173120Y68400D03*
Y76400D03*
X-176110Y68400D03*
Y76400D03*
X-167520Y68400D03*
Y76400D03*
X-168120Y107680D03*
X-135610Y-25840D03*
X-144600Y-37650D03*
X-144550Y-31740D03*
X-133300Y11180D03*
X-150680Y39270D03*
X-141600Y40950D03*
X-126900Y-96700D03*
Y-103200D03*
Y-90800D03*
Y-84400D03*
X-108990Y-53200D03*
X-119600Y-39800D03*
X-127000Y-39970D03*
X-112010Y5900D03*
X-112110Y8790D03*
X-118500Y35530D03*
X-108000Y92500D03*
X-89700Y-70100D03*
X-106150Y-53150D03*
X-100620Y-53170D03*
X-103420Y-53180D03*
X-91130Y-46470D03*
X-97780Y-53120D03*
X-89990Y-67600D03*
X-94250Y-41250D03*
X-91420Y-43970D03*
X-94220Y-43980D03*
X-96990Y-41200D03*
X-97040Y-38460D03*
X-106230Y-25380D03*
X-103500Y-800D03*
X-94800Y-19800D03*
X-107120Y-4650D03*
X-91630Y-21930D03*
X-98860Y17800D03*
X-93190Y9280D03*
X-85960Y32740D03*
X-95750Y35530D03*
X-98000Y90600D03*
X-73230Y-95520D03*
X-62710Y-50790D03*
X-66840Y-61160D03*
X-75690Y-56090D03*
X-75990Y-53600D03*
X-71500Y-57460D03*
X-84940Y-43060D03*
X-76210Y-37320D03*
X-68960Y29740D03*
X-79040Y23440D03*
X-66840Y49820D03*
X-78320Y86060D03*
X-66200Y84400D03*
X-66000Y90800D03*
X-42530Y-76210D03*
X-44450Y-77830D03*
X-40300Y-74000D03*
X-55600Y-63140D03*
X-57490Y-64790D03*
X-58140Y-55340D03*
X-46000Y-68300D03*
X-44160Y-66440D03*
X-39390Y-52800D03*
X-43760Y-59560D03*
X-58440Y-67550D03*
X-46350Y-59760D03*
X-61200Y-67690D03*
X-43560Y-56980D03*
X-41600Y-41720D03*
X-39610Y-38480D03*
X-57560Y-5850D03*
X-40820Y28900D03*
X-41910Y44510D03*
X-45140Y24580D03*
X-59960Y39240D03*
X-50640Y38660D03*
X-45640Y33750D03*
X-45880Y48890D03*
X-43600Y92200D03*
X-41210Y100540D03*
X-40800Y106850D03*
X-49770Y116900D03*
X-38460Y-72140D03*
X-28990Y-71500D03*
X-33410Y-72700D03*
X-30790Y-69750D03*
X-17200Y-61200D03*
X-25090Y-67100D03*
X-19900Y-33320D03*
X-25750Y-24620D03*
X-29710Y17710D03*
X-21290Y23370D03*
X-32200Y84400D03*
X-26500D03*
X-37700D03*
X-20700Y92400D03*
X-29680Y106930D03*
X-29800Y100850D03*
X-20700Y116900D03*
X-8700Y-64500D03*
X-15840Y-15100D03*
X-7580Y-6460D03*
X-14700Y2400D03*
X-3950Y51230D03*
X-14530Y61810D03*
X21200Y-55800D03*
X18490Y-55810D03*
X12060Y-55800D03*
Y-47500D03*
X8100Y-55800D03*
Y-51100D03*
X21200Y-43900D03*
X18490D03*
X21200Y60820D03*
X21970Y81100D03*
X17000Y92300D03*
X12140D03*
X45650Y26500D03*
X45250Y68880D03*
X40330Y76990D03*
X34230Y106180D03*
X34580Y97120D03*
X63270Y-69900D03*
X63070Y-74200D03*
X69450Y-61200D03*
X63350D03*
X63170Y-65500D03*
X74440Y43480D03*
X61790Y47700D03*
X57070Y97120D03*
X85600Y59700D03*
X90000Y66190D03*
X87000D03*
X84000D03*
X81000D03*
X90000Y63190D03*
X87000D03*
X84000D03*
X81000D03*
X85520Y87310D03*
X90000Y69190D03*
X87000D03*
X84000D03*
X81000D03*
X111160Y-78840D03*
X111030Y-61600D03*
X107460Y28990D03*
X115420Y43480D03*
X100730Y28990D03*
X110900Y61280D03*
X110830Y78490D03*
X134700Y-9250D03*
X134500Y18000D03*
X144400Y-78840D03*
X144250Y-61600D03*
X158500Y-19000D03*
X153000Y-21000D03*
X163250Y1750D03*
X158600Y10000D03*
X144800Y27700D03*
X146600Y25800D03*
X144250Y61280D03*
X144300Y78490D03*
X186000Y20000D03*
X167300Y31070D03*
X169100Y29200D03*
G54D17*
X-195450Y-438630D03*
X180210Y78520D03*
X203830D03*
G54D18*
X-195450Y-332310D03*
X-41340Y-100440D03*
X-58660D03*
G54D19*
X-195450Y-305730D03*
X-170870Y114840D03*
X-155130D03*
M02*
