G04 ================== begin FILE IDENTIFICATION RECORD ==================*
G04 Layout Name:  E:/A_Project/AA_Proj/allegro/AA_05122213.brd*
G04 Film Name:    SILKSCREEN_BOTTOM*
G04 File Format:  Gerber RS274X*
G04 File Origin:  Cadence Allegro 17.2-S057*
G04 Origin Date:  Thu May 14 15:01:31 2020*
G04 *
G04 Layer:  REF DES/SILKSCREEN_BOTTOM*
G04 Layer:  PACKAGE GEOMETRY/SILKSCREEN_BOTTOM*
G04 Layer:  MANUFACTURING/AUTOSILK_BOTTOM*
G04 Layer:  BOARD GEOMETRY/SILKSCREEN_BOTTOM*
G04 *
G04 Offset:    (0.0 0.0)*
G04 Mirror:    No*
G04 Mode:      Positive*
G04 Rotation:  0*
G04 FullContactRelief:  No*
G04 UndefLineWidth:     0.0*
G04 ================== end FILE IDENTIFICATION RECORD ====================*
%FSLAX25Y25*MOIN*%
%IR0*IPPOS*OFA0.00000B0.00000*MIA0B0*SFA1.00000B1.00000*%
%ADD10C,.008*%
%ADD11C,.0079*%
G75*
%LPD*%
G75*
G36*
G01X-73790Y64660D02*
G02I-596J0D01*
G37*
G54D10*
G01X-195910Y85500D02*
Y89500D01*
X-197490D01*
G01X-196910Y87570D02*
X-195910D01*
G01X-200000Y85500D02*
Y89500D01*
X-199500Y88700D01*
G01Y85500D02*
X-200500D01*
G01X-202510Y88830D02*
X-202760Y89230D01*
X-203050Y89430D01*
X-203380Y89500D01*
X-203800Y89370D01*
X-204090Y89030D01*
X-204180Y88630D01*
X-204130Y88230D01*
X-203970Y87900D01*
X-203130Y87230D01*
X-202760Y86770D01*
X-202510Y86100D01*
X-202420Y85500D01*
X-204180D01*
G01X-182770Y-66200D02*
Y-62200D01*
X-183810D01*
X-184140Y-62400D01*
X-184350Y-62670D01*
X-184430Y-63200D01*
X-184350Y-63730D01*
X-184100Y-64070D01*
X-183810Y-64270D01*
X-182770D01*
G01X-183810D02*
X-184430Y-66200D01*
G01X-186900D02*
Y-62200D01*
X-186400Y-63000D01*
G01Y-66200D02*
X-187400D01*
G01X-190700D02*
Y-62200D01*
X-189160Y-65070D01*
X-191240D01*
G01X-178680Y87630D02*
X-178850Y87830D01*
X-178970Y88170D01*
X-179060Y88630D01*
X-178970Y89030D01*
X-178810Y89300D01*
X-178520Y89500D01*
X-177390D01*
Y85500D01*
X-178770D01*
X-179060Y85770D01*
X-179230Y86170D01*
X-179310Y86630D01*
X-179230Y87100D01*
X-178970Y87500D01*
X-178680Y87630D01*
X-177390D01*
G01X-180860Y88830D02*
X-181110Y89230D01*
X-181400Y89430D01*
X-181730Y89500D01*
X-182150Y89370D01*
X-182440Y89030D01*
X-182530Y88630D01*
X-182480Y88230D01*
X-182320Y87900D01*
X-181480Y87230D01*
X-181110Y86770D01*
X-180860Y86100D01*
X-180770Y85500D01*
X-182530D01*
G01X-185910D02*
Y89500D01*
X-187490D01*
G01X-186910Y87570D02*
X-185910D01*
G01X-190000Y85500D02*
Y89500D01*
X-189500Y88700D01*
G01Y85500D02*
X-190500D01*
G01X-193300D02*
Y89500D01*
X-192800Y88700D01*
G01Y85500D02*
X-193800D01*
G01X-156270Y-29830D02*
X-156020Y-29630D01*
X-155730Y-29500D01*
X-155390D01*
X-155020Y-29700D01*
X-154730Y-30030D01*
X-154520Y-30430D01*
X-154350Y-31100D01*
X-154310Y-31700D01*
X-154390Y-32300D01*
X-154520Y-32700D01*
X-154770Y-33100D01*
X-155060Y-33370D01*
X-155350Y-33500D01*
X-155640D01*
X-155930Y-33370D01*
X-156180Y-33170D01*
X-156390Y-32900D01*
G01X-157730Y-32700D02*
X-157980Y-33170D01*
X-158320Y-33430D01*
X-158690Y-33500D01*
X-159030Y-33430D01*
X-159360Y-33100D01*
X-159570Y-32700D01*
X-159610Y-32300D01*
X-159530Y-31830D01*
X-159230Y-31500D01*
X-158940Y-31370D01*
X-158570D01*
G01X-158940D02*
X-159190Y-31170D01*
X-159400Y-30830D01*
X-159480Y-30430D01*
X-159400Y-30030D01*
X-159190Y-29700D01*
X-158820Y-29500D01*
X-158440Y-29570D01*
X-158070Y-29830D01*
G01X-161240Y-33030D02*
X-161530Y-33370D01*
X-161870Y-33500D01*
X-162200Y-33370D01*
X-162490Y-32970D01*
X-162700Y-32370D01*
X-162780Y-31770D01*
Y-31030D01*
X-162700Y-30430D01*
X-162490Y-29900D01*
X-162240Y-29630D01*
X-161950Y-29500D01*
X-161620Y-29630D01*
X-161370Y-29900D01*
X-161200Y-30300D01*
X-161120Y-30830D01*
X-161200Y-31300D01*
X-161410Y-31770D01*
X-161660Y-32030D01*
X-161950Y-32100D01*
X-162280Y-31970D01*
X-162530Y-31630D01*
X-162780Y-31030D01*
G01X-156270Y-35830D02*
X-156020Y-35630D01*
X-155730Y-35500D01*
X-155390D01*
X-155020Y-35700D01*
X-154730Y-36030D01*
X-154520Y-36430D01*
X-154350Y-37100D01*
X-154310Y-37700D01*
X-154390Y-38300D01*
X-154520Y-38700D01*
X-154770Y-39100D01*
X-155060Y-39370D01*
X-155350Y-39500D01*
X-155640D01*
X-155930Y-39370D01*
X-156180Y-39170D01*
X-156390Y-38900D01*
G01X-157730Y-38700D02*
X-157980Y-39170D01*
X-158320Y-39430D01*
X-158690Y-39500D01*
X-159030Y-39430D01*
X-159360Y-39100D01*
X-159570Y-38700D01*
X-159610Y-38300D01*
X-159530Y-37830D01*
X-159230Y-37500D01*
X-158940Y-37370D01*
X-158570D01*
G01X-158940D02*
X-159190Y-37170D01*
X-159400Y-36830D01*
X-159480Y-36430D01*
X-159400Y-36030D01*
X-159190Y-35700D01*
X-158820Y-35500D01*
X-158440Y-35570D01*
X-158070Y-35830D01*
G01X-161950Y-39500D02*
X-162240Y-39430D01*
X-162570Y-39230D01*
X-162780Y-38900D01*
X-162870Y-38430D01*
X-162780Y-37970D01*
X-162530Y-37570D01*
X-162160Y-37370D01*
X-161740D01*
X-161490Y-37230D01*
X-161280Y-36900D01*
X-161200Y-36430D01*
X-161330Y-35970D01*
X-161620Y-35630D01*
X-161950Y-35500D01*
X-162280Y-35630D01*
X-162570Y-35970D01*
X-162700Y-36430D01*
X-162620Y-36900D01*
X-162410Y-37230D01*
X-162160Y-37370D01*
X-161740D01*
X-161370Y-37570D01*
X-161120Y-37970D01*
X-161030Y-38430D01*
X-161120Y-38900D01*
X-161330Y-39230D01*
X-161660Y-39430D01*
X-161950Y-39500D01*
G01X-153420Y47470D02*
X-153170Y47670D01*
X-152880Y47800D01*
X-152540D01*
X-152170Y47600D01*
X-151880Y47270D01*
X-151670Y46870D01*
X-151500Y46200D01*
X-151460Y45600D01*
X-151540Y45000D01*
X-151670Y44600D01*
X-151920Y44200D01*
X-152210Y43930D01*
X-152500Y43800D01*
X-152790D01*
X-153080Y43930D01*
X-153330Y44130D01*
X-153540Y44400D01*
G01X-154880Y44600D02*
X-155130Y44130D01*
X-155470Y43870D01*
X-155840Y43800D01*
X-156180Y43870D01*
X-156510Y44200D01*
X-156720Y44600D01*
X-156760Y45000D01*
X-156680Y45470D01*
X-156380Y45800D01*
X-156090Y45930D01*
X-155720D01*
G01X-156090D02*
X-156340Y46130D01*
X-156550Y46470D01*
X-156630Y46870D01*
X-156550Y47270D01*
X-156340Y47600D01*
X-155970Y47800D01*
X-155590Y47730D01*
X-155220Y47470D01*
G01X-159600Y43800D02*
Y47800D01*
X-158060Y44930D01*
X-160140D01*
G01X-158680Y87630D02*
X-158850Y87830D01*
X-158970Y88170D01*
X-159060Y88630D01*
X-158970Y89030D01*
X-158810Y89300D01*
X-158520Y89500D01*
X-157390D01*
Y85500D01*
X-158770D01*
X-159060Y85770D01*
X-159230Y86170D01*
X-159310Y86630D01*
X-159230Y87100D01*
X-158970Y87500D01*
X-158680Y87630D01*
X-157390D01*
G01X-161650Y89500D02*
X-161320Y89370D01*
X-161070Y89030D01*
X-160900Y88630D01*
X-160770Y88100D01*
X-160730Y87500D01*
X-160770Y86900D01*
X-160900Y86370D01*
X-161070Y85970D01*
X-161320Y85630D01*
X-161650Y85500D01*
X-161980Y85630D01*
X-162230Y85970D01*
X-162400Y86370D01*
X-162530Y86900D01*
X-162570Y87500D01*
X-162530Y88100D01*
X-162400Y88630D01*
X-162230Y89030D01*
X-161980Y89370D01*
X-161650Y89500D01*
G01X-168680Y87630D02*
X-168850Y87830D01*
X-168970Y88170D01*
X-169060Y88630D01*
X-168970Y89030D01*
X-168810Y89300D01*
X-168520Y89500D01*
X-167390D01*
Y85500D01*
X-168770D01*
X-169060Y85770D01*
X-169230Y86170D01*
X-169310Y86630D01*
X-169230Y87100D01*
X-168970Y87500D01*
X-168680Y87630D01*
X-167390D01*
G01X-171650Y85500D02*
Y89500D01*
X-171150Y88700D01*
G01Y85500D02*
X-172150D01*
G01X-148770Y89170D02*
X-148520Y89370D01*
X-148230Y89500D01*
X-147890D01*
X-147520Y89300D01*
X-147230Y88970D01*
X-147020Y88570D01*
X-146850Y87900D01*
X-146810Y87300D01*
X-146890Y86700D01*
X-147020Y86300D01*
X-147270Y85900D01*
X-147560Y85630D01*
X-147850Y85500D01*
X-148140D01*
X-148430Y85630D01*
X-148680Y85830D01*
X-148890Y86100D01*
G01X-150230D02*
X-150480Y85770D01*
X-150770Y85570D01*
X-151150Y85500D01*
X-151530Y85630D01*
X-151820Y85900D01*
X-152030Y86370D01*
X-152070Y86900D01*
X-151980Y87430D01*
X-151770Y87770D01*
X-151480Y88030D01*
X-151190Y88100D01*
X-150900Y88030D01*
X-150530Y87770D01*
X-150650Y89500D01*
X-151770D01*
G01X-108060Y-20590D02*
X-110890Y-17770D01*
X-111630Y-18500D01*
X-111720Y-18880D01*
X-111680Y-19220D01*
X-111360Y-19650D01*
X-110930Y-19970D01*
X-110520Y-20030D01*
X-110170Y-19960D01*
X-109430Y-19230D01*
G01X-110170Y-19960D02*
X-109240Y-21770D01*
G01X-112780Y-20600D02*
X-113240Y-20490D01*
X-113590Y-20560D01*
X-113870Y-20740D01*
X-114070Y-21130D01*
X-114040Y-21580D01*
X-113820Y-21920D01*
X-113510Y-22170D01*
X-113150Y-22290D01*
X-112090Y-22170D01*
X-111500Y-22240D01*
X-110850Y-22530D01*
X-110370Y-22900D01*
X-111600Y-24130D01*
G01X-113310Y-25840D02*
X-116140Y-23020D01*
X-115220Y-23230D01*
G01X-112960Y-25490D02*
X-113670Y-26200D01*
G01X-106040Y-12310D02*
X-105720Y-12340D01*
X-105420Y-12450D01*
X-105180Y-12690D01*
X-105060Y-13090D01*
X-105090Y-13540D01*
X-105230Y-13970D01*
X-105580Y-14560D01*
X-105970Y-15010D01*
X-106460Y-15380D01*
X-106830Y-15570D01*
X-107290Y-15680D01*
X-107680Y-15660D01*
X-107980Y-15550D01*
X-108190Y-15340D01*
X-108300Y-15040D01*
X-108340Y-14720D01*
X-108300Y-14390D01*
G01X-107400Y-11420D02*
X-107290Y-10960D01*
X-107360Y-10610D01*
X-107540Y-10330D01*
X-107930Y-10130D01*
X-108380Y-10160D01*
X-108720Y-10380D01*
X-108970Y-10690D01*
X-109090Y-11050D01*
X-108970Y-12110D01*
X-109040Y-12700D01*
X-109330Y-13350D01*
X-109700Y-13830D01*
X-110930Y-12600D01*
G01X-112580Y-10950D02*
X-112030Y-10270D01*
X-111600Y-9670D01*
X-111250Y-9080D01*
X-110880Y-8410D01*
X-110400Y-7470D01*
X-109230Y-8650D01*
G01X-109870Y26940D02*
Y30940D01*
X-110910D01*
X-111240Y30740D01*
X-111450Y30470D01*
X-111530Y29940D01*
X-111450Y29410D01*
X-111200Y29070D01*
X-110910Y28870D01*
X-109870D01*
G01X-110910D02*
X-111530Y26940D01*
G01X-114000D02*
Y30940D01*
X-113500Y30140D01*
G01Y26940D02*
X-114500D01*
G01X-116510Y30270D02*
X-116760Y30670D01*
X-117050Y30870D01*
X-117380Y30940D01*
X-117800Y30810D01*
X-118090Y30470D01*
X-118180Y30070D01*
X-118130Y29670D01*
X-117970Y29340D01*
X-117130Y28670D01*
X-116760Y28210D01*
X-116510Y27540D01*
X-116420Y26940D01*
X-118180D01*
G01X-102480Y72000D02*
Y69130D01*
X-102650Y68530D01*
X-102980Y68130D01*
X-103400Y68000D01*
X-103820Y68130D01*
X-104150Y68530D01*
X-104320Y69130D01*
Y72000D01*
G01X-106700Y68000D02*
Y72000D01*
X-106200Y71200D01*
G01Y68000D02*
X-107200D01*
G01X-109920D02*
X-110000Y68870D01*
X-110130Y69600D01*
X-110290Y70270D01*
X-110500Y71000D01*
X-110830Y72000D01*
X-109170D01*
G01X-83590Y-19940D02*
X-83560Y-19620D01*
X-83450Y-19320D01*
X-83210Y-19080D01*
X-82810Y-18960D01*
X-82360Y-18990D01*
X-81930Y-19130D01*
X-81340Y-19480D01*
X-80890Y-19870D01*
X-80520Y-20360D01*
X-80330Y-20730D01*
X-80220Y-21190D01*
X-80240Y-21580D01*
X-80350Y-21880D01*
X-80560Y-22090D01*
X-80860Y-22200D01*
X-81180Y-22240D01*
X-81510Y-22200D01*
G01X-84480Y-21300D02*
X-84940Y-21190D01*
X-85290Y-21260D01*
X-85570Y-21440D01*
X-85770Y-21830D01*
X-85740Y-22280D01*
X-85520Y-22620D01*
X-85210Y-22870D01*
X-84850Y-22990D01*
X-83790Y-22870D01*
X-83200Y-22940D01*
X-82550Y-23230D01*
X-82070Y-23600D01*
X-83300Y-24830D01*
G01X-85010Y-26540D02*
X-85270Y-26700D01*
X-85640Y-26800D01*
X-86030Y-26710D01*
X-86420Y-26440D01*
X-86690Y-26050D01*
X-86790Y-25590D01*
X-86670Y-25180D01*
X-86380Y-24890D01*
X-86290Y-24620D01*
X-86380Y-24230D01*
X-86650Y-23850D01*
X-87070Y-23600D01*
X-87510Y-23570D01*
X-87840Y-23720D01*
X-87980Y-24050D01*
X-87950Y-24490D01*
X-87710Y-24910D01*
X-87320Y-25180D01*
X-86940Y-25270D01*
X-86670Y-25180D01*
X-86380Y-24890D01*
X-85970Y-24760D01*
X-85510Y-24870D01*
X-85120Y-25140D01*
X-84850Y-25530D01*
X-84760Y-25910D01*
X-84850Y-26290D01*
X-85010Y-26540D01*
G01X-93340Y490D02*
X-93020Y460D01*
X-92720Y350D01*
X-92480Y110D01*
X-92360Y-290D01*
X-92390Y-740D01*
X-92530Y-1170D01*
X-92880Y-1760D01*
X-93270Y-2210D01*
X-93760Y-2580D01*
X-94130Y-2770D01*
X-94590Y-2880D01*
X-94980Y-2860D01*
X-95280Y-2750D01*
X-95490Y-2540D01*
X-95600Y-2240D01*
X-95640Y-1920D01*
X-95600Y-1590D01*
G01X-97610Y-420D02*
X-94790Y2410D01*
X-95000Y1490D01*
G01X-97260Y-770D02*
X-97970Y-60D01*
G01X-99110Y1740D02*
X-99550Y1710D01*
X-99880Y1850D01*
X-100030Y2180D01*
X-99950Y2670D01*
X-99670Y3250D01*
X-99310Y3730D01*
X-98790Y4250D01*
X-98310Y4610D01*
X-97780Y4840D01*
X-97420Y4850D01*
X-97120Y4740D01*
X-96970Y4410D01*
X-96990Y4050D01*
X-97150Y3650D01*
X-97470Y3210D01*
X-97860Y2940D01*
X-98340Y2760D01*
X-98700Y2740D01*
X-98950Y2900D01*
X-99100Y3230D01*
X-99040Y3650D01*
X-98790Y4250D01*
G01X-77740Y15890D02*
X-77420Y15860D01*
X-77120Y15750D01*
X-76880Y15510D01*
X-76760Y15110D01*
X-76790Y14660D01*
X-76930Y14230D01*
X-77280Y13640D01*
X-77670Y13190D01*
X-78160Y12820D01*
X-78530Y12630D01*
X-78990Y12520D01*
X-79380Y12540D01*
X-79680Y12650D01*
X-79890Y12860D01*
X-80000Y13160D01*
X-80040Y13480D01*
X-80000Y13810D01*
G01X-79100Y16780D02*
X-78990Y17240D01*
X-79060Y17590D01*
X-79240Y17870D01*
X-79630Y18070D01*
X-80080Y18040D01*
X-80420Y17820D01*
X-80670Y17510D01*
X-80790Y17150D01*
X-80670Y16090D01*
X-80740Y15500D01*
X-81030Y14850D01*
X-81400Y14370D01*
X-82630Y15600D01*
G01X-83270Y17090D02*
X-83680Y17030D01*
X-84030Y17100D01*
X-84340Y17310D01*
X-84510Y17670D01*
X-84530Y18070D01*
X-84350Y18550D01*
X-84000Y18950D01*
X-83570Y19270D01*
X-83180Y19360D01*
X-82790Y19340D01*
X-82530Y19180D01*
X-82380Y18930D01*
X-82300Y18470D01*
X-81160Y19790D01*
X-81960Y20580D01*
G01X-82760Y9830D02*
X-82440Y9800D01*
X-82140Y9690D01*
X-81900Y9450D01*
X-81780Y9050D01*
X-81810Y8600D01*
X-81950Y8170D01*
X-82300Y7580D01*
X-82690Y7130D01*
X-83180Y6760D01*
X-83550Y6570D01*
X-84010Y6460D01*
X-84400Y6480D01*
X-84700Y6590D01*
X-84910Y6800D01*
X-85020Y7100D01*
X-85060Y7420D01*
X-85020Y7750D01*
G01X-84120Y10720D02*
X-84010Y11180D01*
X-84080Y11530D01*
X-84260Y11810D01*
X-84650Y12010D01*
X-85100Y11980D01*
X-85440Y11760D01*
X-85690Y11450D01*
X-85810Y11090D01*
X-85690Y10030D01*
X-85760Y9440D01*
X-86050Y8790D01*
X-86420Y8310D01*
X-87650Y9540D01*
G01X-87630Y11870D02*
X-87500Y12410D01*
X-87490Y12770D01*
X-87630Y13100D01*
X-87930Y13220D01*
X-88270Y13170D01*
X-88670Y13010D01*
X-89030Y12710D01*
X-89280Y12400D01*
X-89450Y12000D01*
X-89510Y11580D01*
X-89390Y11280D01*
X-89060Y11140D01*
X-88570Y11220D01*
X-88030Y11520D01*
X-87530Y11970D01*
X-86980Y12640D01*
X-86740Y13060D01*
X-86550Y13530D01*
X-86520Y13980D01*
X-86680Y14230D01*
X-86980Y14340D01*
X-87370Y14250D01*
G01X-94000Y26940D02*
Y30940D01*
X-95040D01*
X-95370Y30740D01*
X-95580Y30470D01*
X-95660Y29940D01*
X-95580Y29410D01*
X-95330Y29070D01*
X-95040Y28870D01*
X-94000D01*
G01X-95040D02*
X-95660Y26940D01*
G01X-98130D02*
Y30940D01*
X-97630Y30140D01*
G01Y26940D02*
X-98630D01*
G01X-100510Y27740D02*
X-100760Y27270D01*
X-101100Y27010D01*
X-101470Y26940D01*
X-101810Y27010D01*
X-102140Y27340D01*
X-102350Y27740D01*
X-102390Y28140D01*
X-102310Y28610D01*
X-102010Y28940D01*
X-101720Y29070D01*
X-101350D01*
G01X-101720D02*
X-101970Y29270D01*
X-102180Y29610D01*
X-102260Y30010D01*
X-102180Y30410D01*
X-101970Y30740D01*
X-101600Y30940D01*
X-101220Y30870D01*
X-100850Y30610D01*
G01X-84430Y67500D02*
Y71500D01*
X-85270D01*
X-85600Y71300D01*
X-85850Y71030D01*
X-86060Y70630D01*
X-86230Y70170D01*
X-86270Y69500D01*
X-86230Y68830D01*
X-86060Y68370D01*
X-85850Y67970D01*
X-85600Y67700D01*
X-85270Y67500D01*
X-84430D01*
G01X-88650D02*
Y71500D01*
X-88150Y70700D01*
G01Y67500D02*
X-89150D01*
G01X-91030Y68300D02*
X-91280Y67830D01*
X-91620Y67570D01*
X-91990Y67500D01*
X-92330Y67570D01*
X-92660Y67900D01*
X-92870Y68300D01*
X-92910Y68700D01*
X-92830Y69170D01*
X-92530Y69500D01*
X-92240Y69630D01*
X-91870D01*
G01X-92240D02*
X-92490Y69830D01*
X-92700Y70170D01*
X-92780Y70570D01*
X-92700Y70970D01*
X-92490Y71300D01*
X-92120Y71500D01*
X-91740Y71430D01*
X-91370Y71170D01*
G01X-84520Y73500D02*
Y77500D01*
X-85560D01*
X-85890Y77300D01*
X-86100Y77030D01*
X-86180Y76500D01*
X-86100Y75970D01*
X-85850Y75630D01*
X-85560Y75430D01*
X-84520D01*
G01X-85560D02*
X-86180Y73500D01*
G01X-88650D02*
Y77500D01*
X-88150Y76700D01*
G01Y73500D02*
X-89150D01*
G01X-91240Y73970D02*
X-91530Y73630D01*
X-91870Y73500D01*
X-92200Y73630D01*
X-92490Y74030D01*
X-92700Y74630D01*
X-92780Y75230D01*
Y75970D01*
X-92700Y76570D01*
X-92490Y77100D01*
X-92240Y77370D01*
X-91950Y77500D01*
X-91620Y77370D01*
X-91370Y77100D01*
X-91200Y76700D01*
X-91120Y76170D01*
X-91200Y75700D01*
X-91410Y75230D01*
X-91660Y74970D01*
X-91950Y74900D01*
X-92280Y75030D01*
X-92530Y75370D01*
X-92780Y75970D01*
G01X-63590Y-39940D02*
X-63560Y-39620D01*
X-63450Y-39320D01*
X-63210Y-39080D01*
X-62810Y-38960D01*
X-62360Y-38990D01*
X-61930Y-39130D01*
X-61340Y-39480D01*
X-60890Y-39870D01*
X-60520Y-40360D01*
X-60330Y-40730D01*
X-60220Y-41190D01*
X-60240Y-41580D01*
X-60350Y-41880D01*
X-60560Y-42090D01*
X-60860Y-42200D01*
X-61180Y-42240D01*
X-61510Y-42200D01*
G01X-62680Y-44210D02*
X-65510Y-41390D01*
X-64590Y-41600D01*
G01X-62330Y-43860D02*
X-63040Y-44570D01*
G01X-65010Y-46540D02*
X-65270Y-46700D01*
X-65640Y-46800D01*
X-66030Y-46710D01*
X-66420Y-46440D01*
X-66690Y-46050D01*
X-66790Y-45590D01*
X-66670Y-45180D01*
X-66380Y-44890D01*
X-66290Y-44620D01*
X-66380Y-44230D01*
X-66650Y-43850D01*
X-67070Y-43600D01*
X-67510Y-43570D01*
X-67840Y-43720D01*
X-67980Y-44050D01*
X-67950Y-44490D01*
X-67710Y-44910D01*
X-67320Y-45180D01*
X-66940Y-45270D01*
X-66670Y-45180D01*
X-66380Y-44890D01*
X-65970Y-44760D01*
X-65510Y-44870D01*
X-65120Y-45140D01*
X-64850Y-45530D01*
X-64760Y-45910D01*
X-64850Y-46290D01*
X-65010Y-46540D01*
G01X-76990Y-26740D02*
X-76960Y-26420D01*
X-76850Y-26120D01*
X-76610Y-25880D01*
X-76210Y-25760D01*
X-75760Y-25790D01*
X-75330Y-25930D01*
X-74740Y-26280D01*
X-74290Y-26670D01*
X-73920Y-27160D01*
X-73730Y-27530D01*
X-73620Y-27990D01*
X-73640Y-28380D01*
X-73750Y-28680D01*
X-73960Y-28890D01*
X-74260Y-29000D01*
X-74580Y-29040D01*
X-74910Y-29000D01*
G01X-77880Y-28100D02*
X-78340Y-27990D01*
X-78690Y-28060D01*
X-78970Y-28240D01*
X-79170Y-28630D01*
X-79140Y-29080D01*
X-78920Y-29420D01*
X-78610Y-29670D01*
X-78250Y-29790D01*
X-77190Y-29670D01*
X-76600Y-29740D01*
X-75950Y-30030D01*
X-75470Y-30400D01*
X-76700Y-31630D01*
G01X-78240Y-32510D02*
X-78210Y-32950D01*
X-78350Y-33280D01*
X-78680Y-33430D01*
X-79170Y-33350D01*
X-79750Y-33070D01*
X-80230Y-32710D01*
X-80750Y-32190D01*
X-81110Y-31710D01*
X-81340Y-31180D01*
X-81350Y-30820D01*
X-81240Y-30520D01*
X-80910Y-30370D01*
X-80550Y-30390D01*
X-80150Y-30550D01*
X-79710Y-30870D01*
X-79440Y-31260D01*
X-79260Y-31740D01*
X-79240Y-32100D01*
X-79400Y-32350D01*
X-79730Y-32500D01*
X-80150Y-32440D01*
X-80750Y-32190D01*
G01X-60590Y49760D02*
X-60560Y50080D01*
X-60450Y50380D01*
X-60210Y50620D01*
X-59810Y50740D01*
X-59360Y50710D01*
X-58930Y50570D01*
X-58340Y50220D01*
X-57890Y49830D01*
X-57520Y49340D01*
X-57330Y48970D01*
X-57220Y48510D01*
X-57240Y48120D01*
X-57350Y47820D01*
X-57560Y47610D01*
X-57860Y47500D01*
X-58180Y47460D01*
X-58510Y47500D01*
G01X-61480Y48400D02*
X-61940Y48510D01*
X-62290Y48440D01*
X-62570Y48260D01*
X-62770Y47870D01*
X-62740Y47420D01*
X-62520Y47080D01*
X-62210Y46830D01*
X-61850Y46710D01*
X-60790Y46830D01*
X-60200Y46760D01*
X-59550Y46470D01*
X-59070Y46100D01*
X-60300Y44870D01*
G01X-62370Y42800D02*
X-65200Y45630D01*
X-62080Y44690D01*
X-63550Y43220D01*
G01X-60490Y31360D02*
X-60460Y31680D01*
X-60350Y31980D01*
X-60110Y32220D01*
X-59710Y32340D01*
X-59260Y32310D01*
X-58830Y32170D01*
X-58240Y31820D01*
X-57790Y31430D01*
X-57420Y30940D01*
X-57230Y30570D01*
X-57120Y30110D01*
X-57140Y29720D01*
X-57250Y29420D01*
X-57460Y29210D01*
X-57760Y29100D01*
X-58080Y29060D01*
X-58410Y29100D01*
G01X-59580Y27090D02*
X-62410Y29910D01*
X-61490Y29700D01*
G01X-59230Y27440D02*
X-59940Y26730D01*
G01X-62530Y26490D02*
X-63070Y26620D01*
X-63430Y26630D01*
X-63760Y26490D01*
X-63880Y26190D01*
X-63830Y25850D01*
X-63670Y25450D01*
X-63370Y25090D01*
X-63060Y24840D01*
X-62660Y24670D01*
X-62240Y24610D01*
X-61940Y24730D01*
X-61800Y25060D01*
X-61880Y25550D01*
X-62180Y26090D01*
X-62630Y26590D01*
X-63300Y27140D01*
X-63720Y27380D01*
X-64190Y27570D01*
X-64640Y27600D01*
X-64890Y27440D01*
X-65000Y27140D01*
X-64910Y26750D01*
G01X-69990Y40070D02*
X-69960Y40390D01*
X-69850Y40690D01*
X-69610Y40930D01*
X-69210Y41050D01*
X-68760Y41020D01*
X-68330Y40880D01*
X-67740Y40530D01*
X-67290Y40140D01*
X-66920Y39650D01*
X-66730Y39280D01*
X-66620Y38820D01*
X-66640Y38430D01*
X-66750Y38130D01*
X-66960Y37920D01*
X-67260Y37810D01*
X-67580Y37770D01*
X-67910Y37810D01*
G01X-69080Y35800D02*
X-71910Y38620D01*
X-70990Y38410D01*
G01X-68730Y36150D02*
X-69440Y35440D01*
G01X-71350Y33530D02*
X-72030Y34080D01*
X-72630Y34510D01*
X-73220Y34860D01*
X-73890Y35230D01*
X-74830Y35710D01*
X-73650Y36880D01*
G01X-60020Y53500D02*
Y57500D01*
X-61060D01*
X-61390Y57300D01*
X-61600Y57030D01*
X-61680Y56500D01*
X-61600Y55970D01*
X-61350Y55630D01*
X-61060Y55430D01*
X-60020D01*
G01X-61060D02*
X-61680Y53500D01*
G01X-63360Y56830D02*
X-63610Y57230D01*
X-63900Y57430D01*
X-64230Y57500D01*
X-64650Y57370D01*
X-64940Y57030D01*
X-65030Y56630D01*
X-64980Y56230D01*
X-64820Y55900D01*
X-63980Y55230D01*
X-63610Y54770D01*
X-63360Y54100D01*
X-63270Y53500D01*
X-65030D01*
G01X-67450Y57500D02*
X-67120Y57370D01*
X-66870Y57030D01*
X-66700Y56630D01*
X-66570Y56100D01*
X-66530Y55500D01*
X-66570Y54900D01*
X-66700Y54370D01*
X-66870Y53970D01*
X-67120Y53630D01*
X-67450Y53500D01*
X-67780Y53630D01*
X-68030Y53970D01*
X-68200Y54370D01*
X-68330Y54900D01*
X-68370Y55500D01*
X-68330Y56100D01*
X-68200Y56630D01*
X-68030Y57030D01*
X-67780Y57370D01*
X-67450Y57500D01*
G01X-73280Y50500D02*
Y47630D01*
X-73450Y47030D01*
X-73780Y46630D01*
X-74200Y46500D01*
X-74620Y46630D01*
X-74950Y47030D01*
X-75120Y47630D01*
Y50500D01*
G01X-77500Y46500D02*
Y50500D01*
X-77000Y49700D01*
G01Y46500D02*
X-78000D01*
G01X-80800D02*
X-81090Y46570D01*
X-81420Y46770D01*
X-81630Y47100D01*
X-81720Y47570D01*
X-81630Y48030D01*
X-81380Y48430D01*
X-81010Y48630D01*
X-80590D01*
X-80340Y48770D01*
X-80130Y49100D01*
X-80050Y49570D01*
X-80180Y50030D01*
X-80470Y50370D01*
X-80800Y50500D01*
X-81130Y50370D01*
X-81420Y50030D01*
X-81550Y49570D01*
X-81470Y49100D01*
X-81260Y48770D01*
X-81010Y48630D01*
X-80590D01*
X-80220Y48430D01*
X-79970Y48030D01*
X-79880Y47570D01*
X-79970Y47100D01*
X-80180Y46770D01*
X-80510Y46570D01*
X-80800Y46500D01*
G01X-58770Y76670D02*
X-58520Y76870D01*
X-58230Y77000D01*
X-57890D01*
X-57520Y76800D01*
X-57230Y76470D01*
X-57020Y76070D01*
X-56850Y75400D01*
X-56810Y74800D01*
X-56890Y74200D01*
X-57020Y73800D01*
X-57270Y73400D01*
X-57560Y73130D01*
X-57850Y73000D01*
X-58140D01*
X-58430Y73130D01*
X-58680Y73330D01*
X-58890Y73600D01*
G01X-61650Y73000D02*
Y77000D01*
X-60110Y74130D01*
X-62190D01*
G01X-63530Y73800D02*
X-63780Y73330D01*
X-64120Y73070D01*
X-64490Y73000D01*
X-64830Y73070D01*
X-65160Y73400D01*
X-65370Y73800D01*
X-65410Y74200D01*
X-65330Y74670D01*
X-65030Y75000D01*
X-64740Y75130D01*
X-64370D01*
G01X-64740D02*
X-64990Y75330D01*
X-65200Y75670D01*
X-65280Y76070D01*
X-65200Y76470D01*
X-64990Y76800D01*
X-64620Y77000D01*
X-64240Y76930D01*
X-63870Y76670D01*
G01X-49790Y-53640D02*
X-49760Y-53320D01*
X-49650Y-53020D01*
X-49410Y-52780D01*
X-49010Y-52660D01*
X-48560Y-52690D01*
X-48130Y-52830D01*
X-47540Y-53180D01*
X-47090Y-53570D01*
X-46720Y-54060D01*
X-46530Y-54430D01*
X-46420Y-54890D01*
X-46440Y-55280D01*
X-46550Y-55580D01*
X-46760Y-55790D01*
X-47060Y-55900D01*
X-47380Y-55940D01*
X-47710Y-55900D01*
G01X-48800Y-56700D02*
X-48650Y-57210D01*
X-48700Y-57630D01*
X-48910Y-57940D01*
X-49200Y-58130D01*
X-49670D01*
X-50100Y-58000D01*
X-50410Y-57740D01*
X-50680Y-57350D01*
X-50710Y-56910D01*
X-50600Y-56610D01*
X-50330Y-56350D01*
G01X-50600Y-56610D02*
X-50920Y-56650D01*
X-51300Y-56560D01*
X-51640Y-56330D01*
X-51870Y-55990D01*
X-51950Y-55610D01*
X-51830Y-55200D01*
X-51520Y-54990D01*
X-51060Y-54910D01*
G01X-54040Y-57420D02*
X-53710Y-57270D01*
X-53300Y-57330D01*
X-52900Y-57500D01*
X-52430Y-57790D01*
X-51980Y-58180D01*
X-51590Y-58640D01*
X-51300Y-59100D01*
X-51130Y-59500D01*
X-51070Y-59910D01*
X-51210Y-60240D01*
X-51540Y-60390D01*
X-51960Y-60330D01*
X-52360Y-60160D01*
X-52820Y-59870D01*
X-53280Y-59480D01*
X-53670Y-59020D01*
X-53960Y-58560D01*
X-54120Y-58160D01*
X-54180Y-57750D01*
X-54040Y-57420D01*
G01X-33600Y-33650D02*
X-33280Y-33680D01*
X-32980Y-33790D01*
X-32740Y-34030D01*
X-32620Y-34430D01*
X-32650Y-34880D01*
X-32790Y-35310D01*
X-33140Y-35900D01*
X-33530Y-36350D01*
X-34020Y-36720D01*
X-34390Y-36910D01*
X-34850Y-37020D01*
X-35240Y-37000D01*
X-35540Y-36890D01*
X-35750Y-36680D01*
X-35860Y-36380D01*
X-35900Y-36060D01*
X-35860Y-35730D01*
G01X-36660Y-34640D02*
X-37170Y-34790D01*
X-37590Y-34740D01*
X-37900Y-34530D01*
X-38090Y-34240D01*
Y-33770D01*
X-37960Y-33340D01*
X-37700Y-33030D01*
X-37310Y-32760D01*
X-36870Y-32730D01*
X-36570Y-32840D01*
X-36310Y-33110D01*
G01X-36570Y-32840D02*
X-36610Y-32520D01*
X-36520Y-32140D01*
X-36290Y-31800D01*
X-35950Y-31570D01*
X-35570Y-31490D01*
X-35160Y-31610D01*
X-34950Y-31920D01*
X-34870Y-32380D01*
G01X-40200Y-32230D02*
X-37380Y-29400D01*
X-37590Y-30320D01*
G01X-39850Y-32580D02*
X-40560Y-31870D01*
G01X-47040Y-5360D02*
X-46720Y-5390D01*
X-46420Y-5500D01*
X-46180Y-5740D01*
X-46060Y-6140D01*
X-46090Y-6590D01*
X-46230Y-7020D01*
X-46580Y-7610D01*
X-46970Y-8060D01*
X-47460Y-8430D01*
X-47830Y-8620D01*
X-48290Y-8730D01*
X-48680Y-8710D01*
X-48980Y-8600D01*
X-49190Y-8390D01*
X-49300Y-8090D01*
X-49340Y-7770D01*
X-49300Y-7440D01*
G01X-50100Y-6350D02*
X-50610Y-6500D01*
X-51030Y-6450D01*
X-51340Y-6240D01*
X-51530Y-5950D01*
Y-5480D01*
X-51400Y-5050D01*
X-51140Y-4740D01*
X-50750Y-4470D01*
X-50310Y-4440D01*
X-50010Y-4550D01*
X-49750Y-4820D01*
G01X-50010Y-4550D02*
X-50050Y-4230D01*
X-49960Y-3850D01*
X-49730Y-3510D01*
X-49390Y-3280D01*
X-49010Y-3200D01*
X-48600Y-3320D01*
X-48390Y-3630D01*
X-48310Y-4090D01*
G01X-50730Y-2140D02*
X-50620Y-1680D01*
X-50690Y-1330D01*
X-50870Y-1050D01*
X-51260Y-850D01*
X-51710Y-880D01*
X-52050Y-1100D01*
X-52300Y-1410D01*
X-52420Y-1770D01*
X-52300Y-2830D01*
X-52370Y-3420D01*
X-52660Y-4070D01*
X-53030Y-4550D01*
X-54260Y-3320D01*
G01X-55690Y26170D02*
X-55660Y26490D01*
X-55550Y26790D01*
X-55310Y27030D01*
X-54910Y27150D01*
X-54460Y27120D01*
X-54030Y26980D01*
X-53440Y26630D01*
X-52990Y26240D01*
X-52620Y25750D01*
X-52430Y25380D01*
X-52320Y24920D01*
X-52340Y24530D01*
X-52450Y24230D01*
X-52660Y24020D01*
X-52960Y23910D01*
X-53280Y23870D01*
X-53610Y23910D01*
G01X-56580Y24810D02*
X-57040Y24920D01*
X-57390Y24850D01*
X-57670Y24670D01*
X-57870Y24280D01*
X-57840Y23830D01*
X-57620Y23490D01*
X-57310Y23240D01*
X-56950Y23120D01*
X-55890Y23240D01*
X-55300Y23170D01*
X-54650Y22880D01*
X-54170Y22510D01*
X-55400Y21280D01*
G01X-59940Y22390D02*
X-59610Y22540D01*
X-59200Y22480D01*
X-58800Y22310D01*
X-58330Y22020D01*
X-57880Y21630D01*
X-57490Y21170D01*
X-57200Y20710D01*
X-57030Y20310D01*
X-56970Y19900D01*
X-57110Y19570D01*
X-57440Y19420D01*
X-57860Y19480D01*
X-58260Y19650D01*
X-58720Y19940D01*
X-59180Y20330D01*
X-59570Y20790D01*
X-59860Y21250D01*
X-60020Y21650D01*
X-60080Y22060D01*
X-59940Y22390D01*
G01X-34990Y23760D02*
X-34960Y24080D01*
X-34850Y24380D01*
X-34610Y24620D01*
X-34210Y24740D01*
X-33760Y24710D01*
X-33330Y24570D01*
X-32740Y24220D01*
X-32290Y23830D01*
X-31920Y23340D01*
X-31730Y22970D01*
X-31620Y22510D01*
X-31640Y22120D01*
X-31750Y21820D01*
X-31960Y21610D01*
X-32260Y21500D01*
X-32580Y21460D01*
X-32910Y21500D01*
G01X-35880Y22400D02*
X-36340Y22510D01*
X-36690Y22440D01*
X-36970Y22260D01*
X-37170Y21870D01*
X-37140Y21420D01*
X-36920Y21080D01*
X-36610Y20830D01*
X-36250Y20710D01*
X-35190Y20830D01*
X-34600Y20760D01*
X-33950Y20470D01*
X-33470Y20100D01*
X-34700Y18870D01*
G01X-36410Y17160D02*
X-39240Y19980D01*
X-38320Y19770D01*
G01X-36060Y17510D02*
X-36770Y16800D01*
G01X-50790Y21670D02*
X-50760Y21990D01*
X-50650Y22290D01*
X-50410Y22530D01*
X-50010Y22650D01*
X-49560Y22620D01*
X-49130Y22480D01*
X-48540Y22130D01*
X-48090Y21740D01*
X-47720Y21250D01*
X-47530Y20880D01*
X-47420Y20420D01*
X-47440Y20030D01*
X-47550Y19730D01*
X-47760Y19520D01*
X-48060Y19410D01*
X-48380Y19370D01*
X-48710Y19410D01*
G01X-49880Y17400D02*
X-52710Y20220D01*
X-51790Y20010D01*
G01X-49530Y17750D02*
X-50240Y17040D01*
G01X-52130Y16280D02*
X-51980Y15770D01*
X-52030Y15350D01*
X-52240Y15040D01*
X-52530Y14850D01*
X-53000D01*
X-53430Y14980D01*
X-53740Y15240D01*
X-54010Y15630D01*
X-54040Y16070D01*
X-53930Y16370D01*
X-53660Y16630D01*
G01X-53930Y16370D02*
X-54250Y16330D01*
X-54630Y16420D01*
X-54970Y16650D01*
X-55200Y16990D01*
X-55280Y17370D01*
X-55160Y17780D01*
X-54850Y17990D01*
X-54390Y18070D01*
G01X-42270Y82100D02*
Y86100D01*
X-43310D01*
X-43640Y85900D01*
X-43850Y85630D01*
X-43930Y85100D01*
X-43850Y84570D01*
X-43600Y84230D01*
X-43310Y84030D01*
X-42270D01*
G01X-43310D02*
X-43930Y82100D01*
G01X-45610Y85430D02*
X-45860Y85830D01*
X-46150Y86030D01*
X-46480Y86100D01*
X-46900Y85970D01*
X-47190Y85630D01*
X-47280Y85230D01*
X-47230Y84830D01*
X-47070Y84500D01*
X-46230Y83830D01*
X-45860Y83370D01*
X-45610Y82700D01*
X-45520Y82100D01*
X-47280D01*
G01X-50200D02*
Y86100D01*
X-48660Y83230D01*
X-50740D01*
G01X-19810Y-19860D02*
X-19490Y-19890D01*
X-19190Y-20000D01*
X-18950Y-20240D01*
X-18830Y-20640D01*
X-18860Y-21090D01*
X-19000Y-21520D01*
X-19350Y-22110D01*
X-19740Y-22560D01*
X-20230Y-22930D01*
X-20600Y-23120D01*
X-21060Y-23230D01*
X-21450Y-23210D01*
X-21750Y-23100D01*
X-21960Y-22890D01*
X-22070Y-22590D01*
X-22110Y-22270D01*
X-22070Y-21940D01*
G01X-21170Y-18970D02*
X-21060Y-18510D01*
X-21130Y-18160D01*
X-21310Y-17880D01*
X-21700Y-17680D01*
X-22150Y-17710D01*
X-22490Y-17930D01*
X-22740Y-18240D01*
X-22860Y-18600D01*
X-22740Y-19660D01*
X-22810Y-20250D01*
X-23100Y-20900D01*
X-23470Y-21380D01*
X-24700Y-20150D01*
G01X-25200Y-18520D02*
X-25710Y-18670D01*
X-26130Y-18620D01*
X-26440Y-18410D01*
X-26630Y-18120D01*
Y-17650D01*
X-26500Y-17220D01*
X-26240Y-16910D01*
X-25850Y-16640D01*
X-25410Y-16610D01*
X-25110Y-16720D01*
X-24850Y-16990D01*
G01X-25110Y-16720D02*
X-25150Y-16400D01*
X-25060Y-16020D01*
X-24830Y-15680D01*
X-24490Y-15450D01*
X-24110Y-15370D01*
X-23700Y-15490D01*
X-23490Y-15800D01*
X-23410Y-16260D01*
G01X-19790Y8960D02*
X-19760Y9280D01*
X-19650Y9580D01*
X-19410Y9820D01*
X-19010Y9940D01*
X-18560Y9910D01*
X-18130Y9770D01*
X-17540Y9420D01*
X-17090Y9030D01*
X-16720Y8540D01*
X-16530Y8170D01*
X-16420Y7710D01*
X-16440Y7320D01*
X-16550Y7020D01*
X-16760Y6810D01*
X-17060Y6700D01*
X-17380Y6660D01*
X-17710Y6700D01*
G01X-18800Y5900D02*
X-18650Y5390D01*
X-18700Y4970D01*
X-18910Y4660D01*
X-19200Y4470D01*
X-19670D01*
X-20100Y4600D01*
X-20410Y4860D01*
X-20680Y5250D01*
X-20710Y5690D01*
X-20600Y5990D01*
X-20330Y6250D01*
G01X-20600Y5990D02*
X-20920Y5950D01*
X-21300Y6040D01*
X-21640Y6270D01*
X-21870Y6610D01*
X-21950Y6990D01*
X-21830Y7400D01*
X-21520Y7610D01*
X-21060Y7690D01*
G01X-21150Y2420D02*
X-21830Y2970D01*
X-22430Y3400D01*
X-23020Y3750D01*
X-23690Y4120D01*
X-24630Y4600D01*
X-23450Y5770D01*
G01X-13770Y82200D02*
Y86200D01*
X-14810D01*
X-15140Y86000D01*
X-15350Y85730D01*
X-15430Y85200D01*
X-15350Y84670D01*
X-15100Y84330D01*
X-14810Y84130D01*
X-13770D01*
G01X-14810D02*
X-15430Y82200D01*
G01X-17110Y85530D02*
X-17360Y85930D01*
X-17650Y86130D01*
X-17980Y86200D01*
X-18400Y86070D01*
X-18690Y85730D01*
X-18780Y85330D01*
X-18730Y84930D01*
X-18570Y84600D01*
X-17730Y83930D01*
X-17360Y83470D01*
X-17110Y82800D01*
X-17020Y82200D01*
X-18780D01*
G01X-20410Y85530D02*
X-20660Y85930D01*
X-20950Y86130D01*
X-21280Y86200D01*
X-21700Y86070D01*
X-21990Y85730D01*
X-22080Y85330D01*
X-22030Y84930D01*
X-21870Y84600D01*
X-21030Y83930D01*
X-20660Y83470D01*
X-20410Y82800D01*
X-20320Y82200D01*
X-22080D01*
G01X-30170Y76200D02*
Y80200D01*
X-31210D01*
X-31540Y80000D01*
X-31750Y79730D01*
X-31830Y79200D01*
X-31750Y78670D01*
X-31500Y78330D01*
X-31210Y78130D01*
X-30170D01*
G01X-31210D02*
X-31830Y76200D01*
G01X-33510Y79530D02*
X-33760Y79930D01*
X-34050Y80130D01*
X-34380Y80200D01*
X-34800Y80070D01*
X-35090Y79730D01*
X-35180Y79330D01*
X-35130Y78930D01*
X-34970Y78600D01*
X-34130Y77930D01*
X-33760Y77470D01*
X-33510Y76800D01*
X-33420Y76200D01*
X-35180D01*
G01X-36680Y77000D02*
X-36930Y76530D01*
X-37270Y76270D01*
X-37640Y76200D01*
X-37980Y76270D01*
X-38310Y76600D01*
X-38520Y77000D01*
X-38560Y77400D01*
X-38480Y77870D01*
X-38180Y78200D01*
X-37890Y78330D01*
X-37520D01*
G01X-37890D02*
X-38140Y78530D01*
X-38350Y78870D01*
X-38430Y79270D01*
X-38350Y79670D01*
X-38140Y80000D01*
X-37770Y80200D01*
X-37390Y80130D01*
X-37020Y79870D01*
G01X-1790Y-1840D02*
X-1470Y-1870D01*
X-1170Y-1980D01*
X-930Y-2220D01*
X-810Y-2620D01*
X-840Y-3070D01*
X-980Y-3500D01*
X-1330Y-4090D01*
X-1720Y-4540D01*
X-2210Y-4910D01*
X-2580Y-5100D01*
X-3040Y-5210D01*
X-3430Y-5190D01*
X-3730Y-5080D01*
X-3940Y-4870D01*
X-4050Y-4570D01*
X-4090Y-4250D01*
X-4050Y-3920D01*
G01X-3150Y-950D02*
X-3040Y-490D01*
X-3110Y-140D01*
X-3290Y140D01*
X-3680Y340D01*
X-4130Y310D01*
X-4470Y90D01*
X-4720Y-220D01*
X-4840Y-580D01*
X-4720Y-1640D01*
X-4790Y-2230D01*
X-5080Y-2880D01*
X-5450Y-3360D01*
X-6680Y-2130D01*
G01X-5480Y1380D02*
X-5370Y1840D01*
X-5440Y2190D01*
X-5620Y2470D01*
X-6010Y2670D01*
X-6460Y2640D01*
X-6800Y2420D01*
X-7050Y2110D01*
X-7170Y1750D01*
X-7050Y690D01*
X-7120Y100D01*
X-7410Y-550D01*
X-7780Y-1030D01*
X-9010Y200D01*
G01X-11340Y-13720D02*
X-8520Y-10890D01*
X-9250Y-10150D01*
X-9630Y-10060D01*
X-9970Y-10100D01*
X-10400Y-10420D01*
X-10720Y-10850D01*
X-10780Y-11260D01*
X-10710Y-11610D01*
X-9980Y-12350D01*
G01X-10710Y-11610D02*
X-12520Y-12540D01*
G01X-14620Y-10440D02*
X-11790Y-7610D01*
X-12730Y-10730D01*
X-14200Y-9260D01*
G01X32130Y89170D02*
X32380Y89370D01*
X32670Y89500D01*
X33010D01*
X33380Y89300D01*
X33670Y88970D01*
X33880Y88570D01*
X34050Y87900D01*
X34090Y87300D01*
X34010Y86700D01*
X33880Y86300D01*
X33630Y85900D01*
X33340Y85630D01*
X33050Y85500D01*
X32760D01*
X32470Y85630D01*
X32220Y85830D01*
X32010Y86100D01*
G01X30460Y85970D02*
X30170Y85630D01*
X29830Y85500D01*
X29500Y85630D01*
X29210Y86030D01*
X29000Y86630D01*
X28920Y87230D01*
Y87970D01*
X29000Y88570D01*
X29210Y89100D01*
X29460Y89370D01*
X29750Y89500D01*
X30080Y89370D01*
X30330Y89100D01*
X30500Y88700D01*
X30580Y88170D01*
X30500Y87700D01*
X30290Y87230D01*
X30040Y86970D01*
X29750Y86900D01*
X29420Y87030D01*
X29170Y87370D01*
X28920Y87970D01*
G01X46130Y34270D02*
X46380Y34470D01*
X46670Y34600D01*
X47010D01*
X47380Y34400D01*
X47670Y34070D01*
X47880Y33670D01*
X48050Y33000D01*
X48090Y32400D01*
X48010Y31800D01*
X47880Y31400D01*
X47630Y31000D01*
X47340Y30730D01*
X47050Y30600D01*
X46760D01*
X46470Y30730D01*
X46220Y30930D01*
X46010Y31200D01*
G01X43750Y30600D02*
Y34600D01*
X44250Y33800D01*
G01Y30600D02*
X43250D01*
G01X32630Y103670D02*
X32880Y103870D01*
X33170Y104000D01*
X33510D01*
X33880Y103800D01*
X34170Y103470D01*
X34380Y103070D01*
X34550Y102400D01*
X34590Y101800D01*
X34510Y101200D01*
X34380Y100800D01*
X34130Y100400D01*
X33840Y100130D01*
X33550Y100000D01*
X33260D01*
X32970Y100130D01*
X32720Y100330D01*
X32510Y100600D01*
G01X30250Y100000D02*
X29960Y100070D01*
X29630Y100270D01*
X29420Y100600D01*
X29330Y101070D01*
X29420Y101530D01*
X29670Y101930D01*
X30040Y102130D01*
X30460D01*
X30710Y102270D01*
X30920Y102600D01*
X31000Y103070D01*
X30870Y103530D01*
X30580Y103870D01*
X30250Y104000D01*
X29920Y103870D01*
X29630Y103530D01*
X29500Y103070D01*
X29580Y102600D01*
X29790Y102270D01*
X30040Y102130D01*
X30460D01*
X30830Y101930D01*
X31080Y101530D01*
X31170Y101070D01*
X31080Y100600D01*
X30870Y100270D01*
X30540Y100070D01*
X30250Y100000D01*
G01X64990Y-33000D02*
Y-35870D01*
X64820Y-36470D01*
X64490Y-36870D01*
X64070Y-37000D01*
X63650Y-36870D01*
X63320Y-36470D01*
X63150Y-35870D01*
Y-33000D01*
G01X60770Y-37000D02*
Y-33000D01*
X61270Y-33800D01*
G01Y-37000D02*
X60270D01*
G01X58180Y-36530D02*
X57890Y-36870D01*
X57550Y-37000D01*
X57220Y-36870D01*
X56930Y-36470D01*
X56720Y-35870D01*
X56640Y-35270D01*
Y-34530D01*
X56720Y-33930D01*
X56930Y-33400D01*
X57180Y-33130D01*
X57470Y-33000D01*
X57800Y-33130D01*
X58050Y-33400D01*
X58220Y-33800D01*
X58300Y-34330D01*
X58220Y-34800D01*
X58010Y-35270D01*
X57760Y-35530D01*
X57470Y-35600D01*
X57140Y-35470D01*
X56890Y-35130D01*
X56640Y-34530D01*
G01X62680Y30500D02*
Y34500D01*
X61640D01*
X61310Y34300D01*
X61100Y34030D01*
X61020Y33500D01*
X61100Y32970D01*
X61350Y32630D01*
X61640Y32430D01*
X62680D01*
G01X61640D02*
X61020Y30500D01*
G01X59340Y33830D02*
X59090Y34230D01*
X58800Y34430D01*
X58470Y34500D01*
X58050Y34370D01*
X57760Y34030D01*
X57670Y33630D01*
X57720Y33230D01*
X57880Y32900D01*
X58720Y32230D01*
X59090Y31770D01*
X59340Y31100D01*
X59430Y30500D01*
X57670D01*
G01X73950D02*
Y34500D01*
X72910D01*
X72580Y34300D01*
X72370Y34030D01*
X72290Y33500D01*
X72370Y32970D01*
X72620Y32630D01*
X72910Y32430D01*
X73950D01*
G01X72910D02*
X72290Y30500D01*
G01X69820D02*
Y34500D01*
X70320Y33700D01*
G01Y30500D02*
X69320D01*
G01X66570Y85520D02*
Y89520D01*
X65730D01*
X65400Y89320D01*
X65150Y89050D01*
X64940Y88650D01*
X64770Y88190D01*
X64730Y87520D01*
X64770Y86850D01*
X64940Y86390D01*
X65150Y85990D01*
X65400Y85720D01*
X65730Y85520D01*
X66570D01*
G01X62350D02*
Y89520D01*
X62850Y88720D01*
G01Y85520D02*
X61850D01*
G01X59840Y88850D02*
X59590Y89250D01*
X59300Y89450D01*
X58970Y89520D01*
X58550Y89390D01*
X58260Y89050D01*
X58170Y88650D01*
X58220Y88250D01*
X58380Y87920D01*
X59220Y87250D01*
X59590Y86790D01*
X59840Y86120D01*
X59930Y85520D01*
X58170D01*
G01X168780Y9670D02*
X169030Y9870D01*
X169320Y10000D01*
X169660D01*
X170030Y9800D01*
X170320Y9470D01*
X170530Y9070D01*
X170700Y8400D01*
X170740Y7800D01*
X170660Y7200D01*
X170530Y6800D01*
X170280Y6400D01*
X169990Y6130D01*
X169700Y6000D01*
X169410D01*
X169120Y6130D01*
X168870Y6330D01*
X168660Y6600D01*
G01X166400Y6000D02*
Y10000D01*
X166900Y9200D01*
G01Y6000D02*
X165900D01*
G01X162600D02*
Y10000D01*
X164140Y7130D01*
X162060D01*
G01X187080Y34170D02*
X187330Y34370D01*
X187620Y34500D01*
X187960D01*
X188330Y34300D01*
X188620Y33970D01*
X188830Y33570D01*
X189000Y32900D01*
X189040Y32300D01*
X188960Y31700D01*
X188830Y31300D01*
X188580Y30900D01*
X188290Y30630D01*
X188000Y30500D01*
X187710D01*
X187420Y30630D01*
X187170Y30830D01*
X186960Y31100D01*
G01X184700Y30500D02*
Y34500D01*
X185200Y33700D01*
G01Y30500D02*
X184200D01*
G01X182320Y31100D02*
X182070Y30770D01*
X181780Y30570D01*
X181400Y30500D01*
X181020Y30630D01*
X180730Y30900D01*
X180520Y31370D01*
X180480Y31900D01*
X180570Y32430D01*
X180780Y32770D01*
X181070Y33030D01*
X181360Y33100D01*
X181650Y33030D01*
X182020Y32770D01*
X181900Y34500D01*
X180780D01*
G01X206530Y117800D02*
X206320Y117400D01*
X206080Y117130D01*
X205780Y117000D01*
X205450Y117130D01*
X205200Y117400D01*
X204950Y117800D01*
X204870Y118330D01*
Y121000D01*
G01X203230D02*
Y117000D01*
X201570D01*
G01X198180Y120670D02*
X198430Y120870D01*
X198720Y121000D01*
X199060D01*
X199430Y120800D01*
X199720Y120470D01*
X199930Y120070D01*
X200100Y119400D01*
X200140Y118800D01*
X200060Y118200D01*
X199930Y117800D01*
X199680Y117400D01*
X199390Y117130D01*
X199100Y117000D01*
X198810D01*
X198520Y117130D01*
X198270Y117330D01*
X198060Y117600D01*
G01X196630Y117800D02*
X196420Y117400D01*
X196180Y117130D01*
X195880Y117000D01*
X195550Y117130D01*
X195300Y117400D01*
X195050Y117800D01*
X194970Y118330D01*
Y121000D01*
G01X193330D02*
Y117000D01*
X191670D01*
G01X188280Y120670D02*
X188530Y120870D01*
X188820Y121000D01*
X189160D01*
X189530Y120800D01*
X189820Y120470D01*
X190030Y120070D01*
X190200Y119400D01*
X190240Y118800D01*
X190160Y118200D01*
X190030Y117800D01*
X189780Y117400D01*
X189490Y117130D01*
X189200Y117000D01*
X188910D01*
X188620Y117130D01*
X188370Y117330D01*
X188160Y117600D01*
G01X186730Y117800D02*
X186520Y117400D01*
X186280Y117130D01*
X185980Y117000D01*
X185650Y117130D01*
X185400Y117400D01*
X185150Y117800D01*
X185070Y118330D01*
Y121000D01*
G01X183430D02*
Y117000D01*
X181770D01*
G01X178380Y120670D02*
X178630Y120870D01*
X178920Y121000D01*
X179260D01*
X179630Y120800D01*
X179920Y120470D01*
X180130Y120070D01*
X180300Y119400D01*
X180340Y118800D01*
X180260Y118200D01*
X180130Y117800D01*
X179880Y117400D01*
X179590Y117130D01*
X179300Y117000D01*
X179010D01*
X178720Y117130D01*
X178470Y117330D01*
X178260Y117600D01*
G01X209340Y-116000D02*
X208300Y-120000D01*
X207260Y-116000D01*
G01X205000Y-120000D02*
Y-116000D01*
X205500Y-116800D01*
G01Y-120000D02*
X204500D01*
G01X202620Y-119200D02*
X202370Y-119670D01*
X202030Y-119930D01*
X201660Y-120000D01*
X201320Y-119930D01*
X200990Y-119600D01*
X200780Y-119200D01*
X200740Y-118800D01*
X200820Y-118330D01*
X201120Y-118000D01*
X201410Y-117870D01*
X201780D01*
G01X201410D02*
X201160Y-117670D01*
X200950Y-117330D01*
X200870Y-116930D01*
X200950Y-116530D01*
X201160Y-116200D01*
X201530Y-116000D01*
X201910Y-116070D01*
X202280Y-116330D01*
G54D11*
G01X-192750Y-69580D02*
Y-73510D01*
X-198650D01*
Y-69580D01*
G01Y-66220D02*
Y-62290D01*
X-192750D01*
Y-66220D01*
G01X-155900Y54980D02*
X-151760D01*
Y49460D01*
X-155900D01*
G01X-159040D02*
X-163180D01*
Y54980D01*
X-159040D01*
G01X-149170Y-34500D02*
X-153310D01*
Y-28980D01*
X-149170D01*
G01X-146030D02*
X-141890D01*
Y-34500D01*
X-146030D01*
G01X-149170Y-40410D02*
X-153310D01*
Y-34890D01*
X-149170D01*
G01X-146030D02*
X-141890D01*
Y-40410D01*
X-146030D01*
G01X-109380Y-24370D02*
X-106600Y-21590D01*
X-102430Y-25760D01*
X-105210Y-28540D01*
G01X-107580Y-30910D02*
X-110360Y-33690D01*
X-114530Y-29520D01*
X-111750Y-26740D01*
G01X-108020Y-7650D02*
X-110950Y-4720D01*
X-107050Y-820D01*
X-104120Y-3750D01*
G01X-113630Y38480D02*
X-109700D01*
Y32580D01*
X-113630D01*
G01X-116990D02*
X-120920D01*
Y38480D01*
X-116990D01*
G01X-105120Y58700D02*
X-109060D01*
G01X-122690Y74600D02*
Y64400D01*
X-127790Y69500D01*
X-122690Y74600D01*
G01X-130350Y84260D02*
X-100830D01*
Y54740D01*
X-130350D01*
Y84260D01*
G01X-105520Y79800D02*
X-109460D01*
G01X-88630Y-22810D02*
X-91560Y-25740D01*
X-95460Y-21840D01*
X-92530Y-18910D01*
G01X-101900Y-5970D02*
X-98970Y-8900D01*
X-102870Y-12800D01*
X-105800Y-9870D01*
G01X-90310Y-16690D02*
X-87380Y-13760D01*
X-83480Y-17660D01*
X-86410Y-20590D01*
G01X-97990Y-2050D02*
X-95060Y-4980D01*
X-98960Y-8880D01*
X-101890Y-5950D01*
G01X-104110Y-3730D02*
X-107040Y-800D01*
X-103140Y3100D01*
X-100210Y170D01*
G01X-87970Y7960D02*
X-85040Y5030D01*
X-88940Y1130D01*
X-91870Y4060D01*
G01X-94090Y6280D02*
X-97020Y9210D01*
X-93120Y13110D01*
X-90190Y10180D01*
G01X-100570Y32580D02*
X-104500D01*
Y38480D01*
X-100570D01*
G01X-97210D02*
X-93280D01*
Y32580D01*
X-97210D01*
G01X-84050Y82750D02*
Y78820D01*
X-89950D01*
Y82750D01*
G01Y86110D02*
Y90040D01*
X-84050D01*
Y86110D01*
G01X-107490Y77830D02*
Y81770D01*
G01X-59990Y-51430D02*
X-62920Y-54360D01*
X-66820Y-50460D01*
X-63890Y-47530D01*
G01X-74890Y-32100D02*
X-71960Y-29170D01*
X-68060Y-33070D01*
X-70990Y-36000D01*
G01X-73210Y-38220D02*
X-76140Y-41150D01*
X-80040Y-37250D01*
X-77110Y-34320D01*
G01X-73820Y22120D02*
X-70890Y19190D01*
X-74790Y15290D01*
X-77720Y18220D01*
G01X-79940Y20440D02*
X-82870Y23370D01*
X-78970Y27270D01*
X-76040Y24340D01*
G01X-56960Y38340D02*
X-59890Y35410D01*
X-63790Y39310D01*
X-60860Y42240D01*
G01X-67640Y34960D02*
X-64710Y37890D01*
X-60810Y33990D01*
X-63740Y31060D01*
G01X-65960Y28840D02*
X-68890Y25910D01*
X-72790Y29810D01*
X-69860Y32740D01*
G01X-66240Y69730D02*
Y65590D01*
X-71760D01*
Y69730D01*
G01X-63820Y64460D02*
X-59890D01*
Y58560D01*
X-63820D01*
G01X-67180D02*
X-71110D01*
Y64460D01*
X-67180D01*
G01X-81020Y52020D02*
Y63520D01*
G01X-73400Y79850D02*
X-83240D01*
G01X-73400Y80500D02*
X-83240D01*
G01Y87630D02*
Y67950D01*
G01X-73400D02*
Y87630D01*
G01X-71760Y72870D02*
Y77010D01*
X-66240D01*
Y72870D01*
G01X-56860Y-50120D02*
X-53930Y-47190D01*
X-50030Y-51090D01*
X-52960Y-54020D01*
G01X-55180Y-56240D02*
X-58110Y-59170D01*
X-62010Y-55270D01*
X-59080Y-52340D01*
G01X-61670Y-45310D02*
X-58740Y-42380D01*
X-54840Y-46280D01*
X-57770Y-49210D01*
G01X-44830Y-37160D02*
X-47760Y-34230D01*
X-43860Y-30330D01*
X-40930Y-33260D01*
G01X-38710Y-35480D02*
X-35780Y-38410D01*
X-39680Y-42310D01*
X-42610Y-39380D01*
G01X-52340Y-7170D02*
X-49410Y-10100D01*
X-53310Y-14000D01*
X-56240Y-11070D01*
G01X-58460Y-8850D02*
X-61390Y-5920D01*
X-57490Y-2020D01*
X-54560Y-4950D01*
G01X-42140Y23680D02*
X-45070Y20750D01*
X-48970Y24650D01*
X-46040Y27580D01*
G01X-46960Y28530D02*
X-49890Y25600D01*
X-53790Y29500D01*
X-50860Y32430D01*
G01X-48640Y34650D02*
X-45710Y37580D01*
X-41810Y33680D01*
X-44740Y30750D01*
G01X-58640Y44460D02*
X-55710Y47390D01*
X-51810Y43490D01*
X-54740Y40560D01*
G01X-51960Y33440D02*
X-54890Y30510D01*
X-58790Y34410D01*
X-55860Y37340D01*
G01X-53640Y39560D02*
X-50710Y42490D01*
X-46810Y38590D01*
X-49740Y35660D01*
G01X-43820Y29800D02*
X-40890Y32730D01*
X-36990Y28830D01*
X-39920Y25900D01*
G01X-34790Y85920D02*
Y81990D01*
X-40690D01*
Y85920D01*
G01Y89280D02*
Y93210D01*
X-34790D01*
Y89280D01*
G01X-24850Y-21620D02*
X-21920Y-24550D01*
X-25820Y-28450D01*
X-28750Y-25520D01*
G01X-16020Y-2490D02*
X-18950Y-5420D01*
X-22850Y-1520D01*
X-19920Y1410D01*
G01X-30970Y-23300D02*
X-33900Y-20370D01*
X-30000Y-16470D01*
X-27070Y-19400D01*
G01X-14820Y-11950D02*
X-12040Y-14730D01*
X-16210Y-18900D01*
X-18990Y-16120D01*
G01X-21360Y-13750D02*
X-24140Y-10970D01*
X-19970Y-6800D01*
X-17190Y-9580D01*
G01X-17700Y3630D02*
X-14770Y6560D01*
X-10870Y2660D01*
X-13800Y-270D01*
G01X-31000Y12490D02*
X-33930Y9560D01*
X-37830Y13460D01*
X-34900Y16390D01*
G01X-32680Y18610D02*
X-29750Y21540D01*
X-25850Y17640D01*
X-28780Y14710D01*
G01X-29650Y89280D02*
Y93210D01*
X-23750D01*
Y89280D01*
G01Y85920D02*
Y81990D01*
X-29650D01*
Y85920D01*
G01X-35170Y89280D02*
Y93210D01*
X-29270D01*
Y89280D01*
G01Y85920D02*
Y81990D01*
X-35170D01*
Y85920D01*
G01X-12800Y-5140D02*
X-15730Y-2210D01*
X-11830Y1690D01*
X-8900Y-1240D01*
G01X-6680Y-3460D02*
X-3750Y-6390D01*
X-7650Y-10290D01*
X-10580Y-7360D01*
G01X25940Y-31380D02*
Y-91020D01*
X85000D01*
Y-31380D01*
X25940D01*
G01X20080Y84540D02*
X15940D01*
Y90060D01*
X20080D01*
G01X23220D02*
X27360D01*
Y84540D01*
X23220D01*
G01X27800Y91350D02*
Y93710D01*
G01X26620Y92530D02*
X28980D01*
G01X21550Y96330D02*
Y108930D01*
G01X27850Y96330D02*
Y108930D01*
G01X41030Y23740D02*
X36890D01*
Y29260D01*
X41030D01*
G01X44170D02*
X48310D01*
Y23740D01*
X44170D01*
G01X59280Y29450D02*
X63210D01*
Y23550D01*
X59280D01*
G01X55920D02*
X51990D01*
Y29450D01*
X55920D01*
G01X70400D02*
X74330D01*
Y23550D01*
X70400D01*
G01X67040D02*
X63110D01*
Y29450D01*
X67040D01*
G01X67980Y77740D02*
X77820D01*
G01X67980Y77090D02*
X77820D01*
G01X67980Y89640D02*
Y69960D01*
G01X77820D02*
Y89640D01*
G01X164730Y-960D02*
X160590D01*
Y4560D01*
X164730D01*
G01X188760Y21930D02*
Y17790D01*
X183240D01*
Y21930D01*
G01X167870Y4560D02*
X172010D01*
Y-960D01*
X167870D01*
G01X183240Y25070D02*
Y29210D01*
X188760D01*
Y25070D01*
M02*
