G04 ================== begin FILE IDENTIFICATION RECORD ==================*
G04 Layout Name:  E:/A_Project/AA_Proj/allegro/AA_05122213.brd*
G04 Film Name:    SILKSCREEN_TOP*
G04 File Format:  Gerber RS274X*
G04 File Origin:  Cadence Allegro 17.2-S057*
G04 Origin Date:  Thu May 14 15:01:31 2020*
G04 *
G04 Layer:  REF DES/SILKSCREEN_TOP*
G04 Layer:  PACKAGE GEOMETRY/SILKSCREEN_TOP*
G04 Layer:  MANUFACTURING/AUTOSILK_TOP*
G04 Layer:  BOARD GEOMETRY/SILKSCREEN_TOP*
G04 *
G04 Offset:    (0.0 0.0)*
G04 Mirror:    No*
G04 Mode:      Positive*
G04 Rotation:  0*
G04 FullContactRelief:  No*
G04 UndefLineWidth:     0.0*
G04 ================== end FILE IDENTIFICATION RECORD ====================*
%FSLAX25Y25*MOIN*%
%IR0*IPPOS*OFA0.00000B0.00000*MIA0B0*SFA1.00000B1.00000*%
%ADD10C,.005*%
%ADD11C,.006*%
%ADD12C,.008*%
%ADD13C,.0078*%
%ADD14C,.0079*%
G75*
%LPD*%
G75*
G36*
G01X-129600Y-42400D02*
G02I-590J-4D01*
G37*
G36*
G01X-110490Y5450D02*
X-111200Y6150D01*
X-112260Y5090D01*
X-111550Y4390D01*
X-110490Y5450D01*
G37*
G36*
G01X-90320Y-38370D02*
X-91380Y-37310D01*
X-90670Y-36610D01*
X-89610Y-37670D01*
X-90320Y-38370D01*
G37*
G36*
G01X-104240Y-24450D02*
X-105300Y-23390D01*
X-104600Y-22680D01*
X-103530Y-23740D01*
X-104240Y-24450D01*
G37*
G36*
G01X-96580Y19360D02*
X-97280Y20070D01*
X-98340Y19010D01*
X-97640Y18300D01*
X-96580Y19360D01*
G37*
G36*
G01X-76400Y-52290D02*
X-77460Y-51230D01*
X-76760Y-50520D01*
X-75700Y-51580D01*
X-76400Y-52290D01*
G37*
G36*
G01X-82650Y33280D02*
X-83360Y33990D01*
X-84420Y32930D01*
X-83710Y32220D01*
X-82650Y33280D01*
G37*
G36*
G01X-68740Y47200D02*
X-69450Y47910D01*
X-70510Y46850D01*
X-69800Y46140D01*
X-68740Y47200D01*
G37*
G36*
G01X-47570Y-60270D02*
X-46860Y-60970D01*
X-47920Y-62030D01*
X-48630Y-61330D01*
X-47570Y-60270D01*
G37*
G36*
G01X-39900Y42670D02*
X-40960Y43740D01*
X-41670Y43030D01*
X-40610Y41970D01*
X-39900Y42670D01*
G37*
G36*
G01X6620Y-22210D02*
G02X8840Y-22220I903J-46069D01*
G02X11040Y-22340I-1386J-45635D01*
G02X12890Y-22560I-1835J-23320D01*
G02X17930Y-23740I-5385J-34355D01*
G02X22680Y-25660I-9965J-31488D01*
G02X27060Y-28280I-14657J-29474D01*
G02X31040Y-31570I-19771J-27970D01*
G02X34650Y-35670I-23402J-24244D01*
G02X37540Y-40290I-26815J-19988D01*
G02X39650Y-45310I-29579J-15386D01*
G02X40900Y-50600I-31569J-10252D01*
G02X41160Y-52960I-27341J-4206D01*
G02X41240Y-55560I-39845J-2527D01*
G02X41160Y-58170I-40185J-75D01*
G02X40900Y-60560I-28708J1914D01*
G02X38340Y-69210I-32347J4869D01*
G02X33500Y-76920I-30678J13884D01*
G02X26760Y-83060I-25966J21734D01*
G02X18650Y-87160I-19020J27551D01*
G02X16160Y-87910I-11206J32696D01*
G02X13720Y-88450I-7649J28778D01*
G02X11200Y-88780I-5251J30308D01*
G02X8490Y-88930I-3559J39741D01*
G02X5180Y-88840I-723J34339D01*
G02X1940Y-88440I2334J32230D01*
G02X-1220Y-87710I5603J31458D01*
G02X-4310Y-86660I8919J31318D01*
G02X-7590Y-85160I13121J33027D01*
G02X-10620Y-83370I14766J28454D01*
G02X-13440Y-81250I17907J26755D01*
G02X-16100Y-78780I23322J27783D01*
G02X-17860Y-76840I25430J24839D01*
G02X-19410Y-74830I24209J20271D01*
G02X-20800Y-72710I25549J18267D01*
G02X-22040Y-70430I29857J17715D01*
G02X-23320Y-67550I31821J15867D01*
G02X-24300Y-64640I29676J11614D01*
G02X-25000Y-61650I30883J8807D01*
G02X-25440Y-58490I36186J6649D01*
G02X-25520Y-57290I17120J1744D01*
G02X-25540Y-55560I68429J1656D01*
G02X-25510Y-53840I68395J-333D01*
G02X-25440Y-52620I17677J-402D01*
G02X-24920Y-49050I34824J-3249D01*
G02X-24030Y-45600I32683J-6592D01*
G02X-22790Y-42270I31723J-9917D01*
G02X-21180Y-39060I31552J-13816D01*
G02X-20600Y-38100I17253J-9768D01*
G02X-19790Y-36880I47333J-30547D01*
G02X-18950Y-35680I46731J-31817D01*
G02X-18250Y-34760I17537J-12617D01*
G02X-13530Y-29960I26698J-21532D01*
G02X-7990Y-26190I21570J-25741D01*
G02X-1830Y-23610I15895J-29307D01*
G02X4710Y-22320I9658J-31739D01*
G02X6620Y-22210I2412J-25250D01*
G37*
G36*
G01X-33650Y-46350D02*
X-32940Y-47060D01*
X-34000Y-48120D01*
X-34710Y-47410D01*
X-33650Y-46350D01*
G37*
G36*
G01X-19730Y-32430D02*
X-19020Y-33130D01*
X-20080Y-34190D01*
X-20790Y-33490D01*
X-19730Y-32430D01*
G37*
G36*
G01X-25980Y28750D02*
X-27040Y29810D01*
X-27750Y29110D01*
X-26690Y28040D01*
X-25980Y28750D01*
G37*
G36*
G01X-24990Y97300D02*
G03I-710J0D01*
G37*
G36*
G01X-32960Y103800D02*
G03I-2240J0D01*
G37*
G36*
G01X-5810Y-18510D02*
X-5110Y-19220D01*
X-6170Y-20280D01*
X-6870Y-19570D01*
X-5810Y-18510D01*
G37*
G36*
G01X-12060Y14840D02*
X-13120Y15900D01*
X-13830Y15190D01*
X-12770Y14130D01*
X-12060Y14840D01*
G37*
G36*
G01X112630Y28990D02*
G02I-599J-5D01*
G37*
G36*
G01X194190Y-111330D02*
G02X193450Y-112140I-75486J68220D01*
G02X192450Y-113230I-247351J225923D01*
G02X191360Y-114400I-265537J246288D01*
G02X190360Y-115470I-190406J176948D01*
G01X188030Y-117940D01*
X187450Y-116760D01*
G03X187210Y-116320I-5490J-2709D01*
G03X186970Y-115960I-2909J-1679D01*
G03X186740Y-115710I-1896J-1513D01*
G03X186610Y-115680I-91J-96D01*
G03X186260Y-115860I690J-1773D01*
G01X183160Y-117860D01*
G03X180280Y-119720I528508J-821494D01*
G03X179320Y-120380I11504J-17762D01*
G02X179250Y-120310I-31J39D01*
G02X179860Y-119580I8473J-6461D01*
G02X181340Y-118010I55828J-51145D01*
G02X183750Y-115530I332211J-320423D01*
G01X187580Y-111640D01*
X188210Y-112630D01*
G03X188460Y-113000I5671J3562D01*
G03X188720Y-113320I3435J2525D01*
G03X188950Y-113550I2782J2552D01*
G03X189080Y-113600I124J129D01*
G03X189250Y-113550I-14J362D01*
G03X190130Y-113020I-66096J110741D01*
G03X191140Y-112390I-30512J50041D01*
G03X192300Y-111650I-54882J87310D01*
G02X193450Y-110900I73051J-110755D01*
G02X194450Y-110270I40172J-62657D01*
G02X195330Y-109730I99112J-160529D01*
G02X195470Y-109680I185J-296D01*
G02X195500Y-109730I4J-31D01*
G02X195180Y-110160I-14641J10561D01*
G02X194750Y-110690I-12215J9471D01*
G02X194190Y-111330I-26905J22977D01*
G37*
G36*
G01X183690Y-107370D02*
X183080Y-108250D01*
X182340Y-109330D01*
X181600Y-110410D01*
X180960Y-111330D01*
X179550Y-113370D01*
X180660Y-114080D01*
X181780Y-114780D01*
X178140Y-117970D01*
X176680Y-119240D01*
X175320Y-120440D01*
X174170Y-121440D01*
G02X173650Y-121900I-165824J186929D01*
G02X173190Y-122220I-1863J2187D01*
G02X173110Y-122140I-27J53D01*
G02X173560Y-121410I7951J-4398D01*
G02X175400Y-118770I750330J-520996D01*
G03X176240Y-117550I-82138J57454D01*
G03X176940Y-116480I-47079J31563D01*
G03X177530Y-115560I-104999J67985D01*
G03X177590Y-115370I-280J193D01*
G03X177540Y-115250I-190J-9D01*
G03X177350Y-115070I-1411J-1299D01*
G03X177090Y-114880I-1599J-1915D01*
G03X176780Y-114700I-1987J-3065D01*
G02X175860Y-114200I8990J17638D01*
G02X175640Y-113920I241J416D01*
G02X175710Y-113600I311J100D01*
G02X176310Y-113030I6266J-5995D01*
G03X176860Y-112530I-208254J229632D01*
G01X178060Y-111460D01*
X179490Y-110190D01*
X181010Y-108840D01*
G02X182480Y-107540I264858J-298012D01*
G02X183730Y-106450I136703J-155508D01*
G01X184840Y-105480D01*
G02X184910Y-105460I63J-88D01*
G02X184930Y-105490I3J-20D01*
G02X184600Y-106020I-82428J50956D01*
G02X184190Y-106640I-26946J17374D01*
G02X183690Y-107370I-55323J37356D01*
G37*
%LPC*%
G75*
G36*
G01X5850Y-22660D02*
G02X7050Y-22620I1295J-20828D01*
G02X8600Y-22640I33J-57537D01*
G02X10140Y-22690I-1091J-57329D01*
G02X11290Y-22790I-1062J-18874D01*
G02X16020Y-23640I-3859J-35058D01*
G02X20450Y-25110I-7740J-30737D01*
G02X24650Y-27230I-12292J-29573D01*
G02X28640Y-30010I-19068J-31621D01*
G02X29740Y-30960I-11240J-14127D01*
G02X31160Y-32330I-40677J-43583D01*
G02X32530Y-33750I-42237J-42121D01*
G02X33480Y-34860I-13692J-12680D01*
G02X36250Y-38860I-28678J-22819D01*
G02X38360Y-43050I-27250J-16349D01*
G02X39820Y-47500I-29309J-12081D01*
G02X40680Y-52270I-35169J-8803D01*
G02X40790Y-53730I-19840J-2229D01*
G02X40820Y-55570I-50136J-1738D01*
G01Y-55580D01*
G02X40790Y-57420I-50209J-102D01*
G02X40680Y-58880I-20107J781D01*
G02X40000Y-62900I-35896J4004D01*
G02X38890Y-66710I-31384J7077D01*
G02X37330Y-70320I-29897J10777D01*
G02X35310Y-73780I-30428J15445D01*
G02X30290Y-79690I-27475J18251D01*
G02X24010Y-84280I-22719J24493D01*
G02X16880Y-87270I-16250J28755D01*
G02X9350Y-88470I-8665J30149D01*
G02X6350I-1500J41066D01*
G02X3560Y-88240I1155J31052D01*
G02X850Y-87770I3780J29843D01*
G02X-1930Y-87040I7659J34827D01*
G02X-4540Y-86100I9019J29136D01*
G02X-7140Y-84900I13080J31757D01*
G02X-9630Y-83500I15624J30702D01*
G02X-11920Y-81920I16414J26240D01*
G02X-13290Y-80820I16436J21873D01*
G02X-14740Y-79510I28336J32822D01*
G02X-16140Y-78140I29469J31515D01*
G02X-17300Y-76860I18975J18362D01*
G02X-19890Y-73350I24621J20879D01*
G02X-22030Y-69490I28520J18335D01*
G02X-23630Y-65400I30409J14254D01*
G02X-24650Y-61220I29335J9373D01*
G02X-24880Y-59730I49736J8440D01*
G02X-25000Y-58570I18771J2528D01*
G02X-25060Y-57330I22009J1686D01*
G02X-25080Y-55580I85808J1856D01*
G02X-25060Y-53810I81205J-32D01*
G02X-25000Y-52520I23225J-434D01*
G02X-24870Y-51330I19189J-1494D01*
G02X-24640Y-49900I41382J-5922D01*
G02X-22440Y-42550I32174J-5626D01*
G02X-18580Y-35900I30400J-13200D01*
G02X-13280Y-30300I26635J-19900D01*
G02X-6840Y-26080I21250J-25404D01*
G02X-3810Y-24750I14834J-29679D01*
G02X-660Y-23730I11674J-30679D01*
G02X2560Y-23030I8567J-31652D01*
G02X5850Y-22660I5327J-32555D01*
G37*
%LPD*%
G75*
G36*
G01X-15350Y-67430D02*
G02X-15200Y-67420I129J-801D01*
G02X-15160Y-67460I-4J-44D01*
G02X-15170Y-67510I-94J-7D01*
G02X-15390Y-67900I-128928J72472D01*
G02X-15640Y-68330I-35510J20357D01*
G02X-15940Y-68840I-65266J38048D01*
G03X-16320Y-69500I37990J-22312D01*
G03X-16550Y-69930I6818J-3923D01*
G03X-16680Y-70230I3254J-1588D01*
G03X-16720Y-70430I514J-207D01*
G02Y-70590I-1583J-80D01*
G02X-16760Y-70600I-21J1D01*
G02X-16820Y-70530I168J205D01*
G02X-17030Y-70170I42789J25202D01*
G02X-17230Y-69810I23128J13084D01*
G02X-17320Y-69640I1317J806D01*
G02X-17300Y-69620I17J3D01*
G02X-17250Y-69640I-6J-88D01*
G03X-17130Y-69720I235J222D01*
G03X-17020Y-69710I43J132D01*
G03X-16900Y-69610I-149J300D01*
G03X-16750Y-69390I-2048J1557D01*
G01X-16550Y-69040D01*
X-16830Y-68530D01*
G03X-16950Y-68340I-3835J-2289D01*
G03X-17060Y-68170I-2282J-1356D01*
G03X-17160Y-68050I-2207J-1738D01*
G03X-17210Y-68030I-45J-41D01*
G03X-17260I-25J-292D01*
G03X-17360Y-68050I633J-3425D01*
G03X-17480Y-68080I854J-3669D01*
G03X-17600Y-68110I1033J-4385D01*
G03X-17770Y-68160I587J-2310D01*
G03X-17850Y-68210I53J-173D01*
G03X-17870Y-68290I94J-66D01*
G03Y-68420I745J-65D01*
G02X-17860Y-68570I-783J-128D01*
G02X-17900Y-68590I-26J2D01*
G02X-17980Y-68490I200J242D01*
G02X-18150Y-68210I8977J5642D01*
G02X-18290Y-67950I6306J3563D01*
G02X-18310Y-67840I209J95D01*
G02X-18270Y-67810I31J0D01*
G02X-18140Y-67870I-199J-602D01*
G03X-18020Y-67910I131J192D01*
G03X-17760Y-67890I-66J2561D01*
G03X-17360Y-67830I-721J6168D01*
G03X-16680Y-67690I-9643J48559D01*
G02X-15660Y-67490I79337J-401917D01*
G02X-15350Y-67430I1344J-6112D01*
G37*
G36*
G01X-18600Y-59500D02*
G02X-18640Y-59670I-237J-34D01*
G02X-18800Y-59830I-446J286D01*
G02X-19160Y-60010I-1324J2197D01*
G02X-19970Y-60350I-17933J41588D01*
G01X-20910Y-60730D01*
X-21070Y-60550D01*
G03X-21110Y-60560I-18J-12D01*
G03Y-60650I193J-45D01*
G03X-21030Y-60950I3873J872D01*
G03X-20850Y-61530I49297J14981D01*
G01X-20480Y-62700D01*
X-20120Y-62720D01*
G03X-19970I75J2046D01*
G03X-19850Y-62710I-3J765D01*
G03X-19770Y-62690I-56J394D01*
G03X-19750Y-62660I-14J31D01*
G03X-19760Y-62630I-51J0D01*
G03X-19790Y-62600I-93J-63D01*
G03X-19840Y-62580I-88J-148D01*
G03X-19900I-30J-255D01*
G02X-20100Y-62520I11J401D01*
G02X-20290Y-62360I394J660D01*
G02X-20470Y-62100I933J838D01*
G02X-20610Y-61750I2446J1181D01*
G02X-20720Y-61420I16797J5782D01*
G02X-20740Y-61290I477J140D01*
G02X-20710Y-61220I113J-7D01*
G02X-20640Y-61150I232J-162D01*
G02X-20440Y-61050I973J-1695D01*
G02X-20070Y-60890I6938J-15536D01*
G02X-19670Y-60720I33703J-78747D01*
G02X-19630Y-60730I15J-27D01*
G02X-19580Y-60830I-258J-191D01*
G02X-19480Y-61180I-20925J-6168D01*
G02X-19380Y-61520I-17395J-5301D01*
G02X-19360Y-61650I-480J-140D01*
G02X-19370Y-61720I-162J-13D01*
G02X-19410Y-61790I-416J191D01*
G02X-19470Y-61860I-437J314D01*
G02X-19540Y-61920I-354J342D01*
G01X-19710Y-62050D01*
X-19510Y-62010D01*
G03X-19420Y-61980I-336J1157D01*
G03X-19280Y-61930I-1389J4110D01*
G03X-19140Y-61880I-1535J4519D01*
G03X-19010Y-61830I-1252J3448D01*
G01X-18700Y-61690D01*
X-18930Y-61650D01*
G02X-19050Y-61610I106J517D01*
G02X-19140Y-61540I126J254D01*
G02X-19220Y-61440I306J327D01*
G02X-19300Y-61260I1976J986D01*
G02X-19420Y-60900I4168J1589D01*
G02X-19410Y-60720I277J75D01*
G02X-19300Y-60590I232J-84D01*
G02X-19000Y-60440I1516J-2657D01*
G02X-18830Y-60360I4248J-8806D01*
G02X-18680Y-60300I2373J-5715D01*
G02X-18540Y-60250I2907J-7920D01*
G02X-18500Y-60240I48J-108D01*
G02X-18440Y-60290I-9J-72D01*
G02X-18280Y-60730I-18416J-6946D01*
G02X-18150Y-61150I-8514J-2865D01*
G02X-18120Y-61380I-801J-221D01*
G02X-18130Y-61450I-249J0D01*
G02X-18160Y-61540I-537J129D01*
G02X-18210Y-61620I-534J278D01*
G02X-18270Y-61680I-338J278D01*
G03X-18330Y-61740I669J-729D01*
G03X-18370Y-61790I379J-344D01*
G03X-18400Y-61840I280J-202D01*
G03Y-61860I16J-10D01*
G03X-18320Y-61870I47J49D01*
G03X-18120Y-61760I-1153J2332D01*
G03X-17930Y-61630I-1299J2103D01*
G03X-17880Y-61550I-53J89D01*
G03X-17910Y-61360I-633J-3D01*
G03X-18210Y-60430I-155831J-49755D01*
G03X-18510Y-59480I-223514J-70061D01*
G03X-18580Y-59360I-292J-90D01*
G03X-18600I-10J-15D01*
G03X-18610Y-59380I10J-18D01*
G03X-18620Y-59420I160J-61D01*
G03X-18600Y-59500I797J157D01*
G37*
G36*
G01X-20410Y-53550D02*
G03X-20380Y-53580I82J52D01*
G03X-20340Y-53610I171J187D01*
G03X-20280Y-53620I79J289D01*
G03X-20230Y-53630I79J266D01*
G02X-20070Y-53680I4J-267D01*
G02X-19940Y-53830I-270J-365D01*
G02X-19840Y-54090I-929J-507D01*
G02X-19760Y-54480I-4330J-1091D01*
G02X-19740Y-54710I-9794J-968D01*
G02X-19710Y-54900I-5367J-945D01*
G02X-19700Y-55070I-10558J-706D01*
G02X-19710Y-55100I-39J-4D01*
G02X-19740I-15J20D01*
G02X-20130Y-54900I60772J118985D01*
G02X-20560Y-54660I13468J24635D01*
G02X-21070Y-54380I26055J48062D01*
G03X-21590Y-54090I-27967J-49536D01*
G03X-22030Y-53850I-15376J-27665D01*
G03X-22420Y-53650I-38774J-75128D01*
G03X-22490Y-53630I-70J-113D01*
G03X-22520Y-53650I5J-40D01*
G03X-22540Y-53690I83J-66D01*
G03Y-53760I248J-35D01*
G03X-22530Y-53840I711J48D01*
G02X-22510Y-53980I-2693J-456D01*
G02X-22460Y-54310I-66518J-10247D01*
G02X-22410Y-54700I-62814J-8251D01*
G02X-22350Y-55130I-85644J-12169D01*
G01X-22210Y-56200D01*
X-21820Y-56190D01*
X-21420D01*
X-21660Y-56080D01*
G02X-21880Y-55960I478J1138D01*
G02X-22010Y-55810I254J352D01*
G02X-22090Y-55600I671J376D01*
G02X-22160Y-55180I6826J1354D01*
G03X-22200Y-54950I-31228J-5313D01*
G03X-22230Y-54720I-27138J-3423D01*
G03X-22260Y-54530I-25053J-3858D01*
G03X-22280Y-54430I-2300J-408D01*
G02X-22290Y-54360I456J101D01*
G02Y-54300I227J30D01*
G02X-22280Y-54270I113J-21D01*
G02X-22250Y-54250I28J-9D01*
G02X-22200Y-54270I-14J-108D01*
G02X-21810Y-54470I-58883J-115302D01*
G02X-21360Y-54710I-18292J-34840D01*
G02X-20840Y-55000I-34832J-63069D01*
G03X-20330Y-55280I23476J42155D01*
G03X-19890Y-55510I11730J21903D01*
G03X-19500Y-55710I47533J92210D01*
G03X-19470I15J22D01*
G03X-19450Y-55650I-50J50D01*
G03X-19550Y-54810I-312161J-36736D01*
G03X-19640Y-54050I-50987J-5653D01*
G03X-19720Y-53650I-4910J-774D01*
G03X-19750Y-53560I-305J-52D01*
G03X-19810Y-53510I-108J-69D01*
G03X-19910Y-53480I-133J-262D01*
G03X-20110I-100J-3075D01*
G03X-20250I-70J-2098D01*
G03X-20350Y-53500I60J-560D01*
G03X-20410Y-53520I21J-162D01*
G03Y-53550I18J-15D01*
G37*
G36*
G01X-19440Y-56220D02*
G02X-19450Y-56310I-369J-5D01*
G02X-19480Y-56390I-371J94D01*
G02X-19520Y-56460I-309J130D01*
G02X-19580Y-56500I-134J136D01*
G02X-19800Y-56590I-560J1056D01*
G02X-20670Y-56850I-35744J118020D01*
G02X-21570Y-57110I-45890J157164D01*
G02X-21750Y-57130I-163J649D01*
G02X-21800Y-57120I-10J81D01*
G02X-21850Y-57070I301J351D01*
G02X-21920Y-57000I396J466D01*
G02X-21970Y-56920I636J453D01*
G03X-22060Y-56770I-27347J-16306D01*
G01X-22070Y-56760D01*
X-22080D01*
G03X-22060Y-56900I12644J1735D01*
G03X-21940Y-57460I55276J11552D01*
G03X-21870Y-57810I8254J1469D01*
G03X-21800Y-58040I6941J1987D01*
G03X-21770Y-58070I40J10D01*
G03X-21750Y-58060I1J23D01*
G03X-21740Y-58030I-73J41D01*
G03X-21730Y-57980I-165J59D01*
G03X-21740Y-57930I-360J-46D01*
G02X-21750Y-57870I291J79D01*
G02Y-57810I403J30D01*
G02X-21740Y-57750I366J-30D01*
G02X-21720Y-57700I157J-34D01*
G02X-21590Y-57610I199J-149D01*
G02X-21150Y-57460I3954J-10879D01*
G02X-20700Y-57330I4493J-14709D01*
G02X-20590Y-57350I39J-99D01*
G02X-20540Y-57450I-141J-133D01*
G02X-20410Y-58050I-65548J-14516D01*
G02X-20290Y-58660I-106603J-21288D01*
G02X-20310Y-58720I-56J-15D01*
G02X-20330Y-58730I-41J58D01*
G02X-20440Y-58770I-5591J15205D01*
G02X-20570Y-58820I-3108J7887D01*
G02X-20720Y-58870I-4629J13638D01*
G02X-21060Y-58970I-1418J4193D01*
G02X-21290Y-58990I-188J825D01*
G02X-21440Y-58950I-3J292D01*
G02X-21520Y-58840I95J153D01*
G03X-21540Y-58780I-460J-120D01*
G03X-21560Y-58730I-305J-93D01*
G03X-21590Y-58700I-167J-137D01*
G03X-21620Y-58690I-25J-25D01*
G03X-21650Y-58720I0J-30D01*
G03X-21590Y-59050I15504J2648D01*
G03X-21510Y-59430I8011J1488D01*
G03X-21410Y-59860I12723J2732D01*
G03X-21380Y-59970I3930J1013D01*
G03X-21360Y-59980I11J-2D01*
G03X-21340Y-59950I-24J38D01*
G03X-21310Y-59780I-15133J2758D01*
G01X-21270Y-59510D01*
X-20300Y-59220D01*
G02X-19290Y-58940I51720J-184598D01*
G02X-19040Y-58890I435J-1526D01*
G02X-18900Y-58930I19J-197D01*
G02X-18780Y-59060I-241J-343D01*
G03X-18690Y-59210I26752J15949D01*
G03X-18670Y-59220I20J15D01*
G01Y-59210D01*
G03X-18690Y-59080I-12210J-1812D01*
G03X-18800Y-58520I-56518J-10811D01*
G03X-18880Y-58170I-8781J-1823D01*
G03X-18940Y-57940I-8309J-2045D01*
G03X-18980Y-57910I-37J-8D01*
G03X-19000Y-57920I-2J-20D01*
G03Y-57960I169J-20D01*
G03Y-58020I320J-30D01*
G03X-18990Y-58090I659J58D01*
G02Y-58160I-323J-35D01*
G02X-19000Y-58240I-347J3D01*
G02X-19030Y-58300I-274J100D01*
G02X-19060Y-58350I-125J41D01*
G02X-19210Y-58430I-330J437D01*
G02X-19610Y-58560I-4900J14398D01*
G02X-20040Y-58690I-10981J35547D01*
G02X-20100Y-58670I-15J54D01*
G02X-20140Y-58600I119J115D01*
G02X-20250Y-58070I84573J17829D01*
G02X-20360Y-57560I37949J8452D01*
G02X-20370Y-57380I916J141D01*
G02X-20350Y-57300I137J8D01*
G02X-20280Y-57240I185J-145D01*
G02X-20150Y-57170I374J-539D01*
G02X-19920Y-57100I1383J-4132D01*
G02X-19530Y-57000I3485J-12782D01*
G02X-19370Y-56990I108J-437D01*
G02X-19280Y-57040I-17J-137D01*
G02X-19200Y-57180I-437J-342D01*
G03X-19130Y-57330I882J320D01*
G03X-19100Y-57320I13J10D01*
G03X-19110Y-57130I-942J46D01*
G03X-19200Y-56730I-15809J-3347D01*
G03X-19290Y-56320I-10861J-2169D01*
G03X-19370Y-56110I-1102J-300D01*
G03X-19410I-20J-13D01*
G03X-19440Y-56220I217J-118D01*
G37*
G36*
G01X-21130Y-43300D02*
G03X-21310Y-43440I1396J-1981D01*
G03X-21410Y-43560I391J-427D01*
G03X-21460Y-43700I447J-239D01*
G03X-21500Y-43900I1556J-415D01*
G02X-21520Y-44050I-11151J1410D01*
G02X-21550Y-44200I-12652J2452D01*
G02X-21570Y-44340I-11395J1556D01*
G02X-21590Y-44430I-2380J482D01*
G03X-21570Y-44580I262J-41D01*
G03X-21480Y-44650I97J32D01*
G03X-21300Y-44600I-6J372D01*
G03X-21030Y-44440I-1077J2125D01*
G02X-20830Y-44300I2949J-4001D01*
G02X-20710Y-44250I251J-432D01*
G02X-20620Y-44240I66J-180D01*
G02X-20530Y-44280I-63J-262D01*
G03X-20390Y-44360I1366J2229D01*
G03X-20340I25J61D01*
G03X-20310Y-44320I-25J50D01*
G03X-20270Y-44190I-1911J659D01*
G03X-20250Y-43980I-625J165D01*
G03X-20290Y-43650I-3854J-300D01*
G03X-20350Y-43330I-4505J-679D01*
G03X-20420Y-43210I-242J-61D01*
G03X-20570Y-43110I-324J-324D01*
G03X-20730Y-43100I-100J-320D01*
G03X-20920Y-43150I34J-517D01*
G03X-21130Y-43300I862J-1429D01*
G37*
G36*
G01X-16240Y-38110D02*
G03X-16280Y-38270I1421J-440D01*
G03X-16300Y-38430I1732J-298D01*
G03X-16310Y-38590I1568J-178D01*
G03X-16290Y-38710I651J47D01*
G02X-16230Y-39150I-3669J-724D01*
G02X-16190Y-39710I-9330J-948D01*
G02X-16180Y-40260I-22270J-680D01*
G02X-16240Y-40330I-63J-6D01*
G02X-16390Y-40290I9J336D01*
G02X-16640Y-40170I1772J4013D01*
G02X-16890Y-40020I1939J3514D01*
G02X-17020Y-39900I312J468D01*
G02X-17070Y-39820I157J154D01*
G02X-17110Y-39620I3836J871D01*
G02X-17160Y-39370I4033J937D01*
G02X-17190Y-39100I5617J761D01*
G03X-17260Y-38620I-5436J-548D01*
G03X-17370Y-38300I-1260J-254D01*
G03X-17520Y-38090I-619J-284D01*
G03X-17740Y-37960I-439J-491D01*
G03X-17990Y-37920I-240J-697D01*
G03X-18200Y-37970I-4J-448D01*
G03X-18390Y-38130I302J-551D01*
G03X-18580Y-38400I1516J-1269D01*
G03X-18670Y-38560I9165J-5261D01*
G03X-18750Y-38700I5420J-3190D01*
G03X-18810Y-38820I9424J-4787D01*
G03X-18820Y-38850I63J-38D01*
G03X-18800Y-38880I29J-2D01*
G03X-18700Y-38940I1962J3156D01*
G03X-18580Y-39010I1372J2214D01*
G03X-18430Y-39080I2062J4222D01*
G02X-18170Y-39230I-682J-1483D01*
G02X-17960Y-39420I-702J-987D01*
G02X-17800Y-39650I-897J-794D01*
G02X-17690Y-39920I-1381J-720D01*
G02X-17680Y-40020I-336J-84D01*
G02X-17690Y-40110I-247J-18D01*
G02X-17750Y-40210I-354J144D01*
G02X-17850Y-40330I-1138J847D01*
G01X-18060Y-40550D01*
X-17760Y-40700D01*
G02X-17420Y-40920I-1027J-1960D01*
G02X-17170Y-41170I-833J-1083D01*
G02X-17000Y-41460I-949J-751D01*
G02X-16920Y-41800I-1303J-486D01*
G03X-16890Y-41990I4553J621D01*
G03X-16850Y-42220I9630J1556D01*
G03X-16800Y-42450I9637J1975D01*
G03X-16750Y-42650I4916J1123D01*
G02X-16710Y-42810I-4651J-1248D01*
G02X-16680Y-42960I-2671J-612D01*
G02X-16660Y-43080I-3738J-685D01*
G02X-16670Y-43110I-37J-4D01*
G02X-16700I-15J16D01*
G02X-16820Y-43050I1741J3632D01*
G02X-16960Y-42960I1450J2409D01*
G02X-17110Y-42850I3095J4378D01*
G02X-17330Y-42670I1606J2188D01*
G02X-17490Y-42500I872J981D01*
G02X-17630Y-42280I1291J976D01*
G02X-17790Y-41970I4918J2735D01*
G03X-18060Y-41450I-5625J-2591D01*
G03X-18350Y-41000I-4232J-2409D01*
G03X-18650Y-40650I-3083J-2339D01*
G03X-18880Y-40500I-445J-431D01*
G03X-18980Y-40460I-443J-961D01*
G03X-19120Y-40430I-751J-3162D01*
G03X-19270Y-40400I-763J-3424D01*
G03X-19410Y-40380I-418J-2424D01*
G02X-19570Y-40350I81J872D01*
G02X-19750Y-40280I601J1811D01*
G02X-19930Y-40200I756J1943D01*
G02X-20090Y-40100I791J1444D01*
G03X-20490Y-39870I-1810J-2684D01*
G03X-20720Y-39860I-125J-231D01*
G03X-20790Y-40020I60J-121D01*
G03X-20640Y-40360I1492J455D01*
G03X-20420Y-40670I1794J1040D01*
G03X-20120Y-40990I3053J2561D01*
G03X-19680Y-41370I5158J5527D01*
G03X-19010Y-41880I19501J24924D01*
G02X-18730Y-42100I-5233J-6949D01*
G02X-18490Y-42310I-4062J-4884D01*
G02X-18290Y-42500I-4177J-4597D01*
G02X-18220Y-42600I-223J-230D01*
G02X-18170Y-42830I-559J-242D01*
G02Y-43480I-22125J-325D01*
G02X-18180Y-44150I-35072J188D01*
G02X-18230Y-44280I-193J0D01*
G03Y-44310I12J-15D01*
G03X-18190Y-44350I226J186D01*
G03X-18120Y-44400I361J432D01*
G03X-18030Y-44450I651J1066D01*
G02X-17800Y-44610I-325J-713D01*
G02X-17610Y-44870I-898J-856D01*
G02X-17440Y-45240I-1911J-1102D01*
G02X-17290Y-45770I-7008J-2270D01*
G02X-17180Y-46220I-17236J-4452D01*
G02X-17160Y-46420I-843J-185D01*
G02X-17200Y-46510I-135J6D01*
G02X-17300Y-46550I-97J96D01*
G02X-17440Y-46490I-2J189D01*
G02X-17990Y-45840I40524J34847D01*
G02X-18520Y-45200I34640J29225D01*
G02X-18580Y-45020I220J173D01*
G02Y-44960I216J30D01*
G02X-18550Y-44870I1210J-353D01*
G02X-18510Y-44780I1350J-546D01*
G02X-18470Y-44680I1378J-493D01*
G03X-18400Y-44470I-558J303D01*
G03X-18430Y-44270I-402J42D01*
G03X-18550Y-44080I-487J-174D01*
G03X-18780Y-43920I-842J-965D01*
G01X-19060Y-43750D01*
X-19280Y-43900D01*
G03X-19530Y-44130I706J-1018D01*
G03X-19770Y-44480I2339J-1861D01*
G03X-19950Y-44850I2525J-1457D01*
G03X-20010Y-45130I743J-306D01*
G01X-20020Y-45420D01*
X-19590Y-45400D01*
G02X-19360Y-45390I231J-2653D01*
G02X-19170Y-45410I-28J-1176D01*
G02X-19000Y-45460I-210J-1028D01*
G02X-18810Y-45540I-579J-1641D01*
G02X-18460Y-45760I-968J-1928D01*
G02X-18070Y-46110I-3497J-4289D01*
G02X-17700Y-46490I-3789J-4059D01*
G02X-17460Y-46830I-1720J-1469D01*
G03X-17290Y-47080I1936J1133D01*
G03X-17130Y-47230I535J410D01*
G03X-16920Y-47320I411J668D01*
G03X-16580Y-47400I993J3457D01*
G03X-16260Y-47430I310J1586D01*
G03X-16040Y-47370I-5J450D01*
G03X-15910Y-47220I-155J266D01*
G03X-15860Y-46980I-585J247D01*
G03X-15870Y-46840I-767J16D01*
G03X-15920Y-46720I-344J-73D01*
G03X-16000Y-46620I-400J-238D01*
G03X-16150Y-46500I-1266J-1429D01*
G02X-16290Y-46360I614J754D01*
G02X-16500Y-46110I5042J4449D01*
G02X-16720Y-45820I5964J4753D01*
G02X-16930Y-45500I6562J4535D01*
G02X-17390Y-44780I48861J31723D01*
G02X-17510Y-44520I949J596D01*
G02Y-44330I282J95D01*
G02X-17380Y-44090I1083J-431D01*
G03X-17290Y-43920I-1764J1043D01*
G03X-17230Y-43790I-547J331D01*
G03X-17220Y-43670I-456J98D01*
G03X-17230Y-43530I-688J21D01*
G02X-17250Y-43420I1080J253D01*
G02Y-43350I320J35D01*
G02X-17230Y-43300I119J-19D01*
G02X-17200Y-43280I35J-20D01*
G02X-17030Y-43340I6J-255D01*
G02X-16810Y-43560I-1453J-1673D01*
G02X-16600Y-43820I-1618J-1522D01*
G02X-16490Y-44060I-769J-498D01*
G02X-16430Y-44340I-2067J-589D01*
G02X-16400Y-44640I-2940J-446D01*
G02X-16390Y-44920I-2890J-243D01*
G02X-16440Y-45060I-287J24D01*
G03X-16460Y-45190I151J-90D01*
G03X-16390Y-45360I622J157D01*
G03X-16260Y-45530I705J405D01*
G03X-16100Y-45650I453J438D01*
G03X-15800Y-45760I593J1154D01*
G03X-15540I130J577D01*
G03X-15360Y-45660I-75J348D01*
G03X-15270Y-45470I-253J236D01*
G02X-15250Y-45420I178J-42D01*
G02X-15210Y-45350I730J-371D01*
G02X-15160Y-45280I799J-518D01*
G02X-15110Y-45210I760J-490D01*
G02X-15000Y-45130I297J-293D01*
G02X-14880Y-45090I163J-289D01*
G02X-14690Y-45080I150J-1041D01*
G02X-14290Y-45100I-646J-16932D01*
G03X-13890Y-45130I1413J16158D01*
G03X-13690Y-45120I46J1094D01*
G03X-13570Y-45080I-55J364D01*
G03X-13450Y-45000I-204J436D01*
G03X-13300Y-44810I-724J726D01*
G03X-13320Y-44700I-86J41D01*
G03X-13460Y-44610I-222J-192D01*
G03X-13890Y-44520I-1895J-7981D01*
G02X-14280Y-44420I498J2752D01*
G02X-14760Y-44230I2390J6739D01*
G02X-15230Y-44020I2686J6642D01*
G02X-15580Y-43810I1280J2529D01*
G02X-15780Y-43600I460J638D01*
G02X-15970Y-43270I2192J1482D01*
G02X-16120Y-42870I2756J1262D01*
G02X-16220Y-42480I2361J813D01*
G01X-16270Y-42100D01*
X-15850Y-42530D01*
G03X-15600Y-42780I5832J5582D01*
G03X-15440Y-42900I605J640D01*
G03X-15300Y-42950I220J394D01*
G03X-15110Y-42970I195J944D01*
G03X-14980Y-42960I-16J1053D01*
G03X-14850Y-42940I-123J1235D01*
G03X-14730Y-42900I-282J1047D01*
G03X-14650Y-42860I-100J299D01*
G03X-14570Y-42780I-285J365D01*
G03X-14540Y-42710I-86J78D01*
G03X-14560Y-42590I-387J-3D01*
G03X-14650Y-42300I-13294J-3967D01*
G03X-14710Y-42120I-7004J-2235D01*
G03X-14770Y-41960I-4336J-1535D01*
G03X-14830Y-41840I-5504J-2677D01*
G03X-14850Y-41800I-84J-17D01*
G02X-14870Y-41780I63J83D01*
G02X-14900Y-41730I574J378D01*
G02X-14930Y-41680I671J436D01*
G02X-14950Y-41620I797J299D01*
G02X-14980Y-41530I1121J424D01*
G02X-14970Y-41520I12J-2D01*
G02X-14930Y-41530I4J-68D01*
G02X-14780Y-41620I-6182J-10473D01*
G02X-14410Y-41880I-5129J-7692D01*
G02X-13960Y-42210I-12617J-17677D01*
G02X-13500Y-42560I-13290J-17944D01*
G02X-13120Y-42880I-7868J-9729D01*
G03X-12750Y-43170I3954J4663D01*
G03X-12490Y-43310I588J781D01*
G03X-12230Y-43350I241J701D01*
G03X-11870Y-43310I-104J2579D01*
G03X-11630Y-43260I-845J4656D01*
G03X-11520Y-43220I-40J281D01*
G03X-11470Y-43140I-90J112D01*
G03X-11440Y-43010I-654J219D01*
G03X-11480Y-42780I-473J36D01*
G03X-11620Y-42580I-492J-196D01*
G03X-11860Y-42440I-493J-569D01*
G03X-12180Y-42370I-463J-1349D01*
G02X-12620Y-42260I180J1656D01*
G02X-13000Y-42040I573J1427D01*
G02X-13370Y-41670I1465J1835D01*
G02X-13780Y-41090I5943J4636D01*
G03X-14000Y-40790I-3640J-2439D01*
G03X-14210Y-40560I-1702J-1343D01*
G03X-14490Y-40330I-2335J-2558D01*
G03X-14970Y-39970I-13214J-17118D01*
G02X-15090Y-39850I436J556D01*
G02X-15160Y-39730I270J238D01*
G02X-15200Y-39530I974J299D01*
G02X-15240Y-39080I18556J1876D01*
G03X-15300Y-38460I-12625J-909D01*
G03X-15390Y-38140I-1187J-161D01*
G03X-15530Y-37960I-412J-176D01*
G03X-15760Y-37840I-426J-535D01*
G03X-15880Y-37810I-2325J-9046D01*
G03X-15980Y-37780I-1782J-5759D01*
G03X-16070Y-37760I-1785J-7821D01*
G03X-16100I-15J-128D01*
G03X-16120Y-37770I-1J-23D01*
G03X-16160Y-37860I2190J-1027D01*
G03X-16200Y-37970I1744J-696D01*
G03X-16240Y-38110I3301J-1019D01*
G37*
G36*
G01X4730Y-82190D02*
G03X4590Y-82350I355J-452D01*
G03X4490Y-82580I868J-514D01*
G03X4450Y-82830I1045J-295D01*
G03X4480Y-83070I835J-18D01*
G03X4520Y-83170I298J61D01*
G03X4620Y-83300I1678J1188D01*
G03X4750Y-83460I1935J1439D01*
G03X4890Y-83600I1937J1797D01*
G02X5430Y-84100I-42940J-46917D01*
G02X5640Y-84330I-1767J-1824D01*
G02X5740Y-84490I-449J-392D01*
G02X5770Y-84660I-425J-163D01*
G02X5730Y-84860I-527J1D01*
G02X5620Y-85010I-383J166D01*
G02X5440Y-85110I-317J359D01*
G02X5210Y-85140I-216J760D01*
G02X4970Y-85090I-5J579D01*
G02X4750Y-84940I350J749D01*
G02X4570Y-84710I642J688D01*
G02X4470Y-84440I853J469D01*
G01X4410Y-84170D01*
X4360Y-84400D01*
G03X4320Y-84690I2355J-473D01*
G03X4300Y-85000I2984J-348D01*
G03X4320Y-85210I1322J20D01*
G03X4370Y-85220I26J0D01*
G02X4420Y-85170I133J-83D01*
G02X4490Y-85150I70J-113D01*
G02X4610Y-85170I-17J-471D01*
G02X4830Y-85250I-2121J-6176D01*
G03X5190Y-85340I657J1863D01*
G03X5490I150J896D01*
G03X5740Y-85240I-137J705D01*
G03X5960Y-85060I-456J782D01*
G03X6090Y-84850I-634J537D01*
G03X6150Y-84620I-820J337D01*
G03Y-84360I-953J130D01*
G03X6090Y-84100I-1155J-130D01*
G03X6020Y-84000I-305J-139D01*
G03X5870Y-83840I-2923J-2590D01*
G03X5670Y-83650I-3085J-3047D01*
G03X5460Y-83460I-3739J-3921D01*
G02X5040Y-83100I4742J5957D01*
G02X4850Y-82850I669J706D01*
G02X4810Y-82640I312J168D01*
G02X4900Y-82420I458J-59D01*
G02X5060Y-82270I514J-388D01*
G02X5260Y-82210I206J-325D01*
G02X5460Y-82250I16J-442D01*
G02X5680Y-82380I-370J-877D01*
G02X5800Y-82500I-656J-776D01*
G02X5880Y-82620I-578J-472D01*
G02X5940Y-82750I-656J-382D01*
G02X5980Y-82910I-1035J-344D01*
G03X6020Y-83140I32234J5487D01*
G03X6030Y-83160I45J10D01*
G03X6050I10J3D01*
G03X6090Y-83000I-8510J2213D01*
G03X6110Y-82890I-1415J314D01*
G03X6130Y-82740I-4315J652D01*
G03X6140Y-82580I-4671J372D01*
G03X6150Y-82430I-3197J288D01*
G03Y-82260I-4014J85D01*
G03X6140Y-82180I-264J8D01*
G03X6110Y-82150I-35J-5D01*
G03X6060Y-82170I-1J-69D01*
G02X6010Y-82200I-105J119D01*
G02X5940Y-82210I-59J162D01*
G02X5860Y-82190I27J279D01*
G02X5770Y-82140I351J737D01*
G03X5520Y-82060I-368J-718D01*
G03X5230Y-82040I-234J-1284D01*
G03X4950Y-82080I36J-1250D01*
G03X4730Y-82190I159J-592D01*
G37*
G36*
G01X1710Y-81490D02*
G02X1780I35J-539D01*
G02X2000Y-81510I21J-990D01*
G02X2480Y-81640I-4550J-17750D01*
G02X2960Y-81770I-4293J-16801D01*
G02X3180Y-81860I-343J-1152D01*
G02X3450Y-82110I-355J-654D01*
G02X3590Y-82460I-747J-502D01*
G02X3570Y-82840I-874J-145D01*
G02X3390Y-83150I-680J188D01*
G02X3290Y-83230I-509J533D01*
G02X3180Y-83290I-479J747D01*
G02X3080Y-83340I-397J669D01*
G02X2990Y-83350I-75J264D01*
G03X2870Y-83370I-9J-318D01*
G03X2840Y-83430I26J-50D01*
G03X2880Y-83570I623J102D01*
G03X3110Y-84160I100088J38678D01*
G03X3210Y-84390I2694J1035D01*
G03X3340Y-84620I3199J1656D01*
G03X3470Y-84830I2820J1601D01*
G03X3590Y-84980I943J631D01*
G02X3690Y-85080I-1772J-1872D01*
G02X3740Y-85160I-476J-353D01*
G02X3750Y-85190I-39J-30D01*
G02X3730Y-85200I-14J2D01*
G03X3660Y-85180I-249J-740D01*
G03X3560Y-85150I-1092J-3458D01*
G03X3450Y-85120I-1125J-3907D01*
G03X3340Y-85100I-689J-3479D01*
G02X3170Y-85040I95J539D01*
G02X3060Y-84940I158J284D01*
G02X2950Y-84740I987J673D01*
G02X2730Y-84210I28763J12250D01*
G03X2580Y-83840I-10675J-4112D01*
G03X2440Y-83570I-3511J-1649D01*
G03X2330Y-83380I-2452J-1293D01*
G03X2260Y-83330I-104J-72D01*
G03X2150Y-83340I-44J-130D01*
G03X2080Y-83430I98J-148D01*
G03X2030Y-83640I881J-321D01*
G03X1980Y-84090I13902J-1772D01*
G03X1960Y-84430I13096J-941D01*
G03X1970Y-84580I540J-39D01*
G03X2020Y-84660I162J46D01*
G03X2120Y-84740I321J298D01*
G02X2230Y-84800I-1547J-2967D01*
G01Y-84810D01*
G02X2190Y-84820I-38J66D01*
G02X2000Y-84790I2961J19372D01*
G02X1850Y-84760I586J3318D01*
G02X1680Y-84730I1140J6955D01*
G02X1520Y-84690I1637J6887D01*
G02X1370Y-84660I630J3539D01*
G02X1210Y-84610I2191J7293D01*
G02X1160Y-84580I40J123D01*
G02Y-84560I7J10D01*
G02X1240Y-84540I177J-539D01*
G03X1390Y-84460I-44J263D01*
G03X1500Y-84280I-358J342D01*
G03X1590Y-83940I-2158J753D01*
G03X1720Y-83160I-42321J7454D01*
G02X1790Y-82760I125710J-21793D01*
G02X1850Y-82390I87682J-14029D01*
G02X1900Y-82090I100378J-16575D01*
G02X1920Y-81970I2918J-425D01*
G03X1930Y-81890I-266J74D01*
G03X1910Y-81800I-347J-30D01*
G03X1870Y-81720I-375J-138D01*
G03X1800Y-81640I-409J-287D01*
G02X1710Y-81550I2963J3053D01*
G02X1690Y-81510I46J48D01*
G02X1710Y-81490I19J1D01*
G37*
G36*
G01X-700Y-80760D02*
G02X-590Y-80900I-170J-247D01*
G02X-560Y-81100I-406J-163D01*
G02X-630Y-81460I-2666J332D01*
G02X-900Y-82460I-101143J26772D01*
G02X-1100Y-83170I-33872J9158D01*
G02X-1220Y-83480I-1832J531D01*
G02X-1340Y-83610I-307J163D01*
G02X-1480Y-83640I-104J144D01*
G03X-1530Y-83630I-109J-415D01*
G03X-1580I-25J-199D01*
G03X-1610Y-83640I13J-90D01*
G03X-1620Y-83650I5J-15D01*
G03X-1590Y-83700I54J-1D01*
G03X-680Y-84030I110342J302855D01*
G03X180Y-84330I38568J109179D01*
G03X370Y-84360I184J550D01*
G03X420Y-84350I13J65D01*
G03X490Y-84270I-860J823D01*
G03X580Y-84170I-971J965D01*
G03X660Y-84050I-1684J1209D01*
G03X740Y-83930I-1822J1302D01*
G03X790Y-83830I-798J461D01*
G03X810Y-83760I-432J161D01*
G03X800Y-83740I-16J5D01*
G03X760Y-83750I2J-92D01*
G03X730Y-83760I42J-177D01*
G03X700Y-83790I125J-155D01*
G03X670Y-83820I95J-125D01*
G02X640Y-83860I-136J71D01*
G02X570Y-83910I-694J898D01*
G02X490Y-83960I-734J1085D01*
G02X400Y-84010I-751J1246D01*
G02X260Y-84070I-380J693D01*
G02X140Y-84080I-88J335D01*
G02X-10Y-84050I63J705D01*
G02X-290Y-83970I1953J7364D01*
G02X-530Y-83880I1617J4678D01*
G02X-670Y-83810I259J692D01*
G02X-740Y-83730I161J212D01*
G02X-770Y-83650I121J91D01*
G02X-750Y-83510I675J-25D01*
G02X-680Y-83190I13291J-2740D01*
G02X-590Y-82840I11230J-2701D01*
G02X-490Y-82520I7944J-2307D01*
G02X-460Y-82480I62J-15D01*
G02X-400Y-82470I49J-106D01*
G02X-300Y-82490I-36J-438D01*
G02X-130Y-82550I-1107J-3406D01*
G02X180Y-82680I-1259J-3438D01*
G02X350Y-82810I-301J-570D01*
G02X430Y-82940I-199J-212D01*
G02Y-83110I-352J-85D01*
G03X410Y-83200I1391J-356D01*
G03Y-83240I112J-20D01*
G03X430Y-83250I13J1D01*
G03X460Y-83240I-5J66D01*
G03X490Y-83190I-132J113D01*
G03X540Y-83080I-1711J844D01*
G03X580Y-82940I-2036J657D01*
G03X620Y-82800I-2521J796D01*
G02X660Y-82650I12999J-3386D01*
G02X700Y-82500I13181J-3435D01*
G02X730Y-82370I11884J-2674D01*
G02X760Y-82290I1794J-627D01*
G03X770Y-82230I-443J105D01*
G03X760Y-82220I-9J1D01*
G03X730Y-82250I45J-75D01*
G03X650Y-82340I3153J-2883D01*
G02X540Y-82450I-822J712D01*
G02X460Y-82490I-109J118D01*
G02X350I-55J277D01*
G02X110Y-82430I1174J5207D01*
G02X-30Y-82390I875J3326D01*
G02X-170Y-82340I801J2464D01*
G02X-280Y-82300I780J2316D01*
G02X-330Y-82260I70J138D01*
G02X-370Y-82120I109J107D01*
G02X-260Y-81640I9458J-1915D01*
G02X-130Y-81170I10150J-2554D01*
G02X-30Y-81100I97J-32D01*
G02X150Y-81120I28J-572D01*
G02X440Y-81230I-1511J-4420D01*
G02X730Y-81360I-1727J-4240D01*
G02X880Y-81460I-284J-588D01*
G02X940Y-81530I-184J-219D01*
G02X980Y-81620I-573J-308D01*
G02X1020Y-81730I-641J-295D01*
G02X1030Y-81830I-508J-101D01*
G03Y-81960I6469J-65D01*
G03X1040Y-81990I56J2D01*
G03X1060I10J1D01*
G03X1090Y-81910I-1202J496D01*
G03X1210Y-81550I-2713J1104D01*
G03X1170Y-81390I-176J41D01*
G03X980Y-81260I-361J-323D01*
G03X250Y-80990I-13033J-34117D01*
G03X-470Y-80730I-36625J-100295D01*
G03X-730Y-80650I-971J-2695D01*
G03X-760Y-80680I-8J-22D01*
G03X-700Y-80760I166J62D01*
G37*
G36*
G01X-3540Y-79450D02*
G02X-3470Y-79580I-220J-202D01*
G02X-3430Y-79790I-1423J-380D01*
G02X-3410Y-80140I-4379J-426D01*
G02X-3400Y-80790I-44279J-1006D01*
G03X-3390Y-81290I37994J510D01*
G03X-3380Y-81790I39888J548D01*
G03X-3360Y-82240I35506J1353D01*
G03X-3340Y-82520I6083J294D01*
G01X-3290Y-83040D01*
X-2260Y-81880D01*
G02X-1820Y-81390I22939J-20156D01*
G02X-1460Y-81020I8371J-7785D01*
G02X-1170Y-80750I7799J-8086D01*
G02X-1060Y-80690I157J-156D01*
G03X-1000Y-80660I-31J136D01*
G03X-990Y-80630I-11J20D01*
G03X-1070Y-80570I-236J-232D01*
G03X-1290Y-80450I-4826J-8587D01*
G03X-1450Y-80370I-1436J-2672D01*
G03X-1580Y-80320I-541J-1214D01*
G03X-1680Y-80300I-215J-817D01*
G03X-1700Y-80320I-1J-19D01*
G03X-1690Y-80350I79J10D01*
G03X-1680Y-80370I75J25D01*
G03X-1650Y-80390I58J54D01*
G03X-1620Y-80400I39J66D01*
G02X-1590Y-80410I4J-39D01*
G02X-1570Y-80450I-122J-86D01*
G02X-1550Y-80510I-228J-109D01*
G02X-1540Y-80580I-416J-95D01*
G02X-1580Y-80700I-229J10D01*
G02X-1720Y-80910I-3122J1930D01*
G02X-1930Y-81200I-4262J2865D01*
G02X-2230Y-81540I-10604J9054D01*
G01X-2910Y-82330D01*
X-2960Y-81290D01*
G02X-2990Y-80540I20258J1186D01*
G02X-2960Y-80140I1958J54D01*
G02X-2860Y-79930I456J-88D01*
G02X-2690Y-79850I172J-145D01*
G03X-2670Y-79820I-4J25D01*
G03X-2700Y-79780I-62J-15D01*
G03X-2830Y-79700I-604J-836D01*
G03X-3060Y-79580I-3882J-7160D01*
G03X-3490Y-79370I-35360J-71859D01*
G03X-3600Y-79330I-263J-551D01*
G03X-3620Y-79350I-7J-13D01*
G03X-3540Y-79450I714J489D01*
G37*
G36*
G01X-4790Y-78750D02*
G02X-4690Y-78890I-361J-364D01*
G02X-4680Y-79040I-251J-92D01*
G02X-4730Y-79250I-984J123D01*
G02X-4930Y-79760I-24983J9503D01*
G02X-5350Y-80750I-75106J31279D01*
G02X-5570Y-81190I-4456J1953D01*
G02X-5730Y-81410I-957J528D01*
G02X-5880Y-81460I-120J109D01*
G03X-6020I-70J-535D01*
G03X-6030Y-81500I7J-23D01*
G03X-5920Y-81590I347J312D01*
G03X-5620Y-81760I4871J8247D01*
G03X-5230Y-81960I20667J39820D01*
G03X-5100Y-82010I326J653D01*
G03X-5080Y-81990I4J16D01*
G03X-5140Y-81900I-402J-203D01*
G02X-5190Y-81840I811J726D01*
G02X-5240Y-81770I677J536D01*
G02X-5270Y-81720I617J404D01*
G02X-5280Y-81680I65J38D01*
G02X-5240Y-81510I432J-12D01*
G02X-4790Y-80470I208116J-89433D01*
G02X-4330Y-79430I187285J-82216D01*
G02X-4220Y-79270I485J-216D01*
G02X-4170Y-79230I148J-133D01*
G02X-4090Y-79210I121J-315D01*
G02X-4010Y-79200I85J-358D01*
G02X-3940Y-79210I-10J-317D01*
G03X-3840Y-79220I83J324D01*
G03X-3830Y-79190I0J17D01*
G03X-3960Y-79100I-643J-790D01*
G03X-4330Y-78890I-16862J-29278D01*
G03X-4710Y-78680I-16278J-29006D01*
G03X-4840Y-78620I-352J-592D01*
G03X-4860Y-78650I-5J-19D01*
G03X-4790Y-78750I510J282D01*
G37*
G36*
G01X-9760Y-74820D02*
G02X-9690Y-74990I-381J-256D01*
G02X-9710Y-75150I-284J-46D01*
G02X-9840Y-75400I-1584J665D01*
G02X-10350Y-76170I-89936J59014D01*
G03X-10620Y-76610I15944J-10087D01*
G03X-10780Y-76890I2434J-1577D01*
G03X-10850Y-77100I1151J-500D01*
G03X-10880Y-77300I710J-209D01*
G03X-10730Y-77880I1185J-3D01*
G03X-10290Y-78370I1353J773D01*
G03X-9750Y-78600I753J1020D01*
G03X-9260Y-78480I100J653D01*
G03X-9170Y-78390I-299J389D01*
G03X-8970Y-78150I-8886J7609D01*
G03X-8740Y-77850I-8851J7024D01*
G03X-8500Y-77510I-12622J9165D01*
G02X-8270Y-77190I11353J-7917D01*
G02X-8060Y-76910I6350J-4544D01*
G02X-7870Y-76690I9607J-8105D01*
G02X-7820Y-76660I60J-44D01*
G02X-7700Y-76700I4J-188D01*
G02X-7550Y-76850I-778J-928D01*
G02X-7410Y-77030I-948J-882D01*
G02X-7340Y-77210I-558J-321D01*
G02Y-77350I-278J-70D01*
G02X-7420Y-77570I-1788J526D01*
G02X-7570Y-77900I-4046J1640D01*
G02X-7850Y-78410I-23699J12679D01*
G02X-8280Y-79200I-60957J32667D01*
G02X-8470Y-79470I-1666J971D01*
G02X-8610Y-79560I-209J171D01*
G02X-8770Y-79550I-67J211D01*
G03X-8900Y-79490I-454J-812D01*
G03X-8920Y-79510I-8J-12D01*
G03X-8810Y-79610I502J442D01*
G03X-8560Y-79810I7470J9081D01*
G03X-8280Y-80000I5868J8346D01*
G03X-8140Y-80070I315J454D01*
G03X-8110Y-80040I15J15D01*
G03X-8200Y-79920I-654J-397D01*
G02X-8270Y-79800I233J216D01*
G02Y-79670I216J65D01*
G02X-8190Y-79460I1189J-333D01*
G02X-7890Y-78890I47777J-24782D01*
G02X-7710Y-78550I25519J-13292D01*
G02X-7540Y-78250I16429J-9111D01*
G02X-7400Y-78000I21371J-11804D01*
G02X-7340Y-77920I364J-210D01*
G02X-7290Y-77940I19J-25D01*
G02X-7240Y-78170I-2262J-612D01*
G02X-7170Y-78600I-7326J-1413D01*
G02X-7080Y-79400I-76475J-9009D01*
G02X-7010Y-80010I-314284J-36374D01*
G02X-6960Y-80530I-170207J-16628D01*
G01X-6910Y-80990D01*
G02Y-81040I-337J-25D01*
G03X-6890Y-81090I56J-6D01*
G03X-6830I30J41D01*
G03X-6760Y-81010I-188J235D01*
G03X-6690Y-80880I-691J456D01*
G02X-6620Y-80750I2147J-1072D01*
G02X-6440Y-80410I59487J-31276D01*
G02X-6230Y-80020I54293J-28983D01*
G02X-6000Y-79590I75667J-40197D01*
G02X-5610Y-78890I66761J-36737D01*
G02X-5450Y-78660I1495J-869D01*
G02X-5330Y-78570I224J-174D01*
G02X-5170Y-78560I97J-272D01*
G03X-5070Y-78570I110J596D01*
G03X-5050Y-78550I5J15D01*
G03X-5120Y-78480I-251J-181D01*
G03X-5360Y-78300I-12984J-17061D01*
G03X-5650Y-78100I-5603J-7814D01*
G03X-5790Y-78040I-248J-384D01*
G03X-5820Y-78080I-12J-22D01*
G03X-5710Y-78210I821J583D01*
G02X-5640Y-78320I-310J-275D01*
G02X-5630Y-78420I-147J-65D01*
G02X-5680Y-78560I-559J121D01*
G02X-5850Y-78900I-15015J7295D01*
G02X-6170Y-79510I-52022J26901D01*
G02X-6410Y-79930I-11518J6303D01*
G02X-6570Y-80190I-6905J4070D01*
G02X-6600Y-80180I-14J9D01*
G03Y-80110I-803J35D01*
G01X-6650Y-79690D01*
G03X-6700Y-79190I-138573J-13605D01*
G03X-6760Y-78630I-242525J-25702D01*
G03X-6850Y-77870I-58635J-6558D01*
G03X-6920Y-77450I-6656J-893D01*
G03X-6980Y-77190I-2810J-512D01*
G03X-7060Y-77090I-152J-40D01*
G02X-7130Y-77040I247J420D01*
G02X-7290Y-76910I5993J7540D01*
G02X-7470Y-76750I6262J7225D01*
G02X-7660Y-76570I8630J9300D01*
G03X-7840Y-76400I-6695J-6908D01*
G03X-8010Y-76250I-3814J-4151D01*
G03X-8160Y-76130I-5508J-6732D01*
G03X-8200Y-76120I-35J-56D01*
G03X-8220Y-76130I-3J-19D01*
G01Y-76140D01*
G03X-8200Y-76170I82J33D01*
G03X-8170Y-76210I290J186D01*
G02X-8100Y-76350I-180J-178D01*
G02X-8120Y-76530I-359J-51D01*
G02X-8250Y-76790I-1270J472D01*
G02X-8560Y-77250I-13103J8496D01*
G02X-8980Y-77850I-21664J14717D01*
G02X-9240Y-78160I-2273J1643D01*
G02X-9450Y-78320I-656J643D01*
G02X-9650Y-78370I-198J368D01*
G02X-9990Y-78300I0J859D01*
G02X-10290Y-78110I377J928D01*
G02X-10500Y-77820I663J701D01*
G02X-10570Y-77500I673J315D01*
G02X-10530Y-77300I489J6D01*
G02X-10360Y-76970I4159J-1934D01*
G02X-10100Y-76540I6254J-3488D01*
G02X-9740Y-76000I17128J-11029D01*
G02X-9530Y-75710I7654J-5321D01*
G02X-9390Y-75560I890J-690D01*
G02X-9270Y-75480I289J-304D01*
G02X-9150Y-75460I109J-285D01*
G01X-8940D01*
X-9190Y-75200D01*
G03X-9300Y-75090I-2526J-2416D01*
G03X-9430Y-74970I-3756J-3939D01*
G03X-9560Y-74860I-3381J-3864D01*
G03X-9670Y-74770I-1233J-1395D01*
G01X-9890Y-74610D01*
X-9760Y-74820D01*
G37*
G36*
G01X-12980Y-72560D02*
G03X-13320Y-72800I805J-1501D01*
G03X-13580Y-73100I968J-1102D01*
G03X-13750Y-73470I1266J-806D01*
G03X-13820Y-73890I1790J-514D01*
G03X-13830Y-74150I3548J-267D01*
G03X-13810Y-74350I1497J49D01*
G03X-13770Y-74540I1236J161D01*
G03X-13700Y-74730I1697J517D01*
G03X-13520Y-75060I1943J846D01*
G03X-13260Y-75390I2513J1713D01*
G03X-12990Y-75660I2096J1826D01*
G03X-12740Y-75810I609J732D01*
G03X-12580Y-75860I310J711D01*
G03X-12470Y-75840I28J160D01*
G03X-12360Y-75750I-234J398D01*
G03X-12090Y-75460I-11300J10791D01*
G02X-11860Y-75210I6940J-6154D01*
G02X-11730Y-75100I583J-557D01*
G02X-11620Y-75060I141J-217D01*
G02X-11510Y-75070I32J-254D01*
G01X-11320Y-75120D01*
X-11470Y-74930D01*
G03X-11810Y-74520I-14498J-11676D01*
G03X-12020Y-74300I-1747J-1457D01*
G03X-12060Y-74310I-16J-19D01*
G03X-12050Y-74410I151J-35D01*
G02X-12010Y-74550I-248J-147D01*
G02X-12050Y-74690I-315J14D01*
G02X-12170Y-74880I-950J467D01*
G02X-12460Y-75220I-10054J8282D01*
G02X-12640Y-75420I-4988J4308D01*
G02X-12730Y-75480I-182J175D01*
G02X-12810I-40J116D01*
G02X-12950Y-75420I289J868D01*
G02X-13360Y-75020I512J935D01*
G02X-13520Y-74450I1028J596D01*
G02X-13390Y-73820I1492J21D01*
G02X-13010Y-73230I1899J-806D01*
G02X-12580Y-72870I1795J-1708D01*
G02X-12180Y-72720I516J-767D01*
G02X-11800Y-72780I83J-705D01*
G02X-11430Y-73040I-500J-1105D01*
G02X-11250Y-73280I-763J-760D01*
G02X-11150Y-73570I-1024J-515D01*
G02X-11120Y-73870I-1107J-262D01*
G02X-11180Y-74170I-1046J53D01*
G03X-11230Y-74360I1526J-503D01*
G03X-11200Y-74390I28J-2D01*
G03X-11100Y-74320I-63J196D01*
G03X-10900Y-74070I-6656J5530D01*
G03X-10780Y-73910I-3585J2813D01*
G03X-10730Y-73810I-379J252D01*
G03Y-73750I-76J30D01*
G03X-10770Y-73720I-48J-22D01*
G02X-10820Y-73690I30J106D01*
G02X-10900Y-73590I886J791D01*
G02X-10990Y-73470I1100J919D01*
G02X-11070Y-73330I1649J1035D01*
G03X-11450Y-72790I-2114J-1084D01*
G03X-11910Y-72470I-956J-884D01*
G03X-12430Y-72390I-423J-1022D01*
G03X-12980Y-72560I150J-1460D01*
G37*
G36*
G01X-14400Y-69240D02*
X-14360Y-69590D01*
X-15080Y-70260D01*
G02X-15810Y-70930I-86127J93107D01*
G02X-16040Y-71120I-1338J1386D01*
G02X-16190Y-71160I-131J191D01*
G02X-16330Y-71090I32J239D01*
G03X-16440Y-71020I-339J-412D01*
G03X-16470Y-71040I-10J-18D01*
G03X-16410Y-71180I512J136D01*
G03X-16230Y-71460I7641J4714D01*
G03X-16050Y-71720I5460J3587D01*
G03X-15930Y-71820I321J263D01*
G03X-15900Y-71800I8J20D01*
G03X-15960Y-71630I-941J-237D01*
G02X-15980Y-71490I261J109D01*
G02X-15930Y-71360I263J-27D01*
G02X-15770Y-71170I1178J-830D01*
G02X-15280Y-70710I34854J-36636D01*
G02X-14980Y-70430I31290J-33224D01*
G02X-14720Y-70200I15450J-17203D01*
G02X-14500Y-70000I91684J-100632D01*
G02X-14480I10J-7D01*
G02Y-70020I-16J-10D01*
G01X-14550Y-70470D01*
G02X-14630Y-70970I-61309J9553D01*
G02X-14740Y-71560I-118723J21830D01*
G03X-14840Y-72150I62041J-10819D01*
G03X-14920Y-72670I34519J-5577D01*
G03X-14990Y-73110I96736J-15615D01*
G03Y-73180I131J-35D01*
G03X-14950Y-73190I23J8D01*
G03X-14690Y-72970I-13663J16411D01*
G03X-14370Y-72710I-6660J8524D01*
G03X-14000Y-72370I-15092J16795D01*
G02X-13630Y-72030I43802J-47296D01*
G02X-13300Y-71730I26205J-28493D01*
G02X-13010Y-71480I44832J-51712D01*
G02X-12940Y-71430I274J-310D01*
G02X-12890Y-71410I65J-90D01*
G02X-12830Y-71420I-1J-192D01*
G02X-12770Y-71450I-80J-234D01*
G02X-12710Y-71500I-181J-279D01*
G03X-12600Y-71590I498J497D01*
G03X-12570Y-71570I11J15D01*
G03X-12640Y-71420I-634J-204D01*
G03X-12840Y-71140I-7430J-5096D01*
G03X-13000Y-70910I-12605J-8598D01*
G03X-13070Y-70840I-329J-259D01*
G03X-13100Y-70850I-14J-9D01*
G03X-13090Y-70930I278J-6D01*
G02X-13080Y-71070I-388J-98D01*
G02X-13130Y-71190I-309J58D01*
G02X-13240Y-71350I-794J428D01*
G02X-13500Y-71620I-8263J7697D01*
G02X-13690Y-71810I-8703J8513D01*
G02X-13900Y-72010I-10371J10679D01*
G02X-14100Y-72190I-9055J9860D01*
G02X-14240Y-72310I-2179J2400D01*
G01X-14520Y-72540D01*
X-14410Y-71970D01*
G03X-14360Y-71690I-39655J7226D01*
G03X-14290Y-71300I-147344J26648D01*
G03X-14210Y-70870I-162292J30416D01*
G03X-14140Y-70470I-125063J22092D01*
G01X-13970Y-69530D01*
X-14190Y-69200D01*
G03X-14270Y-69080I-8186J-5371D01*
G03X-14350Y-68980I-4121J-3215D01*
G03X-14410Y-68890I-12879J-8521D01*
G03X-14420Y-68880I-14J-4D01*
G03X-14430Y-68890I-3J-7D01*
G03X-14420Y-68990I8683J818D01*
G03X-14410Y-69100I3421J256D01*
G03X-14400Y-69240I6885J421D01*
G37*
G36*
G01X6350Y-32980D02*
G02X7080Y-32950I629J-6414D01*
G02X8460Y-32980I-897J-73035D01*
G02X9850Y-33050I-2664J-66741D01*
G02X10710Y-33130I-563J-10711D01*
G02X13140Y-33590I-3311J-24141D01*
G02X15480Y-34280I-5350J-22457D01*
G02X17700Y-35210I-7557J-21155D01*
G02X19770Y-36360I-9310J-19195D01*
G02X23430Y-39200I-12299J-19628D01*
G02X26440Y-42710I-15934J-16710D01*
G02X28680Y-46730I-18741J-13077D01*
G02X30040Y-51080I-20303J-8735D01*
G02X30300Y-52720I-18205J-3727D01*
G02X30450Y-54570I-28908J-3275D01*
G02X30480Y-56390I-28337J-1377D01*
G02X30370Y-57950I-15274J293D01*
G02X29600Y-61800I-24848J2968D01*
G02X28250Y-65350I-21179J6022D01*
G02X26320Y-68600I-19551J9412D01*
G02X23830Y-71530I-19063J13677D01*
G02X20930Y-73990I-16875J16954D01*
G02X17740Y-75900I-12845J17835D01*
G02X14270Y-77250I-9670J19720D01*
G02X10550Y-78030I-6737J22870D01*
G02X9220Y-78140I-1957J15567D01*
G02X7640Y-78160I-1165J29615D01*
G02X6060Y-78100I348J30009D01*
G02X4680Y-77950I1195J17421D01*
G02X1830Y-77360I3503J24099D01*
G02X-840Y-76450I5689J21065D01*
G02X-3360Y-75200I8310J19919D01*
G02X-5750Y-73620I11545J20061D01*
G02X-8750Y-70900I14121J18589D01*
G02X-11220Y-67720I16614J15454D01*
G02X-13070Y-64170I18904J12108D01*
G02X-14260Y-60360I20541J8506D01*
G02X-14500Y-59150I27499J6083D01*
G02X-14640Y-58120I14456J2489D01*
G02X-14710Y-57020I16573J1607D01*
G02X-14730Y-55610I44666J1339D01*
G02X-14720Y-54280I54342J256D01*
G02X-14660Y-53300I16619J-526D01*
G02X-14560Y-52390I13900J-1067D01*
G02X-14370Y-51300I28630J-4429D01*
G02X-12800Y-46330I21639J-4103D01*
G02X-10100Y-41820I20657J-9303D01*
G02X-6420Y-38050I18075J-13963D01*
G02X-1980Y-35220I14408J-17706D01*
G02X-10Y-34370I10633J-21935D01*
G02X1930Y-33740I7233J-18970D01*
G02X4000Y-33290I5705J-21259D01*
G02X6350Y-32980I5655J-33806D01*
G37*
G36*
G01X-9340Y-35390D02*
G03X-9360Y-35430I34J-42D01*
G03Y-35540I2380J-55D01*
G03Y-35690I2171J-75D01*
G03X-9350Y-35840I3503J158D01*
G02Y-36200I-1783J-180D01*
G02X-9430Y-36480I-831J86D01*
G02X-9590Y-36690I-565J264D01*
G02X-9820Y-36820I-452J531D01*
G02X-10080Y-36860I-259J816D01*
G02X-10310Y-36810I-7J520D01*
G02X-10510Y-36660I281J583D01*
G02X-10700Y-36400I1246J1110D01*
G03X-10860Y-36180I-1506J-927D01*
G03X-11030Y-36020I-758J-635D01*
G03X-11210Y-35920I-444J-587D01*
G03X-11400Y-35890I-178J-508D01*
G03X-11490Y-36000I1J-93D01*
G03X-11360Y-36380I1912J442D01*
G03X-11070Y-36900I3963J1869D01*
G03X-10640Y-37510I8470J5514D01*
G03X-10370Y-37800I1534J1157D01*
G03X-10130Y-37910I289J313D01*
G03X-9860Y-37850I34J482D01*
G03X-9490Y-37610I-1239J2316D01*
G03X-9340Y-37470I-1546J1807D01*
G03X-9190Y-37320I-1371J1521D01*
G03X-9090Y-37190I-1279J1087D01*
G03X-9040Y-37090I-242J184D01*
G03X-9030Y-36880I-558J132D01*
G03X-9120Y-36190I-38887J-4721D01*
G03X-9220Y-35480I-60392J-8144D01*
G03X-9280Y-35370I-207J-41D01*
G03X-9290Y-35360I-14J-4D01*
G03X-9310Y-35370I13J-51D01*
G03X-9330Y-35380I29J-82D01*
G01X-9340Y-35390D01*
G37*
G36*
G01X-8200Y-31620D02*
G03X-8470Y-31820I715J-1248D01*
G03X-8750Y-32110I2075J-2283D01*
G03X-9020Y-32470I2797J-2379D01*
G03X-9250Y-32870I3410J-2227D01*
G02X-9450Y-33240I-6662J3362D01*
G02X-9600Y-33430I-776J458D01*
G02X-9750Y-33520I-277J292D01*
G02X-9950Y-33560I-221J586D01*
G03X-10070Y-33600I-10J-171D01*
G03X-10090Y-33690I55J-59D01*
G03X-9980Y-33830I356J166D01*
G03X-9750Y-33990I1166J1431D01*
G03X-9570Y-34080I1204J2183D01*
G03X-9430Y-34140I381J696D01*
G03X-9300Y-34150I106J523D01*
G03X-9170Y-34140I21J574D01*
G03X-9080Y-34110I-199J747D01*
G03X-9000Y-34080I-131J470D01*
G03X-8950Y-34040I-177J273D01*
G03X-8940Y-34010I-33J28D01*
G02X-8900Y-33880I240J-3D01*
G02X-8760Y-33690I1680J-1091D01*
G02X-8610Y-33520I1681J-1332D01*
G02X-8510Y-33480I99J-102D01*
G02X-8360Y-33540I9J-196D01*
G02X-8220Y-33740I-744J-670D01*
G02X-8110Y-34010I-1153J-627D01*
G02X-8070Y-34290I-1149J-307D01*
G02Y-34490I-1978J-100D01*
G02X-8100Y-34630I-510J36D01*
G02X-8160Y-34740I-426J161D01*
G02X-8280Y-34880I-1098J820D01*
G02X-8370Y-34970I-1186J1096D01*
G02X-8460Y-35040I-797J932D01*
G02X-8540Y-35100I-657J793D01*
G02X-8590Y-35110I-44J88D01*
G03X-8660Y-35160I-1J-72D01*
G03X-8740Y-35420I3425J-1196D01*
G03X-8800Y-35680I3305J-900D01*
G03X-8770Y-35780I108J-22D01*
G03X-8740I15J27D01*
G03X-8660I40J1951D01*
G03X-8550Y-35760I-239J1627D01*
G03X-8440Y-35740I-448J2774D01*
G03X-8130Y-35630I-255J1210D01*
G03X-7760Y-35400I-1947J3544D01*
G03X-7350Y-35100I-2884J4372D01*
G03X-6940Y-34730I-4573J5480D01*
G02X-6730Y-34540I2069J-2076D01*
G02X-6500Y-34380I1724J-2233D01*
G02X-6270Y-34250I1494J-2375D01*
G02X-6020Y-34130I1365J-2523D01*
G03X-5740Y-34010I-1856J4717D01*
G03X-5580Y-33910I-451J899D01*
G03X-5460Y-33800I-329J479D01*
G03X-5370Y-33660I-601J485D01*
G03X-5300Y-33450I-815J388D01*
G03X-5320Y-33290I-287J45D01*
G03X-5420Y-33150I-296J-106D01*
G03X-5620Y-33030I-676J-900D01*
G03X-5880Y-32960I-305J-616D01*
G03X-6170Y-33000I-40J-780D01*
G03X-6470Y-33150I349J-1073D01*
G03X-6780Y-33410I1435J-2025D01*
G02X-6930Y-33550I-2589J2623D01*
G02X-7070Y-33670I-1393J1484D01*
G02X-7190Y-33750I-1171J1626D01*
G02X-7230I-20J39D01*
G02X-7260Y-33710I32J55D01*
G02X-7280Y-33620I785J222D01*
G02X-7300Y-33510I969J233D01*
G02Y-33390I1461J60D01*
G03X-7330Y-33140I-1247J-23D01*
G03X-7410Y-32890I-1224J-254D01*
G03X-7520Y-32690I-918J-375D01*
G03X-7650Y-32590I-242J-179D01*
G02X-7720Y-32560I110J352D01*
G02X-7740Y-32530I21J36D01*
G02X-7730Y-32480I93J7D01*
G02X-7660Y-32370I1912J-1139D01*
G03X-7550Y-32110I-532J379D01*
G03X-7560Y-31830I-660J117D01*
G03X-7680Y-31620I-457J-122D01*
G03X-7870Y-31540I-187J-178D01*
G03X-7950I-40J-496D01*
G03X-8040Y-31560I171J-981D01*
G03X-8120Y-31590I310J-948D01*
G03X-8200Y-31620I149J-519D01*
G37*
G36*
G01X-12900Y-33300D02*
G03X-12870Y-33490I545J-11D01*
G03X-12730Y-33810I4382J1727D01*
G03X-12560Y-34130I4132J1990D01*
G03X-12390Y-34390I2075J1171D01*
G02X-12310Y-34520I-1115J-776D01*
G02X-12220Y-34670I-2518J-1613D01*
G02X-12140Y-34840I-2732J-1389D01*
G02X-12080Y-34990I-1548J-706D01*
G03X-11970Y-35250I1738J582D01*
G03X-11820Y-35470I1216J668D01*
G03X-11680Y-35610I690J550D01*
G03X-11580Y-35620I57J70D01*
G03X-11550Y-35580I-38J60D01*
G03X-11520Y-35510I-452J235D01*
G03X-11510Y-35420I-653J118D01*
G03X-11500Y-35330I-864J142D01*
G02X-11490Y-35200I528J25D01*
G02X-11440Y-35080I564J-165D01*
G02X-11370Y-34960I681J-317D01*
G02X-11260Y-34830I1138J-851D01*
G01X-11010Y-34570D01*
X-11220Y-34260D01*
G03X-11320Y-34130I-878J-572D01*
G03X-11470Y-33980I-1729J-1579D01*
G03X-11640Y-33850I-1555J-1858D01*
G03X-11790Y-33740I-923J-1101D01*
G02X-11960Y-33650I4753J9183D01*
G02X-12140Y-33540I8545J14186D01*
G02X-12310Y-33440I7896J13618D01*
G02X-12440Y-33350I3268J4860D01*
G03X-12660Y-33220I-1690J-2609D01*
G03X-12800Y-33180I-166J-316D01*
G03X-12870Y-33210I-6J-82D01*
G03X-12900Y-33300I123J-91D01*
G37*
G36*
G01X3550Y-26680D02*
G03X3440Y-26750I1518J-2507D01*
G03X3270Y-26850I6166J-10677D01*
G03X3090Y-26960I7048J-11735D01*
G03X2920Y-27070I6034J-9511D01*
G02X2760Y-27170I-4267J6650D01*
G02X2620Y-27250I-2469J4159D01*
G02X2490Y-27320I-3334J6036D01*
G02X2460Y-27330I-38J63D01*
G03X2420Y-27340I-1J-81D01*
G03X2300Y-27400I2953J-6056D01*
G03X2160Y-27480I2314J-4212D01*
G03X2000Y-27580I4044J-6649D01*
G02X1790Y-27700I-1573J2509D01*
G02X1610Y-27770I-509J1042D01*
G02X1440Y-27810I-306J918D01*
G02X1240Y-27820I-176J1511D01*
G03X1070I-85J-2646D01*
G03X950Y-27840I27J-533D01*
G03X890Y-27870I51J-177D01*
G03X870Y-27920I41J-45D01*
G03X930Y-28100I286J-5D01*
G03X1170Y-28360I1904J1517D01*
G03X1480Y-28600I1834J2049D01*
G03X1810Y-28790I1293J1864D01*
G02X2150Y-28970I-1030J-2356D01*
G02X2300Y-29150I-228J-343D01*
G02X2340Y-29390I-443J-197D01*
G02X2270Y-29820I-3987J428D01*
G02X2200Y-30080I-3556J818D01*
G02X2140Y-30230I-651J173D01*
G02X2040Y-30350I-422J250D01*
G02X1890Y-30470I-897J967D01*
G02X1760Y-30540I-1016J1732D01*
G02X1610Y-30620I-1680J2969D01*
G02X1460Y-30690I-1469J2951D01*
G02X1330Y-30740I-557J1254D01*
G02X1060Y-30810I-775J2435D01*
G02X450Y-30930I-9116J44728D01*
G02X-180Y-31050I-11598J59174D01*
G02X-390Y-31070I-218J1179D01*
G03X-410Y-31080I-4J-18D01*
G03X-400Y-31130I171J8D01*
G03X-380Y-31210I416J61D01*
G03X-340Y-31290I935J417D01*
G03X-270Y-31410I564J248D01*
G03X-170Y-31490I298J270D01*
G03X-40Y-31550I302J484D01*
G03X150Y-31600I614J1947D01*
G03X600Y-31690I3995J18804D01*
G03X850Y-31720I359J1933D01*
G03X1020Y-31710I46J666D01*
G03X1150Y-31660I-57J342D01*
G02X1540Y-31450I1225J-1808D01*
G02X2170Y-31210I4109J-9840D01*
G02X2830Y-31010I3397J-10020D01*
G02X3330Y-30910I923J-3314D01*
G03X3770Y-30840I-583J5085D01*
G03X4270Y-30730I-1580J8372D01*
G03X4860Y-30560I-3266J12443D01*
G03X5590Y-30310I-10320J31326D01*
G03X5830Y-30190I-286J871D01*
G03X5920Y-30040I-145J189D01*
G03X5890Y-29840I-291J59D01*
G03X5720Y-29590I-1295J-698D01*
G03X5600Y-29470I-976J-856D01*
G03X5500Y-29400I-278J-290D01*
G03X5370Y-29370I-160J-398D01*
G03X5190Y-29360I-179J-1602D01*
G03X4930Y-29390I-8J-1075D01*
G03X4610Y-29480I737J-3233D01*
G03X4270Y-29620I1199J-3395D01*
G03X3980Y-29780I1041J-2229D01*
G02X3830Y-29860I-505J766D01*
G02X3590Y-29950I-1844J4553D01*
G02X3350Y-30030I-1849J5146D01*
G02X3230Y-30050I-134J434D01*
G02X3200Y-30030I-6J24D01*
G02X3220Y-29920I658J-63D01*
G02X3280Y-29760I1381J-427D01*
G02X3370Y-29550I4618J-1855D01*
G03X3510Y-29200I-3679J1675D01*
G03X3550Y-28960I-613J225D01*
G03X3500Y-28750I-512J-11D01*
G03X3340Y-28480I-1757J-859D01*
G02X3230Y-28250I607J431D01*
G02X3240Y-28060I314J79D01*
G02X3370Y-27850I537J-187D01*
G02X3670Y-27590I2328J-2383D01*
G03X4170Y-27190I-20522J26164D01*
G03X4420Y-26960I-1927J2345D01*
G03X4550Y-26800I-598J618D01*
G03X4560Y-26680I-118J70D01*
G03X4440Y-26580I-148J-56D01*
G03X4150Y-26560I-249J-1501D01*
G03X3820Y-26590I-9J-1735D01*
G03X3550Y-26680I173J-970D01*
G37*
G36*
G01X29670Y-68730D02*
G03X29510Y-69000I10088J-6160D01*
G03X29440Y-69140I821J-498D01*
G03X29460Y-69170I10J-15D01*
G03X29520Y-69130I-47J135D01*
G02X29560Y-69090I200J-160D01*
G02X29620Y-69060I213J-350D01*
G02X29680Y-69040I156J-367D01*
G02X29730I25J-204D01*
G02X29870Y-69090I-2J-226D01*
G02X30490Y-69570I-41625J-54406D01*
G02X31090Y-70060I-36119J-44840D01*
G02X31200Y-70200I-199J-269D01*
G02X31180Y-70230I-19J-9D01*
G02X30940Y-70260I-1750J13026D01*
G02X30650Y-70290I-862J6919D01*
G02X30300Y-70310I-994J14330D01*
G03X29210Y-70380I5187J-89290D01*
G03X28800Y-70440I169J-2586D01*
G03X28570Y-70550I138J-585D01*
G03X28380Y-70750I516J-680D01*
G03X28220Y-71000I10602J-6961D01*
G03X28190Y-71090I162J-104D01*
G03X28220Y-71110I21J-1D01*
G03X28350Y-71020I-732J1197D01*
G02X28430Y-70980I331J-561D01*
G02X28520Y-70940I396J-769D01*
G02X28600Y-70910I317J-723D01*
G02X28670Y-70900I75J-274D01*
G02X28860Y-70970I-6J-309D01*
G02X29690Y-71640I-50863J-63858D01*
G02X30520Y-72320I-62712J-77393D01*
G02X30590Y-72470I-121J-148D01*
G02X30580Y-72510I-156J18D01*
G02X30570Y-72570I-799J102D01*
G02X30540Y-72640I-875J333D01*
G02X30510Y-72700I-816J370D01*
G03X30480Y-72760I464J-269D01*
G03X30470Y-72800I193J-70D01*
G03Y-72840I69J-20D01*
G03X30490Y-72850I17J9D01*
G03X30560Y-72810I-5J90D01*
G03X30800Y-72430I-20756J13375D01*
G03X31020Y-72060I-14726J9007D01*
G03X31050Y-71940I-186J110D01*
G01Y-71930D01*
G03X31030Y-71940I-4J-18D01*
G03X31000Y-71960I70J-138D01*
G03X30970Y-72010I579J-381D01*
G02X30840Y-72110I-184J105D01*
G02X30660Y-72100I-75J272D01*
G02X30370Y-71920I596J1284D01*
G02X29850Y-71510I11503J15124D01*
G01X29080Y-70860D01*
X29700Y-70810D01*
G02X29990Y-70790I3339J-46309D01*
G02X30380Y-70760I10366J-132214D01*
G02X30790Y-70730I10515J-140884D01*
G02X31160Y-70710I5152J-91871D01*
G03X31480Y-70680I-832J10596D01*
G03X31740Y-70650I-462J5142D01*
G03X31960Y-70610I-1297J7760D01*
G03X31970Y-70590I-8J17D01*
G03X31950Y-70540I-100J-11D01*
G03X31660Y-70290I-50361J-58126D01*
G03X31330Y-70000I-18222J-20403D01*
G03X30940Y-69680I-31554J-38059D01*
G02X30340Y-69170I37613J44858D01*
G02X30090Y-68930I1861J2189D01*
G02X29970Y-68760I491J474D01*
G02X29940Y-68580I333J148D01*
G03Y-68490I-3259J45D01*
G03Y-68410I-1651J40D01*
G03Y-68340I-2833J35D01*
G01X29930D01*
X29920D01*
G03X29850Y-68450I20888J-13370D01*
G03X29760Y-68580I5822J-4127D01*
G03X29670Y-68730I11553J-7034D01*
G37*
G36*
G01X27750Y-71580D02*
G03X27500Y-71870I12505J-11033D01*
G03X27340Y-72090I3833J-2956D01*
G03X27310Y-72160I152J-107D01*
G03X27330Y-72170I11J-3D01*
G02X27370Y-72130I237J-197D01*
G02X27440Y-72100I222J-422D01*
G02X27500Y-72080I173J-419D01*
G02X27550Y-72070I67J-206D01*
G02X27690Y-72120I6J-204D01*
G02X28030Y-72430I-7814J-8911D01*
G02X28360Y-72750I-8484J-9079D01*
G02X28410Y-72880I-128J-124D01*
G02X28390Y-72950I-116J-5D01*
G02X28270Y-73110I-3867J2776D01*
G02X28080Y-73340I-5586J4421D01*
G02X27770Y-73700I-31235J26584D01*
G01X27540Y-73960D01*
X27160Y-73540D01*
G02X26930Y-73260I3509J3116D01*
G02X26810Y-73060I726J572D01*
G02X26790Y-72910I270J112D01*
G02X26860Y-72810I136J-21D01*
G03X26880Y-72780I-95J85D01*
G03X26910Y-72750I-122J152D01*
G03X26930Y-72710I-172J111D01*
G03Y-72670I-131J20D01*
G03X26890Y-72650I-26J-1D01*
G03X26590Y-72960I9339J-9338D01*
G03X26300Y-73280I5923J-5660D01*
G03X26140Y-73510I1097J-934D01*
G03X26100Y-73600I6060J-2747D01*
G03X26090Y-73620I16J-20D01*
G01X26100D01*
G03X26160Y-73570I-1562J1936D01*
G02X26210Y-73530I207J-207D01*
G02X26270Y-73500I238J-401D01*
G02X26340Y-73480I158J-420D01*
G02X26390Y-73470I70J-218D01*
G02X26510Y-73520I0J-168D01*
G02X26900Y-73910I-16852J-17242D01*
G02X27390Y-74430I-14182J-13855D01*
G02X28050Y-75170I-49828J-45106D01*
G02X28130Y-75270I-713J-652D01*
G02X28170Y-75360I-166J-128D01*
G02X28160Y-75450I-237J-19D01*
G02X28120Y-75590I-1380J319D01*
G03X28090Y-75710I610J-216D01*
G03X28110Y-75720I14J3D01*
G03X28200Y-75650I-228J387D01*
G03X28450Y-75380I-23516J22025D01*
G03X28740Y-75060I-11706J10900D01*
G03X28850Y-74890I-787J630D01*
G03X28830Y-74850I-20J15D01*
G03X28720Y-74890I33J-261D01*
G02X28580Y-74940I-169J252D01*
G02X28440Y-74900I-4J250D01*
G02X28270Y-74760I401J661D01*
G02X28000Y-74460I5881J5564D01*
G02X27790Y-74190I2017J1785D01*
G02X27760Y-74020I177J119D01*
G02X27860Y-73840I425J-118D01*
G02X28250Y-73390I14669J-12319D01*
G01X28570Y-73040D01*
X28960Y-73470D01*
G02X29200Y-73760I-2749J-2519D01*
G02X29320Y-73980I-667J-507D01*
G02X29330Y-74160I-341J-109D01*
G02X29250Y-74310I-278J52D01*
G03X29220Y-74350I252J-220D01*
G03X29210Y-74380I63J-38D01*
G01Y-74390D01*
G03X29230Y-74400I20J16D01*
G03X29320Y-74360I-4J131D01*
G03X29670Y-73950I-25273J21929D01*
G03X30010Y-73540I-22614J19099D01*
G03X30050Y-73420I-141J114D01*
G01X30040Y-73410D01*
G03X30020I-10J-21D01*
G03X29990Y-73420I16J-99D01*
G03X29950Y-73460I248J-288D01*
G02X29790Y-73520I-150J156D01*
G02X29610Y-73460I13J339D01*
G02X29340Y-73230I983J1427D01*
G02X28840Y-72680I19656J18372D01*
G02X28230Y-72000I77576J70204D01*
G02X28040Y-71760I1578J1444D01*
G02X27990Y-71600I282J176D01*
G02X28030Y-71440I289J13D01*
G03X28090Y-71290I-921J455D01*
G03X28060Y-71260I-20J10D01*
G03X27950Y-71340I159J-334D01*
G03X27750Y-71580I6106J-5292D01*
G37*
G36*
G01X25770Y-73920D02*
G02X25750Y-74000I-228J15D01*
G02X25700Y-74080I-267J111D01*
G02X25620Y-74150I-311J275D01*
G02X25510Y-74220I-539J725D01*
G03X25110Y-74490I911J-1780D01*
G03X24830Y-74820I930J-1073D01*
G03X24660Y-75230I1216J-744D01*
G03X24600Y-75710I1969J-490D01*
G03X24740Y-76450I1990J-7D01*
G03X25160Y-77070I1651J666D01*
G03X25740Y-77410I1014J1065D01*
G03X26370Y-77420I332J1064D01*
G03X26760Y-77220I-287J1041D01*
G03X27090Y-76860I-1049J1293D01*
G03X27320Y-76400I-1498J1036D01*
G03X27400Y-75910I-1524J500D01*
G03X27390Y-75650I-2225J45D01*
G03X27330Y-75630I-36J-7D01*
G03X27260Y-75740I97J-139D01*
G03X27230Y-76040I3813J-533D01*
G02X27200Y-76280I-3241J283D01*
G02X27160Y-76450I-986J142D01*
G02X27100Y-76580I-634J214D01*
G02X27010Y-76710I-664J363D01*
G02X26560Y-77030I-1059J1013D01*
G02X26100Y-77090I-321J666D01*
G02X25650Y-76860I185J918D01*
G02X25220Y-76350I1759J1919D01*
G02X24950Y-75820I2474J1594D01*
G02X24870Y-75340I1147J438D01*
G02X24980Y-74930I935J-31D01*
G02X25270Y-74560I1145J-599D01*
G02X25490Y-74410I825J-974D01*
G02X25700Y-74340I286J-507D01*
G02X25920Y-74350I84J-569D01*
G02X26170Y-74450I-325J-1175D01*
G03X26260Y-74490I931J1974D01*
G03X26340Y-74530I574J1049D01*
G03X26410Y-74550I411J1305D01*
G03X26430I10J17D01*
G03Y-74530I-13J10D01*
G03X26340Y-74410I-6587J-4847D01*
G03X26240Y-74280I-3245J-2393D01*
G03X26110Y-74130I-6016J-5082D01*
G03X25920Y-73920I-9195J-8128D01*
G03X25830Y-73850I-306J-301D01*
G03X25790I-20J-24D01*
G03X25770Y-73920I88J-63D01*
G37*
G36*
G01X22780Y-76620D02*
G03X22260Y-77040I34569J-43331D01*
G03X22020Y-77260I2461J-2925D01*
G03X22030Y-77290I19J-10D01*
G03X22100I35J72D01*
G02X22250I75J-150D01*
G02X22420Y-77410I-204J-470D01*
G02X22650Y-77730I-2101J-1752D01*
G02X23110Y-78470I-41542J-26337D01*
G02X23460Y-79070I-15799J-9618D01*
G02X23620Y-79430I-1815J-1022D01*
G02X23650Y-79670I-597J-196D01*
G02X23570Y-79850I-297J24D01*
G03X23580Y-79870I10J-8D01*
G03X23660Y-79840I-28J196D01*
G03X23960Y-79610I-4884J6681D01*
G03X24480Y-79200I-40072J51358D01*
G01X24780Y-78960D01*
G02X25040Y-78750I80208J-99039D01*
G01X25270Y-78570D01*
X25280Y-78560D01*
G03X25300Y-78520I-18J34D01*
G03X25210Y-78150I-29224J-6913D01*
G03X25110Y-77780I-28927J-7619D01*
G03X25070Y-77750I-39J-10D01*
G03X25050Y-77770I-1J-19D01*
G03X25040Y-77860I1602J-224D01*
G03X25030Y-77970I1483J-190D01*
G03Y-78110I2922J-70D01*
G02X25010Y-78330I-1638J38D01*
G02X24960Y-78470I-398J63D01*
G02X24860Y-78610I-580J308D01*
G02X24610Y-78850I-5221J5189D01*
G02X24450Y-78990I-4985J5536D01*
G02X24300Y-79120I-3008J3319D01*
G02X24170Y-79220I-3881J4911D01*
G02X24130Y-79230I-36J59D01*
G02X24060Y-79190I7J93D01*
G02X23760Y-78730I32367J21437D01*
G02X23470Y-78280I21629J14257D01*
G02X23430Y-78150I214J137D01*
G02X23480Y-78050I135J-5D01*
G02X23740Y-77830I3978J-4438D01*
G02X24010Y-77640I3030J-4018D01*
G02X24150Y-77600I136J-210D01*
G02X24200I25J-153D01*
G02X24260Y-77630I-134J-343D01*
G02X24320Y-77670I-196J-358D01*
G02X24370Y-77710I-174J-268D01*
G03X24410Y-77760I390J271D01*
G03X24450Y-77790I171J186D01*
G03X24480Y-77800I58J125D01*
G03X24500I10J18D01*
G03X24510Y-77720I-40J46D01*
G03X24280Y-77330I-20465J-11806D01*
G03X24030Y-76940I-17850J-11167D01*
G03X23960Y-76890I-83J-42D01*
G03X23940Y-76910I-1J-19D01*
G03Y-76940I75J-15D01*
G03X23950Y-76990I214J17D01*
G03X23980Y-77050I507J216D01*
G02X24010Y-77200I-288J-136D01*
G02X23970Y-77360I-324J-4D01*
G02X23840Y-77530I-625J344D01*
G02X23590Y-77740I-2358J2553D01*
G01X23290Y-77990D01*
X23020Y-77540D01*
G02X22910Y-77360I10572J6584D01*
G02X22820Y-77200I7484J4315D01*
G02X22740Y-77060I8430J4910D01*
G02X22720Y-77000I263J121D01*
G02X22750Y-76890I103J31D01*
G02X23090Y-76600I6906J-7752D01*
G02X23440Y-76330I5024J-6151D01*
G02X23600Y-76270I171J-213D01*
G02X23650Y-76280I-10J-178D01*
G02X23730Y-76310I-229J-732D01*
G02X23810Y-76350I-358J-817D01*
G02X23880Y-76390I-380J-746D01*
G03X23950Y-76440I652J839D01*
G03X24000Y-76460I178J374D01*
G03X24040Y-76470I60J154D01*
G03X24050Y-76460I2J8D01*
G03X24030Y-76370I-161J11D01*
G03X23890Y-76180I-3455J-2399D01*
G03X23740Y-75990I-4036J-3032D01*
G03X23670Y-75960I-67J-60D01*
G03X23620Y-75980I1J-75D01*
G03X23380Y-76160I23553J-31654D01*
G03X23100Y-76370I9439J-12876D01*
G03X22780Y-76620I17561J-22808D01*
G37*
G36*
G01X20690Y-78190D02*
G03X20340Y-78450I10064J-13913D01*
G03X20040Y-78680I5657J-7690D01*
G03X19800Y-78890I11307J-13165D01*
G03X19780Y-78940I49J-49D01*
G03X19790Y-78990I165J7D01*
G03X19830Y-79090I1756J644D01*
G03X19880Y-79200I1912J803D01*
G03X19930Y-79310I2330J993D01*
G01X20090Y-79580D01*
X20040Y-79290D01*
G02X20020Y-79120I1256J234D01*
G02X20040Y-79010I279J6D01*
G02X20110Y-78910I306J-140D01*
G02X20250Y-78770I1708J-1568D01*
G02X20350Y-78670I2399J-2299D01*
G02X20450Y-78600I1278J-1720D01*
G02X20530Y-78540I1447J-1846D01*
G02X20570Y-78530I34J-51D01*
G02X20630Y-78560I0J-74D01*
G02X20900Y-79020I-40081J-23835D01*
G02X21210Y-79580I-18526J-10621D01*
G02X21580Y-80290I-46334J-24597D01*
G02X21790Y-80710I-24135J-12330D01*
G02X21850Y-80870I-638J-331D01*
G02X21840Y-80970I-171J-33D01*
G02X21760Y-81090I-385J170D01*
G03X21710Y-81150I862J-769D01*
G03X21680Y-81200I344J-240D01*
G03X21660Y-81240I114J-82D01*
G03X21670Y-81250I10J0D01*
G03X21780Y-81220I7J189D01*
G03X22200Y-80920I-17655J25161D01*
G03X22620Y-80610I-24440J33551D01*
G03X22650Y-80540I-61J68D01*
G03X22640Y-80520I-14J5D01*
G03X22610I-15J-72D01*
G03X22560Y-80540I56J-213D01*
G03X22500Y-80570I235J-546D01*
G02X22430Y-80610I-306J455D01*
G02X22360Y-80620I-61J177D01*
G02X22310Y-80610I-2J118D01*
G02X22260Y-80580I45J131D01*
G02X22210Y-80520I228J241D01*
G02X22030Y-80200I50299J28504D01*
G02X21810Y-79810I27885J15987D01*
G02X21560Y-79380I46428J27281D01*
G01X20940Y-78260D01*
X21120Y-78120D01*
G02X21320Y-77990I771J-967D01*
G02X21500Y-77940I240J-514D01*
G02X21680Y-77950I66J-445D01*
G02X21850Y-78020I-134J-568D01*
G01X22050Y-78160D01*
X21870Y-77840D01*
G03X21800Y-77710I-3077J-1573D01*
G03X21730Y-77610I-1634J-1069D01*
G03X21670Y-77530I-2002J-1439D01*
G03X21650Y-77520I-22J-18D01*
G03X21620Y-77530I5J-64D01*
G03X21350Y-77720I66718J-95097D01*
G03X21040Y-77930I17164J-25671D01*
G03X20690Y-78190I33950J-46068D01*
G37*
G36*
G01X17890Y-79760D02*
G03X17540Y-79930I12379J-25931D01*
G03X17250Y-80080I6805J-13511D01*
G03X16990Y-80220I24640J-46071D01*
G03X16980Y-80240I18J-22D01*
G03X16990Y-80260I14J-6D01*
G03X17040Y-80270I99J365D01*
G03X17100Y-80280I118J525D01*
G03X17180I40J1065D01*
G02X17320Y-80330I-1J-224D01*
G02X17430Y-80450I-222J-314D01*
G02X17560Y-80720I-1910J-1086D01*
G02X17840Y-81450I-64240J-25059D01*
G02X18140Y-82250I-40410J-15610D01*
G02X18260Y-82670I-3074J-1105D01*
G02X18270Y-82900I-699J-146D01*
G02X18180Y-83010I-138J21D01*
G03X18140Y-83040I129J-213D01*
G03X18100Y-83070I110J-189D01*
G03X18070Y-83100I101J-131D01*
G03X18060Y-83130I50J-33D01*
G03X18090Y-83150I20J-2D01*
G03X18220Y-83100I-924J2595D01*
G03X18400Y-83030I-902J2586D01*
G03X18610Y-82920I-2663J5339D01*
G03X18970Y-82740I-7275J15001D01*
G03X19120Y-82640I-401J764D01*
G03X19110Y-82600I-11J19D01*
G03X18970Y-82620I6J-543D01*
G02X18890Y-82630I-86J363D01*
G02X18820Y-82620I7J298D01*
G02X18760Y-82600I45J235D01*
G02X18710Y-82560I60J126D01*
G02X18630Y-82410I484J354D01*
G02X18470Y-82000I18800J7573D01*
G02X18320Y-81580I21382J7873D01*
G02X18300Y-81430I425J133D01*
G02X18310Y-81390I50J9D01*
G02X18390Y-81330I612J-733D01*
G02X18490Y-81270I638J-950D01*
G02X18620Y-81210I831J-1630D01*
G01X18940Y-81060D01*
X19080Y-81240D01*
G03X19190Y-81350I747J637D01*
G03X19220Y-81340I12J15D01*
G03X19210Y-81230I-323J26D01*
G03X19100Y-80900I-15589J-5013D01*
G03X18990Y-80580I-7282J-2324D01*
G03X18910Y-80450I-371J-139D01*
G03X18860Y-80460I-22J-20D01*
G03X18840Y-80610I561J-151D01*
G02X18830Y-80750I-691J-21D01*
G02X18780Y-80840I-217J61D01*
G02X18690Y-80920I-266J209D01*
G02X18520Y-81020I-1246J1924D01*
G02X18400Y-81080I-1824J3497D01*
G02X18290Y-81130I-937J1916D01*
G02X18200Y-81160I-1034J2951D01*
G02X18180I-10J15D01*
G02X18130Y-81080I149J149D01*
G02X17950Y-80590I76716J28459D01*
G02X17760Y-80080I165699J62021D01*
G02X17770Y-80040I35J12D01*
G02X17790Y-80020I62J-42D01*
G02X17910Y-79970I10174J-24249D01*
G02X18050Y-79900I5300J-10425D01*
G02X18210Y-79820I9202J-18204D01*
G02X18490Y-79710I1069J-2309D01*
G02X18690Y-79680I183J-539D01*
G02X18840Y-79730I-16J-297D01*
G02X18960Y-79850I-205J-325D01*
G03X18980Y-79880I148J77D01*
G03X19010Y-79910I155J125D01*
G03X19040Y-79920I69J157D01*
G03X19070Y-79930I39J68D01*
G03X19090Y-79910I2J18D01*
G03X19080Y-79840I-462J-30D01*
G03X19060Y-79740I-807J-109D01*
G03X19010Y-79620I-1709J-642D01*
G03X18960Y-79500I-2851J-1118D01*
G03X18910Y-79400I-1513J-694D01*
G03X18860Y-79320I-1770J-1050D01*
G03X18840Y-79310I-19J-12D01*
G03X18810Y-79320I18J-105D01*
G01X18550Y-79450D01*
G03X18240Y-79590I19900J-44476D01*
G03X17890Y-79760I38969J-80675D01*
G37*
G36*
G01X15550Y-80740D02*
G02X16140Y-80700I367J-1044D01*
G02X16680Y-80970I-245J-1165D01*
G02X17080Y-81510I-996J-1156D01*
G02X17270Y-82230I-2033J-922D01*
G02X17260Y-82670I-2564J-162D01*
G02X17180Y-83050I-1638J146D01*
G02X17020Y-83380I-1344J448D01*
G02X16780Y-83660I-1192J779D01*
G02X16260Y-83950I-977J1141D01*
G02X15720Y-83990I-347J1022D01*
G02X15220Y-83760I208J1111D01*
G02X14820Y-83290I1072J1317D01*
G02X14650Y-82890I1391J827D01*
G02X14570Y-82390I2579J669D01*
G02X14580Y-81900I2535J193D01*
G02X14700Y-81520I1142J-152D01*
G02X14870Y-81250I1826J-961D01*
G02X15060Y-81030I1190J-835D01*
G02X15280Y-80870I901J-1008D01*
G02X15550Y-80740I792J-1300D01*
G37*
G36*
G01X12970Y-81580D02*
G03X12610Y-81670I5710J-23605D01*
G03X12510Y-81710I91J-374D01*
G03Y-81750I13J-20D01*
G03X12600Y-81800I216J282D01*
G02X12660Y-81840I-137J-271D01*
G02X12720Y-81890I-170J-265D01*
G02X12760Y-81950I-200J-176D01*
G02X12770Y-82010I-121J-51D01*
G02X12740Y-82220I-702J-7D01*
G02X12560Y-82750I-18386J5949D01*
G02X12350Y-83310I-46832J17243D01*
G02X12290Y-83330I-40J21D01*
G02X12230Y-83290I56J148D01*
G02X11810Y-82790I116455J98248D01*
G02X11390Y-82280I150265J124176D01*
G02X11370Y-82220I75J58D01*
G02X11380Y-82200I29J-2D01*
G02X11420Y-82150I1885J-1467D01*
G02X11480Y-82090I1273J-1213D01*
G02X11550Y-82020I2123J-2053D01*
G03X11620Y-81940I-1895J1729D01*
G03X11650Y-81900I-77J89D01*
G03X11640Y-81890I-11J-1D01*
G03X11590Y-81900I4J-149D01*
G02X11520Y-81920I-263J787D01*
G02X11360Y-81960I-2626J10166D01*
G02X11180Y-82000I-2510J10870D01*
G02X10990Y-82030I-2188J13243D01*
G03X10700Y-82100I689J-3490D01*
G03X10540Y-82180I161J-522D01*
G03Y-82240I14J-30D01*
G03X10660Y-82260I106J266D01*
G02X10760Y-82300I-1J-146D01*
G02X10940Y-82460I-2449J-2937D01*
G02X11170Y-82690I-3142J-3372D01*
G02X11440Y-82990I-8080J-7543D01*
G02X11820Y-83440I-17210J-14918D01*
G02X11990Y-83690I-1394J-1130D01*
G02X12080Y-83920I-880J-477D01*
G02X12160Y-84250I-3340J-984D01*
G02X12210Y-84580I-12363J-2042D01*
G02Y-84720I-561J-70D01*
G02X12170Y-84820I-194J19D01*
G02X12080Y-84920I-432J299D01*
G03X12020Y-84970I1162J-1456D01*
G03X11960Y-85020I709J-912D01*
G03X11920Y-85060I883J-923D01*
G01Y-85080D01*
G03X11930Y-85090I8J-2D01*
G03X12080Y-85070I-1366J10818D01*
G03X12250Y-85040I-761J4807D01*
G03X12460Y-84990I-2186J9647D01*
G03X12820Y-84910I-1853J9187D01*
G03X12970Y-84840I-128J469D01*
G03Y-84780I-15J30D01*
G03X12830Y-84740I-193J-411D01*
G02X12730Y-84700I27J214D01*
G02X12670Y-84620I137J165D01*
G02X12610Y-84470I634J341D01*
G02X12550Y-84160I8777J1860D01*
G01X12440Y-83600D01*
X12730Y-82750D01*
G02X12860Y-82390I8850J-2992D01*
G02X12990Y-82090I4471J-1759D01*
G02X13110Y-81860I3119J-1481D01*
G02X13210Y-81740I420J-248D01*
G03X13400Y-81560I-3841J4245D01*
G03X13390Y-81510I-26J21D01*
G03X13320Y-81500I-47J-81D01*
G03X12970Y-81580I3816J-17500D01*
G37*
G36*
G01X9350Y-82150D02*
G02X8990Y-82190I-6816J59702D01*
G02X8670Y-82230I-5545J43062D01*
G02X8390Y-82250I-3488J46861D01*
G02X8280Y-82260I-213J1737D01*
G03X8180Y-82280I5J-287D01*
G03X8130Y-82330I33J-83D01*
G03X8110Y-82430I270J-106D01*
G03Y-82670I6137J-120D01*
G03X8120Y-82930I21842J710D01*
G03X8130Y-82990I143J-7D01*
G03X8150I10J9D01*
G03X8210Y-82880I-1348J806D01*
G02X8330Y-82660I1707J-788D01*
G02X8450Y-82520I469J-280D01*
G02X8590Y-82440I263J-297D01*
G02X8770Y-82420I166J-671D01*
G02X8880I55J-3634D01*
G02X8960I40J-1932D01*
G02X9030Y-82430I-466J-3513D01*
G02X9040Y-82440I0J-10D01*
G02X9080Y-82660I-1071J-308D01*
G02X9160Y-83850I-312816J-21627D01*
G02X9240Y-85080I-640293J-42263D01*
G02X9220Y-85190I-274J-7D01*
G02X9190Y-85230I-136J71D01*
G02X9160Y-85270I-167J94D01*
G02X9120Y-85290I-102J154D01*
G02X9070Y-85300I-48J110D01*
G03X9030I-20J-177D01*
G03X8990Y-85320I79J-208D01*
G03X8950Y-85340I70J-191D01*
G03X8930Y-85370I71J-69D01*
G03X8950Y-85420I26J-19D01*
G03X9370Y-85400I-288J10462D01*
G03X9780Y-85350I-701J7457D01*
G03X9970Y-85290I-64J533D01*
G03X10030Y-85260I-270J615D01*
G03Y-85240I-11J10D01*
G03X10000Y-85230I-23J-20D01*
G03X9920Y-85220I-283J-1940D01*
G02X9850I-35J524D01*
G02X9790Y-85200I105J415D01*
G02X9740Y-85180I97J314D01*
G02X9710Y-85160I18J59D01*
G02X9690Y-85110I98J68D01*
G02X9660Y-84790I54724J5292D01*
G02X9620Y-84410I22657J2577D01*
G02X9590Y-83970I40230J2964D01*
G03X9550Y-83520I-65852J-5627D01*
G03X9510Y-83100I-50186J-4568D01*
G03X9480Y-82750I-50835J-4181D01*
G03X9460Y-82590I-2620J-246D01*
G01X9420Y-82340D01*
X9820D01*
G02X10060Y-82350I-64J-4429D01*
G02X10170Y-82380I-21J-293D01*
G02X10240Y-82440I-67J-149D01*
G02X10310Y-82570I-713J-468D01*
G03X10340Y-82660I1471J440D01*
G03X10380Y-82740I823J362D01*
G03X10420Y-82800I711J431D01*
G03X10440Y-82810I21J17D01*
G03X10480Y-82760I-3J43D01*
G03X10440Y-82440I-6561J-658D01*
G03X10380Y-82130I-6511J-1099D01*
G03X10320Y-82070I-74J-14D01*
G03X10260Y-82060I-64J-198D01*
G03X10000Y-82090I4296J-38373D01*
G03X9700Y-82110I1261J-21168D01*
G03X9350Y-82150I3875J-35458D01*
G37*
G36*
G01X6880Y-82310D02*
X7090Y-82420D01*
Y-83450D01*
G02X7070Y-84400I-42123J412D01*
G02X7020Y-84900I-4016J149D01*
G02X6940Y-85180I-1067J153D01*
G02X6800Y-85280I-162J79D01*
G03X6680Y-85330I30J-240D01*
G03X6690Y-85390I22J-27D01*
G03X6930Y-85440I306J867D01*
G03X7270Y-85450I289J4036D01*
G03X7570Y-85440I-436J17583D01*
G03X7690Y-85430I12J580D01*
G03X7700Y-85400I-5J18D01*
G03X7660Y-85360I-98J-58D01*
G02X7560Y-85270I100J212D01*
G02X7500Y-85120I334J221D01*
G02X7480Y-84830I2403J311D01*
G02Y-84010I97004J410D01*
G02X7490Y-83110I34675J65D01*
G02X7540Y-82660I2709J-73D01*
G02X7640Y-82420I590J-105D01*
G02X7810Y-82330I178J-131D01*
G03X7820Y-82300I1J16D01*
G03X7660Y-82260I-248J-653D01*
G03X7320Y-82210I-904J-4966D01*
G03X7010Y-82190I-352J-3036D01*
G01X6660D01*
X6880Y-82310D01*
G37*
G36*
G01X17260Y-25450D02*
G03X17160Y-25600I376J-359D01*
G03X17140Y-25770I359J-128D01*
G03X17180Y-25930I395J14D01*
G03X17300Y-26080I509J284D01*
G03X17490Y-26230I798J815D01*
G03X17660Y-26270I158J289D01*
G03X17850Y-26240I22J478D01*
G03X18140Y-26090I-1364J2993D01*
G01X18560Y-25860D01*
X18330Y-25810D01*
G02X18020Y-25740I2119J10107D01*
G02X17860Y-25680I317J1089D01*
G02X17730Y-25610I235J593D01*
G02X17590Y-25490I939J1237D01*
G03X17460Y-25380I-2290J-2574D01*
G03X17400Y-25350I-81J-88D01*
G03X17340Y-25370I-10J-71D01*
G03X17260Y-25450I608J-688D01*
G37*
G36*
G01X16820Y-32060D02*
G02X16810Y-32210I-979J-10D01*
G02X16770Y-32420I-3701J596D01*
G02X16720Y-32640I-4095J815D01*
G02X16650Y-32850I-3253J968D01*
G03X16590Y-33040I4602J-1558D01*
G03X16550Y-33200I2659J-750D01*
G03X16520Y-33340I3377J-797D01*
G03X16530Y-33380I42J-11D01*
G03X16630Y-33400I65J66D01*
G03X16930Y-33280I-1948J5304D01*
G03X17250Y-33120I-1560J3520D01*
G03X17500Y-32960I-929J1727D01*
G03X17660Y-32810I-635J837D01*
G03X17720Y-32680I-175J160D01*
G03X17690Y-32520I-356J16D01*
G03X17570Y-32250I-2985J-1165D01*
G03X17470Y-32120I-347J-163D01*
G03X17250Y-31950I-1940J-2283D01*
G03X17010Y-31800I-1761J-2551D01*
G03X16860Y-31770I-133J-273D01*
G03X16840Y-31780I-4J-17D01*
G03X16830Y-31850I1045J-185D01*
G03X16820Y-31950I1086J-159D01*
G03Y-32060I2127J-55D01*
G37*
G36*
G01X13890Y-25280D02*
G03X13850Y-25490I464J-197D01*
G03X13900Y-25900I5747J493D01*
G03X13970Y-26310I5483J725D01*
G03X14060Y-26530I623J127D01*
G03X14240Y-26690I370J235D01*
G03X14460Y-26700I123J270D01*
G03X14740Y-26540I-279J813D01*
G03X15150Y-26160I-4128J4865D01*
G03X15350Y-25960I-7088J7288D01*
G03X15500Y-25780I-3393J2980D01*
G03X15620Y-25640I-3833J3407D01*
G03X15610Y-25610I-8J14D01*
G03X15560I-25J-538D01*
G03X15440I-60J-15187D01*
G03X15290I-75J-13891D01*
G03X15130Y-25620I1131J-19386D01*
G02X14910I-110J2581D01*
G02X14760Y-25590I37J576D01*
G02X14630Y-25520I180J489D01*
G02X14460Y-25390I1055J1556D01*
G03X14260Y-25230I-1310J-1432D01*
G03X14090Y-25160I-261J-393D01*
G03X13970Y-25180I-32J-179D01*
G03X13890Y-25280I89J-153D01*
G37*
G36*
G01X16130Y-24080D02*
G03X16100Y-24140I113J-94D01*
G03X16070Y-24250I1010J-334D01*
G03X16050Y-24390I1272J-253D01*
G03X16040Y-24540I1545J-178D01*
G02X16000Y-24990I-2371J-16D01*
G02X15840Y-25670I-11407J2325D01*
G02X15640Y-26360I-11178J2866D01*
G02X15440Y-26850I-3539J1159D01*
G01X15220Y-27290D01*
X14560Y-27380D01*
G03X14270Y-27420I2152J-16672D01*
G03X13970Y-27470I3546J-22200D01*
G03X13690Y-27520I3472J-20251D01*
G03X13480Y-27560I982J-5729D01*
G02X13290Y-27590I-513J2632D01*
G02X13060Y-27620I-895J5961D01*
G02X12820Y-27640I-632J6133D01*
G02X12610I-105J3388D01*
G03X12440Y-27650I192J-4720D01*
G03X12290Y-27660I85J-2401D01*
G03X12170Y-27670I209J-3232D01*
G03X12150Y-27690I-1J-19D01*
G03X12190Y-27830I260J-1D01*
G03X12330Y-28020I1398J883D01*
G03X12510Y-28200I1294J1114D01*
G03X12680Y-28310I498J583D01*
G03X12870Y-28380I434J886D01*
G03X13020Y-28390I104J433D01*
G03X13240Y-28350I-118J1277D01*
G03X13740Y-28200I-8063J27785D01*
G02X14080Y-28100I2632J-8321D01*
G02X14470Y-28000I3597J-13218D01*
G02X14850Y-27920I2858J-12632D01*
G02X15150Y-27870I929J-4650D01*
G02X15720Y-27820I737J-5124D01*
G02X16400Y-27830I186J-10447D01*
G02X17050Y-27860I-425J-16258D01*
G02X17230Y-27950I-35J-294D01*
G02X17250Y-28010I-37J-46D01*
G02X17210Y-28090I-290J95D01*
G02X17120Y-28210I-733J456D01*
G02X16960Y-28370I-3016J2856D01*
G02X16640Y-28620I-1495J1584D01*
G02X16290Y-28810I-1136J1675D01*
G02X15880Y-28930I-892J2289D01*
G02X15380Y-29010I-994J4609D01*
G03X14920Y-29060I2025J-20775D01*
G03X14820Y-29110I27J-179D01*
G03Y-29190I41J-40D01*
G03X14990Y-29380I2231J1825D01*
G02X15180Y-29590I-2459J-2416D01*
G02X15250Y-29720I-244J-215D01*
G02X15220Y-29790I-66J-13D01*
G02X15110Y-29820I-110J188D01*
G03X15000Y-29860I-6J-156D01*
G03X14950Y-29960I109J-117D01*
G03X14980Y-30090I241J-13D01*
G03X15070Y-30210I317J144D01*
G02X15140Y-30300I-194J-223D01*
G02X15130Y-30370I-53J-28D01*
G02X15030Y-30430I-159J152D01*
G02X14800Y-30470I-613J2842D01*
G03X14680Y-30500I445J-2035D01*
G03X14580Y-30520I171J-1115D01*
G03X14500Y-30550I332J-1008D01*
G03X14480Y-30570I5J-25D01*
G03X14530Y-30710I221J0D01*
G03X14780Y-31010I6092J4822D01*
G03X15050Y-31300I4905J4296D01*
G03X15200Y-31400I293J276D01*
G02X15240Y-31430I-21J-70D01*
G02Y-31460I-41J-15D01*
G02X15220Y-31520I-152J17D01*
G02X15150Y-31600I-933J746D01*
G02X15060Y-31680I-363J318D01*
G02X14940Y-31730I-211J336D01*
G02X14790Y-31760I-219J703D01*
G02X14550Y-31770I-281J3858D01*
G03X14330I-110J-3863D01*
G03X14190Y-31790I46J-823D01*
G03X14090Y-31830I84J-355D01*
G03X14030Y-31890I79J-139D01*
G02X13990Y-31960I-324J139D01*
G02X13940Y-31980I-45J40D01*
G02X13880Y-31960I11J134D01*
G02X13750Y-31880I1402J2424D01*
G02X13660Y-31810I316J500D01*
G02X13560Y-31700I1092J1093D01*
G02X13460Y-31570I1264J1076D01*
G02X13390Y-31450I944J631D01*
G03X13260Y-31260I-919J-489D01*
G03X13140Y-31190I-139J-100D01*
G03X13030Y-31250I-5J-122D01*
G03X12960Y-31430I519J-305D01*
G03X12950Y-31790I782J-202D01*
G03X13110Y-32150I998J228D01*
G03X13390Y-32440I925J613D01*
G03X13760Y-32610I627J877D01*
G03X13990Y-32650I912J4562D01*
G03X14100I55J306D01*
G03X14190Y-32610I-30J188D01*
G03X14310Y-32500I-687J870D01*
G02X14380Y-32430I957J-887D01*
G02X14450Y-32370I663J-702D01*
G02X14510Y-32320I552J-601D01*
G02X14550Y-32310I37J-62D01*
G02X14600Y-32320I-1J-134D01*
G02X14750Y-32380I-3533J-9049D01*
G02X14940Y-32460I-2671J-6608D01*
G02X15140Y-32560I-4944J-10138D01*
G03X15560Y-32720I1728J3904D01*
G03X15750Y-32700I74J208D01*
G03X15860Y-32530I-154J220D01*
G03X15960Y-32040I-6384J1558D01*
G02X16060Y-31500I9171J-1419D01*
G02X16170Y-31160I1855J-412D01*
G02X16330Y-30880I1337J-578D01*
G02X16590Y-30550I3151J-2215D01*
G03X16860Y-30240I-4175J3909D01*
G03X16970Y-30030I-579J437D01*
G03X16930Y-29970I-40J17D01*
G03X16780Y-30030I48J-337D01*
G02X16600Y-30130I-928J1459D01*
G02X16550Y-30100I-16J29D01*
G02X16580Y-30000I144J11D01*
G02X16770Y-29790I3465J-2944D01*
G01X17030Y-29510D01*
X16730Y-29340D01*
G02X16610Y-29270I1210J2212D01*
G02X16520Y-29200I882J1227D01*
G02X16440Y-29140I892J1273D01*
G02X16430Y-29110I29J26D01*
G02X16450Y-29080I35J-2D01*
G02X16630Y-28990I4937J-9648D01*
G02X16850Y-28890I2493J-5193D01*
G02X17110Y-28770I4621J-9671D01*
G03X17390Y-28650I-2815J6955D01*
G03X17660Y-28520I-3063J6708D01*
G03X17890Y-28390I-3090J5736D01*
G03X18020Y-28300I-492J850D01*
G01X18250Y-28120D01*
X18020Y-27870D01*
G03X17790Y-27660I-1354J-1252D01*
G03X17510Y-27490I-1250J-1743D01*
G03X17250Y-27380I-846J-1637D01*
G03X17090I-80J-217D01*
G02X17050Y-27390I-82J242D01*
G02X17010I-20J110D01*
G02X16980Y-27380I1J53D01*
G02X16970Y-27360I20J23D01*
G02X17000Y-27330I34J-4D01*
G02X17320Y-27230I9286J-29152D01*
G02X17710Y-27130I3187J-11617D01*
G02X18160Y-27030I5260J-22608D01*
G03X18640Y-26920I-10642J47542D01*
G03X19090Y-26810I-9102J38211D01*
G03X19470Y-26710I-9411J36534D01*
G03X19650Y-26660I-606J2530D01*
G02X19780Y-26620I517J-1451D01*
G02X19940Y-26580I740J-2620D01*
G02X20100Y-26560I409J-2622D01*
G02X20230Y-26550I155J-1160D01*
G03X20350I60J2147D01*
G03X20480Y-26540I-158J2904D01*
G03X20600Y-26520I-377J2631D01*
G03X20690Y-26500I-127J785D01*
G03X20870Y-26360I-69J274D01*
G03X20920Y-26100I-444J220D01*
G03X20840Y-25820I-638J-31D01*
G03X20640Y-25620I-448J-248D01*
G03X20550Y-25590I-141J-273D01*
G03X20460Y-25600I-26J-173D01*
G03X20370Y-25650I120J-323D01*
G03X20230Y-25760I1401J-1927D01*
G02X19960Y-25950I-1236J1469D01*
G02X19650Y-26100I-1301J2293D01*
G02X19230Y-26270I-2107J4603D01*
G02X18570Y-26470I-7452J23404D01*
G03X18220Y-26570I6782J-24399D01*
G03X17820Y-26700I13642J-42656D01*
G03X17440Y-26830I13851J-41108D01*
G03X17130Y-26930I5429J-17361D01*
G02X16860Y-27020I-5157J15021D01*
G02X16590Y-27110I-4934J14353D01*
G02X16350Y-27180I-3933J13038D01*
G02X16210Y-27220I-567J1719D01*
G01X15950Y-27270D01*
X16220Y-26920D01*
G03X16340Y-26740I-1589J1189D01*
G03X16480Y-26500I-5259J3229D01*
G03X16620Y-26230I-5870J3215D01*
G03X16730Y-25970I-4301J1973D01*
G03X16870Y-25610I-8059J3341D01*
G03X16940Y-25390I-1200J503D01*
G03X16950Y-25160I-1090J163D01*
G03X16930Y-24840I-5049J-155D01*
G03X16890Y-24540I-6004J-648D01*
G03X16850Y-24370I-917J-126D01*
G03X16780Y-24240I-434J-150D01*
G03X16680Y-24140I-448J-348D01*
G03X16520Y-24040I-599J-780D01*
G03X16370Y-23990I-206J-368D01*
G03X16240Y-24010I-22J-289D01*
G03X16130Y-24080I105J-286D01*
G37*
G36*
G01X25800Y-35960D02*
G03X25660Y-36110I107J-240D01*
G03X25470Y-36620I7531J-3096D01*
G03X25320Y-37180I5968J-1899D01*
G03X25250Y-37650I2805J-658D01*
G03X25310Y-38070I1034J-67D01*
G03X25540Y-38330I442J159D01*
G03X25870Y-38350I189J386D01*
G03X26210Y-38140I-285J842D01*
G03X26480Y-37760I-925J943D01*
G03X26600Y-37320I-1116J541D01*
G03X26560Y-36820I-1527J129D01*
G03X26350Y-36280I-2630J-712D01*
G03X26210Y-36030I-3153J-1601D01*
G03X26110Y-35930I-252J-152D01*
G03X25990Y-35910I-87J-154D01*
G03X25800Y-35960I147J-944D01*
G37*
G36*
G01X27720Y-32010D02*
G02X27460Y-32240I-6708J7321D01*
G02X27170Y-32490I-9641J10891D01*
G02X26890Y-32720I-8734J10348D01*
G02X26680Y-32880I-2819J3482D01*
G01X26480Y-33020D01*
X26270Y-33160D01*
X26090Y-33300D01*
X25960Y-33390D01*
G02X25730Y-33500I-449J643D01*
G02X25550Y-33480I-65J233D01*
G02X25360Y-33320I312J563D01*
G02X25020Y-32900I7788J6652D01*
G03X24860Y-32700I-4285J-3264D01*
G03X24710Y-32530I-2984J-2482D01*
G03X24580Y-32390I-2798J-2468D01*
G03X24500Y-32350I-124J-148D01*
G03X24330I-85J-252D01*
G03X24230Y-32460I52J-148D01*
G03X24220Y-32710I585J-149D01*
G03X24320Y-33120I4075J777D01*
G03X24390Y-33310I1362J394D01*
G03X24480Y-33470I1075J499D01*
G03X24600Y-33620I1026J698D01*
G03X24750Y-33760I1253J1192D01*
G02X24870Y-33870I-2991J-3383D01*
G02X24970Y-33970I-1849J-1949D01*
G02X25050Y-34060I-2543J-2341D01*
G02X25070Y-34090I-26J-39D01*
G02X25000Y-34180I-96J2D01*
G02X24530Y-34330I-4389J12942D01*
G02X24060Y-34450I-1980J6773D01*
G02X23740Y-34490I-337J1399D01*
G03X23540Y-34500I-12J-1767D01*
G03X23400Y-34540I63J-487D01*
G03X23280Y-34610I188J-459D01*
G03X23140Y-34750I1209J-1349D01*
G03X22960Y-34960I1203J-1213D01*
G03X22900Y-35130I273J-192D01*
G03X22940Y-35310I374J-11D01*
G03X23080Y-35580I2158J948D01*
G03X23250Y-35810I1723J1096D01*
G03X23420Y-35950I492J424D01*
G03X23610Y-36020I296J510D01*
G03X23880Y-36050I301J1475D01*
G03X24240Y-35990I2J1099D01*
G03X24640Y-35800I-847J2299D01*
G03X25100Y-35500I-1811J3280D01*
G03X25610Y-35060I-5128J6459D01*
G02X25990Y-34730I14231J-16004D01*
G02X26180Y-34580I1025J-1103D01*
G02X26330Y-34520I240J-382D01*
G02X26480I75J-371D01*
G02X26860Y-34640I-441J-2058D01*
G02X27440Y-34890I-4590J-11447D01*
G02X28060Y-35200I-5386J-11548D01*
G02X28580Y-35510I-3730J-6847D01*
G03X28980Y-35740I3991J6478D01*
G03X29230Y-35840I467J804D01*
G03X29360Y-35810I30J165D01*
G03X29420Y-35700I-81J115D01*
G03X29350Y-35450I-442J11D01*
G03X29130Y-35210I-960J-659D01*
G03X28840Y-35020I-833J-955D01*
G03X28550Y-34960I-285J-647D01*
G02X28460Y-34940I25J323D01*
G02X28310Y-34890I594J2031D01*
G02X28150Y-34820I903J2281D01*
G02X27980Y-34730I1133J2346D01*
G03X27800Y-34630I-9728J-17299D01*
G03X27590Y-34510I-20791J-36140D01*
G03X27370Y-34390I-20215J-36799D01*
G03X27190Y-34290I-10420J-18545D01*
G02X27030Y-34200I1188J2299D01*
G02X26900Y-34100I927J1339D01*
G02X26800Y-34020I836J1148D01*
G02X26780Y-33970I47J48D01*
G02X26800Y-33910I79J7D01*
G02X26980Y-33750I5025J-5471D01*
G02X27200Y-33570I3575J-4145D01*
G02X27460Y-33370I5864J-7354D01*
G03X27750Y-33140I-3999J5341D01*
G03X28070Y-32870I-6503J8031D01*
G03X28350Y-32610I-6480J7260D01*
G03X28560Y-32390I-2456J2555D01*
G03X28830Y-32080I-12805J11425D01*
G03X28910Y-31940I-465J359D01*
G03X28920Y-31830I-157J70D01*
G03X28870Y-31700I-485J-112D01*
G03X28810Y-31610I-466J-245D01*
G03X28730Y-31540I-284J-244D01*
G03X28640Y-31500I-195J-317D01*
G03X28530Y-31480I-146J-493D01*
G03X28380Y-31490I-50J-374D01*
G03X28230Y-31570I215J-584D01*
G03X28030Y-31720I902J-1411D01*
G03X27720Y-32010I9285J-10236D01*
G37*
G36*
G01X35020Y-52980D02*
G02Y-53060I-1313J-40D01*
G02X35010Y-53210I-12561J762D01*
G02X35000Y-53380I-13769J725D01*
G02X34980Y-53550I-15357J1721D01*
G03X34960Y-53770I9227J-950D01*
G03Y-53860I414J-45D01*
G03X34990Y-53880I19J-3D01*
G03X35020Y-53840I-47J66D01*
G02X35060Y-53790I304J-202D01*
G02X35110Y-53750I254J-266D01*
G02X35160Y-53720I179J-241D01*
G02X35210Y-53710I44J-89D01*
G02X35330Y-53760I-2J-175D01*
G02X35760Y-54170I-21136J-22598D01*
G02X36190Y-54600I-30238J-30668D01*
G02Y-54670I-36J-35D01*
G02X36020Y-54790I-483J503D01*
G02X35540Y-55010I-8445J17792D01*
G02X35030Y-55230I-18121J41307D01*
G02X34940Y-55220I-36J84D01*
G02X34910Y-55190I43J73D01*
G02X34890Y-55140I284J143D01*
G02X34870Y-55080I368J156D01*
G02Y-55010I433J35D01*
G03X34830Y-54960I-57J-5D01*
G03X34790Y-54970I-15J-26D01*
G03X34730Y-55270I2228J-602D01*
G03X34680Y-55650I5924J-973D01*
G03X34660Y-55960I18860J-1372D01*
G03Y-56090I761J-65D01*
G03X34690Y-56100I19J6D01*
G03X34720Y-56060I-45J65D01*
G02X34930Y-55850I465J-255D01*
G02X35600Y-55480I7618J-13002D01*
G02X36290Y-55150I6359J-12409D01*
G02X36620Y-55100I265J-633D01*
G02X36730Y-55110I-83J-1526D01*
G02X36870Y-55130I-509J-4064D01*
G02X37020Y-55160I-772J-4248D01*
G02X37140Y-55190I-601J-2658D01*
G02X37300Y-55240I-407J-1584D01*
G02X37380Y-55300I-100J-217D01*
G02X37430Y-55370I-97J-122D01*
G02X37440Y-55480I-483J-99D01*
G03X37470Y-55540I81J3D01*
G03X37510Y-55530I17J18D01*
G03X37570Y-55260I-1911J566D01*
G03X37620Y-54880I-7183J1138D01*
G03X37650Y-54610I-16583J1979D01*
G03X37640Y-54500I-502J10D01*
G03X37620Y-54490I-14J-3D01*
G03X37580Y-54540I112J-131D01*
G02X37480Y-54660I-269J122D01*
G02X37330Y-54710I-182J296D01*
G02X37110I-110J795D01*
G02X36780Y-54650I590J4181D01*
G02X36430Y-54470I213J844D01*
G02X35880Y-53990I5744J7137D01*
G02X35370Y-53460I6667J6926D01*
G02X35200Y-53140I495J468D01*
G03X35160Y-52980I-1038J-175D01*
G03X35100Y-52890I-218J-80D01*
G03X35050Y-52900I-21J-25D01*
G03X35020Y-52980I137J-97D01*
G37*
G36*
G01X35650Y-57020D02*
G02X35610Y-57210I-39768J8273D01*
G02X35580Y-57390I-36223J5945D01*
G02X35540Y-57550I-32555J8054D01*
G02X35520Y-57640I-3591J751D01*
G03X35500Y-57730I2548J-613D01*
G03X35510Y-57740I8J-2D01*
G03X35530Y-57730I-6J37D01*
G03X35620Y-57620I-8221J6818D01*
G02X35720Y-57520I566J-466D01*
G02X35810Y-57490I91J-122D01*
G02X35930I60J-386D01*
G02X36230Y-57570I-2788J-11057D01*
G02X36420Y-57620I-1129J-4674D01*
G02X36590Y-57680I-1166J-3575D01*
G02X36730Y-57730I-1114J-3340D01*
G02X36790Y-57770I-105J-223D01*
G02X36900Y-58000I-176J-226D01*
G02X36840Y-58400I-1601J36D01*
G02X36660Y-58810I-1777J536D01*
G02X36410Y-59090I-756J423D01*
G02X35760Y-59300I-667J954D01*
G02X35030Y-59140I-31J1603D01*
G02X34460Y-58660I686J1393D01*
G02X34250Y-58030I860J637D01*
G02X34320Y-57620I1233J0D01*
G02X34520Y-57250I1207J-413D01*
G02X34810Y-56990I866J-675D01*
G02X35140Y-56890I357J-582D01*
G03X35250I55J10360D01*
G03X35260Y-56880I1J9D01*
G03X35250Y-56870I-12J-2D01*
G03X35140Y-56830I-4880J-13249D01*
G03X35060Y-56800I-308J-699D01*
G03X34930Y-56760I-1227J-3757D01*
G03X34780Y-56730I-948J-4350D01*
G03X34640Y-56700I-925J-3973D01*
G03X34440Y-56670I-1340J-8254D01*
G03X34370Y-56680I-9J-189D01*
G03X34350Y-56700I-1J-19D01*
G03X34390Y-56760I194J86D01*
G02X34420Y-56840I-153J-103D01*
G02X34430Y-56940I-236J-74D01*
G02X34390Y-57070I-670J135D01*
G02X34290Y-57300I-4974J2026D01*
G03X34150Y-57690I1849J-884D01*
G03X34100Y-58110I2068J-459D01*
G03X34120Y-58520I1989J-108D01*
G03X34240Y-58890I1503J283D01*
G03X34420Y-59180I1195J541D01*
G03X34710Y-59480I2001J1645D01*
G03X35030Y-59720I1640J1853D01*
G03X35310Y-59820I407J698D01*
G03X35760Y-59830I252J1228D01*
G03X36200Y-59670I-228J1313D01*
G03X36570Y-59360I-734J1252D01*
G03X36830Y-58930I-1320J1092D01*
G03X36940Y-58590I-1411J644D01*
G03X37010Y-58080I-6018J1086D01*
G03X37050Y-57580I-7770J873D01*
G03X36990Y-57390I-326J2D01*
G03X36940Y-57340I-125J-75D01*
G03X36780Y-57260I-1547J-2894D01*
G03X36590Y-57190I-1249J-3096D01*
G03X36380Y-57110I-1802J-4414D01*
G02X36100Y-57010I2077J6256D01*
G02X35940Y-56930I309J818D01*
G02X35850Y-56850I182J295D01*
G02X35800Y-56740I235J173D01*
G03X35770Y-56680I-198J-62D01*
G03X35740I-15J-7D01*
G03X35710Y-56770I325J-158D01*
G03X35650Y-57020I11861J-2979D01*
G37*
G36*
G01X34410Y-60100D02*
G02X34660Y-60120I49J-963D01*
G02X34930Y-60210I-400J-1650D01*
G02X35640Y-60780I-617J-1496D01*
G02X35950Y-61660I-1477J-1015D01*
G02X35770Y-62550I-1684J-123D01*
G02X35160Y-63170I-1260J630D01*
G02X34760Y-63280I-449J849D01*
G02X34280Y-63230I-62J1735D01*
G02X33810Y-63040I449J1788D01*
G02X33450Y-62750I625J1144D01*
G02X33130Y-62100I1200J994D01*
G02X33110Y-61350I1840J424D01*
G02X33380Y-60670I1724J-291D01*
G02X33880Y-60240I1010J-669D01*
G02X34160Y-60140I822J-1859D01*
G02X34410Y-60100I284J-971D01*
G37*
G36*
G01X34560Y-64080D02*
G02X34670Y-64300I-1084J-679D01*
G02X34700Y-64510I-555J-186D01*
G02X34670Y-64740I-847J-6D01*
G02X34550Y-65080I-3967J1209D01*
G02X34370Y-65500I-4845J1828D01*
G02X34230Y-65600I-169J89D01*
G02X34020Y-65570I-58J346D01*
G02X33400Y-65260I10174J21123D01*
G02X32500Y-64790I41422J80416D01*
G02X32220Y-64610I823J1588D01*
G02X32110Y-64450I189J248D01*
G02Y-64230I485J110D01*
G03X32130Y-64020I-2247J320D01*
G03X32110Y-64010I-13J-2D01*
G03X32030Y-64160I667J-452D01*
G03X31840Y-64620I41192J-17284D01*
G03X31690Y-65020I23546J-9058D01*
G03X31620Y-65240I2140J-802D01*
G03X31640Y-65250I13J0D01*
G03X31690Y-65200I-65J115D01*
G02X31830Y-65100I185J-111D01*
G02X32050Y-65110I89J-464D01*
G02X32410Y-65250I-561J-1976D01*
G02X33080Y-65600I-10784J-21459D01*
G02X33670Y-65930I-20017J-36481D01*
G02X33910Y-66090I-982J-1734D01*
G02X34030Y-66220I-306J-403D01*
G02X34090Y-66390I-376J-228D01*
G03X34140Y-66440I67J17D01*
G03X34200Y-66420I18J45D01*
G03X34310Y-66190I-1768J987D01*
G03X34580Y-65540I-71379J30031D01*
G01X35030Y-64430D01*
X34770Y-64130D01*
G03X34560Y-63890I-6774J-5715D01*
G03X34470Y-63840I-133J-134D01*
G03X34450Y-63870I-1J-21D01*
G03X34560Y-64080I2800J1333D01*
G37*
G36*
G01X31480Y-66090D02*
G02X31910Y-66030I353J-955D01*
G02X32370Y-66150I-133J-1451D01*
G02X32800Y-66410I-646J-1554D01*
G02X33140Y-66790I-1174J-1392D01*
G02X33250Y-66990I-1632J-1028D01*
G02X33310Y-67170I-699J-333D01*
G02X33340Y-67370I-1123J-271D01*
G02X33350Y-67710I-7166J-381D01*
G02X33340Y-68050I-7163J41D01*
G02X33310Y-68260I-1157J58D01*
G02X33250Y-68430I-756J171D01*
G02X33140Y-68630I-1732J822D01*
G02X32760Y-69020I-1247J835D01*
G02X32300Y-69230I-721J970D01*
G02X31790Y-69220I-232J1189D01*
G02X31290Y-69010I326J1478D01*
G02X30770Y-68470I938J1424D01*
G02X30530Y-67750I1507J902D01*
G02X30610Y-67020I1675J186D01*
G02X31000Y-66410I1425J-481D01*
G02X31110Y-66320I1037J-1155D01*
G02X31250Y-66220I1359J-1754D01*
G02X31380Y-66140I1141J-1708D01*
G02X31480Y-66090I372J-620D01*
G37*
G36*
G01X31040Y-41940D02*
G03X30740Y-42170I2038J-2969D01*
G03X30560Y-42360I576J-726D01*
G03X30470Y-42580I549J-353D01*
G03X30430Y-42850I1129J-305D01*
G03X30470Y-43090I883J24D01*
G03X30570Y-43220I191J43D01*
G03X30770Y-43240I134J329D01*
G03X31140Y-43170I-454J3413D01*
G02X31920Y-43020I1573J-6076D01*
G02X32590Y-43010I380J-3037D01*
G02X33320Y-43150I-415J-4138D01*
G02X34360Y-43480I-4841J-17059D01*
G02X34910Y-43690I-2973J-8612D01*
G02X35230Y-43870I-630J-1494D01*
G02X35460Y-44100I-612J-842D01*
G02X35660Y-44430I-1728J-1273D01*
G02X35750Y-44720I-1163J-520D01*
G02X35790Y-45020I-1319J-328D01*
G02X35750Y-45300I-1158J23D01*
G02X35640Y-45510I-523J140D01*
G02X35480Y-45660I-598J477D01*
G02X35260Y-45760I-539J894D01*
G02X35040Y-45820I-376J947D01*
G02X34820Y-45810I-80J672D01*
G02X34530Y-45700I170J885D01*
G02X34170Y-45450I1601J2690D01*
G02X33860Y-45170I2061J2594D01*
G02X33780Y-44970I204J198D01*
G03X33750Y-44670I-1513J0D01*
G03X33660Y-44410I-1093J-233D01*
G03X33510Y-44190I-899J-452D01*
G03X33310Y-44010I-760J-643D01*
G03X33090Y-43890I-773J-1155D01*
G03X32900Y-43850I-189J-429D01*
G03X32670Y-43890I9J-732D01*
G03X32320Y-44030I1850J-5133D01*
G03X32180Y-44090I763J-1973D01*
G03X32120Y-44140I84J-162D01*
G03X32110Y-44190I45J-35D01*
G03X32140Y-44250I140J32D01*
G03X32190Y-44290I163J152D01*
G03X32270Y-44330I363J626D01*
G03X32360Y-44370I379J732D01*
G03X32450Y-44400I267J650D01*
G02X32550Y-44430I-104J-529D01*
G02X32670Y-44490I-555J-1260D01*
G02X32790Y-44560I-682J-1306D01*
G02X32900Y-44640I-524J-837D01*
G02X33010Y-44740I-1212J-1444D01*
G02X33060Y-44820I-172J-163D01*
G02X33070Y-44890I-107J-51D01*
G02X33030Y-44970I-258J79D01*
G02X32960Y-45040I-176J106D01*
G02X32850Y-45090I-250J404D01*
G02X32680Y-45120I-271J1037D01*
G02X32420Y-45150I-730J5182D01*
G03X32100Y-45180I408J-6068D01*
G03X31930Y-45230I81J-591D01*
G03X31790Y-45320I190J-449D01*
G03X31600Y-45520I2252J-2330D01*
G02X31380Y-45740I-1752J1532D01*
G02X31240Y-45770I-98J116D01*
G02X31100Y-45670I64J238D01*
G02X30880Y-45310I5524J3623D01*
G03X30660Y-44960I-3419J-1905D01*
G03X30390Y-44620I-3671J-2638D01*
G03X30130Y-44350I-3734J-3336D01*
G03X29990Y-44290I-143J-139D01*
G03X29890Y-44420I3J-106D01*
G03X30010Y-44850I2553J481D01*
G03X30250Y-45360I3371J1275D01*
G03X30550Y-45790I2329J1306D01*
G02X30730Y-46030I-2062J-1734D01*
G02X30810Y-46200I-442J-312D01*
G02X30800Y-46350I-238J-59D01*
G02X30710Y-46470I-273J111D01*
G02X30540Y-46510I-126J156D01*
G02X30290Y-46410I176J802D01*
G02X29990Y-46170I954J1500D01*
G02X29650Y-45810I3457J3606D01*
G03X29490Y-45620I-7956J-6537D01*
G03X29340Y-45460I-4346J-3924D01*
G03X29210Y-45320I-7471J-6807D01*
G03X29170Y-45310I-32J-42D01*
G03X29110Y-45370I-2J-58D01*
G03Y-45710I5153J-170D01*
G03X29150Y-46070I3659J224D01*
G03X29220Y-46350I1524J232D01*
G02X29270Y-46490I-4610J-1726D01*
G02X29310Y-46640I-6649J-1853D01*
G02X29360Y-46780I-5958J-2207D01*
G02X29380Y-46880I-1918J-436D01*
G03X29420Y-46980I360J86D01*
G03X29480Y-47080I614J301D01*
G03X29570Y-47180I623J470D01*
G03X29680Y-47260I504J577D01*
G03X29940Y-47360I416J693D01*
G03X30230Y-47370I174J835D01*
G03X30540Y-47290I-133J1156D01*
G03X30890Y-47100I-989J2239D01*
G02X31040Y-47010I2563J-4101D01*
G02X31180Y-46930I1694J-2802D01*
G02X31300Y-46870I1632J-3113D01*
G02X31350Y-46860I47J-105D01*
G02X31420Y-46910I-9J-87D01*
G02X31500Y-47070I-1071J-635D01*
G02X31580Y-47310I-1705J-702D01*
G02X31640Y-47600I-3541J-884D01*
G03X31750Y-47940I1294J231D01*
G03X31930Y-48140I404J182D01*
G03X32150Y-48170I146J246D01*
G03X32380Y-48030I-158J519D01*
G03X32520Y-47730I-344J343D01*
G03X32490Y-47260I-1643J131D01*
G03X32330Y-46790I-1792J-348D01*
G03X32060Y-46480I-791J-416D01*
G02X31900Y-46330I497J691D01*
G02X31840Y-46170I219J173D01*
G02X31890Y-46020I250J0D01*
G02X32030Y-45860I573J-360D01*
G02X32160Y-45780I559J-762D01*
G02X32260Y-45750I118J-213D01*
G02X32390Y-45760I29J-478D01*
G02X32660Y-45820I-1446J-7143D01*
G03X32940Y-45890I1851J6808D01*
G03X33070Y-45900I101J465D01*
G03X33180Y-45870I-13J265D01*
G03X33320Y-45780I-570J1040D01*
G01X33540Y-45620D01*
X33590Y-45780D01*
G03X33700Y-46000I680J202D01*
G03X33940Y-46270I2179J1695D01*
G03X34220Y-46510I1996J2046D01*
G03X34480Y-46670I822J1045D01*
G03X34680Y-46750I1072J2389D01*
G03X34810Y-46770I122J361D01*
G03X34950Y-46750I-2J513D01*
G03X35220Y-46660I-1972J6367D01*
G03X35560Y-46520I-807J2443D01*
G03X35780Y-46360I-375J746D01*
G03X35960Y-46110I-727J713D01*
G03X36140Y-45710I-4265J2160D01*
G03X36250Y-45430I-4894J2084D01*
G03X36290Y-45230I-1026J309D01*
G03X36300Y-45050I-866J138D01*
G03X36270Y-44800I-2778J-207D01*
G03X36240Y-44630I-3673J-561D01*
G03X36200Y-44460I-3579J-752D01*
G03X36160Y-44310I-3131J-755D01*
G03X36120Y-44220I-477J-158D01*
G02X36030Y-44040I4224J2225D01*
G02X36040Y-44010I21J10D01*
G02X36090Y-44030I13J-41D01*
G02X36200Y-44200I-4540J-3058D01*
G03X36450Y-44480I1018J658D01*
G03X36910Y-44840I4754J5600D01*
G03X37390Y-45160I5054J7061D01*
G03X37640Y-45230I250J410D01*
G03X37800Y-45190I-4J358D01*
G03X37970Y-45080I-320J681D01*
G03X38120Y-44910I-612J691D01*
G03X38220Y-44710I-804J527D01*
G03X38250Y-44420I-563J205D01*
G03X38160Y-44070I-1523J-205D01*
G03X38010Y-43770I-1278J-452D01*
G03X37820Y-43670I-186J-123D01*
G02X37690Y-43620I1J197D01*
G02X37210Y-43180I24198J26880D01*
G02X36760Y-42750I11887J12890D01*
G02X36560Y-42510I968J1010D01*
G03X36500Y-42420I-1467J-913D01*
G03X36440Y-42340I-908J-618D01*
G03X36380Y-42280I-745J-685D01*
G03X36350Y-42270I-27J-32D01*
G03X36290Y-42310I7J-76D01*
G03X36170Y-42550I4267J-2283D01*
G03X36060Y-42800I2916J-1432D01*
G03X36040Y-42950I422J-133D01*
G03X36080Y-43100I259J-11D01*
G03X36250Y-43300I1316J947D01*
G03X36440Y-43470I1176J1123D01*
G03X36590Y-43520I151J202D01*
G02X36660Y-43530I11J-176D01*
G02X36740Y-43570I-220J-539D01*
G02X36820Y-43620I-323J-605D01*
G02X36890Y-43690I-407J-477D01*
G02X36970Y-43780I-1064J-1027D01*
G02X37000Y-43850I-113J-90D01*
G02X36990Y-43900I-77J-11D01*
G02X36940Y-43970I-287J152D01*
G02X36870Y-44010I-108J107D01*
G02X36780Y-44000I-28J159D01*
G02X36650Y-43940I185J572D01*
G02X36420Y-43780I4319J6453D01*
G03X35970Y-43480I-3869J-5316D01*
G03X35300Y-43090I-13650J-22680D01*
G03X34640Y-42730I-14258J-25354D01*
G03X34270Y-42560I-1411J-2583D01*
G02X34170Y-42520I426J1211D01*
G02X34090Y-42480I309J718D01*
G02X34030Y-42440I318J542D01*
G02X34010Y-42410I17J33D01*
G03X34000Y-42390I-35J-5D01*
G03X33980Y-42370I-67J-47D01*
G03X33940Y-42350I-77J-104D01*
G03X33900I-20J-197D01*
G02X33830Y-42340I-2J238D01*
G02X33650Y-42280I2391J7472D01*
G02X33440Y-42200I2402J6620D01*
G02X33210Y-42120I3248J9707D01*
G03X32960Y-42030I-1519J-3827D01*
G03X32710Y-41950I-1479J-4190D01*
G03X32480Y-41900I-944J-3789D01*
G03X32320Y-41880I-178J-773D01*
G02X32200Y-41870I19J959D01*
G02X32060Y-41850I95J1167D01*
G02X31950Y-41810I296J985D01*
G02X31870Y-41770I103J305D01*
G03X31710Y-41680I-368J-467D01*
G03X31550Y-41670I-97J-269D01*
G03X31360Y-41740I125J-633D01*
G03X31040Y-41940I3189J-5458D01*
G37*
G36*
G01X35450Y-40360D02*
G03X35030Y-40580I2799J-5855D01*
G03X34810Y-40760I493J-827D01*
G03X34680Y-40960I428J-420D01*
G03X34600Y-41260I1425J-541D01*
G03X34580Y-41460I2669J-368D01*
G03X34590Y-41580I435J-24D01*
G03X34630Y-41670I250J57D01*
G03X34710Y-41760I423J295D01*
G03X34810Y-41840I520J548D01*
G03X34890Y-41860I79J148D01*
G03X34990Y-41850I24J264D01*
G03X35160Y-41790I-862J2715D01*
G03X35280Y-41740I-264J802D01*
G03X35390Y-41660I-544J864D01*
G03X35490Y-41580I-511J741D01*
G03X35540Y-41500I-233J201D01*
G02X35580Y-41430I929J-484D01*
G02X35630Y-41360I858J-560D01*
G02X35670Y-41300I754J-459D01*
G02X35710Y-41270I112J-108D01*
G03X35840Y-41150I-247J398D01*
G03X36110Y-40740I-14388J9769D01*
G03X36390Y-40320I-18820J12850D01*
G03X36430Y-40200I-199J133D01*
G03X36350Y-40110I-89J1D01*
G03X36150I-100J-565D01*
G03X35840Y-40190I254J-1623D01*
G03X35450Y-40360I1820J-4707D01*
G37*
%LPC*%
G75*
G36*
G01X-16370Y-67850D02*
G02X-15840Y-67750I38868J-204544D01*
G02X-15800I20J-50D01*
G02Y-67770I-7J-10D01*
G02X-15880Y-67930I-28613J14207D01*
G02X-15980Y-68110I-7752J4189D01*
G02X-16100Y-68330I-15254J8177D01*
G02X-16230Y-68540I-13157J8000D01*
G02X-16340Y-68710I-6415J4030D01*
G02X-16430Y-68860I-19427J11554D01*
G02X-16450I-10J0D01*
G02X-16520Y-68760I437J380D01*
G02X-16720Y-68400I29336J16533D01*
G02X-16940Y-68010I116329J65878D01*
G02X-16930Y-67980I22J9D01*
G02X-16880Y-67960I62J-83D01*
G02X-16370Y-67850I32804J-150853D01*
G37*
G36*
G01X2310Y-82060D02*
G02X2370Y-81900I454J-79D01*
G02X2470Y-81850I93J-62D01*
G02X2680Y-81880I-23J-909D01*
G02X2890Y-81960I-264J-1009D01*
G02X3030Y-82080I-194J-368D01*
G02X3060Y-82160I-220J-128D01*
G02X3100Y-82270I-1048J-443D01*
G02X3120Y-82410I-1318J-260D01*
G02Y-82540I-1288J-65D01*
G02X3110Y-82720I-1580J-2D01*
G02X3080Y-82840I-437J46D01*
G02X3020Y-82940I-329J130D01*
G02X2920Y-83040I-598J498D01*
G02X2750Y-83130I-359J473D01*
G02X2520Y-83190I-462J1298D01*
G02X2290Y-83210I-229J1302D01*
G02X2180Y-83160I10J168D01*
G02X2150Y-83080I65J70D01*
G02X2220Y-82560I38017J-4853D01*
G02X2310Y-82060I19798J-3306D01*
G37*
G36*
G01X5560Y-33510D02*
G02X7040Y-33420I2484J-28631D01*
G02X8540Y-33410I946J-29420D01*
G02X9890Y-33480I-334J-19486D01*
G02X13270Y-34060I-1840J-20864D01*
G02X16580Y-35180I-5615J-22045D01*
G02X19670Y-36800I-8932J-20794D01*
G02X22400Y-38830I-10779J-17347D01*
G02X25160Y-41720I-16489J-18510D01*
G02X27310Y-44910I-16506J-13444D01*
G02X28860Y-48440I-18734J-10331D01*
G02X29830Y-52340I-24018J-8044D01*
G02X29920Y-52980I-12799J-2126D01*
G02X29970Y-53570I-9604J-1111D01*
G02X29990Y-54330I-18142J-858D01*
G02X30000Y-55580I-122228J-1603D01*
G02X29970Y-57160I-55042J255D01*
G02X29900Y-58290I-14646J340D01*
G02X29740Y-59350I-12657J1368D01*
G02X29450Y-60700I-33203J6426D01*
G02X28760Y-62990I-19241J4549D01*
G02X27780Y-65300I-22585J8219D01*
G02X26550Y-67510I-21684J10621D01*
G02X25150Y-69470I-17158J10776D01*
G02X24500Y-70200I-9484J7791D01*
G02X23500Y-71230I-40273J38100D01*
G02X22480Y-72230I-39667J39441D01*
G02X21770Y-72840I-7380J7872D01*
G02X20630Y-73690I-13879J17425D01*
G02X19420Y-74490I-13545J19172D01*
G02X18160Y-75200I-12180J20143D01*
G02X16870Y-75830I-10569J20006D01*
G02X12880Y-77170I-8839J19709D01*
G02X8680Y-77730I-5032J21713D01*
G02X4450Y-77490I-856J22317D01*
G02X360Y-76440I3346J21523D01*
G02X-3830Y-74410I7617J21060D01*
G02X-7510Y-71560I11689J18894D01*
G02X-10510Y-68000I15433J16050D01*
G02X-12720Y-63880I18711J12689D01*
G02X-12960Y-63280I38712J15833D01*
G02X-13120Y-62850I10684J4220D01*
G02X-13270Y-62390I12464J4319D01*
G02X-13480Y-61680I63744J19240D01*
G02X-14090Y-58910I19415J5728D01*
G02X-14330Y-55980I22808J3343D01*
G02X-14190Y-53040I23223J367D01*
G02X-13690Y-50210I20929J-2238D01*
G02X-13330Y-48940I26932J-6948D01*
G02X-12960Y-47820I16660J-4883D01*
G02X-12500Y-46730I16632J-6377D01*
G02X-11910Y-45500I28088J-12716D01*
G02X-9020Y-41190I19762J-10127D01*
G02X-5220Y-37660I16935J-14420D01*
G02X-700Y-35110I13127J-17988D01*
G02X4290Y-33670I8637J-20565D01*
G02X5560Y-33510I2665J-16035D01*
G37*
G36*
G01X15080Y-81340D02*
G02X15420Y-80960I766J-344D01*
G02X15880Y-80890I320J-557D01*
G02X16320Y-81140I-184J-836D01*
G02X16530Y-81430I-922J-889D01*
G02X16720Y-81870I-3284J-1679D01*
G02X16850Y-82340I-3599J-1248D01*
G02X16900Y-82740I-1834J-432D01*
G02X16830Y-83170I-1482J20D01*
G02X16640Y-83520I-945J286D01*
G02X16350Y-83740I-635J536D01*
G02X15990Y-83820I-362J777D01*
G02X15640Y-83670I0J484D01*
G02X15300Y-83190I1721J1579D01*
G02X15040Y-82560I2594J1439D01*
G02X14950Y-81930I2264J645D01*
G01Y-81920D01*
G02X15080Y-81340I1414J-12D01*
G37*
G36*
G01X33610Y-60730D02*
G02X33980Y-60590I462J-662D01*
G02X34450Y-60630I130J-1249D01*
G02X35010Y-60840I-778J-2926D01*
G02X35470Y-61160I-911J-1801D01*
G02X35750Y-61560I-717J-800D01*
G02X35790Y-62000I-801J-295D01*
G02X35630Y-62430I-1052J147D01*
G02X35420Y-62640I-700J490D01*
G02X35170Y-62770I-483J624D01*
G02X34850Y-62800I-250J944D01*
G02X34490Y-62740I108J1756D01*
G02X33860Y-62470I599J2268D01*
G02X33420Y-62040I756J1214D01*
G02X33250Y-61540I877J577D01*
G02X33350Y-61020I972J83D01*
G02X33610Y-60730I713J-378D01*
G37*
G36*
G01X31250Y-66520D02*
G02X31520Y-66470I344J-1103D01*
G02X31820Y-66490I59J-1368D01*
G02X32100Y-66580I-286J-1370D01*
G02X32410Y-66750I-513J-1304D01*
G02X32740Y-67040I-2105J-2728D01*
G02X33020Y-67350I-2356J-2409D01*
G02X33160Y-67600I-637J-521D01*
G02X33200Y-67960I-884J-280D01*
G02X33110Y-68320I-1085J80D01*
G02X32910Y-68620I-949J416D01*
G02X32630Y-68810I-561J526D01*
G02X32180Y-68830I-254J648D01*
G02X31600Y-68560I768J2408D01*
G02X31070Y-68150I1393J2348D01*
G02X30790Y-67680I881J843D01*
G02X30740Y-67390I1008J323D01*
G02X30760Y-67090I1119J76D01*
G02X30870Y-66820I984J-243D01*
G02X31040Y-66620I586J-326D01*
G02X31250Y-66520I358J-482D01*
G37*
%LPD*%
G75*
G36*
G01X7750Y-38030D02*
G02X7770Y-38020I13J-1D01*
G02X7790Y-38060I-78J-64D01*
G01X7970Y-38480D01*
G02X8180Y-38960I-65542J-28961D01*
G02X8410Y-39520I-123827J-51185D01*
G01X9010Y-40990D01*
X13320Y-41030D01*
G02X15770Y-41060I-7913J-746317D01*
G02X16950Y-41090I-675J-49754D01*
G02X17650Y-41130I-604J-16718D01*
G02X18010Y-41200I-85J-1400D01*
G02X19070Y-41700I-1900J-5402D01*
G02X19960Y-42390I-2456J-4087D01*
G02X20650Y-43260I-3311J-3335D01*
G02X21150Y-44310I-4594J-2832D01*
G02X21260Y-44650I-4483J-1638D01*
G02X21320Y-44950I-2218J-600D01*
G02X21350Y-45300I-3456J-473D01*
G02X21360Y-45850I-19948J-638D01*
G02Y-46350I-17348J-250D01*
G02X21330Y-46710I-4833J222D01*
G02X21290Y-46990I-2880J269D01*
G02X21220Y-47250I-2119J431D01*
G02X20810Y-48200I-5715J1903D01*
G02X20260Y-49000I-4009J2167D01*
G02X19570Y-49660I-3393J2857D01*
G02X18710Y-50180I-3209J4336D01*
G01X17960Y-50560D01*
X15370Y-50580D01*
G03X14170Y-50590I743J-161136D01*
G03X13390Y-50620I785J-30563D01*
G03X12810Y-50640I1561J-53676D01*
G03X12770Y-50690I6J-46D01*
G03X12780Y-50750I236J8D01*
G03X12840Y-50970I23685J6341D01*
G03X12910Y-51230I15460J4023D01*
G03X13000Y-51520I24711J7510D01*
G02X13190Y-52150I-82259J-25152D01*
G02X13480Y-53140I-450159J-132402D01*
G01X13910Y-54610D01*
X14620Y-57050D01*
G03X14730Y-57430I35063J9944D01*
G03X14830Y-57760I19986J5876D01*
G03X14920Y-58040I44377J14110D01*
G03X14940Y-58080I125J37D01*
G03X14990Y-58100I45J40D01*
G03X15820Y-58080I-10999J473691D01*
G03X16750Y-58060I-1262J80328D01*
G03X17850Y-58010I-6467J154391D01*
G01X20710Y-57890D01*
X21390Y-58230D01*
G02X21760Y-58430I-2704J-5445D01*
G02X22070Y-58630I-1630J-2868D01*
G02X22370Y-58880I-2348J-3122D01*
G02X22740Y-59230I-7518J-8318D01*
G02X23410Y-60030I-4428J-4389D01*
G02X23890Y-60870I-3842J-2753D01*
G02X24190Y-61810I-4485J-1949D01*
G02X24340Y-62890I-6979J-1520D01*
G02X24170Y-64530I-5153J-295D01*
G02X23490Y-65990I-4500J1208D01*
G02X22390Y-67080I-3478J2410D01*
G02X21020Y-67640I-2030J3010D01*
G02X20660Y-67670I-357J2114D01*
G02X19180Y-67690I-4640J288565D01*
G02X17270Y-67700I-2080J214932D01*
G02X14760Y-67690I1259J630913D01*
G01X8920Y-67670D01*
X8380Y-66570D01*
G03X8170Y-66140I-30897J-14823D01*
G03X7990Y-65780I-16131J-7841D01*
G03X7820Y-65470I-54856J-29881D01*
G03X7790Y-65460I-24J-22D01*
G03X7760Y-65470I-6J-33D01*
G03X7610Y-65770I48521J-24448D01*
G03X7440Y-66120I14592J-7304D01*
G03X7250Y-66530I28146J-13292D01*
G01X6760Y-67610D01*
X2910Y-67660D01*
G02X-2100Y-67720I-15870J1115977D01*
G02X-4080Y-67690I-395J39274D01*
G02X-5240Y-67560I392J8738D01*
G02X-6120Y-67290I619J3588D01*
G02X-7150Y-66600I1710J3667D01*
G02X-7950Y-65630I2858J3172D01*
G02X-8450Y-64440I3930J2351D01*
G02X-8620Y-63100I5168J1336D01*
G02X-8480Y-61840I5691J5D01*
G02X-8070Y-60660I5131J-1122D01*
G02X-7410Y-59660I4357J-2158D01*
G02X-6550Y-58900I3088J-2628D01*
G02X-5760Y-58470I2990J-4553D01*
G02X-4980Y-58230I1471J-3393D01*
G02X-3890Y-58090I1626J-8347D01*
G02X-1830Y-57980I5881J-90793D01*
G03X-520Y-57920I-9065J212251D01*
G03X140Y-57880I-622J15736D01*
G03X530Y-57830I-746J7365D01*
G03X630Y-57760I-19J133D01*
G03X670Y-57660I-587J293D01*
G03X870Y-57060I-300398J100466D01*
G03X1110Y-56350I-120164J41014D01*
G03X1370Y-55540I-211974J68488D01*
G01X2080Y-53330D01*
G02X2530Y-51930I612999J-196263D01*
G01X2860Y-50930D01*
G02X2930Y-50730I3109J-976D01*
G03X2890Y-50650I-56J22D01*
G03X2570Y-50620I-412J-2677D01*
G03X1930Y-50600I-749J-13715D01*
G03X200I-865J-494908D01*
G01X-2580D01*
X-3170Y-50310D01*
G02X-4310Y-49480I1677J3501D01*
G02X-5160Y-48250I3603J3399D01*
G02X-5640Y-46760I4836J2380D01*
G02X-5670Y-45190I5431J889D01*
G02X-5580Y-44640I8399J-1092D01*
G02X-5470Y-44200I3994J-765D01*
G02X-5310Y-43770I3880J-1199D01*
G02X-5070Y-43270I7690J-3383D01*
G02X-4590Y-42560I3305J-1717D01*
G02X-3950Y-41950I3320J-2842D01*
G02X-3190Y-41480I2720J-3549D01*
G02X-2360Y-41180I1818J-3731D01*
G02X-2020Y-41130I415J-1639D01*
G02X-1060Y-41100I2572J-66944D01*
G02X300Y-41070I2655J-89508D01*
G02X2350Y-41050I5212J-429157D01*
G03X4000Y-41030I-3380J346921D01*
G03X5410Y-41010I-1845J179763D01*
G01X6660Y-40990D01*
G03X6710Y-40960I-9J72D01*
G03X6740Y-40920I-92J100D01*
G03X6890Y-40500I-118838J42679D01*
G03X7060Y-40010I-39439J13957D01*
G03X7250Y-39450I-71611J24609D01*
G02X7440Y-38890I51218J-17065D01*
G02X7600Y-38430I25037J-8451D01*
G02X7750Y-38030I102495J-38207D01*
G37*
%LPC*%
G75*
G36*
G01X7710Y-48040D02*
G02X7740Y-47970I1929J-785D01*
G02X7760I10J0D01*
G02X7770Y-47990I-54J-39D01*
G01X8120Y-48890D01*
G02X8960Y-51060I-456894J-178110D01*
G01X9450Y-52320D01*
X9920Y-53540D01*
X10320Y-54600D01*
X10550Y-55190D01*
X10770Y-55750D01*
X11110Y-56630D01*
X11500Y-57640D01*
X11880Y-58630D01*
X12800Y-61020D01*
X16640D01*
G02X19020Y-61030I-2287J-827648D01*
G02X19960Y-61040I168J-28398D01*
G02X20480Y-61080I-244J-6573D01*
G02X20770Y-61170I-101J-837D01*
G02X21270Y-61560I-776J-1510D01*
G02X21600Y-62110I-1349J-1184D01*
G02X21720Y-62760I-1820J-672D01*
G02X21630Y-63450I-2244J-58D01*
G02X21500Y-63740I-1193J361D01*
G02X21260Y-64060I-2201J1401D01*
G02X20990Y-64340I-1958J1618D01*
G02X20740Y-64490I-609J732D01*
G02X20470Y-64550I-299J710D01*
G02X19550Y-64580I-2186J52912D01*
G02X18110Y-64600I-1888J84057D01*
G02X15450I-1330J855281D01*
G01X10430D01*
X10200Y-64110D01*
G02X9910Y-63430I9204J4327D01*
G02X9490Y-62290I60330J22874D01*
G02X8980Y-60820I89745J31959D01*
G02X8360Y-58980I210656J72006D01*
G03X8070Y-58090I-152268J-49123D01*
G03X7810Y-57350I-77161J-26695D01*
G01X7580Y-56680D01*
G03X7560Y-56670I-19J-12D01*
G03X7540Y-56680I-3J-19D01*
G01X7320Y-57380D01*
G03X7070Y-58160I82137J-26756D01*
G03X6790Y-59100I162400J-48886D01*
G01X6480Y-60130D01*
X6150Y-61230D01*
X5850Y-62230D01*
X5640Y-62930D01*
X5470Y-63480D01*
X5330Y-63960D01*
X5210Y-64370D01*
G03X5180Y-64470I12662J-3853D01*
G02X5070Y-64550I-115J42D01*
G02X4420Y-64580I-1198J18901D01*
G02X3280Y-64600I-1351J44533D01*
G02X270I-1505J1461261D01*
G02X-3540Y-64590I421J886342D01*
G02X-4490Y-64530I-18J7263D01*
G02X-4970Y-64310I135J928D01*
G02X-5330Y-63840I970J1116D01*
G02X-5450Y-63570I2967J1481D01*
G02X-5510Y-63360I1204J458D01*
G02X-5540Y-63110I1647J324D01*
G02X-5550Y-62730I8046J402D01*
G02X-5540Y-62370I8571J-58D01*
G02X-5510Y-62130I1635J-82D01*
G02X-5460Y-61940I1036J-171D01*
G02X-5360Y-61730I1740J-700D01*
G02X-5070Y-61340I1672J-940D01*
G02X-4750Y-61140I532J-496D01*
G02X-4220Y-61050I641J-2172D01*
G02X-2900Y-61000I2901J-59140D01*
G02X-2080Y-60980I2502J-85745D01*
G02X-1090Y-60960I4314J-189024D01*
G02X-80Y-60950I2409J-192297D01*
G02X780Y-60940I1615J-101915D01*
G03X1520I370J62732D01*
G03X2160Y-60920I-772J34964D01*
G01X2710Y-60910D01*
G03X2790Y-60880I-14J158D01*
G03X2840Y-60830I-68J118D01*
G03X2940Y-60630I-5758J3004D01*
G03X3040Y-60400I-5000J2310D01*
G03X3150Y-60120I-7959J3288D01*
G01X4200Y-57320D01*
X5770Y-53150D01*
X7490Y-48580D01*
G02X7620Y-48240I19186J-7141D01*
G02X7660Y-48130I3428J-1184D01*
G02X7710Y-48040I1499J-774D01*
G37*
G36*
G01X-1120Y-43930D02*
G02X-360Y-43910I849J-17822D01*
G02X1870Y-43900I4810J-823988D01*
G02X3990Y-43910I-2412J-736053D01*
G02X4780Y-43920I127J-21140D01*
G02X5200Y-43960I-333J-5719D01*
G02X5260Y-44040I-8J-69D01*
G03X5230Y-44140I2924J-932D01*
G01X5140Y-44610D01*
X5030Y-45150D01*
X4910Y-45770D01*
X4790Y-46400D01*
X4680Y-46950D01*
X4590Y-47420D01*
G02X4560Y-47540I-4955J1175D01*
G01X4520Y-47720D01*
X-1200D01*
X-1480Y-47530D01*
G02X-1970Y-46900I736J1078D01*
G02X-2190Y-45860I3475J1278D01*
G02X-2110Y-44800I3780J248D01*
G02X-1710Y-44070I1455J-322D01*
G02X-1510Y-43970I251J-251D01*
G02X-1120Y-43930I533J-3279D01*
G37*
G36*
G01X11080Y-43770D02*
G02X11860Y-43750I909J-20218D01*
G02X13960I1050J-721432D01*
G02X16180I1110J-819198D01*
G02X16920Y-43770I-84J-16821D01*
G02X17310Y-43810I-108J-2972D01*
G02X17510Y-43920I-86J-393D01*
G02X17860Y-44460I-849J-934D01*
G02X18010Y-45300I-3428J-1046D01*
G02X17960Y-46200I-3868J-236D01*
G02X17700Y-46920I-2139J365D01*
G02X17380Y-47310I-1285J728D01*
G02X17000Y-47490I-524J616D01*
G02X16310Y-47550I-701J4062D01*
G02X14150Y-47560I-2149J230827D01*
G02X13060I-545J430289D01*
G02X12130I-465J216795D01*
G01X11300Y-47550D01*
G02X11290Y-47540I-1J9D01*
G01Y-47530D01*
X11190Y-47020D01*
X11080Y-46450D01*
X10940Y-45780D01*
G02X10810Y-45100I118778J23060D01*
G02X10700Y-44500I69906J13126D01*
G02X10600Y-43990I140752J27863D01*
G02X10590Y-43890I563J107D01*
G02X10670Y-43800I89J1D01*
G02X11080Y-43770I609J-5500D01*
G37*
%LPD*%
G75*
G54D10*
G01X-161740Y41930D02*
X-163670D01*
Y43860D01*
G01Y56140D02*
Y58070D01*
X-161740D01*
G01X-147530Y43860D02*
Y41930D01*
X-149460D01*
G01X-147530Y56140D02*
Y58070D01*
X-149460D01*
G54D11*
G01X-110820Y-2280D02*
X-114210Y-5670D01*
G01D02*
X-110820Y-9060D01*
G01X-83940Y108500D02*
Y112500D01*
G01X-82260D02*
Y108500D01*
G01Y110500D02*
X-83940D01*
G01X-79900Y108500D02*
X-79620Y108570D01*
X-79300Y108770D01*
X-79100Y109100D01*
X-79020Y109570D01*
X-79100Y110030D01*
X-79340Y110430D01*
X-79700Y110630D01*
X-80100D01*
X-80340Y110770D01*
X-80540Y111100D01*
X-80620Y111570D01*
X-80500Y112030D01*
X-80220Y112370D01*
X-79900Y112500D01*
X-79580Y112370D01*
X-79300Y112030D01*
X-79180Y111570D01*
X-79260Y111100D01*
X-79460Y110770D01*
X-79700Y110630D01*
X-80100D01*
X-80460Y110430D01*
X-80700Y110030D01*
X-80780Y109570D01*
X-80700Y109100D01*
X-80500Y108770D01*
X-80180Y108570D01*
X-79900Y108500D01*
G01X-60680Y-59200D02*
X-57290Y-62590D01*
G01D02*
X-53900Y-59200D01*
G01Y47860D02*
X-57290Y51250D01*
G01D02*
X-60680Y47860D01*
G01X-53480Y105050D02*
Y109050D01*
X-52680D01*
X-52360Y108850D01*
X-52120Y108580D01*
X-51920Y108180D01*
X-51760Y107720D01*
X-51720Y107050D01*
X-51760Y106380D01*
X-51920Y105920D01*
X-52120Y105520D01*
X-52360Y105250D01*
X-52680Y105050D01*
X-53480D01*
G01X-49400D02*
Y109050D01*
X-49880Y108250D01*
G01Y105050D02*
X-48920D01*
G01X-45720D02*
Y109050D01*
X-47200Y106180D01*
X-45200D01*
G01X-3760Y-9060D02*
X-370Y-5670D01*
G01D02*
X-3760Y-2280D01*
G01X230Y2830D02*
G02I-305J-3D01*
G01X64920Y111500D02*
Y108630D01*
X65080Y108030D01*
X65400Y107630D01*
X65800Y107500D01*
X66200Y107630D01*
X66520Y108030D01*
X66680Y108630D01*
Y111500D01*
G01X69000Y107500D02*
Y111500D01*
X68520Y110700D01*
G01Y107500D02*
X69480D01*
G01X71440Y109170D02*
X71720Y109630D01*
X71960Y109900D01*
X72280Y110030D01*
X72560Y109900D01*
X72760Y109630D01*
X72920Y109230D01*
X72960Y108770D01*
X72920Y108370D01*
X72760Y107970D01*
X72520Y107630D01*
X72240Y107500D01*
X71920Y107630D01*
X71640Y108030D01*
X71480Y108630D01*
X71440Y109300D01*
X71520Y110170D01*
X71640Y110630D01*
X71840Y111100D01*
X72120Y111430D01*
X72400Y111500D01*
X72680Y111370D01*
X72880Y111030D01*
G01X204860Y-87870D02*
X205180Y-88200D01*
X205540Y-88400D01*
X205860D01*
X206180Y-88200D01*
X206420Y-87870D01*
X206540Y-87400D01*
X206460Y-86930D01*
X206260Y-86530D01*
X205900Y-86270D01*
X205420Y-86130D01*
X205140Y-85870D01*
X205020Y-85400D01*
X205100Y-84930D01*
X205300Y-84600D01*
X205580Y-84400D01*
X205860D01*
X206140Y-84530D01*
X206380Y-84870D01*
G01X207700Y-84400D02*
X208260Y-88400D01*
X208900Y-84400D01*
X209540Y-88400D01*
X210100Y-84400D01*
G01X211340Y-85070D02*
X211580Y-84670D01*
X211860Y-84470D01*
X212180Y-84400D01*
X212580Y-84530D01*
X212860Y-84870D01*
X212940Y-85270D01*
X212900Y-85670D01*
X212740Y-86000D01*
X211940Y-86670D01*
X211580Y-87130D01*
X211340Y-87800D01*
X211260Y-88400D01*
X212940D01*
G54D12*
G01X-228090Y-93500D02*
X-227050Y-89500D01*
X-226010Y-93500D01*
G01X-226380Y-92100D02*
X-227720D01*
G01X-223750Y-89500D02*
Y-93500D01*
G01X-224710Y-89500D02*
X-222790D01*
G01X-213600Y103600D02*
Y92100D01*
X-226600D01*
Y103600D01*
X-213600D01*
G01X-204250Y-120950D02*
Y-116450D01*
X-202250D01*
Y-120950D01*
X-200250D01*
Y-116450D01*
X-198250D01*
Y-120950D01*
X-196250D01*
Y-116450D01*
X-194250D01*
Y-120950D01*
X-192250D01*
Y-116450D01*
X-190750D01*
G01X-200070Y-87000D02*
Y-83000D01*
X-199230D01*
X-198900Y-83200D01*
X-198650Y-83470D01*
X-198440Y-83870D01*
X-198270Y-84330D01*
X-198230Y-85000D01*
X-198270Y-85670D01*
X-198440Y-86130D01*
X-198650Y-86530D01*
X-198900Y-86800D01*
X-199230Y-87000D01*
X-200070D01*
G01X-195850D02*
Y-83000D01*
X-196350Y-83800D01*
G01Y-87000D02*
X-195350D01*
G01X-192550D02*
Y-83000D01*
X-193050Y-83800D01*
G01Y-87000D02*
X-192050D01*
G01X-202730Y41070D02*
X-202980Y41270D01*
X-203270Y41400D01*
X-203610D01*
X-203980Y41200D01*
X-204270Y40870D01*
X-204480Y40470D01*
X-204650Y39800D01*
X-204690Y39200D01*
X-204610Y38600D01*
X-204480Y38200D01*
X-204230Y37800D01*
X-203940Y37530D01*
X-203650Y37400D01*
X-203360D01*
X-203070Y37530D01*
X-202820Y37730D01*
X-202610Y38000D01*
G01X-199850Y37400D02*
Y41400D01*
X-201390Y38530D01*
X-199310D01*
G01X-197840Y40730D02*
X-197590Y41130D01*
X-197300Y41330D01*
X-196970Y41400D01*
X-196550Y41270D01*
X-196260Y40930D01*
X-196170Y40530D01*
X-196220Y40130D01*
X-196380Y39800D01*
X-197220Y39130D01*
X-197590Y38670D01*
X-197840Y38000D01*
X-197930Y37400D01*
X-196170D01*
G01X-203030Y69170D02*
X-203280Y69370D01*
X-203570Y69500D01*
X-203910D01*
X-204280Y69300D01*
X-204570Y68970D01*
X-204780Y68570D01*
X-204950Y67900D01*
X-204990Y67300D01*
X-204910Y66700D01*
X-204780Y66300D01*
X-204530Y65900D01*
X-204240Y65630D01*
X-203950Y65500D01*
X-203660D01*
X-203370Y65630D01*
X-203120Y65830D01*
X-202910Y66100D01*
G01X-200150Y65500D02*
Y69500D01*
X-201690Y66630D01*
X-199610D01*
G01X-197350Y69500D02*
X-197680Y69370D01*
X-197930Y69030D01*
X-198100Y68630D01*
X-198230Y68100D01*
X-198270Y67500D01*
X-198230Y66900D01*
X-198100Y66370D01*
X-197930Y65970D01*
X-197680Y65630D01*
X-197350Y65500D01*
X-197020Y65630D01*
X-196770Y65970D01*
X-196600Y66370D01*
X-196470Y66900D01*
X-196430Y67500D01*
X-196470Y68100D01*
X-196600Y68630D01*
X-196770Y69030D01*
X-197020Y69370D01*
X-197350Y69500D01*
G01X-203030Y64070D02*
X-203280Y64270D01*
X-203570Y64400D01*
X-203910D01*
X-204280Y64200D01*
X-204570Y63870D01*
X-204780Y63470D01*
X-204950Y62800D01*
X-204990Y62200D01*
X-204910Y61600D01*
X-204780Y61200D01*
X-204530Y60800D01*
X-204240Y60530D01*
X-203950Y60400D01*
X-203660D01*
X-203370Y60530D01*
X-203120Y60730D01*
X-202910Y61000D01*
G01X-200150Y60400D02*
Y64400D01*
X-201690Y61530D01*
X-199610D01*
G01X-197350Y60400D02*
Y64400D01*
X-197850Y63600D01*
G01Y60400D02*
X-196850D01*
G01X-216000Y100950D02*
X-220000D01*
G01X-216000Y101910D02*
Y99990D01*
G01X-220000Y98440D02*
X-216000D01*
Y96860D01*
G01X-217930Y97440D02*
Y98440D01*
G01X-216000Y94350D02*
X-220000D01*
G01X-216000Y95310D02*
Y93390D01*
G01X-222090Y103600D02*
Y92100D01*
G01X-180070Y-94500D02*
Y-97370D01*
X-179900Y-97970D01*
X-179570Y-98370D01*
X-179150Y-98500D01*
X-178730Y-98370D01*
X-178400Y-97970D01*
X-178230Y-97370D01*
Y-94500D01*
G01X-175850Y-98500D02*
Y-94500D01*
X-176350Y-95300D01*
G01Y-98500D02*
X-175350D01*
G01X-173470Y-97700D02*
X-173220Y-98170D01*
X-172880Y-98430D01*
X-172510Y-98500D01*
X-172170Y-98430D01*
X-171840Y-98100D01*
X-171630Y-97700D01*
X-171590Y-97300D01*
X-171670Y-96830D01*
X-171970Y-96500D01*
X-172260Y-96370D01*
X-172630D01*
G01X-172260D02*
X-172010Y-96170D01*
X-171800Y-95830D01*
X-171720Y-95430D01*
X-171800Y-95030D01*
X-172010Y-94700D01*
X-172380Y-94500D01*
X-172760Y-94570D01*
X-173130Y-94830D01*
G01X-177880Y37670D02*
X-178130Y37870D01*
X-178420Y38000D01*
X-178760D01*
X-179130Y37800D01*
X-179420Y37470D01*
X-179630Y37070D01*
X-179800Y36400D01*
X-179840Y35800D01*
X-179760Y35200D01*
X-179630Y34800D01*
X-179380Y34400D01*
X-179090Y34130D01*
X-178800Y34000D01*
X-178510D01*
X-178220Y34130D01*
X-177970Y34330D01*
X-177760Y34600D01*
G01X-176420Y34800D02*
X-176170Y34330D01*
X-175830Y34070D01*
X-175460Y34000D01*
X-175120Y34070D01*
X-174790Y34400D01*
X-174580Y34800D01*
X-174540Y35200D01*
X-174620Y35670D01*
X-174920Y36000D01*
X-175210Y36130D01*
X-175580D01*
G01X-175210D02*
X-174960Y36330D01*
X-174750Y36670D01*
X-174670Y37070D01*
X-174750Y37470D01*
X-174960Y37800D01*
X-175330Y38000D01*
X-175710Y37930D01*
X-176080Y37670D01*
G01X-173120Y34800D02*
X-172870Y34330D01*
X-172530Y34070D01*
X-172160Y34000D01*
X-171820Y34070D01*
X-171490Y34400D01*
X-171280Y34800D01*
X-171240Y35200D01*
X-171320Y35670D01*
X-171620Y36000D01*
X-171910Y36130D01*
X-172280D01*
G01X-171910D02*
X-171660Y36330D01*
X-171450Y36670D01*
X-171370Y37070D01*
X-171450Y37470D01*
X-171660Y37800D01*
X-172030Y38000D01*
X-172410Y37930D01*
X-172780Y37670D01*
G01X-177880Y44670D02*
X-178130Y44870D01*
X-178420Y45000D01*
X-178760D01*
X-179130Y44800D01*
X-179420Y44470D01*
X-179630Y44070D01*
X-179800Y43400D01*
X-179840Y42800D01*
X-179760Y42200D01*
X-179630Y41800D01*
X-179380Y41400D01*
X-179090Y41130D01*
X-178800Y41000D01*
X-178510D01*
X-178220Y41130D01*
X-177970Y41330D01*
X-177760Y41600D01*
G01X-176420Y41800D02*
X-176170Y41330D01*
X-175830Y41070D01*
X-175460Y41000D01*
X-175120Y41070D01*
X-174790Y41400D01*
X-174580Y41800D01*
X-174540Y42200D01*
X-174620Y42670D01*
X-174920Y43000D01*
X-175210Y43130D01*
X-175580D01*
G01X-175210D02*
X-174960Y43330D01*
X-174750Y43670D01*
X-174670Y44070D01*
X-174750Y44470D01*
X-174960Y44800D01*
X-175330Y45000D01*
X-175710Y44930D01*
X-176080Y44670D01*
G01X-172990Y42670D02*
X-172700Y43130D01*
X-172450Y43400D01*
X-172120Y43530D01*
X-171820Y43400D01*
X-171620Y43130D01*
X-171450Y42730D01*
X-171410Y42270D01*
X-171450Y41870D01*
X-171620Y41470D01*
X-171870Y41130D01*
X-172160Y41000D01*
X-172490Y41130D01*
X-172780Y41530D01*
X-172950Y42130D01*
X-172990Y42800D01*
X-172910Y43670D01*
X-172780Y44130D01*
X-172580Y44600D01*
X-172280Y44930D01*
X-171990Y45000D01*
X-171700Y44870D01*
X-171490Y44530D01*
G01X-183930Y46800D02*
X-182170Y50800D01*
G01X-183930D02*
X-182170Y46800D01*
G01X-176950Y54100D02*
Y55900D01*
X-177780Y58100D01*
G01X-176120D02*
X-176950Y55900D01*
G01X-181600Y53300D02*
X-183100Y51800D01*
Y61700D01*
G01Y51800D02*
X-184600Y53300D01*
G01X-179100Y55800D02*
X-180600Y54300D01*
G01Y57300D02*
X-179100Y55800D01*
X-188700D01*
G01X-181390Y59830D02*
G03X-186390Y52920I-1961J-3845D01*
G01X-186260Y54160D01*
X-186200Y54800D01*
G01X-186390Y52920D02*
X-187770Y53240D01*
X-188600Y53500D01*
G01X-173370Y124900D02*
Y122030D01*
X-173200Y121430D01*
X-172870Y121030D01*
X-172450Y120900D01*
X-172030Y121030D01*
X-171700Y121430D01*
X-171530Y122030D01*
Y124900D01*
G01X-168650Y120900D02*
Y124900D01*
X-170190Y122030D01*
X-168110D01*
G01X-142380Y36670D02*
X-142630Y36870D01*
X-142920Y37000D01*
X-143260D01*
X-143630Y36800D01*
X-143920Y36470D01*
X-144130Y36070D01*
X-144300Y35400D01*
X-144340Y34800D01*
X-144260Y34200D01*
X-144130Y33800D01*
X-143880Y33400D01*
X-143590Y33130D01*
X-143300Y33000D01*
X-143010D01*
X-142720Y33130D01*
X-142470Y33330D01*
X-142260Y33600D01*
G01X-140920Y33800D02*
X-140670Y33330D01*
X-140330Y33070D01*
X-139960Y33000D01*
X-139620Y33070D01*
X-139290Y33400D01*
X-139080Y33800D01*
X-139040Y34200D01*
X-139120Y34670D01*
X-139420Y35000D01*
X-139710Y35130D01*
X-140080D01*
G01X-139710D02*
X-139460Y35330D01*
X-139250Y35670D01*
X-139170Y36070D01*
X-139250Y36470D01*
X-139460Y36800D01*
X-139830Y37000D01*
X-140210Y36930D01*
X-140580Y36670D01*
G01X-137620Y33600D02*
X-137370Y33270D01*
X-137080Y33070D01*
X-136700Y33000D01*
X-136320Y33130D01*
X-136030Y33400D01*
X-135820Y33870D01*
X-135780Y34400D01*
X-135870Y34930D01*
X-136080Y35270D01*
X-136370Y35530D01*
X-136660Y35600D01*
X-136950Y35530D01*
X-137320Y35270D01*
X-137200Y37000D01*
X-136080D01*
G01X-135550Y53500D02*
X-134720D01*
Y52300D01*
X-134970Y51900D01*
X-135260Y51630D01*
X-135670Y51500D01*
X-136090Y51630D01*
X-136380Y51900D01*
X-136630Y52300D01*
X-136800Y52770D01*
X-136880Y53300D01*
Y53770D01*
X-136800Y54170D01*
X-136630Y54630D01*
X-136380Y55030D01*
X-136130Y55300D01*
X-135800Y55500D01*
X-135510D01*
X-135180Y55370D01*
X-134920Y55100D01*
G01X-133460Y51500D02*
Y55500D01*
X-131540Y51500D01*
Y55500D01*
G01X-130120Y51500D02*
Y55500D01*
X-129280D01*
X-128950Y55300D01*
X-128700Y55030D01*
X-128490Y54630D01*
X-128320Y54170D01*
X-128280Y53500D01*
X-128320Y52830D01*
X-128490Y52370D01*
X-128700Y51970D01*
X-128950Y51700D01*
X-129280Y51500D01*
X-130120D01*
G01X-145220Y62000D02*
Y59130D01*
X-145050Y58530D01*
X-144720Y58130D01*
X-144300Y58000D01*
X-143880Y58130D01*
X-143550Y58530D01*
X-143380Y59130D01*
Y62000D01*
G01X-141000Y58000D02*
Y62000D01*
X-141500Y61200D01*
G01Y58000D02*
X-140500D01*
G01X-137700Y62000D02*
X-138030Y61870D01*
X-138280Y61530D01*
X-138450Y61130D01*
X-138580Y60600D01*
X-138620Y60000D01*
X-138580Y59400D01*
X-138450Y58870D01*
X-138280Y58470D01*
X-138030Y58130D01*
X-137700Y58000D01*
X-137370Y58130D01*
X-137120Y58470D01*
X-136950Y58870D01*
X-136820Y59400D01*
X-136780Y60000D01*
X-136820Y60600D01*
X-136950Y61130D01*
X-137120Y61530D01*
X-137370Y61870D01*
X-137700Y62000D01*
G01X-131250Y92400D02*
X-130420D01*
Y91200D01*
X-130670Y90800D01*
X-130960Y90530D01*
X-131370Y90400D01*
X-131790Y90530D01*
X-132080Y90800D01*
X-132330Y91200D01*
X-132500Y91670D01*
X-132580Y92200D01*
Y92670D01*
X-132500Y93070D01*
X-132330Y93530D01*
X-132080Y93930D01*
X-131830Y94200D01*
X-131500Y94400D01*
X-131210D01*
X-130880Y94270D01*
X-130620Y94000D01*
G01X-129160Y90400D02*
Y94400D01*
X-127240Y90400D01*
Y94400D01*
G01X-125820Y90400D02*
Y94400D01*
X-124980D01*
X-124650Y94200D01*
X-124400Y93930D01*
X-124190Y93530D01*
X-124020Y93070D01*
X-123980Y92400D01*
X-124020Y91730D01*
X-124190Y91270D01*
X-124400Y90870D01*
X-124650Y90600D01*
X-124980Y90400D01*
X-125820D01*
G01X-135030Y107500D02*
Y111500D01*
G01X-133270D02*
Y107500D01*
G01Y109500D02*
X-135030D01*
G01X-131560Y107970D02*
X-131270Y107630D01*
X-130930Y107500D01*
X-130600Y107630D01*
X-130310Y108030D01*
X-130100Y108630D01*
X-130020Y109230D01*
Y109970D01*
X-130100Y110570D01*
X-130310Y111100D01*
X-130560Y111370D01*
X-130850Y111500D01*
X-131180Y111370D01*
X-131430Y111100D01*
X-131600Y110700D01*
X-131680Y110170D01*
X-131600Y109700D01*
X-131390Y109230D01*
X-131140Y108970D01*
X-130850Y108900D01*
X-130520Y109030D01*
X-130270Y109370D01*
X-130020Y109970D01*
G01X-123130Y-110000D02*
Y-106000D01*
X-122090D01*
X-121760Y-106200D01*
X-121550Y-106470D01*
X-121470Y-107000D01*
X-121550Y-107530D01*
X-121800Y-107870D01*
X-122090Y-108070D01*
X-123130D01*
G01X-122090D02*
X-121470Y-110000D01*
G01X-119880D02*
X-118120Y-106000D01*
G01X-119880D02*
X-118120Y-110000D01*
G01X-115700D02*
Y-106000D01*
X-116200Y-106800D01*
G01Y-110000D02*
X-115200D01*
G01X-112300Y-106000D02*
Y-110000D01*
G01X-113260Y-106000D02*
X-111340D01*
G01X-109880Y-110000D02*
X-108120Y-106000D01*
G01X-109880D02*
X-108120Y-110000D01*
G01X-105700D02*
Y-106000D01*
X-106200Y-106800D01*
G01Y-110000D02*
X-105200D01*
G01X-122780Y-98500D02*
Y-94500D01*
X-121740D01*
X-121410Y-94700D01*
X-121200Y-94970D01*
X-121120Y-95500D01*
X-121200Y-96030D01*
X-121450Y-96370D01*
X-121740Y-96570D01*
X-122780D01*
G01X-121740D02*
X-121120Y-98500D01*
G01X-118650D02*
Y-94500D01*
X-119150Y-95300D01*
G01Y-98500D02*
X-118150D01*
G01X-116270Y-97900D02*
X-116020Y-98230D01*
X-115730Y-98430D01*
X-115350Y-98500D01*
X-114970Y-98370D01*
X-114680Y-98100D01*
X-114470Y-97630D01*
X-114430Y-97100D01*
X-114520Y-96570D01*
X-114730Y-96230D01*
X-115020Y-95970D01*
X-115310Y-95900D01*
X-115600Y-95970D01*
X-115970Y-96230D01*
X-115850Y-94500D01*
X-114730D01*
G01X-129800Y-80600D02*
Y-76600D01*
X-128760D01*
X-128430Y-76800D01*
X-128220Y-77070D01*
X-128140Y-77600D01*
X-128220Y-78130D01*
X-128470Y-78470D01*
X-128760Y-78670D01*
X-129800D01*
G01X-128760D02*
X-128140Y-80600D01*
G01X-125670D02*
Y-76600D01*
X-126170Y-77400D01*
G01Y-80600D02*
X-125170D01*
G01X-123160Y-78930D02*
X-122870Y-78470D01*
X-122620Y-78200D01*
X-122290Y-78070D01*
X-121990Y-78200D01*
X-121790Y-78470D01*
X-121620Y-78870D01*
X-121580Y-79330D01*
X-121620Y-79730D01*
X-121790Y-80130D01*
X-122040Y-80470D01*
X-122330Y-80600D01*
X-122660Y-80470D01*
X-122950Y-80070D01*
X-123120Y-79470D01*
X-123160Y-78800D01*
X-123080Y-77930D01*
X-122950Y-77470D01*
X-122750Y-77000D01*
X-122450Y-76670D01*
X-122160Y-76600D01*
X-121870Y-76730D01*
X-121660Y-77070D01*
G01X-119220Y-43500D02*
Y-46370D01*
X-119050Y-46970D01*
X-118720Y-47370D01*
X-118300Y-47500D01*
X-117880Y-47370D01*
X-117550Y-46970D01*
X-117380Y-46370D01*
Y-43500D01*
G01X-115790Y-44170D02*
X-115540Y-43770D01*
X-115250Y-43570D01*
X-114920Y-43500D01*
X-114500Y-43630D01*
X-114210Y-43970D01*
X-114120Y-44370D01*
X-114170Y-44770D01*
X-114330Y-45100D01*
X-115170Y-45770D01*
X-115540Y-46230D01*
X-115790Y-46900D01*
X-115880Y-47500D01*
X-114120D01*
G01X-111700Y-43500D02*
X-112030Y-43630D01*
X-112280Y-43970D01*
X-112450Y-44370D01*
X-112580Y-44900D01*
X-112620Y-45500D01*
X-112580Y-46100D01*
X-112450Y-46630D01*
X-112280Y-47030D01*
X-112030Y-47370D01*
X-111700Y-47500D01*
X-111370Y-47370D01*
X-111120Y-47030D01*
X-110950Y-46630D01*
X-110820Y-46100D01*
X-110780Y-45500D01*
X-110820Y-44900D01*
X-110950Y-44370D01*
X-111120Y-43970D01*
X-111370Y-43630D01*
X-111700Y-43500D01*
G01X-114530Y52030D02*
X-114190Y51700D01*
X-113820Y51500D01*
X-113480D01*
X-113150Y51700D01*
X-112900Y52030D01*
X-112770Y52500D01*
X-112860Y52970D01*
X-113070Y53370D01*
X-113440Y53630D01*
X-113940Y53770D01*
X-114230Y54030D01*
X-114360Y54500D01*
X-114270Y54970D01*
X-114070Y55300D01*
X-113780Y55500D01*
X-113480D01*
X-113190Y55370D01*
X-112940Y55030D01*
G01X-109430Y55170D02*
X-109680Y55370D01*
X-109970Y55500D01*
X-110310D01*
X-110680Y55300D01*
X-110970Y54970D01*
X-111180Y54570D01*
X-111350Y53900D01*
X-111390Y53300D01*
X-111310Y52700D01*
X-111180Y52300D01*
X-110930Y51900D01*
X-110640Y51630D01*
X-110350Y51500D01*
X-110060D01*
X-109770Y51630D01*
X-109520Y51830D01*
X-109310Y52100D01*
G01X-107880Y55500D02*
Y51500D01*
X-106220D01*
G01X-126220Y52300D02*
X-125970Y51830D01*
X-125630Y51570D01*
X-125260Y51500D01*
X-124920Y51570D01*
X-124590Y51900D01*
X-124380Y52300D01*
X-124340Y52700D01*
X-124420Y53170D01*
X-124720Y53500D01*
X-125010Y53630D01*
X-125380D01*
G01X-125010D02*
X-124760Y53830D01*
X-124550Y54170D01*
X-124470Y54570D01*
X-124550Y54970D01*
X-124760Y55300D01*
X-125130Y55500D01*
X-125510Y55430D01*
X-125880Y55170D01*
G01X-123040Y55500D02*
X-122000Y51500D01*
X-120960Y55500D01*
G01X-119620Y52300D02*
X-119370Y51830D01*
X-119030Y51570D01*
X-118660Y51500D01*
X-118320Y51570D01*
X-117990Y51900D01*
X-117780Y52300D01*
X-117740Y52700D01*
X-117820Y53170D01*
X-118120Y53500D01*
X-118410Y53630D01*
X-118780D01*
G01X-118410D02*
X-118160Y53830D01*
X-117950Y54170D01*
X-117870Y54570D01*
X-117950Y54970D01*
X-118160Y55300D01*
X-118530Y55500D01*
X-118910Y55430D01*
X-119280Y55170D01*
G01X-120170Y91000D02*
X-119920Y90670D01*
X-119630Y90470D01*
X-119250Y90400D01*
X-118870Y90530D01*
X-118580Y90800D01*
X-118370Y91270D01*
X-118330Y91800D01*
X-118420Y92330D01*
X-118630Y92670D01*
X-118920Y92930D01*
X-119210Y93000D01*
X-119500Y92930D01*
X-119870Y92670D01*
X-119750Y94400D01*
X-118630D01*
G01X-116990D02*
X-115950Y90400D01*
X-114910Y94400D01*
G01X-111300Y94500D02*
Y90500D01*
G01X-112260Y94500D02*
X-110340D01*
G01X-108880Y90500D02*
X-107120Y94500D01*
G01X-108880D02*
X-107120Y90500D01*
G01X-105490Y93830D02*
X-105240Y94230D01*
X-104950Y94430D01*
X-104620Y94500D01*
X-104200Y94370D01*
X-103910Y94030D01*
X-103820Y93630D01*
X-103870Y93230D01*
X-104030Y92900D01*
X-104870Y92230D01*
X-105240Y91770D01*
X-105490Y91100D01*
X-105580Y90500D01*
X-103820D01*
G01X-91900Y-108000D02*
X-91070D01*
Y-109200D01*
X-91320Y-109600D01*
X-91610Y-109870D01*
X-92020Y-110000D01*
X-92440Y-109870D01*
X-92730Y-109600D01*
X-92980Y-109200D01*
X-93150Y-108730D01*
X-93230Y-108200D01*
Y-107730D01*
X-93150Y-107330D01*
X-92980Y-106870D01*
X-92730Y-106470D01*
X-92480Y-106200D01*
X-92150Y-106000D01*
X-91860D01*
X-91530Y-106130D01*
X-91270Y-106400D01*
G01X-89810Y-110000D02*
Y-106000D01*
X-87890Y-110000D01*
Y-106000D01*
G01X-86470Y-110000D02*
Y-106000D01*
X-85630D01*
X-85300Y-106200D01*
X-85050Y-106470D01*
X-84840Y-106870D01*
X-84670Y-107330D01*
X-84630Y-108000D01*
X-84670Y-108670D01*
X-84840Y-109130D01*
X-85050Y-109530D01*
X-85300Y-109800D01*
X-85630Y-110000D01*
X-86470D01*
G01X-101970Y-107870D02*
X-101800Y-107670D01*
X-101680Y-107330D01*
X-101590Y-106870D01*
X-101680Y-106470D01*
X-101840Y-106200D01*
X-102130Y-106000D01*
X-103260D01*
Y-110000D01*
X-101880D01*
X-101590Y-109730D01*
X-101420Y-109330D01*
X-101340Y-108870D01*
X-101420Y-108400D01*
X-101680Y-108000D01*
X-101970Y-107870D01*
X-103260D01*
G01X-99830Y-110000D02*
Y-106000D01*
X-98830D01*
X-98500Y-106200D01*
X-98250Y-106670D01*
X-98170Y-107200D01*
X-98250Y-107730D01*
X-98460Y-108130D01*
X-98830Y-108330D01*
X-99830D01*
G01X-96950Y-106000D02*
X-96370Y-110000D01*
X-95700Y-106000D01*
X-95030Y-110000D01*
X-94450Y-106000D01*
G01X-104530Y52030D02*
X-104190Y51700D01*
X-103820Y51500D01*
X-103480D01*
X-103150Y51700D01*
X-102900Y52030D01*
X-102770Y52500D01*
X-102860Y52970D01*
X-103070Y53370D01*
X-103440Y53630D01*
X-103940Y53770D01*
X-104230Y54030D01*
X-104360Y54500D01*
X-104270Y54970D01*
X-104070Y55300D01*
X-103780Y55500D01*
X-103480D01*
X-103190Y55370D01*
X-102940Y55030D01*
G01X-101270Y51500D02*
Y55500D01*
X-100430D01*
X-100100Y55300D01*
X-99850Y55030D01*
X-99640Y54630D01*
X-99470Y54170D01*
X-99430Y53500D01*
X-99470Y52830D01*
X-99640Y52370D01*
X-99850Y51970D01*
X-100100Y51700D01*
X-100430Y51500D01*
X-101270D01*
G01X-98090D02*
X-97050Y55500D01*
X-96010Y51500D01*
G01X-96380Y52900D02*
X-97720D01*
G01X-102130Y90500D02*
Y94500D01*
X-101090D01*
X-100760Y94300D01*
X-100550Y94030D01*
X-100470Y93500D01*
X-100550Y92970D01*
X-100800Y92630D01*
X-101090Y92430D01*
X-102130D01*
G01X-101090D02*
X-100470Y90500D01*
G01X-98880D02*
X-97120Y94500D01*
G01X-98880D02*
X-97120Y90500D01*
G01X-95490Y93830D02*
X-95240Y94230D01*
X-94950Y94430D01*
X-94620Y94500D01*
X-94200Y94370D01*
X-93910Y94030D01*
X-93820Y93630D01*
X-93870Y93230D01*
X-94030Y92900D01*
X-94870Y92230D01*
X-95240Y91770D01*
X-95490Y91100D01*
X-95580Y90500D01*
X-93820D01*
G01X-103750Y85500D02*
Y88500D01*
X-102250D01*
Y85500D01*
X-99250D01*
G01X-67790Y-127500D02*
Y-123500D01*
G01X-66200D02*
X-67790Y-125970D01*
G01X-65950Y-127500D02*
X-67080Y-124830D01*
G01X-62740Y-127500D02*
X-64400D01*
Y-123500D01*
X-62740D01*
G01X-63400Y-125430D02*
X-64400D01*
G01X-60270Y-127500D02*
Y-125700D01*
X-61100Y-123500D01*
G01X-59440D02*
X-60270Y-125700D01*
G01X-56970Y-127500D02*
Y-123500D01*
X-57470Y-124300D01*
G01Y-127500D02*
X-56470D01*
G01X-61130Y89000D02*
Y93000D01*
X-60090D01*
X-59760Y92800D01*
X-59550Y92530D01*
X-59470Y92000D01*
X-59550Y91470D01*
X-59800Y91130D01*
X-60090Y90930D01*
X-61130D01*
G01X-60090D02*
X-59470Y89000D01*
G01X-57000D02*
Y93000D01*
X-57500Y92200D01*
G01Y89000D02*
X-56500D01*
G01X-53700D02*
X-53410Y89070D01*
X-53080Y89270D01*
X-52870Y89600D01*
X-52780Y90070D01*
X-52870Y90530D01*
X-53120Y90930D01*
X-53490Y91130D01*
X-53910D01*
X-54160Y91270D01*
X-54370Y91600D01*
X-54450Y92070D01*
X-54320Y92530D01*
X-54030Y92870D01*
X-53700Y93000D01*
X-53370Y92870D01*
X-53080Y92530D01*
X-52950Y92070D01*
X-53030Y91600D01*
X-53240Y91270D01*
X-53490Y91130D01*
X-53910D01*
X-54280Y90930D01*
X-54530Y90530D01*
X-54620Y90070D01*
X-54530Y89600D01*
X-54320Y89270D01*
X-53990Y89070D01*
X-53700Y89000D01*
G01X-55140Y125000D02*
X-54100Y129000D01*
X-53060Y125000D01*
G01X-53430Y126400D02*
X-54770D01*
G01X-51720Y125000D02*
Y129000D01*
X-50880D01*
X-50550Y128800D01*
X-50300Y128530D01*
X-50090Y128130D01*
X-49920Y127670D01*
X-49880Y127000D01*
X-49920Y126330D01*
X-50090Y125870D01*
X-50300Y125470D01*
X-50550Y125200D01*
X-50880Y125000D01*
X-51720D01*
G01X-48420Y125600D02*
X-48170Y125270D01*
X-47880Y125070D01*
X-47500Y125000D01*
X-47120Y125130D01*
X-46830Y125400D01*
X-46620Y125870D01*
X-46580Y126400D01*
X-46670Y126930D01*
X-46880Y127270D01*
X-47170Y127530D01*
X-47460Y127600D01*
X-47750Y127530D01*
X-48120Y127270D01*
X-48000Y129000D01*
X-46880D01*
G01X-44910Y125470D02*
X-44620Y125130D01*
X-44280Y125000D01*
X-43950Y125130D01*
X-43660Y125530D01*
X-43450Y126130D01*
X-43370Y126730D01*
Y127470D01*
X-43450Y128070D01*
X-43660Y128600D01*
X-43910Y128870D01*
X-44200Y129000D01*
X-44530Y128870D01*
X-44780Y128600D01*
X-44950Y128200D01*
X-45030Y127670D01*
X-44950Y127200D01*
X-44740Y126730D01*
X-44490Y126470D01*
X-44200Y126400D01*
X-43870Y126530D01*
X-43620Y126870D01*
X-43370Y127470D01*
G01X-40900Y129000D02*
X-41230Y128870D01*
X-41480Y128530D01*
X-41650Y128130D01*
X-41780Y127600D01*
X-41820Y127000D01*
X-41780Y126400D01*
X-41650Y125870D01*
X-41480Y125470D01*
X-41230Y125130D01*
X-40900Y125000D01*
X-40570Y125130D01*
X-40320Y125470D01*
X-40150Y125870D01*
X-40020Y126400D01*
X-39980Y127000D01*
X-40020Y127600D01*
X-40150Y128130D01*
X-40320Y128530D01*
X-40570Y128870D01*
X-40900Y129000D01*
G01X-30630Y124800D02*
Y128800D01*
X-29590D01*
X-29260Y128600D01*
X-29050Y128330D01*
X-28970Y127800D01*
X-29050Y127270D01*
X-29300Y126930D01*
X-29590Y126730D01*
X-30630D01*
G01X-29590D02*
X-28970Y124800D01*
G01X-25670D02*
X-27330D01*
Y128800D01*
X-25670D01*
G01X-26330Y126870D02*
X-27330D01*
G01X-24080Y125330D02*
X-23740Y125000D01*
X-23370Y124800D01*
X-23030D01*
X-22700Y125000D01*
X-22450Y125330D01*
X-22320Y125800D01*
X-22410Y126270D01*
X-22620Y126670D01*
X-22990Y126930D01*
X-23490Y127070D01*
X-23780Y127330D01*
X-23910Y127800D01*
X-23820Y128270D01*
X-23620Y128600D01*
X-23330Y128800D01*
X-23030D01*
X-22740Y128670D01*
X-22490Y128330D01*
G01X-19070Y124800D02*
X-20730D01*
Y128800D01*
X-19070D01*
G01X-19730Y126870D02*
X-20730D01*
G01X-16600Y128800D02*
Y124800D01*
G01X-17560Y128800D02*
X-15640D01*
G01X-38500Y127000D02*
X-34500D01*
G01X950Y-91000D02*
X1950D01*
G01X1450D02*
Y-95000D01*
G01X950D02*
X1950D01*
G01X4750D02*
X4420Y-94930D01*
X4130Y-94670D01*
X3870Y-94270D01*
X3710Y-93800D01*
X3620Y-93270D01*
Y-92730D01*
X3710Y-92200D01*
X3870Y-91730D01*
X4130Y-91330D01*
X4420Y-91070D01*
X4750Y-91000D01*
X5080Y-91070D01*
X5370Y-91330D01*
X5630Y-91730D01*
X5790Y-92200D01*
X5880Y-92730D01*
Y-93270D01*
X5790Y-93800D01*
X5630Y-94270D01*
X5370Y-94670D01*
X5080Y-94930D01*
X4750Y-95000D01*
G01X-16230Y-94470D02*
X-15890Y-94800D01*
X-15520Y-95000D01*
X-15180D01*
X-14850Y-94800D01*
X-14600Y-94470D01*
X-14470Y-94000D01*
X-14560Y-93530D01*
X-14770Y-93130D01*
X-15140Y-92870D01*
X-15640Y-92730D01*
X-15930Y-92470D01*
X-16060Y-92000D01*
X-15970Y-91530D01*
X-15770Y-91200D01*
X-15480Y-91000D01*
X-15180D01*
X-14890Y-91130D01*
X-14640Y-91470D01*
G01X-13300Y-91000D02*
X-12720Y-95000D01*
X-12050Y-91000D01*
X-11380Y-95000D01*
X-10800Y-91000D01*
G01X-9670Y-95000D02*
Y-91000D01*
X-8830D01*
X-8500Y-91200D01*
X-8250Y-91470D01*
X-8040Y-91870D01*
X-7870Y-92330D01*
X-7830Y-93000D01*
X-7870Y-93670D01*
X-8040Y-94130D01*
X-8250Y-94530D01*
X-8500Y-94800D01*
X-8830Y-95000D01*
X-9670D01*
G01X-14950Y-106380D02*
Y-109250D01*
X-14780Y-109850D01*
X-14450Y-110250D01*
X-14030Y-110380D01*
X-13610Y-110250D01*
X-13280Y-109850D01*
X-13110Y-109250D01*
Y-106380D01*
G01X-11520Y-108710D02*
X-11230Y-108250D01*
X-10980Y-107980D01*
X-10650Y-107850D01*
X-10350Y-107980D01*
X-10150Y-108250D01*
X-9980Y-108650D01*
X-9940Y-109110D01*
X-9980Y-109510D01*
X-10150Y-109910D01*
X-10400Y-110250D01*
X-10690Y-110380D01*
X-11020Y-110250D01*
X-11310Y-109850D01*
X-11480Y-109250D01*
X-11520Y-108580D01*
X-11440Y-107710D01*
X-11310Y-107250D01*
X-11110Y-106780D01*
X-10810Y-106450D01*
X-10520Y-106380D01*
X-10230Y-106510D01*
X-10020Y-106850D01*
G01X1770Y30D02*
X-250Y-1990D01*
X-560Y-2540D01*
X-610Y-3050D01*
X-410Y-3440D01*
X-20Y-3640D01*
X500Y-3600D01*
X1040Y-3290D01*
X3070Y-1260D01*
G01X1840Y-4560D02*
X1690Y-5070D01*
X1740Y-5490D01*
X1950Y-5800D01*
X2240Y-5990D01*
X2710D01*
X3140Y-5860D01*
X3450Y-5600D01*
X3720Y-5210D01*
X3750Y-4770D01*
X3640Y-4470D01*
X3370Y-4210D01*
G01X3640Y-4470D02*
X3960Y-4510D01*
X4340Y-4420D01*
X4680Y-4190D01*
X4910Y-3850D01*
X4990Y-3470D01*
X4870Y-3060D01*
X4560Y-2850D01*
X4100Y-2770D01*
G01X-7860Y32130D02*
G02X-9980Y34250I-1057J1063D01*
G01X-5730Y30010D02*
G03X-7860Y32130I-1065J1060D01*
G01X-3970Y28240D01*
G01X-7860Y32130D02*
X-11390Y35670D01*
G01X70Y57400D02*
X40Y57720D01*
X-70Y58020D01*
X-310Y58260D01*
X-710Y58380D01*
X-1160Y58350D01*
X-1590Y58210D01*
X-2180Y57860D01*
X-2630Y57470D01*
X-3000Y56980D01*
X-3190Y56610D01*
X-3300Y56150D01*
X-3280Y55760D01*
X-3170Y55460D01*
X-2960Y55250D01*
X-2660Y55140D01*
X-2340Y55100D01*
X-2010Y55140D01*
G01X-840Y53130D02*
X1990Y55950D01*
X1070Y55740D01*
G01X-1190Y53480D02*
X-480Y52770D01*
G01X4320Y53620D02*
X3990Y53770D01*
X3580Y53710D01*
X3180Y53540D01*
X2710Y53250D01*
X2260Y52860D01*
X1870Y52400D01*
X1580Y51940D01*
X1410Y51540D01*
X1350Y51130D01*
X1490Y50800D01*
X1820Y50650D01*
X2240Y50710D01*
X2640Y50880D01*
X3100Y51170D01*
X3560Y51560D01*
X3950Y52020D01*
X4240Y52480D01*
X4400Y52880D01*
X4460Y53290D01*
X4320Y53620D01*
G01X-10180Y67650D02*
X-10210Y67970D01*
X-10320Y68270D01*
X-10560Y68510D01*
X-10960Y68630D01*
X-11410Y68600D01*
X-11840Y68460D01*
X-12430Y68110D01*
X-12880Y67720D01*
X-13250Y67230D01*
X-13440Y66860D01*
X-13550Y66400D01*
X-13530Y66010D01*
X-13420Y65710D01*
X-13210Y65500D01*
X-12910Y65390D01*
X-12590Y65350D01*
X-12260Y65390D01*
G01X-11090Y63380D02*
X-8260Y66200D01*
X-9180Y65990D01*
G01X-11440Y63730D02*
X-10730Y63020D01*
G01X-8760Y61050D02*
X-5930Y63870D01*
X-6850Y63660D01*
G01X-9110Y61400D02*
X-8400Y60690D01*
G01X-11100Y101700D02*
X-10270D01*
Y100500D01*
X-10520Y100100D01*
X-10810Y99830D01*
X-11220Y99700D01*
X-11640Y99830D01*
X-11930Y100100D01*
X-12180Y100500D01*
X-12350Y100970D01*
X-12430Y101500D01*
Y101970D01*
X-12350Y102370D01*
X-12180Y102830D01*
X-11930Y103230D01*
X-11680Y103500D01*
X-11350Y103700D01*
X-11060D01*
X-10730Y103570D01*
X-10470Y103300D01*
G01X-9010Y99700D02*
Y103700D01*
X-7090Y99700D01*
Y103700D01*
G01X-5670Y99700D02*
Y103700D01*
X-4830D01*
X-4500Y103500D01*
X-4250Y103230D01*
X-4040Y102830D01*
X-3870Y102370D01*
X-3830Y101700D01*
X-3870Y101030D01*
X-4040Y100570D01*
X-4250Y100170D01*
X-4500Y99900D01*
X-4830Y99700D01*
X-5670D01*
G01X-470Y100500D02*
X-220Y100170D01*
X70Y99970D01*
X450Y99900D01*
X830Y100030D01*
X1120Y100300D01*
X1330Y100770D01*
X1370Y101300D01*
X1280Y101830D01*
X1070Y102170D01*
X780Y102430D01*
X490Y102500D01*
X200Y102430D01*
X-170Y102170D01*
X-50Y103900D01*
X1070D01*
G01X2710D02*
X3750Y99900D01*
X4790Y103900D01*
G01X20100Y-93000D02*
X20930D01*
Y-94200D01*
X20680Y-94600D01*
X20390Y-94870D01*
X19980Y-95000D01*
X19560Y-94870D01*
X19270Y-94600D01*
X19020Y-94200D01*
X18850Y-93730D01*
X18770Y-93200D01*
Y-92730D01*
X18850Y-92330D01*
X19020Y-91870D01*
X19270Y-91470D01*
X19520Y-91200D01*
X19850Y-91000D01*
X20140D01*
X20470Y-91130D01*
X20730Y-91400D01*
G01X22190Y-95000D02*
Y-91000D01*
X24110Y-95000D01*
Y-91000D01*
G01X25530Y-95000D02*
Y-91000D01*
X26370D01*
X26700Y-91200D01*
X26950Y-91470D01*
X27160Y-91870D01*
X27330Y-92330D01*
X27370Y-93000D01*
X27330Y-93670D01*
X27160Y-94130D01*
X26950Y-94530D01*
X26700Y-94800D01*
X26370Y-95000D01*
X25530D01*
G01X11270Y-91330D02*
X11020Y-91130D01*
X10730Y-91000D01*
X10390D01*
X10020Y-91200D01*
X9730Y-91530D01*
X9520Y-91930D01*
X9350Y-92600D01*
X9310Y-93200D01*
X9390Y-93800D01*
X9520Y-94200D01*
X9770Y-94600D01*
X10060Y-94870D01*
X10350Y-95000D01*
X10640D01*
X10930Y-94870D01*
X11180Y-94670D01*
X11390Y-94400D01*
G01X12820Y-91000D02*
Y-95000D01*
X14480D01*
G01X16030D02*
Y-91000D01*
G01X17620D02*
X16030Y-93470D01*
G01X17870Y-95000D02*
X16740Y-92330D01*
G01X23290Y27220D02*
Y23220D01*
X24950D01*
G01X27420D02*
Y27220D01*
X26920Y26420D01*
G01Y23220D02*
X27920D01*
G01X11120Y59500D02*
Y63500D01*
X12160D01*
X12490Y63300D01*
X12700Y63030D01*
X12780Y62500D01*
X12700Y61970D01*
X12450Y61630D01*
X12160Y61430D01*
X11120D01*
G01X12160D02*
X12780Y59500D01*
G01X14330Y60300D02*
X14580Y59830D01*
X14920Y59570D01*
X15290Y59500D01*
X15630Y59570D01*
X15960Y59900D01*
X16170Y60300D01*
X16210Y60700D01*
X16130Y61170D01*
X15830Y61500D01*
X15540Y61630D01*
X15170D01*
G01X15540D02*
X15790Y61830D01*
X16000Y62170D01*
X16080Y62570D01*
X16000Y62970D01*
X15790Y63300D01*
X15420Y63500D01*
X15040Y63430D01*
X14670Y63170D01*
G01X11530Y79000D02*
Y83000D01*
X12370D01*
X12700Y82800D01*
X12950Y82530D01*
X13160Y82130D01*
X13330Y81670D01*
X13370Y81000D01*
X13330Y80330D01*
X13160Y79870D01*
X12950Y79470D01*
X12700Y79200D01*
X12370Y79000D01*
X11530D01*
G01X14960Y82330D02*
X15210Y82730D01*
X15500Y82930D01*
X15830Y83000D01*
X16250Y82870D01*
X16540Y82530D01*
X16630Y82130D01*
X16580Y81730D01*
X16420Y81400D01*
X15580Y80730D01*
X15210Y80270D01*
X14960Y79600D01*
X14870Y79000D01*
X16630D01*
G01X19220Y111000D02*
Y115000D01*
X20220D01*
X20550Y114800D01*
X20800Y114330D01*
X20880Y113800D01*
X20800Y113270D01*
X20590Y112870D01*
X20220Y112670D01*
X19220D01*
G01X22100Y115000D02*
X22680Y111000D01*
X23350Y115000D01*
X24020Y111000D01*
X24600Y115000D01*
G01X25570Y111000D02*
Y115000D01*
X26650Y111670D01*
X27730Y115000D01*
Y111000D01*
G01X29160Y114330D02*
X29410Y114730D01*
X29700Y114930D01*
X30030Y115000D01*
X30450Y114870D01*
X30740Y114530D01*
X30830Y114130D01*
X30780Y113730D01*
X30620Y113400D01*
X29780Y112730D01*
X29410Y112270D01*
X29160Y111600D01*
X29070Y111000D01*
X30830D01*
G01X19420Y117900D02*
Y121900D01*
X20420D01*
X20750Y121700D01*
X21000Y121230D01*
X21080Y120700D01*
X21000Y120170D01*
X20790Y119770D01*
X20420Y119570D01*
X19420D01*
G01X22300Y121900D02*
X22880Y117900D01*
X23550Y121900D01*
X24220Y117900D01*
X24800Y121900D01*
G01X25770Y117900D02*
Y121900D01*
X26850Y118570D01*
X27930Y121900D01*
Y117900D01*
G01X30150D02*
Y121900D01*
X29650Y121100D01*
G01Y117900D02*
X30650D01*
G01X44370Y-95000D02*
Y-91000D01*
X45410D01*
X45740Y-91200D01*
X45950Y-91470D01*
X46030Y-92000D01*
X45950Y-92530D01*
X45700Y-92870D01*
X45410Y-93070D01*
X44370D01*
G01X45410D02*
X46030Y-95000D01*
G01X47620D02*
X49380Y-91000D01*
G01X47620D02*
X49380Y-95000D01*
G01X50880Y-94200D02*
X51130Y-94670D01*
X51470Y-94930D01*
X51840Y-95000D01*
X52180Y-94930D01*
X52510Y-94600D01*
X52720Y-94200D01*
X52760Y-93800D01*
X52680Y-93330D01*
X52380Y-93000D01*
X52090Y-92870D01*
X51720D01*
G01X52090D02*
X52340Y-92670D01*
X52550Y-92330D01*
X52630Y-91930D01*
X52550Y-91530D01*
X52340Y-91200D01*
X51970Y-91000D01*
X51590Y-91070D01*
X51220Y-91330D01*
G01X39870Y-110680D02*
Y-106680D01*
G01X41630D02*
Y-110680D01*
G01Y-108680D02*
X39870D01*
G01X43260Y-107350D02*
X43510Y-106950D01*
X43800Y-106750D01*
X44130Y-106680D01*
X44550Y-106810D01*
X44840Y-107150D01*
X44930Y-107550D01*
X44880Y-107950D01*
X44720Y-108280D01*
X43880Y-108950D01*
X43510Y-109410D01*
X43260Y-110080D01*
X43170Y-110680D01*
X44930D01*
G01X46370Y78670D02*
X46120Y78870D01*
X45830Y79000D01*
X45490D01*
X45120Y78800D01*
X44830Y78470D01*
X44620Y78070D01*
X44450Y77400D01*
X44410Y76800D01*
X44490Y76200D01*
X44620Y75800D01*
X44870Y75400D01*
X45160Y75130D01*
X45450Y75000D01*
X45740D01*
X46030Y75130D01*
X46280Y75330D01*
X46490Y75600D01*
G01X48670Y75000D02*
X48750Y75870D01*
X48880Y76600D01*
X49040Y77270D01*
X49250Y78000D01*
X49580Y79000D01*
X47920D01*
G01X40030Y114500D02*
Y111630D01*
X40200Y111030D01*
X40530Y110630D01*
X40950Y110500D01*
X41370Y110630D01*
X41700Y111030D01*
X41870Y111630D01*
Y114500D01*
G01X43330Y111100D02*
X43580Y110770D01*
X43870Y110570D01*
X44250Y110500D01*
X44630Y110630D01*
X44920Y110900D01*
X45130Y111370D01*
X45170Y111900D01*
X45080Y112430D01*
X44870Y112770D01*
X44580Y113030D01*
X44290Y113100D01*
X44000Y113030D01*
X43630Y112770D01*
X43750Y114500D01*
X44870D01*
G01X75300Y-93000D02*
X76130D01*
Y-94200D01*
X75880Y-94600D01*
X75590Y-94870D01*
X75180Y-95000D01*
X74760Y-94870D01*
X74470Y-94600D01*
X74220Y-94200D01*
X74050Y-93730D01*
X73970Y-93200D01*
Y-92730D01*
X74050Y-92330D01*
X74220Y-91870D01*
X74470Y-91470D01*
X74720Y-91200D01*
X75050Y-91000D01*
X75340D01*
X75670Y-91130D01*
X75930Y-91400D01*
G01X77390Y-95000D02*
Y-91000D01*
X79310Y-95000D01*
Y-91000D01*
G01X80730Y-95000D02*
Y-91000D01*
X81570D01*
X81900Y-91200D01*
X82150Y-91470D01*
X82360Y-91870D01*
X82530Y-92330D01*
X82570Y-93000D01*
X82530Y-93670D01*
X82360Y-94130D01*
X82150Y-94530D01*
X81900Y-94800D01*
X81570Y-95000D01*
X80730D01*
G01X55200Y-91000D02*
Y-95000D01*
G01X54240Y-91000D02*
X56160D01*
G01X57620Y-95000D02*
X59380Y-91000D01*
G01X57620D02*
X59380Y-95000D01*
G01X60880Y-94200D02*
X61130Y-94670D01*
X61470Y-94930D01*
X61840Y-95000D01*
X62180Y-94930D01*
X62510Y-94600D01*
X62720Y-94200D01*
X62760Y-93800D01*
X62680Y-93330D01*
X62380Y-93000D01*
X62090Y-92870D01*
X61720D01*
G01X62090D02*
X62340Y-92670D01*
X62550Y-92330D01*
X62630Y-91930D01*
X62550Y-91530D01*
X62340Y-91200D01*
X61970Y-91000D01*
X61590Y-91070D01*
X61220Y-91330D01*
G01X71880Y-50220D02*
X72080Y-49970D01*
X72210Y-49680D01*
Y-49340D01*
X72010Y-48970D01*
X71680Y-48680D01*
X71280Y-48470D01*
X70610Y-48300D01*
X70010Y-48260D01*
X69410Y-48340D01*
X69010Y-48470D01*
X68610Y-48720D01*
X68340Y-49010D01*
X68210Y-49300D01*
Y-49590D01*
X68340Y-49880D01*
X68540Y-50130D01*
X68810Y-50340D01*
G01X68210Y-53100D02*
X72210D01*
X69340Y-51560D01*
Y-53640D01*
G01X68210Y-56400D02*
X72210D01*
X69340Y-54860D01*
Y-56940D01*
G01X67870Y35670D02*
X67620Y35870D01*
X67330Y36000D01*
X66990D01*
X66620Y35800D01*
X66330Y35470D01*
X66120Y35070D01*
X65950Y34400D01*
X65910Y33800D01*
X65990Y33200D01*
X66120Y32800D01*
X66370Y32400D01*
X66660Y32130D01*
X66950Y32000D01*
X67240D01*
X67530Y32130D01*
X67780Y32330D01*
X67990Y32600D01*
G01X69460Y35330D02*
X69710Y35730D01*
X70000Y35930D01*
X70330Y36000D01*
X70750Y35870D01*
X71040Y35530D01*
X71130Y35130D01*
X71080Y34730D01*
X70920Y34400D01*
X70080Y33730D01*
X69710Y33270D01*
X69460Y32600D01*
X69370Y32000D01*
X71130D01*
G01X53870Y70170D02*
X53620Y70370D01*
X53330Y70500D01*
X52990D01*
X52620Y70300D01*
X52330Y69970D01*
X52120Y69570D01*
X51950Y68900D01*
X51910Y68300D01*
X51990Y67700D01*
X52120Y67300D01*
X52370Y66900D01*
X52660Y66630D01*
X52950Y66500D01*
X53240D01*
X53530Y66630D01*
X53780Y66830D01*
X53990Y67100D01*
G01X55460Y68170D02*
X55750Y68630D01*
X56000Y68900D01*
X56330Y69030D01*
X56630Y68900D01*
X56830Y68630D01*
X57000Y68230D01*
X57040Y67770D01*
X57000Y67370D01*
X56830Y66970D01*
X56580Y66630D01*
X56290Y66500D01*
X55960Y66630D01*
X55670Y67030D01*
X55500Y67630D01*
X55460Y68300D01*
X55540Y69170D01*
X55670Y69630D01*
X55870Y70100D01*
X56170Y70430D01*
X56460Y70500D01*
X56750Y70370D01*
X56960Y70030D01*
G01X71080Y51150D02*
X70830Y51350D01*
X70540Y51480D01*
X70200D01*
X69830Y51280D01*
X69540Y50950D01*
X69330Y50550D01*
X69160Y49880D01*
X69120Y49280D01*
X69200Y48680D01*
X69330Y48280D01*
X69580Y47880D01*
X69870Y47610D01*
X70160Y47480D01*
X70450D01*
X70740Y47610D01*
X70990Y47810D01*
X71200Y48080D01*
G01X72540Y48280D02*
X72790Y47810D01*
X73130Y47550D01*
X73500Y47480D01*
X73840Y47550D01*
X74170Y47880D01*
X74380Y48280D01*
X74420Y48680D01*
X74340Y49150D01*
X74040Y49480D01*
X73750Y49610D01*
X73380D01*
G01X73750D02*
X74000Y49810D01*
X74210Y50150D01*
X74290Y50550D01*
X74210Y50950D01*
X74000Y51280D01*
X73630Y51480D01*
X73250Y51410D01*
X72880Y51150D01*
G01X63770Y83670D02*
X63520Y83870D01*
X63230Y84000D01*
X62890D01*
X62520Y83800D01*
X62230Y83470D01*
X62020Y83070D01*
X61850Y82400D01*
X61810Y81800D01*
X61890Y81200D01*
X62020Y80800D01*
X62270Y80400D01*
X62560Y80130D01*
X62850Y80000D01*
X63140D01*
X63430Y80130D01*
X63680Y80330D01*
X63890Y80600D01*
G01X65230D02*
X65480Y80270D01*
X65770Y80070D01*
X66150Y80000D01*
X66530Y80130D01*
X66820Y80400D01*
X67030Y80870D01*
X67070Y81400D01*
X66980Y81930D01*
X66770Y82270D01*
X66480Y82530D01*
X66190Y82600D01*
X65900Y82530D01*
X65530Y82270D01*
X65650Y84000D01*
X66770D01*
G01X53950Y115500D02*
Y119500D01*
X53450Y118700D01*
G01Y115500D02*
X54450D01*
G01X56460Y118830D02*
X56710Y119230D01*
X57000Y119430D01*
X57330Y119500D01*
X57750Y119370D01*
X58040Y119030D01*
X58130Y118630D01*
X58080Y118230D01*
X57920Y117900D01*
X57080Y117230D01*
X56710Y116770D01*
X56460Y116100D01*
X56370Y115500D01*
X58130D01*
G01X59510Y119500D02*
X60550Y115500D01*
X61590Y119500D01*
G01X97030Y-109500D02*
Y-112370D01*
X97200Y-112970D01*
X97530Y-113370D01*
X97950Y-113500D01*
X98370Y-113370D01*
X98700Y-112970D01*
X98870Y-112370D01*
Y-109500D01*
G01X101170Y-113500D02*
X101250Y-112630D01*
X101380Y-111900D01*
X101540Y-111230D01*
X101750Y-110500D01*
X102080Y-109500D01*
X100420D01*
G01X89550Y50840D02*
X89300Y51040D01*
X89010Y51170D01*
X88670D01*
X88300Y50970D01*
X88010Y50640D01*
X87800Y50240D01*
X87630Y49570D01*
X87590Y48970D01*
X87670Y48370D01*
X87800Y47970D01*
X88050Y47570D01*
X88340Y47300D01*
X88630Y47170D01*
X88920D01*
X89210Y47300D01*
X89460Y47500D01*
X89670Y47770D01*
G01X92430Y47170D02*
Y51170D01*
X90890Y48300D01*
X92970D01*
G01X102770Y-94500D02*
Y-90500D01*
X103850Y-93830D01*
X104930Y-90500D01*
Y-94500D01*
G01X106690Y-93170D02*
X107690D01*
G01X107150Y-92300D02*
Y-94030D01*
G01X112450Y-92500D02*
X113280D01*
Y-93700D01*
X113030Y-94100D01*
X112740Y-94370D01*
X112330Y-94500D01*
X111910Y-94370D01*
X111620Y-94100D01*
X111370Y-93700D01*
X111200Y-93230D01*
X111120Y-92700D01*
Y-92230D01*
X111200Y-91830D01*
X111370Y-91370D01*
X111620Y-90970D01*
X111870Y-90700D01*
X112200Y-90500D01*
X112490D01*
X112820Y-90630D01*
X113080Y-90900D01*
G01X114540Y-94500D02*
Y-90500D01*
X116460Y-94500D01*
Y-90500D01*
G01X117880Y-94500D02*
Y-90500D01*
X118720D01*
X119050Y-90700D01*
X119300Y-90970D01*
X119510Y-91370D01*
X119680Y-91830D01*
X119720Y-92500D01*
X119680Y-93170D01*
X119510Y-93630D01*
X119300Y-94030D01*
X119050Y-94300D01*
X118720Y-94500D01*
X117880D01*
G01X109530Y-72000D02*
Y-68000D01*
X110370D01*
X110700Y-68200D01*
X110950Y-68470D01*
X111160Y-68870D01*
X111330Y-69330D01*
X111370Y-70000D01*
X111330Y-70670D01*
X111160Y-71130D01*
X110950Y-71530D01*
X110700Y-71800D01*
X110370Y-72000D01*
X109530D01*
G01X113750D02*
X114040Y-71930D01*
X114370Y-71730D01*
X114580Y-71400D01*
X114670Y-70930D01*
X114580Y-70470D01*
X114330Y-70070D01*
X113960Y-69870D01*
X113540D01*
X113290Y-69730D01*
X113080Y-69400D01*
X113000Y-68930D01*
X113130Y-68470D01*
X113420Y-68130D01*
X113750Y-68000D01*
X114080Y-68130D01*
X114370Y-68470D01*
X114500Y-68930D01*
X114420Y-69400D01*
X114210Y-69730D01*
X113960Y-69870D01*
X113540D01*
X113170Y-70070D01*
X112920Y-70470D01*
X112830Y-70930D01*
X112920Y-71400D01*
X113130Y-71730D01*
X113460Y-71930D01*
X113750Y-72000D01*
G01X109530Y-89000D02*
Y-85000D01*
X110370D01*
X110700Y-85200D01*
X110950Y-85470D01*
X111160Y-85870D01*
X111330Y-86330D01*
X111370Y-87000D01*
X111330Y-87670D01*
X111160Y-88130D01*
X110950Y-88530D01*
X110700Y-88800D01*
X110370Y-89000D01*
X109530D01*
G01X114250D02*
Y-85000D01*
X112710Y-87870D01*
X114790D01*
G01X109640Y20900D02*
Y18030D01*
X109810Y17430D01*
X110140Y17030D01*
X110560Y16900D01*
X110980Y17030D01*
X111310Y17430D01*
X111480Y18030D01*
Y20900D01*
G01X113070Y20230D02*
X113320Y20630D01*
X113610Y20830D01*
X113940Y20900D01*
X114360Y20770D01*
X114650Y20430D01*
X114740Y20030D01*
X114690Y19630D01*
X114530Y19300D01*
X113690Y18630D01*
X113320Y18170D01*
X113070Y17500D01*
X112980Y16900D01*
X114740D01*
G01X109530Y51000D02*
Y55000D01*
X110370D01*
X110700Y54800D01*
X110950Y54530D01*
X111160Y54130D01*
X111330Y53670D01*
X111370Y53000D01*
X111330Y52330D01*
X111160Y51870D01*
X110950Y51470D01*
X110700Y51200D01*
X110370Y51000D01*
X109530D01*
G01X113040Y51470D02*
X113330Y51130D01*
X113670Y51000D01*
X114000Y51130D01*
X114290Y51530D01*
X114500Y52130D01*
X114580Y52730D01*
Y53470D01*
X114500Y54070D01*
X114290Y54600D01*
X114040Y54870D01*
X113750Y55000D01*
X113420Y54870D01*
X113170Y54600D01*
X113000Y54200D01*
X112920Y53670D01*
X113000Y53200D01*
X113210Y52730D01*
X113460Y52470D01*
X113750Y52400D01*
X114080Y52530D01*
X114330Y52870D01*
X114580Y53470D01*
G01X109530Y68500D02*
Y72500D01*
X110370D01*
X110700Y72300D01*
X110950Y72030D01*
X111160Y71630D01*
X111330Y71170D01*
X111370Y70500D01*
X111330Y69830D01*
X111160Y69370D01*
X110950Y68970D01*
X110700Y68700D01*
X110370Y68500D01*
X109530D01*
G01X112830Y69100D02*
X113080Y68770D01*
X113370Y68570D01*
X113750Y68500D01*
X114130Y68630D01*
X114420Y68900D01*
X114630Y69370D01*
X114670Y69900D01*
X114580Y70430D01*
X114370Y70770D01*
X114080Y71030D01*
X113790Y71100D01*
X113500Y71030D01*
X113130Y70770D01*
X113250Y72500D01*
X114370D01*
G01X117570Y93400D02*
X117320Y93730D01*
X117030Y93930D01*
X116650Y94000D01*
X116270Y93870D01*
X115980Y93600D01*
X115770Y93130D01*
X115730Y92600D01*
X115820Y92070D01*
X116030Y91730D01*
X116320Y91470D01*
X116610Y91400D01*
X116900Y91470D01*
X117270Y91730D01*
X117150Y90000D01*
X116030D01*
G01X114390D02*
X113350Y94000D01*
X112310Y90000D01*
G01X107730Y94000D02*
Y90000D01*
X106650Y93330D01*
X105570Y90000D01*
Y94000D01*
G01X103890Y92670D02*
X102810D01*
G01X142930Y-93900D02*
X143180Y-94230D01*
X143470Y-94430D01*
X143850Y-94500D01*
X144230Y-94370D01*
X144520Y-94100D01*
X144730Y-93630D01*
X144770Y-93100D01*
X144680Y-92570D01*
X144470Y-92230D01*
X144180Y-91970D01*
X143890Y-91900D01*
X143600Y-91970D01*
X143230Y-92230D01*
X143350Y-90500D01*
X144470D01*
G01X146110D02*
X147150Y-94500D01*
X148190Y-90500D01*
G01X134680Y-94500D02*
X133020D01*
Y-90500D01*
X134680D01*
G01X134020Y-92430D02*
X133020D01*
G01X137480Y-92370D02*
X137650Y-92170D01*
X137770Y-91830D01*
X137860Y-91370D01*
X137770Y-90970D01*
X137610Y-90700D01*
X137320Y-90500D01*
X136190D01*
Y-94500D01*
X137570D01*
X137860Y-94230D01*
X138030Y-93830D01*
X138110Y-93370D01*
X138030Y-92900D01*
X137770Y-92500D01*
X137480Y-92370D01*
X136190D01*
G01X124180Y-94500D02*
X122520D01*
Y-90500D01*
X124180D01*
G01X123520Y-92430D02*
X122520D01*
G01X125610Y-94500D02*
X126650Y-90500D01*
X127690Y-94500D01*
G01X127320Y-93100D02*
X125980D01*
G01X143030Y-71500D02*
Y-67500D01*
X143870D01*
X144200Y-67700D01*
X144450Y-67970D01*
X144660Y-68370D01*
X144830Y-68830D01*
X144870Y-69500D01*
X144830Y-70170D01*
X144660Y-70630D01*
X144450Y-71030D01*
X144200Y-71300D01*
X143870Y-71500D01*
X143030D01*
G01X147170D02*
X147250Y-70630D01*
X147380Y-69900D01*
X147540Y-69230D01*
X147750Y-68500D01*
X148080Y-67500D01*
X146420D01*
G01X142530Y-89000D02*
Y-85000D01*
X143370D01*
X143700Y-85200D01*
X143950Y-85470D01*
X144160Y-85870D01*
X144330Y-86330D01*
X144370Y-87000D01*
X144330Y-87670D01*
X144160Y-88130D01*
X143950Y-88530D01*
X143700Y-88800D01*
X143370Y-89000D01*
X142530D01*
G01X145830Y-88200D02*
X146080Y-88670D01*
X146420Y-88930D01*
X146790Y-89000D01*
X147130Y-88930D01*
X147460Y-88600D01*
X147670Y-88200D01*
X147710Y-87800D01*
X147630Y-87330D01*
X147330Y-87000D01*
X147040Y-86870D01*
X146670D01*
G01X147040D02*
X147290Y-86670D01*
X147500Y-86330D01*
X147580Y-85930D01*
X147500Y-85530D01*
X147290Y-85200D01*
X146920Y-85000D01*
X146540Y-85070D01*
X146170Y-85330D01*
G01X124740Y4770D02*
X124490Y4970D01*
X124200Y5100D01*
X123860D01*
X123490Y4900D01*
X123200Y4570D01*
X122990Y4170D01*
X122820Y3500D01*
X122780Y2900D01*
X122860Y2300D01*
X122990Y1900D01*
X123240Y1500D01*
X123530Y1230D01*
X123820Y1100D01*
X124110D01*
X124400Y1230D01*
X124650Y1430D01*
X124860Y1700D01*
G01X127120Y1100D02*
Y5100D01*
X126620Y4300D01*
G01Y1100D02*
X127620D01*
G01X129630Y4430D02*
X129880Y4830D01*
X130170Y5030D01*
X130500Y5100D01*
X130920Y4970D01*
X131210Y4630D01*
X131300Y4230D01*
X131250Y3830D01*
X131090Y3500D01*
X130250Y2830D01*
X129880Y2370D01*
X129630Y1700D01*
X129540Y1100D01*
X131300D01*
G01X120620Y41280D02*
Y45280D01*
X121460D01*
X121790Y45080D01*
X122040Y44810D01*
X122250Y44410D01*
X122420Y43950D01*
X122460Y43280D01*
X122420Y42610D01*
X122250Y42150D01*
X122040Y41750D01*
X121790Y41480D01*
X121460Y41280D01*
X120620D01*
G01X124840D02*
Y45280D01*
X124340Y44480D01*
G01Y41280D02*
X125340D01*
G01X142930Y51000D02*
Y55000D01*
X143770D01*
X144100Y54800D01*
X144350Y54530D01*
X144560Y54130D01*
X144730Y53670D01*
X144770Y53000D01*
X144730Y52330D01*
X144560Y51870D01*
X144350Y51470D01*
X144100Y51200D01*
X143770Y51000D01*
X142930D01*
G01X147150D02*
Y55000D01*
X146650Y54200D01*
G01Y51000D02*
X147650D01*
G01X150450Y55000D02*
X150120Y54870D01*
X149870Y54530D01*
X149700Y54130D01*
X149570Y53600D01*
X149530Y53000D01*
X149570Y52400D01*
X149700Y51870D01*
X149870Y51470D01*
X150120Y51130D01*
X150450Y51000D01*
X150780Y51130D01*
X151030Y51470D01*
X151200Y51870D01*
X151330Y52400D01*
X151370Y53000D01*
X151330Y53600D01*
X151200Y54130D01*
X151030Y54530D01*
X150780Y54870D01*
X150450Y55000D01*
G01X142530Y68500D02*
Y72500D01*
X143370D01*
X143700Y72300D01*
X143950Y72030D01*
X144160Y71630D01*
X144330Y71170D01*
X144370Y70500D01*
X144330Y69830D01*
X144160Y69370D01*
X143950Y68970D01*
X143700Y68700D01*
X143370Y68500D01*
X142530D01*
G01X145960Y70170D02*
X146250Y70630D01*
X146500Y70900D01*
X146830Y71030D01*
X147130Y70900D01*
X147330Y70630D01*
X147500Y70230D01*
X147540Y69770D01*
X147500Y69370D01*
X147330Y68970D01*
X147080Y68630D01*
X146790Y68500D01*
X146460Y68630D01*
X146170Y69030D01*
X146000Y69630D01*
X145960Y70300D01*
X146040Y71170D01*
X146170Y71630D01*
X146370Y72100D01*
X146670Y72430D01*
X146960Y72500D01*
X147250Y72370D01*
X147460Y72030D01*
G01X148050Y92000D02*
X147220D01*
Y93200D01*
X147470Y93600D01*
X147760Y93870D01*
X148170Y94000D01*
X148590Y93870D01*
X148880Y93600D01*
X149130Y93200D01*
X149300Y92730D01*
X149380Y92200D01*
Y91730D01*
X149300Y91330D01*
X149130Y90870D01*
X148880Y90470D01*
X148630Y90200D01*
X148300Y90000D01*
X148010D01*
X147680Y90130D01*
X147420Y90400D01*
G01X145960Y94000D02*
Y90000D01*
X144040Y94000D01*
Y90000D01*
G01X142620Y94000D02*
Y90000D01*
X141780D01*
X141450Y90200D01*
X141200Y90470D01*
X140990Y90870D01*
X140820Y91330D01*
X140780Y92000D01*
X140820Y92670D01*
X140990Y93130D01*
X141200Y93530D01*
X141450Y93800D01*
X141780Y94000D01*
X142620D01*
G01X125820D02*
X127480D01*
Y90000D01*
X125820D01*
G01X126480Y91930D02*
X127480D01*
G01X123020Y91870D02*
X122850Y91670D01*
X122730Y91330D01*
X122640Y90870D01*
X122730Y90470D01*
X122890Y90200D01*
X123180Y90000D01*
X124310D01*
Y94000D01*
X122930D01*
X122640Y93730D01*
X122470Y93330D01*
X122390Y92870D01*
X122470Y92400D01*
X122730Y92000D01*
X123020Y91870D01*
X124310D01*
G01X136320Y94000D02*
X137980D01*
Y90000D01*
X136320D01*
G01X136980Y91930D02*
X137980D01*
G01X134890Y94000D02*
X133850Y90000D01*
X132810Y94000D01*
G01X133180Y92600D02*
X134520D01*
G01X152770Y-94500D02*
Y-90500D01*
X153850Y-93830D01*
X154930Y-90500D01*
Y-94500D01*
G01X156610Y-93170D02*
X157690D01*
G01X157730Y94000D02*
Y90000D01*
X156650Y93330D01*
X155570Y90000D01*
Y94000D01*
G01X153810Y92670D02*
X152810D01*
G01X153350Y91800D02*
Y93530D01*
G01X158030Y121000D02*
Y118130D01*
X158200Y117530D01*
X158530Y117130D01*
X158950Y117000D01*
X159370Y117130D01*
X159700Y117530D01*
X159870Y118130D01*
Y121000D01*
G01X161540Y117470D02*
X161830Y117130D01*
X162170Y117000D01*
X162500Y117130D01*
X162790Y117530D01*
X163000Y118130D01*
X163080Y118730D01*
Y119470D01*
X163000Y120070D01*
X162790Y120600D01*
X162540Y120870D01*
X162250Y121000D01*
X161920Y120870D01*
X161670Y120600D01*
X161500Y120200D01*
X161420Y119670D01*
X161500Y119200D01*
X161710Y118730D01*
X161960Y118470D01*
X162250Y118400D01*
X162580Y118530D01*
X162830Y118870D01*
X163080Y119470D01*
G01X171630Y-97500D02*
Y-100370D01*
X171800Y-100970D01*
X172130Y-101370D01*
X172550Y-101500D01*
X172970Y-101370D01*
X173300Y-100970D01*
X173470Y-100370D01*
Y-97500D01*
G01X175850Y-101500D02*
Y-97500D01*
X175350Y-98300D01*
G01Y-101500D02*
X176350D01*
G01X179650D02*
Y-97500D01*
X178110Y-100370D01*
X180190D01*
G01X183930Y-33500D02*
Y-36370D01*
X184100Y-36970D01*
X184430Y-37370D01*
X184850Y-37500D01*
X185270Y-37370D01*
X185600Y-36970D01*
X185770Y-36370D01*
Y-33500D01*
G01X188150Y-37500D02*
X188440Y-37430D01*
X188770Y-37230D01*
X188980Y-36900D01*
X189070Y-36430D01*
X188980Y-35970D01*
X188730Y-35570D01*
X188360Y-35370D01*
X187940D01*
X187690Y-35230D01*
X187480Y-34900D01*
X187400Y-34430D01*
X187530Y-33970D01*
X187820Y-33630D01*
X188150Y-33500D01*
X188480Y-33630D01*
X188770Y-33970D01*
X188900Y-34430D01*
X188820Y-34900D01*
X188610Y-35230D01*
X188360Y-35370D01*
X187940D01*
X187570Y-35570D01*
X187320Y-35970D01*
X187230Y-36430D01*
X187320Y-36900D01*
X187530Y-37230D01*
X187860Y-37430D01*
X188150Y-37500D01*
G01X186730Y66000D02*
Y63130D01*
X186900Y62530D01*
X187230Y62130D01*
X187650Y62000D01*
X188070Y62130D01*
X188400Y62530D01*
X188570Y63130D01*
Y66000D01*
G01X190950Y62000D02*
Y66000D01*
X190450Y65200D01*
G01Y62000D02*
X191450D01*
G54D13*
G01X170000Y-103000D02*
Y-78500D01*
X171500Y-77000D01*
Y-51000D01*
X195500D01*
Y-77000D01*
X197000Y-78500D01*
Y-103000D01*
X170000D01*
G54D14*
G01X-206600Y-79300D02*
X-226600D01*
Y90700D01*
X-206600D01*
Y-79300D01*
G01X-211500Y-81700D02*
Y-101700D01*
X-221500D01*
Y-81700D01*
X-211500D01*
G01Y-91700D02*
X-221500D01*
G01X-200470Y48240D02*
X-204610D01*
Y42720D01*
X-200470D01*
G01Y53760D02*
X-204610D01*
Y48240D01*
X-200470D01*
G01Y59280D02*
X-204610D01*
Y53760D01*
X-200470D01*
G01X-174610Y90700D02*
X-204610D01*
Y100700D01*
X-174610D01*
Y90700D01*
G01X-193700Y-76050D02*
X-197700D01*
G01D02*
X-195700Y-74050D01*
G01D02*
X-193700Y-76050D01*
G01X-195700Y-74050D02*
X-193700D01*
G01X-197700D02*
X-195700D01*
G01Y-76550D02*
Y-73550D01*
G01X-192450Y-68550D02*
Y-81550D01*
X-198950D01*
Y-68550D01*
X-192450D01*
G01X-197330Y42720D02*
X-193190D01*
Y48240D01*
X-197330D01*
G01X-175170Y51780D02*
X-179310D01*
Y46260D01*
X-175170D01*
G01X-197330Y48240D02*
X-193190D01*
Y53760D01*
X-197330D01*
G01D02*
X-193190D01*
Y59280D01*
X-197330D01*
G01X-194610Y100700D02*
Y90700D01*
G01X-184610D02*
Y100700D01*
G01X-177570Y117990D02*
Y110110D01*
X-169690D01*
G01X-148430Y129010D02*
X-177570D01*
G01X-132860Y-60590D02*
X-172230D01*
Y-21220D01*
G01X-165140Y38290D02*
X-169280D01*
Y32770D01*
X-165140D01*
G01X-162000D02*
X-157860D01*
Y38290D01*
X-162000D01*
G01X-172030Y46260D02*
X-167890D01*
Y51780D01*
X-172030D01*
G01X-164610Y100700D02*
Y90700D01*
G01X-154610D02*
Y100700D01*
G01X-144610Y90700D02*
X-174610D01*
Y100700D01*
X-144610D01*
Y90700D01*
G01X-156310Y110110D02*
X-148430D01*
Y117990D01*
G01X-157450Y116700D02*
G03I-450J0D01*
G01X-137110Y49650D02*
X-97110D01*
Y39650D01*
X-137110D01*
Y49650D01*
G01X-144360Y42430D02*
Y38290D01*
X-138840D01*
Y42430D01*
G01X-150090Y61810D02*
G03I-392J1D01*
G01X-138840Y45570D02*
Y49710D01*
X-144360D01*
Y45570D01*
G01X-88390Y125760D02*
Y96240D01*
X-137610D01*
Y125760D01*
X-88390D01*
G01X-137610D02*
Y129700D01*
X-88390D01*
Y125760D01*
G01X-114140Y-121400D02*
Y-111400D01*
G01X-84140Y-121400D02*
X-124140D01*
Y-111400D01*
X-84140D01*
Y-121400D01*
G01X-123950Y-98220D02*
Y-94290D01*
X-129850D01*
Y-98220D01*
G01Y-101580D02*
Y-105510D01*
X-123950D01*
Y-101580D01*
G01X-129850Y-89280D02*
Y-93210D01*
X-123950D01*
Y-89280D01*
G01Y-85920D02*
Y-81990D01*
X-129850D01*
Y-85920D01*
G01X-117550Y-35770D02*
X-129050D01*
G01X-117110Y39650D02*
Y49650D01*
G01X-127110D02*
Y39650D01*
G01X-126030Y125760D02*
Y113950D01*
X-129970D01*
Y125760D01*
X-126030D01*
G01X-104140Y-111400D02*
Y-121400D01*
G01X-94140D02*
Y-111400D01*
G01X-107110Y49650D02*
Y39650D01*
G01X-96030Y125760D02*
Y113950D01*
X-99970D01*
Y125760D01*
X-96030D01*
G01X-69690Y-89410D02*
X-30310D01*
Y-128790D01*
X-69690D01*
Y-89410D01*
G01X-69150Y85920D02*
Y81990D01*
X-63250D01*
Y85920D01*
G01Y89280D02*
Y93210D01*
X-69150D01*
Y89280D01*
G01X-85610Y125760D02*
Y96240D01*
X-56390D01*
Y125760D01*
X-85610D01*
G01D02*
Y129700D01*
X-56390D01*
Y125760D01*
G01X-60530Y125910D02*
Y114090D01*
X-64470D01*
Y125910D01*
X-60530D01*
G01X-78530D02*
Y114090D01*
X-82470D01*
Y125910D01*
X-78530D01*
G01X-40960Y-109100D02*
G03I-9040J0D01*
G01X-41500Y109310D02*
X-26700D01*
Y98300D01*
X-43700D01*
Y109310D01*
X-41500D01*
G01X-43170Y117100D02*
X-37270D01*
G01X-41210Y121040D02*
X-29390D01*
Y113160D01*
X-41210D01*
Y121040D01*
G01X-20950Y49260D02*
X-26520Y43690D01*
G01X-16500Y44810D02*
X-22070Y39240D01*
G01X-17330Y45640D02*
X-22900Y40070D01*
G01D02*
X-25690Y42860D01*
G01D02*
X-20120Y48430D01*
G01X-24850Y56500D02*
X-9260Y40910D01*
X-18170Y32000D01*
X-33760Y47590D01*
X-24850Y56500D01*
G01X-20120Y48430D02*
X-17330Y45640D01*
G01X-13630Y58810D02*
X-10700Y61740D01*
X-14600Y65640D01*
X-17530Y62710D01*
G01X-19750Y60490D02*
X-22680Y57560D01*
X-18780Y53660D01*
X-15850Y56590D01*
G01X-33330Y118280D02*
Y119070D01*
X-37270D01*
Y118280D01*
X-33330D01*
G01X-27430Y117100D02*
X-33330D01*
G01X-39240Y118280D02*
X-31360D01*
G01X32780Y-125900D02*
Y-129840D01*
X-16440D01*
Y-125900D01*
G01X-8800D02*
Y-114090D01*
X-4860D01*
Y-125900D01*
X-8800D01*
G01X-16440D02*
Y-96380D01*
X32780D01*
Y-125900D01*
X-16440D01*
G01X-9170Y49910D02*
X-12100Y46980D01*
X-8200Y43080D01*
X-5270Y46010D01*
G01X-3050Y48230D02*
X-120Y51160D01*
X-4020Y55060D01*
X-6950Y52130D01*
G01X-2860Y115300D02*
Y105300D01*
G01X17140D02*
X-12860D01*
Y115300D01*
X17140D01*
Y105300D01*
G01X-2860Y125300D02*
Y115300D01*
G01X17140D02*
X-12860D01*
Y125300D01*
X17140D01*
Y115300D01*
G01X21200Y-125900D02*
Y-114090D01*
X25140D01*
Y-125900D01*
X21200D01*
G01X34190Y-19680D02*
X21560D01*
Y28740D01*
X34050D01*
G01X24150Y65700D02*
Y69630D01*
X18250D01*
Y65700D01*
G01Y62340D02*
Y58410D01*
X24150D01*
Y62340D01*
G01X19200Y78160D02*
X23200D01*
G01D02*
X21200Y76160D01*
G01D02*
X19200Y78160D01*
G01X21200Y76160D02*
X19200D01*
G01X23200D02*
X21200D01*
G01Y78660D02*
Y75660D01*
G01X17950Y70660D02*
Y83660D01*
X24450D01*
Y70660D01*
X17950D01*
G01X28460Y71980D02*
X30820D01*
G01X7140Y105300D02*
Y115300D01*
G01D02*
Y125300D01*
G01X87910Y-125900D02*
Y-129840D01*
X38690D01*
Y-125900D01*
G01X46330D02*
Y-114090D01*
X50270D01*
Y-125900D01*
X46330D01*
G01X38690D02*
Y-96380D01*
X87910D01*
Y-125900D01*
X38690D01*
G01X53130Y34060D02*
G02X33810Y44470I-5116J13638D01*
G01X31670Y44420D02*
Y38140D01*
X38450Y31360D01*
X64350D01*
Y44130D01*
G01X53140Y61330D02*
G03X33780Y50810I-5131J-13632D01*
G01X31670Y51200D02*
Y57260D01*
X38450Y64040D01*
X64350D01*
Y51140D01*
G01X33440Y65730D02*
X46040D01*
G01X51560Y108930D02*
Y85310D01*
X39740D01*
Y108930D01*
X51560D01*
G01X29640Y70800D02*
Y73160D01*
G01X33440Y72030D02*
X46040D01*
G01X38850Y74230D02*
X42990D01*
Y79750D01*
X38850D01*
G01X35710D02*
X31570D01*
Y74230D01*
X35710D01*
G01X41750Y107120D02*
G03I-400J0D01*
G01X67970Y-63960D02*
X72110D01*
Y-58440D01*
X67970D01*
G01X64830D02*
X60690D01*
Y-63960D01*
X64830D01*
G01X57650Y28740D02*
X69980D01*
Y-19680D01*
X57200D01*
G01X116680Y-12890D02*
Y22680D01*
X71320D01*
Y-12890D01*
G01X53140Y34070D02*
G03X62240Y44630I-5135J13626D01*
G01X53140Y61330D02*
Y34070D01*
X53130Y34060D01*
G01X75920Y46240D02*
X71780D01*
Y40720D01*
X75920D01*
G01X71890Y78660D02*
G03X82410Y59300I13632J-5131D01*
G01X82020Y57190D02*
X75960D01*
X69180Y63970D01*
Y89870D01*
X82080D01*
G01X53140Y61330D02*
G02X62210Y50950I-5128J-13633D01*
G01X71890Y78660D02*
G02X82270Y87730I13633J-5128D01*
G01X71890Y78660D02*
X99150D01*
X99160Y78650D01*
G01X63290Y125450D02*
Y95930D01*
X92510D01*
Y125450D01*
X63290D01*
G01D02*
Y129390D01*
X92510D01*
Y125450D01*
G01X70370Y125600D02*
Y113780D01*
X66430D01*
Y125600D01*
X70370D01*
G01X76330Y-125900D02*
Y-114090D01*
X80270D01*
Y-125900D01*
X76330D01*
G01X164720D02*
Y-96690D01*
X95820D01*
Y-125900D01*
X164720D01*
Y-129840D01*
X95820D01*
Y-125900D01*
G01X79060Y40720D02*
X83200D01*
Y46240D01*
X79060D01*
G01X84510Y38860D02*
Y34720D01*
X90030D01*
Y38860D01*
G01Y42000D02*
Y46140D01*
X84510D01*
Y42000D01*
G01X99160Y78650D02*
G02X88750Y59330I-13638J-5116D01*
G01X88800Y57190D02*
X95080D01*
X101860Y63970D01*
Y89870D01*
X89090D01*
G01X99150Y78660D02*
G03X88590Y87760I-13626J-5135D01*
G01X95820Y125450D02*
Y96240D01*
X164720D01*
Y125450D01*
X95820D01*
Y129390D01*
X164720D01*
Y125450D01*
G01X88370Y125600D02*
Y113780D01*
X84430D01*
Y125600D01*
X88370D01*
G01X113300Y-125900D02*
Y-114090D01*
X117240D01*
Y-125900D01*
X113300D01*
G01X117240Y-83760D02*
Y-73920D01*
G01X116590Y-83760D02*
Y-73920D01*
G01X109460D02*
X129140D01*
G01Y-83760D02*
X109460D01*
G01X129140Y-66520D02*
X109460D01*
G01Y-56680D02*
X129140D01*
G01X131420Y20870D02*
X125140D01*
X118360Y14090D01*
Y-11810D01*
X131130D01*
G01X105090Y38560D02*
Y48400D01*
G01X104440Y38560D02*
Y48400D01*
G01X116990Y38560D02*
X97310D01*
G01X129010Y56360D02*
X109330D01*
G01Y66200D02*
X129010D01*
G01X97310Y48400D02*
X116990D01*
G01X117110Y73600D02*
Y83440D01*
G01X116460Y73600D02*
Y83440D01*
G01X109330D02*
X129010D01*
G01Y73600D02*
X109330D01*
G01X117240Y125450D02*
Y113640D01*
X113300D01*
Y125450D01*
X117240D01*
G01X142680Y-73920D02*
X162360D01*
G01Y-83760D02*
X142680D01*
G01X121360Y-56680D02*
Y-66520D01*
G01X122020Y-56680D02*
Y-66520D01*
G01X162360D02*
X142680D01*
G01Y-56680D02*
X162360D01*
G01X121070Y-600D02*
G03X131630Y-9700I13626J5135D01*
G01X148330Y-600D02*
G02X137950Y-9670I-13633J5128D01*
G01X138200Y20870D02*
X144260D01*
X151040Y14090D01*
Y-11810D01*
X138140D01*
G01X121060Y-590D02*
G02X131470Y18730I13638J5116D01*
G01X148330Y-600D02*
G03X137810Y18760I-13632J5131D01*
G01X148330Y-600D02*
X121070D01*
X121060Y-590D01*
G01X162360Y56360D02*
X142680D01*
G01Y66200D02*
X162360D01*
G01X121230D02*
Y56360D01*
G01X121880Y66200D02*
Y56360D01*
G01X142680Y83440D02*
X162360D01*
G01Y73600D02*
X142680D01*
G01X143300Y-125900D02*
Y-114090D01*
X147240D01*
Y-125900D01*
X143300D01*
G01X150460Y-83760D02*
Y-73920D01*
G01X149810Y-83760D02*
Y-73920D01*
G01X154580Y-56680D02*
Y-66520D01*
G01X155230Y-56680D02*
Y-66520D01*
G01X155670Y-39370D02*
X194250D01*
Y39370D01*
X155670D01*
G01X154580Y66200D02*
Y56360D01*
G01X155230Y66200D02*
Y56360D01*
G01X150460Y73600D02*
Y83440D01*
G01X149810Y73600D02*
Y83440D01*
G01X147240Y125450D02*
Y113640D01*
X143300D01*
Y125450D01*
X147240D01*
G01X233360Y60800D02*
X178240D01*
Y96240D01*
X233360D01*
Y60800D01*
G01X203610Y-101400D02*
Y-51000D01*
X230390D01*
Y-101400D01*
X203610D01*
M02*
