G04 ================== begin FILE IDENTIFICATION RECORD ==================*
G04 Layout Name:  E:/A_Project/AA_Proj/allegro/AA_05122213.brd*
G04 Film Name:    TOP*
G04 File Format:  Gerber RS274X*
G04 File Origin:  Cadence Allegro 17.2-S057*
G04 Origin Date:  Thu May 14 15:01:31 2020*
G04 *
G04 Layer:  ETCH/TOP*
G04 Layer:  PIN/TOP*
G04 Layer:  VIA CLASS/TOP*
G04 *
G04 Offset:    (0.0 0.0)*
G04 Mirror:    No*
G04 Mode:      Positive*
G04 Rotation:  0*
G04 FullContactRelief:  No*
G04 UndefLineWidth:     0.0*
G04 ================== end FILE IDENTIFICATION RECORD ====================*
%FSLAX25Y25*MOIN*%
%IR0*IPPOS*OFA0.00000B0.00000*MIA0B0*SFA1.00000B1.00000*%
%AMMACRO45*
21,1,.0788,.0787,0.0,0.0,179.926*
1,1,.0787,-.0394,.000051*
1,1,.0787,.0394,-.000051*%
%ADD45MACRO45*%
%AMMACRO24*
21,1,.053,.014,0.0,0.0,135.*%
%ADD24MACRO24*%
%ADD38R,.0472X.1142*%
%ADD31R,.1142X.0472*%
%AMMACRO28*
21,1,.063,.0945,0.0,0.0,135.*%
%ADD28MACRO28*%
%ADD35R,.0846X.128*%
%ADD43O,.0787X.1772*%
%ADD44O,.1575X.0787*%
%ADD17R,.0102X.0311*%
%ADD18R,.0311X.0102*%
%ADD11C,.02*%
%AMMACRO23*
21,1,.053,.014,0.0,0.0,45.*%
%ADD23MACRO23*%
%ADD30R,.2126X.1142*%
%ADD22O,.0236X.0522*%
%ADD25R,.063X.0512*%
%ADD34R,.4181X.3406*%
%ADD39C,.0554*%
%ADD19R,.0157X.0531*%
%ADD42O,.1378X.2165*%
%ADD37R,.0441X.0907*%
%ADD21R,.0394X.0315*%
%ADD10C,.0709*%
%ADD41O,.2165X.1378*%
%ADD14R,.0492X.0354*%
%ADD26R,.0472X.0374*%
%ADD40R,.0554X.0554*%
%AMMACRO29*
21,1,.0374,.0394,0.0,0.0,45.*%
%ADD29MACRO29*%
%ADD27R,.0472X.0394*%
%ADD20R,.0394X.0374*%
%ADD12R,.0374X.0394*%
%ADD33R,.0846X.0374*%
%ADD36R,.0709X.0709*%
%ADD32R,.0787X.0472*%
%ADD13R,.0787X.0394*%
%ADD16R,.0748X.0748*%
%ADD15R,.0394X.0787*%
%ADD46C,.006*%
%ADD47C,.01*%
%ADD48C,.05*%
%ADD49C,.015*%
%ADD50C,.08*%
%ADD52C,.0464*%
%ADD51C,.0972*%
G75*
%LPD*%
G75*
G36*
G01X15720Y125940D02*
X44500D01*
G02X45000Y125440I0J-500D01*
G01Y82200D01*
G02X44500Y81700I-500J0D01*
G01X26200D01*
G02X25700Y82200I0J500D01*
G01Y94300D01*
G03X25200Y94800I-500J0D01*
G01X-107720D01*
G03X-108000Y94820I-305J-2298D01*
G03X-108280Y94800I25J-2318D01*
G01X-140380D01*
G02X-140880Y95300I0J500D01*
G01Y125440D01*
G02X-140380Y125940I500J0D01*
G01X-11440D01*
G02X-10970Y125600I-2J-498D01*
G01X-10610Y124550D01*
X-10690Y124250D01*
X-10830Y124150D01*
G03X-12720Y120300I2976J-3850D01*
G03X-10390Y116150I4861J0D01*
G02X-10150Y115730I-261J-428D01*
G01Y114870D01*
G02X-10390Y114450I-501J8D01*
G03X-12720Y110300I2531J-4150D01*
G03X-3000I4860J0D01*
G03X-5330Y114450I-4861J0D01*
G02X-5570Y114870I261J428D01*
G01Y115730D01*
G02X-5330Y116150I501J-8D01*
G03X-3000Y120300I-2531J4150D01*
G03X-4890Y124150I-4866J0D01*
G01X-5030Y124250D01*
X-5110Y124550D01*
X-4750Y125600D01*
G02X-4280Y125940I472J-158D01*
G01X8560D01*
G02X9030Y125600I-2J-498D01*
G01X9390Y124550D01*
X9310Y124250D01*
X9170Y124150D01*
G03X7280Y120300I2976J-3850D01*
G03X9610Y116150I4861J0D01*
G02X9850Y115730I-261J-428D01*
G01Y114870D01*
G02X9610Y114450I-501J8D01*
G03X7280Y110300I2531J-4150D01*
G03X17000I4860J0D01*
G03X14670Y114450I-4861J0D01*
G02X14430Y114870I261J428D01*
G01Y115730D01*
G02X14670Y116150I501J-8D01*
G03X17000Y120300I-2531J4150D01*
G03X15110Y124150I-4866J0D01*
G01X14970Y124250D01*
X14890Y124550D01*
X15250Y125600D01*
G02X15720Y125940I472J-158D01*
G37*
G36*
G01X-54380Y44970D02*
G03X-54230Y44850I891J960D01*
G02X-54100Y44720I-282J-412D01*
G03X-53980Y44570I1080J741D01*
G01X-52990Y43580D01*
G03X-52840Y43460I892J962D01*
G02X-52720Y43330I-302J-399D01*
G03X-52590Y43170I1080J745D01*
G01X-51600Y42180D01*
G03X-49740I930J929D01*
G01X-49640Y42280D01*
G02X-48930I355J-351D01*
G01X-48310Y41660D01*
G02Y40960I-357J-350D01*
G01X-48410Y40860D01*
G03Y39000I929J-930D01*
G01X-47420Y38010D01*
G03X-46510Y37630I923J932D01*
G02X-46010Y37130I-2J-502D01*
G03X-45630Y36210I1312J4D01*
G01X-44640Y35220D01*
G03X-44480Y35090I905J950D01*
G02X-44350Y34970I-269J-422D01*
G03X-44230Y34820I1082J743D01*
G01X-43240Y33830D01*
G03X-43090Y33710I891J960D01*
G02X-42960Y33580I-282J-412D01*
G03X-42840Y33430I1080J741D01*
G01X-41850Y32440D01*
G03X-41700Y32320I892J961D01*
G02X-41570Y32190I-282J-412D01*
G03X-41450Y32040I1081J742D01*
G01X-40700Y31300D01*
X-40770Y31230D01*
X-40960Y31220D01*
G03X-43140Y28900I144J-2320D01*
G03X-40820Y26580I2320J0D01*
G03X-38500Y28760I0J2324D01*
G01X-38490Y28950D01*
X-38420Y29020D01*
X-37680Y28270D01*
G03X-37530Y28150I893J962D01*
G02X-37410Y28020I-302J-399D01*
G03X-37280Y27860I1080J745D01*
G01X-36290Y26870D01*
G03X-36130Y26740I905J950D01*
G02X-36000Y26620I-269J-422D01*
G03X-35880Y26470I1082J743D01*
G01X-34890Y25480D01*
G03X-34740Y25360I892J961D01*
G02X-34610Y25230I-282J-412D01*
G03X-34490Y25080I1081J742D01*
G01X-33500Y24090D01*
G03X-33350Y23970I893J962D01*
G02X-33230Y23840I-302J-399D01*
G03X-33100Y23680I1080J745D01*
G01X-32110Y22690D01*
G03X-31950Y22560I905J950D01*
G02X-31820Y22440I-269J-422D01*
G03X-31700Y22290I1082J743D01*
G01X-30710Y21300D01*
G03X-30560Y21180I893J962D01*
G02X-30440Y21060I-291J-411D01*
G03X-30320Y20910I1082J743D01*
G01X-29330Y19920D01*
G03X-28410Y19540I923J932D01*
G01X-28400D01*
G02X-27910Y19050I-12J-502D01*
G01Y19040D01*
G03X-27530Y18120I1312J3D01*
G01X-26540Y17130D01*
G03X-26390Y17010I892J961D01*
G02X-26260Y16880I-282J-412D01*
G03X-26140Y16730I1081J742D01*
G01X-25150Y15740D01*
G03X-25000Y15620I893J962D01*
G02X-24880Y15490I-302J-399D01*
G03X-24750Y15330I1080J745D01*
G01X-23760Y14340D01*
G03X-23600Y14210I905J950D01*
G02X-23470Y14090I-269J-422D01*
G03X-23350Y13940I1082J743D01*
G01X-22360Y12950D01*
G03X-22210Y12830I892J961D01*
G02X-22080Y12700I-282J-412D01*
G03X-21960Y12550I1081J742D01*
G01X-20970Y11560D01*
G03X-20820Y11440I892J961D01*
G02X-20690Y11310I-282J-412D01*
G03X-20570Y11160I1081J742D01*
G01X-19580Y10170D01*
G03X-19430Y10050I891J960D01*
G02X-19300Y9920I-282J-412D01*
G03X-19180Y9770I1081J742D01*
G01X-18190Y8780D01*
G03X-18040Y8660I891J960D01*
G02X-17910Y8530I-282J-412D01*
G03X-17790Y8380I1081J742D01*
G01X-16800Y7390D01*
G03X-16650Y7270I893J962D01*
G02X-16530Y7140I-302J-399D01*
G03X-16400Y6980I1080J745D01*
G01X-15410Y5990D01*
G03X-15250Y5860I905J950D01*
G02X-15120Y5740I-269J-422D01*
G03X-15000Y5590I1082J743D01*
G01X-14010Y4600D01*
G03X-13100Y4220I923J932D01*
G02X-12600Y3720I-1J-501D01*
G03X-12220Y2810I1312J13D01*
G01X-11230Y1820D01*
G03X-11080Y1700I891J960D01*
G02X-10950Y1570I-282J-412D01*
G03X-10830Y1420I1080J741D01*
G01X-9840Y430D01*
G03X-9690Y310I892J962D01*
G02X-9570Y180I-302J-399D01*
G03X-9440Y20I1080J745D01*
G01X-8450Y-970D01*
G03X-8290Y-1100I905J950D01*
G02X-8160Y-1220I-269J-422D01*
G03X-8040Y-1370I1082J743D01*
G01X-7050Y-2360D01*
G03X-6900Y-2480I891J960D01*
G02X-6770Y-2610I-282J-412D01*
G03X-6650Y-2760I1080J741D01*
G01X-5660Y-3750D01*
G03X-3800I930J929D01*
G01X-3700Y-3650D01*
G02X-2990I355J-351D01*
G01X-2890Y-3750D01*
G03X-1610Y-4080I919J918D01*
G01X-1470Y-4040D01*
X-1220Y-4110D01*
X-10Y-5320D01*
G02Y-6020I-357J-350D01*
G01X-3730Y-9740D01*
G02X-4430I-350J356D01*
G01X-5200Y-8980D01*
G03X-7040I-920J-918D01*
G01X-12250Y-14180D01*
G02X-12660Y-14320I-351J357D01*
G01X-13570Y-14200D01*
X-13760Y-14070D01*
X-13820Y-13960D01*
G03X-15840Y-12780I-2020J-1139D01*
G03X-18160Y-15100I0J-2320D01*
G03X-16980Y-17120I2319J0D01*
G01X-16870Y-17180D01*
X-16740Y-17370D01*
X-16620Y-18280D01*
G02X-16760Y-18690I-497J-59D01*
G01X-38150Y-40090D01*
X-38450Y-40140D01*
X-38590Y-40070D01*
G03X-39330Y-39910I-744J-1651D01*
G01X-39980D01*
G02X-40270Y-39820I-4J500D01*
G03X-43090Y-43500I-1332J-1899D01*
G01X-43000Y-43570D01*
X-42920Y-43750D01*
X-42880Y-44590D01*
G02X-43030Y-44970I-499J-23D01*
G01X-55370Y-57310D01*
G03Y-59150I918J-920D01*
G01X-54980Y-59540D01*
G02Y-60240I-357J-350D01*
G01X-55490Y-60750D01*
X-55640Y-60810D01*
X-55740Y-60820D01*
G03X-57390Y-61660I141J-2318D01*
G01X-57460Y-61750D01*
X-57640Y-61830D01*
X-58490Y-61870D01*
G02X-58870Y-61720I-23J499D01*
G01X-60240Y-60350D01*
X-60310Y-60100D01*
X-60270Y-59960D01*
G03X-60600Y-58680I-1248J361D01*
G01X-60700Y-58580D01*
G02Y-57870I351J355D01*
G01X-60600Y-57770D01*
G03Y-55910I-929J930D01*
G01X-60960Y-55560D01*
G02X-61060Y-55000I355J352D01*
G03X-60900Y-54240I-1654J745D01*
G01Y-52410D01*
G02X-60810Y-52120I500J4D01*
G03X-64860Y-51660I-1900J1330D01*
G01X-65770Y-50740D01*
G03X-65920Y-50620I-891J-960D01*
G02X-66050Y-50490I282J412D01*
G03X-66170Y-50340I-1080J-741D01*
G01X-67160Y-49350D01*
G03X-67310Y-49230I-891J-960D01*
G02X-67440Y-49100I282J412D01*
G03X-67560Y-48950I-1080J-741D01*
G01X-68550Y-47960D01*
G03X-68700Y-47840I-892J-962D01*
G02X-68820Y-47710I302J399D01*
G03X-68950Y-47550I-1080J-745D01*
G01X-69940Y-46560D01*
G03X-70100Y-46430I-905J-950D01*
G02X-70230Y-46310I269J422D01*
G03X-70350Y-46160I-1082J-742D01*
G01X-71340Y-45170D01*
G03X-71490Y-45050I-891J-960D01*
G02X-71620Y-44920I282J412D01*
G03X-71740Y-44770I-1080J-741D01*
G01X-72730Y-43780D01*
G03X-72880Y-43660I-891J-960D01*
G02X-73010Y-43530I282J412D01*
G03X-73130Y-43380I-1080J-741D01*
G01X-74120Y-42390D01*
G03X-74270Y-42270I-891J-960D01*
G02X-74400Y-42140I282J412D01*
G03X-74520Y-41990I-1080J-741D01*
G01X-75510Y-41000D01*
G03X-75660Y-40880I-891J-960D01*
G02X-75790Y-40750I282J412D01*
G03X-75910Y-40600I-1080J-741D01*
G01X-76900Y-39610D01*
G03X-77820Y-39230I-923J-932D01*
G01X-77830D01*
G02X-78320Y-38740I12J502D01*
G01Y-38730D01*
G03X-78700Y-37810I-1312J-3D01*
G01X-79690Y-36820D01*
G03X-79840Y-36700I-891J-960D01*
G02X-79970Y-36570I282J412D01*
G03X-80090Y-36420I-1080J-741D01*
G01X-81080Y-35430D01*
G03X-81230Y-35310I-893J-962D01*
G02X-81350Y-35180I302J399D01*
G03X-81480Y-35020I-1080J-745D01*
G01X-82470Y-34030D01*
G03X-82630Y-33900I-905J-950D01*
G02X-82760Y-33780I269J422D01*
G03X-82880Y-33630I-1082J-742D01*
G01X-83870Y-32640D01*
G03X-84020Y-32520I-893J-962D01*
G02X-84140Y-32400I290J410D01*
G03X-84260Y-32250I-1082J-742D01*
G01X-85250Y-31260D01*
G03X-85400Y-31140I-893J-962D01*
G02X-85520Y-31010I302J399D01*
G03X-85650Y-30850I-1080J-745D01*
G01X-86640Y-29860D01*
G03X-86800Y-29730I-905J-950D01*
G02X-86930Y-29610I269J422D01*
G03X-87050Y-29460I-1082J-742D01*
G01X-88040Y-28470D01*
G03X-88190Y-28350I-892J-961D01*
G02X-88320Y-28220I282J412D01*
G03X-88440Y-28070I-1080J-741D01*
G01X-89430Y-27080D01*
G03X-89580Y-26960I-893J-962D01*
G02X-89700Y-26830I302J399D01*
G03X-89830Y-26670I-1080J-745D01*
G01X-90820Y-25680D01*
G03X-90980Y-25550I-905J-950D01*
G02X-91110Y-25430I269J422D01*
G03X-91230Y-25280I-1082J-742D01*
G01X-92220Y-24290D01*
G03X-94080I-930J-929D01*
G01X-94450Y-24670D01*
X-94500Y-24560D01*
X-93520Y-23580D01*
G03X-92990Y-22300I-1281J1280D01*
G01Y-21420D01*
G02X-92900Y-21130I500J4D01*
G03X-96860Y-18730I-1903J1327D01*
G02X-97660Y-18850I-443J229D01*
G01X-97780Y-18730D01*
G03X-97930Y-18610I-892J-962D01*
G02X-98050Y-18480I302J399D01*
G03X-98180Y-18320I-1080J-745D01*
G01X-99170Y-17330D01*
G03X-99330Y-17200I-905J-950D01*
G02X-99460Y-17080I269J422D01*
G03X-99580Y-16930I-1082J-743D01*
G01X-100570Y-15940D01*
G03X-100720Y-15820I-892J-961D01*
G02X-100850Y-15690I282J412D01*
G03X-100970Y-15540I-1080J-741D01*
G01X-101960Y-14550D01*
G03X-102110Y-14430I-892J-961D01*
G02X-102240Y-14300I282J412D01*
G03X-102360Y-14150I-1080J-741D01*
G01X-103350Y-13160D01*
G03X-103500Y-13040I-892J-961D01*
G02X-103630Y-12910I282J412D01*
G03X-103750Y-12760I-1080J-741D01*
G01X-104740Y-11770D01*
G03X-104890Y-11650I-892J-962D01*
G02X-105010Y-11520I302J399D01*
G03X-105140Y-11360I-1080J-745D01*
G01X-106130Y-10370D01*
G03X-106290Y-10240I-905J-950D01*
G02X-106420Y-10120I269J422D01*
G03X-106540Y-9970I-1082J-743D01*
G01X-107530Y-8980D01*
G03X-107680Y-8860I-891J-960D01*
G02X-107810Y-8730I282J412D01*
G03X-107930Y-8580I-1080J-741D01*
G01X-108920Y-7590D01*
G03X-110780I-930J-929D01*
G01X-110880Y-7690D01*
G02X-111590I-355J351D01*
G01X-111690Y-7590D01*
G03X-112470Y-7210I-927J-913D01*
G01X-112560Y-7200D01*
X-112710Y-7140D01*
X-114200Y-5650D01*
G02Y-4950I357J350D01*
G01X-110850Y-1600D01*
G02X-110150I350J-356D01*
G01X-109380Y-2360D01*
G03X-108860Y-2680I922J916D01*
G01X-108850D01*
G02X-108660Y-2800I-166J-473D01*
G01X-108540Y-2920D01*
G03X-107260Y-3450I1280J1281D01*
G01X-104340D01*
G03X-103370Y-3170I0J1820D01*
G02X-103170Y-3100I261J-425D01*
G03X-102270Y1170I-327J2299D01*
G02X-102510Y1540I258J430D01*
G01X-102590Y2320D01*
G02X-102450Y2730I495J60D01*
G01X-59210Y45970D01*
G03Y47810I-918J920D01*
G01X-59780Y48380D01*
G02X-59900Y48880I357J350D01*
G03X-59840Y49230I-1550J446D01*
G01X-59830Y49330D01*
X-59770Y49480D01*
X-58010Y51240D01*
G02X-57310Y51230I345J-359D01*
G01X-56210Y50140D01*
X-56220Y49720D01*
X-56290Y49650D01*
X-55270Y48630D01*
G02Y47920I-351J-355D01*
G01X-55370Y47820D01*
G03Y45960I929J-930D01*
G01X-54380Y44970D01*
G37*
G36*
G01X93200Y74400D02*
Y58200D01*
G02X92700Y57700I-500J0D01*
G01X77800D01*
G02X77300Y58200I0J500D01*
G01Y74400D01*
G02X77800Y74900I500J0D01*
G01X92700D01*
G02X93200Y74400I0J-500D01*
G37*
%LPC*%
G75*
G36*
G01X28690Y104310D02*
Y108050D01*
G02X30000Y109360I1310J0D01*
G01X38460D01*
G02X39770Y108050I0J-1310D01*
G01Y104310D01*
G02X38460Y103000I-1310J0D01*
G01X30000D01*
G02X28690Y104310I0J1310D01*
G37*
G36*
G01Y95250D02*
Y98990D01*
G02X30000Y100300I1310J0D01*
G01X38460D01*
G02X39770Y98990I0J-1310D01*
G01Y95250D01*
G02X38460Y93940I-1310J0D01*
G01X30000D01*
G02X28690Y95250I0J1310D01*
G37*
G36*
G01X-53440Y114930D02*
Y118870D01*
G02X-52130Y120180I1310J0D01*
G01X-47410D01*
G02X-46100Y118870I0J-1310D01*
G01Y114930D01*
G02X-47410Y113620I-1310J0D01*
G01X-52130D01*
G02X-53440Y114930I0J1310D01*
G37*
G36*
G01X-24300D02*
Y118870D01*
G02X-22990Y120180I1310J0D01*
G01X-18270D01*
G02X-16960Y118870I0J-1310D01*
G01Y114930D01*
G02X-18270Y113620I-1310J0D01*
G01X-22990D01*
G02X-24300Y114930I0J1310D01*
G37*
G36*
G01X-44380Y104980D02*
Y108720D01*
G02X-43070Y110030I1310J0D01*
G01X-38350D01*
G02X-37040Y108720I0J-1310D01*
G01Y104980D01*
G02X-37270Y104240I-1305J0D01*
G03X-37360Y103960I412J-287D01*
G01Y103640D01*
G03X-37270Y103360I502J7D01*
G02X-37040Y102620I-1075J-740D01*
G01Y98880D01*
G02X-38350Y97570I-1310J0D01*
G01X-43070D01*
G02X-44380Y98880I0J1310D01*
G01Y102620D01*
G02X-44150Y103360I1305J0D01*
G03X-44060Y103640I-412J287D01*
G01Y103960D01*
G03X-44150Y104240I-502J-7D01*
G02X-44380Y104980I1075J740D01*
G37*
G36*
G01X-33360D02*
Y108720D01*
G02X-32050Y110030I1310J0D01*
G01X-27330D01*
G02X-26020Y108720I0J-1310D01*
G01Y104980D01*
G02X-26250Y104240I-1305J0D01*
G03X-26340Y103960I412J-287D01*
G01Y103640D01*
G03X-26250Y103360I502J7D01*
G02X-26020Y102620I-1075J-740D01*
G01Y98880D01*
G02X-27330Y97570I-1310J0D01*
G01X-32050D01*
G02X-33360Y98880I0J1310D01*
G01Y102620D01*
G02X-33130Y103360I1305J0D01*
G03X-33040Y103640I-412J287D01*
G01Y103960D01*
G03X-33130Y104240I-502J-7D01*
G02X-33360Y104980I1075J740D01*
G37*
G36*
G01X-103850Y98470D02*
G02X-108000Y96140I-4150J2531D01*
G02Y105860I0J4860D01*
G02X-103850Y103530I0J-4861D01*
G03X-102150I850J525D01*
G02X-98000Y105860I4150J-2531D01*
G02Y96140I0J-4860D01*
G02X-102150Y98470I0J4861D01*
G03X-103850I-850J-525D01*
G37*
G54D52*
X-45140Y24580D03*
G54D51*
X-66000Y101000D03*
X-128000D03*
%LPD*%
G75*
G54D10*
X-221600Y-74300D03*
Y-44300D03*
Y-54300D03*
Y-64300D03*
Y-24300D03*
Y-34300D03*
Y-4300D03*
Y-14300D03*
Y15700D03*
Y5700D03*
Y45700D03*
Y35700D03*
Y25700D03*
Y65700D03*
Y55700D03*
Y85700D03*
Y75700D03*
X-216500Y-96700D03*
Y-86700D03*
X-211600Y-74300D03*
Y-44300D03*
Y-54300D03*
Y-64300D03*
Y-24300D03*
Y-34300D03*
Y-4300D03*
Y-14300D03*
Y15700D03*
Y5700D03*
Y45700D03*
Y35700D03*
Y25700D03*
Y65700D03*
Y55700D03*
Y85700D03*
Y75700D03*
X-199610Y95700D03*
X-189610D03*
X-179610D03*
X-169610D03*
X-159610D03*
X-132110Y44650D03*
X-149610Y95700D03*
X-128000Y101000D03*
X-119140Y-116400D03*
X-109140D03*
X-112110Y44650D03*
X-122110D03*
X-108000Y101000D03*
X-118000D03*
X-99140Y-116400D03*
X-89140D03*
X-102110Y44650D03*
X-98000Y101000D03*
X-66000D03*
X-76000D03*
X-6830Y-101140D03*
X3170D03*
X-7860Y110300D03*
X2140D03*
X-7860Y120300D03*
X2140D03*
X13170Y-101140D03*
X23170D03*
X12140Y110300D03*
Y120300D03*
X48300Y-101140D03*
X58300D03*
X68300D03*
X72900Y100690D03*
X78300Y-101140D03*
X82900Y100690D03*
X105270Y-101140D03*
X115270D03*
Y100690D03*
X105270D03*
X125270Y-101140D03*
X135270D03*
X145270D03*
Y100690D03*
X135270D03*
X125270D03*
X155270Y-101140D03*
Y100690D03*
G54D20*
X-141600Y40950D03*
Y47050D03*
X87270Y37380D03*
Y43480D03*
G54D11*
G01X-211600Y45700D02*
X-221600Y35700D01*
G01X-202000Y45500D02*
Y50950D01*
X-201950Y51000D01*
G01D02*
Y56520D01*
G01Y51000D02*
X-204350D01*
G03X-207680Y49620I0J-4708D01*
G01X-211600Y45700D01*
G01D02*
X-221600Y55700D01*
G01X-144550Y-31740D02*
X-150450Y-25840D01*
X-186790D01*
G01X-160520Y35530D02*
X-118500D01*
G01X-135610Y-31740D02*
X-144550D01*
G01X-123300D02*
X-135610D01*
G01X-126900Y-84400D02*
X-123300Y-80800D01*
Y-31740D01*
G01X-118500Y35530D02*
X-95750D01*
G01X-78320Y98680D02*
Y86060D01*
G01X-76000Y101000D02*
X-78320Y98680D01*
G01X-17200Y-61200D02*
X63350D01*
G01X21200Y73220D02*
Y67220D01*
G01X34230Y88060D02*
X62570D01*
G03X66100Y91590I0J3530D01*
G01Y103300D01*
G02X71900Y109100I5800J0D01*
G01X102710D01*
G02X109790Y106170I0J-10019D01*
G01X115270Y100690D01*
G01X87270Y28990D02*
Y37380D01*
G01X163250Y1750D02*
Y30910D01*
G03X160250Y38120I-10184J-8D01*
G03X153630Y40870I-6629J-6614D01*
G01X153240D01*
G02X148450Y42850I0J6784D01*
G01X138830Y52470D01*
G02X135900Y59550I7089J7080D01*
G01Y75910D01*
G03X132970Y82990I-10019J0D01*
G01X115270Y100690D01*
G01X145270Y-101140D02*
X149470Y-96940D01*
G03X152400Y-89860I-7089J7080D01*
G01Y-62050D01*
G02X155330Y-54970I10019J0D01*
G01X160320Y-49980D01*
G03X163250Y-42900I-7089J7080D01*
G01Y1750D01*
X-200910Y-26200D03*
X-203000Y-28400D03*
X-204800Y-24900D03*
Y-30300D03*
X-206600Y-26700D03*
X-200910Y-15600D03*
X-203000Y-20500D03*
X-206600Y-21000D03*
X-200840Y-11100D03*
X-205700D03*
X-205650Y-8350D03*
X-205700Y-4990D03*
Y-1210D03*
X-207800Y1110D03*
X-202000Y45500D03*
X-187200Y-96700D03*
X-195700Y-71110D03*
X-196180Y-26100D03*
X-181870Y-17580D03*
X-196180Y-13700D03*
X-199040Y-8350D03*
X-197200Y-4990D03*
X-195400Y-1210D03*
X-190510Y1110D03*
X-183300Y5700D03*
X-195900Y10200D03*
X-184330Y21630D03*
X-186200Y23600D03*
X-187000Y65700D03*
X-195850Y51000D03*
Y56520D03*
Y45480D03*
X-176650Y49020D03*
X-187000Y72400D03*
X-178810Y68400D03*
Y76400D03*
X-181510Y68400D03*
Y76400D03*
X-189100Y68800D03*
Y75700D03*
X-176200Y10200D03*
X-170990Y11110D03*
X-170970Y8520D03*
X-170520Y5510D03*
X-165800Y11200D03*
X-166620Y35530D03*
X-163360Y43070D03*
X-168400Y23600D03*
X-165800D03*
X-166380Y50980D03*
X-166330Y47050D03*
X-160520Y52950D03*
X-170240Y68400D03*
Y76400D03*
X-173120Y68400D03*
Y76400D03*
X-176110Y68400D03*
Y76400D03*
X-167520Y68400D03*
Y76400D03*
X-168120Y107680D03*
X-135610Y-25840D03*
X-144600Y-37650D03*
X-144550Y-31740D03*
X-133300Y11180D03*
X-150680Y39270D03*
X-141600Y40950D03*
X-126900Y-96700D03*
Y-103200D03*
Y-90800D03*
Y-84400D03*
X-108990Y-53200D03*
X-119600Y-39800D03*
X-127000Y-39970D03*
X-112010Y5900D03*
X-112110Y8790D03*
X-118500Y35530D03*
X-108000Y92500D03*
X-89700Y-70100D03*
X-106150Y-53150D03*
X-100620Y-53170D03*
X-103420Y-53180D03*
X-91130Y-46470D03*
X-97780Y-53120D03*
X-89990Y-67600D03*
X-94250Y-41250D03*
X-91420Y-43970D03*
X-94220Y-43980D03*
X-96990Y-41200D03*
X-97040Y-38460D03*
X-106230Y-25380D03*
X-103500Y-800D03*
X-94800Y-19800D03*
X-107120Y-4650D03*
X-91630Y-21930D03*
X-98860Y17800D03*
X-93190Y9280D03*
X-85960Y32740D03*
X-95750Y35530D03*
X-98000Y90600D03*
X-73230Y-95520D03*
X-62710Y-50790D03*
X-66840Y-61160D03*
X-75690Y-56090D03*
X-75990Y-53600D03*
X-71500Y-57460D03*
X-84940Y-43060D03*
X-76210Y-37320D03*
X-68960Y29740D03*
X-79040Y23440D03*
X-66840Y49820D03*
X-78320Y86060D03*
X-66200Y84400D03*
X-66000Y90800D03*
X-42530Y-76210D03*
X-44450Y-77830D03*
X-40300Y-74000D03*
X-55600Y-63140D03*
X-57490Y-64790D03*
X-58140Y-55340D03*
X-46000Y-68300D03*
X-44160Y-66440D03*
X-39390Y-52800D03*
X-43760Y-59560D03*
X-58440Y-67550D03*
X-46350Y-59760D03*
X-61200Y-67690D03*
X-43560Y-56980D03*
X-41600Y-41720D03*
X-39610Y-38480D03*
X-57560Y-5850D03*
X-40820Y28900D03*
X-41910Y44510D03*
X-45140Y24580D03*
X-59960Y39240D03*
X-50640Y38660D03*
X-45640Y33750D03*
X-45880Y48890D03*
X-43600Y92200D03*
X-41210Y100540D03*
X-40800Y106850D03*
X-49770Y116900D03*
X-38460Y-72140D03*
X-28990Y-71500D03*
X-33410Y-72700D03*
X-30790Y-69750D03*
X-17200Y-61200D03*
X-25090Y-67100D03*
X-19900Y-33320D03*
X-25750Y-24620D03*
X-29710Y17710D03*
X-21290Y23370D03*
X-32200Y84400D03*
X-26500D03*
X-37700D03*
X-20700Y92400D03*
X-29680Y106930D03*
X-29800Y100850D03*
X-20700Y116900D03*
X-8700Y-64500D03*
X-15840Y-15100D03*
X-7580Y-6460D03*
X-14700Y2400D03*
X-3950Y51230D03*
X-14530Y61810D03*
X21200Y-55800D03*
X18490Y-55810D03*
X12060Y-55800D03*
Y-47500D03*
X8100Y-55800D03*
Y-51100D03*
X21200Y-43900D03*
X18490D03*
X21200Y60820D03*
X21970Y81100D03*
X17000Y92300D03*
X12140D03*
X45650Y26500D03*
X45250Y68880D03*
X40330Y76990D03*
X34230Y106180D03*
X34580Y97120D03*
X63270Y-69900D03*
X63070Y-74200D03*
X69450Y-61200D03*
X63350D03*
X63170Y-65500D03*
X74440Y43480D03*
X61790Y47700D03*
X57070Y97120D03*
X85600Y59700D03*
X90000Y66190D03*
X87000D03*
X84000D03*
X81000D03*
X90000Y63190D03*
X87000D03*
X84000D03*
X81000D03*
X85520Y87310D03*
X90000Y69190D03*
X87000D03*
X84000D03*
X81000D03*
X111160Y-78840D03*
X111030Y-61600D03*
X107460Y28990D03*
X115420Y43480D03*
X100730Y28990D03*
X110900Y61280D03*
X110830Y78490D03*
X134700Y-9250D03*
X134500Y18000D03*
X144400Y-78840D03*
X144250Y-61600D03*
X158500Y-19000D03*
X153000Y-21000D03*
X163250Y1750D03*
X158600Y10000D03*
X144800Y27700D03*
X146600Y25800D03*
X144250Y61280D03*
X144300Y78490D03*
X186000Y20000D03*
X167300Y31070D03*
X169100Y29200D03*
G54D12*
X-201950Y45480D03*
Y51000D03*
Y56520D03*
X-195850Y45480D03*
X-176650Y49020D03*
X-195850Y51000D03*
Y56520D03*
X-166620Y35530D03*
X-160520D03*
X-170550Y49020D03*
X40330Y76990D03*
X34230D03*
X69450Y-61200D03*
X63350D03*
X74440Y43480D03*
X80540D03*
G54D21*
X-126900Y-96700D03*
Y-103100D03*
Y-90800D03*
Y-84400D03*
X-66200Y84400D03*
Y90800D03*
X21200Y67220D03*
Y60820D03*
G54D30*
X45770Y-14960D03*
Y24020D03*
G54D13*
X-186790Y-96700D03*
Y-90800D03*
Y-84890D03*
Y-78990D03*
Y-73080D03*
Y-67170D03*
Y-61270D03*
Y-55360D03*
Y-49460D03*
Y-43550D03*
Y-37650D03*
Y-31740D03*
Y-25840D03*
X-135610Y-96700D03*
Y-73080D03*
Y-78990D03*
Y-84890D03*
Y-90800D03*
Y-49460D03*
Y-55360D03*
Y-61270D03*
Y-67170D03*
Y-25840D03*
Y-31740D03*
Y-37650D03*
Y-43550D03*
G54D40*
X155670Y-35000D03*
G54D22*
X-123300Y-31740D03*
X-119560Y-39800D03*
X-127040D03*
G54D31*
X34230Y47700D03*
X61790D03*
G54D50*
G01X200600Y20530D02*
Y-76560D01*
G02X187440Y-89720I-13160J0D01*
G01X183500D01*
G01X175670Y20000D02*
X186000D01*
G01D02*
X200070D01*
X200600Y20530D01*
G01X180210Y78520D02*
Y73600D01*
X190970Y62840D01*
G02X200600Y39590I-23252J-23250D01*
G01Y20530D01*
G01X190050Y97020D02*
X205610D01*
G02X217000Y85630I0J-11390D01*
G01Y-57300D01*
G54D32*
X45250Y68880D03*
X34230D03*
G54D14*
X-195700Y-78990D03*
Y-71110D03*
X21200Y81100D03*
Y73220D03*
G54D41*
X183500Y-89720D03*
G54D23*
X-107050Y-15070D03*
X-108440Y-13670D03*
X-109840Y-12280D03*
X-111230Y-10890D03*
X-84780Y-37330D03*
X-86180Y-35940D03*
X-87560Y-34560D03*
X-88950Y-33160D03*
X-90350Y-31770D03*
X-91740Y-30380D03*
X-93130Y-28980D03*
X-94530Y-27590D03*
X-95920Y-26200D03*
X-97310Y-24810D03*
X-98700Y-23420D03*
X-100090Y-22030D03*
X-101480Y-20630D03*
X-102880Y-19240D03*
X-104270Y-17850D03*
X-105660Y-16460D03*
X-62510Y-59610D03*
X-63900Y-58220D03*
X-65290Y-56820D03*
X-66690Y-55430D03*
X-68080Y-54040D03*
X-69470Y-52650D03*
X-70860Y-51260D03*
X-72250Y-49860D03*
X-73650Y-48470D03*
X-75040Y-47080D03*
X-76430Y-45690D03*
X-77820Y-44300D03*
X-79210Y-42910D03*
X-80600Y-41510D03*
X-82000Y-40120D03*
X-83390Y-38730D03*
X-49290Y45480D03*
X-47890Y44090D03*
X-46500Y42700D03*
X-45110Y41310D03*
X-43720Y39920D03*
X-42330Y38520D03*
X-40930Y37130D03*
X-39540Y35740D03*
X-38150Y34350D03*
X-52070Y48270D03*
X-50680Y46880D03*
X-27020Y23220D03*
X-25630Y21820D03*
X-24230Y20430D03*
X-22840Y19040D03*
X-21450Y17640D03*
X-20050Y16250D03*
X-18660Y14860D03*
X-17270Y13470D03*
X-15880Y12080D03*
X-36760Y32960D03*
X-35370Y31570D03*
X-33980Y30170D03*
X-32580Y28780D03*
X-31190Y27390D03*
X-29800Y25990D03*
X-28400Y24600D03*
X-3350Y-450D03*
X-14490Y10690D03*
X-13100Y9290D03*
X-11700Y7900D03*
X-10310Y6510D03*
X-8920Y5120D03*
X-7530Y3730D03*
X-6140Y2330D03*
X-4740Y940D03*
G54D15*
X-181870Y-17580D03*
X-175960D03*
X-170060D03*
X-164150D03*
X-158250D03*
X-152340D03*
X-146440D03*
X-140530D03*
G54D33*
X34230Y88060D03*
Y97120D03*
Y106180D03*
G54D42*
X183500Y-64280D03*
G54D24*
X-111230Y-450D03*
X-109840Y940D03*
X-108440Y2330D03*
X-107050Y3730D03*
X-105660Y5120D03*
X-104270Y6510D03*
X-102880Y7900D03*
X-101480Y9290D03*
X-100090Y10690D03*
X-98700Y12080D03*
X-97310Y13470D03*
X-95920Y14860D03*
X-94530Y16250D03*
X-93130Y17640D03*
X-91740Y19040D03*
X-90350Y20430D03*
X-88950Y21820D03*
X-87560Y23220D03*
X-86180Y24600D03*
X-84780Y25990D03*
X-83390Y27390D03*
X-82000Y28780D03*
X-80600Y30170D03*
X-79210Y31570D03*
X-77820Y32960D03*
X-76430Y34350D03*
X-75040Y35740D03*
X-73650Y37130D03*
X-72250Y38520D03*
X-70860Y39920D03*
X-69470Y41310D03*
X-68080Y42700D03*
X-66690Y44090D03*
X-65290Y45480D03*
X-63900Y46880D03*
X-62510Y48270D03*
X-38150Y-45690D03*
X-39540Y-47080D03*
X-40930Y-48470D03*
X-42330Y-49860D03*
X-43720Y-51260D03*
X-45110Y-52650D03*
X-46500Y-54040D03*
X-47890Y-55430D03*
X-49290Y-56820D03*
X-50680Y-58220D03*
X-52070Y-59610D03*
X-15880Y-23420D03*
X-17270Y-24810D03*
X-18660Y-26200D03*
X-20050Y-27590D03*
X-21450Y-28980D03*
X-22840Y-30380D03*
X-24230Y-31770D03*
X-25630Y-33160D03*
X-27020Y-34560D03*
X-28400Y-35940D03*
X-29800Y-37330D03*
X-31190Y-38730D03*
X-32580Y-40120D03*
X-33980Y-41510D03*
X-35370Y-42910D03*
X-36760Y-44300D03*
X-3350Y-10890D03*
X-4740Y-12280D03*
X-6140Y-13670D03*
X-7530Y-15070D03*
X-8920Y-16460D03*
X-10310Y-17850D03*
X-11700Y-19240D03*
X-13100Y-20630D03*
X-14490Y-22030D03*
G54D16*
X-178550Y123300D03*
X-147450D03*
G54D34*
X94000Y-12890D03*
G54D25*
X-73230Y-121110D03*
Y-106540D03*
Y-95520D03*
X-26770Y-121110D03*
Y-106540D03*
Y-95520D03*
G54D43*
X180210Y78520D03*
X203830D03*
G54D26*
X-40710Y100750D03*
Y106850D03*
X-29690Y100750D03*
Y106850D03*
G54D17*
X-154620Y42240D03*
X-156580D03*
X-158550D03*
X-160520D03*
Y57760D03*
X-158550D03*
X-156580D03*
X-154620D03*
X-150680Y42240D03*
X-152650D03*
Y57760D03*
X-150680D03*
G54D44*
X190050Y97020D03*
G54D35*
X57070Y97120D03*
G54D36*
X98880Y43480D03*
X111030Y-78840D03*
Y-61600D03*
X115420Y43480D03*
X110900Y61280D03*
Y78520D03*
X127570Y-78840D03*
X144250D03*
X127570Y-61600D03*
X144250D03*
Y61280D03*
X127440D03*
X144250Y78520D03*
X127440D03*
X160790Y-78840D03*
Y-61600D03*
Y61280D03*
Y78520D03*
G54D27*
X-49770Y116900D03*
X-20630D03*
G54D18*
X-163360Y50980D03*
Y52950D03*
Y54920D03*
Y45080D03*
Y47050D03*
Y49020D03*
X-147840Y54920D03*
Y52950D03*
Y50980D03*
Y49020D03*
Y47050D03*
Y45080D03*
G54D45*
X217000Y-95100D03*
Y-76200D03*
Y-57300D03*
G54D46*
G01X-187200Y-96700D02*
X-216500D01*
G01X-196180Y-26100D02*
Y-35120D01*
X-203200Y-42140D01*
Y-63410D01*
X-208690Y-68900D01*
X-216200D01*
X-221600Y-74300D01*
G01X-32580Y-40120D02*
X-29300Y-43400D01*
Y-60420D01*
X-44980Y-76100D01*
X-70900D01*
X-108200Y-38800D01*
X-108220D01*
X-135320Y-11700D01*
X-184310D01*
X-194380Y-21770D01*
Y-34880D01*
X-202100Y-42600D01*
Y-64800D01*
X-211600Y-74300D01*
G01X-216500Y-86700D02*
X-200900Y-71100D01*
Y-42960D01*
X-193100Y-35160D01*
Y-30180D01*
X-188760Y-25840D01*
X-186790D01*
G01X-200910Y-26200D02*
Y-35170D01*
X-206500Y-40760D01*
Y-46390D01*
X-209110Y-49000D01*
X-216300D01*
X-221600Y-54300D01*
G01X-211600Y-64300D02*
X-204300Y-57000D01*
Y-41680D01*
X-198000Y-35380D01*
Y-23830D01*
X-184770Y-10600D01*
X-134860D01*
X-107760Y-37700D01*
X-107740D01*
X-70440Y-75000D01*
X-45440D01*
X-34900Y-64460D01*
Y-48940D01*
X-38150Y-45690D01*
G01X-221600Y-64300D02*
X-216500Y-59200D01*
X-209400D01*
X-205400Y-55200D01*
Y-41220D01*
X-199100Y-34920D01*
Y-23370D01*
X-185230Y-9500D01*
X-134400D01*
X-107300Y-36600D01*
X-107280D01*
X-69980Y-73900D01*
X-45900D01*
X-36200Y-64200D01*
Y-50420D01*
X-39540Y-47080D01*
G01X-203000Y-28400D02*
Y-35700D01*
X-211600Y-44300D01*
G01X-204800Y-30300D02*
Y-35940D01*
X-208040Y-39180D01*
X-216480D01*
X-221600Y-44300D01*
G01X-204800Y-24900D02*
X-187200Y-7300D01*
X-133480D01*
X-106380Y-34400D01*
X-106360D01*
X-69060Y-71700D01*
X-46850D01*
X-41700Y-66550D01*
Y-56060D01*
X-45110Y-52650D01*
G01X-211600Y-34300D02*
X-185690Y-8400D01*
X-133940D01*
X-106840Y-35500D01*
X-106820D01*
X-69520Y-72800D01*
X-46390D01*
X-40600Y-67010D01*
Y-54380D01*
X-43720Y-51260D01*
G01X-206600Y-26700D02*
X-208700Y-28800D01*
X-216100D01*
X-221600Y-34300D01*
G01X-93130Y17640D02*
X-96190Y20700D01*
X-181140D01*
X-202710Y-870D01*
Y-17610D01*
X-204800Y-19700D01*
Y-21860D01*
X-207240Y-24300D01*
X-211600D01*
G01X-221600D02*
X-216500Y-19200D01*
X-208910D01*
X-205700Y-15990D01*
Y-11100D01*
G01X-200910Y-15600D02*
Y-13800D01*
X-191110Y-4000D01*
X-132100D01*
X-105800Y-30300D01*
X-97240D01*
X-94530Y-27590D01*
G01X-203000Y-20500D02*
X-198500Y-16000D01*
Y-13470D01*
X-190130Y-5100D01*
X-132560D01*
X-105460Y-32200D01*
X-96350D01*
X-93130Y-28980D01*
G01X-91740Y19040D02*
X-94500Y21800D01*
X-181600D01*
X-203810Y-410D01*
Y-16410D01*
X-206600Y-19200D01*
Y-21000D01*
G01X-200840Y-11100D02*
Y-560D01*
X-180680Y19600D01*
X-97880D01*
X-94530Y16250D01*
G01X-205650Y-8350D02*
X-211600Y-14300D01*
G01X-205700Y-4990D02*
X-209810Y-9100D01*
X-216400D01*
X-221600Y-14300D01*
G01X-205700Y-1210D02*
X-208510D01*
X-211600Y-4300D01*
G01X-207800Y1110D02*
X-216190D01*
X-221600Y-4300D01*
G01X-195900Y10200D02*
X-217100D01*
X-221600Y5700D01*
G01X-186200Y23600D02*
X-203700D01*
X-211600Y15700D01*
G01X-184330Y21630D02*
X-196260D01*
X-206540Y11350D01*
X-217250D01*
X-221600Y15700D01*
G01X-168400Y23600D02*
X-170500Y25700D01*
X-211600D01*
G01X-165800Y23600D02*
X-169200Y27000D01*
X-202900D01*
X-211600Y35700D01*
G01X-187000Y65700D02*
X-211600D01*
G01X-221600D02*
X-216700Y70600D01*
X-185290D01*
X-184590Y71300D01*
X-102240D01*
X-70860Y39920D01*
G01X-68080Y42700D02*
X-98880Y73500D01*
X-183710D01*
X-190710Y80500D01*
X-216400D01*
X-221600Y85700D01*
G01X-66690Y44090D02*
X-97200Y74600D01*
X-183250D01*
X-190250Y81600D01*
X-207500D01*
X-211600Y85700D01*
G01X-189100Y75700D02*
X-211600D01*
G01X-186790Y-96700D02*
X-187200D01*
G01X-195700Y-78990D02*
X-186790D01*
G01X-196180Y-13700D02*
X-188680Y-6200D01*
X-133020D01*
X-105920Y-33300D01*
X-94660D01*
X-91740Y-30380D01*
G01X-199040Y-8350D02*
Y-320D01*
X-180220Y18500D01*
X-105120D01*
X-98700Y12080D01*
G01X-197200Y-4990D02*
Y-40D01*
X-179760Y17400D01*
X-106800D01*
X-100090Y10690D01*
G01X-195400Y-1210D02*
X-177890Y16300D01*
X-108490D01*
X-101480Y9290D01*
G01X-102880Y7900D02*
X-110180Y15200D01*
X-176420D01*
X-190510Y1110D01*
G01X-183300Y5700D02*
X-174900Y14100D01*
X-111860D01*
X-104270Y6510D01*
G01X-178810Y68400D02*
X-173610Y63200D01*
X-110840D01*
X-79210Y31570D01*
G01X-80600Y30170D02*
X-112530Y62100D01*
X-175210D01*
X-181510Y68400D01*
G01X-187000Y72400D02*
X-100560D01*
X-69470Y41310D01*
G01X-178810Y76400D02*
Y84900D01*
X-189610Y95700D01*
G01X-181510Y76400D02*
X-196520Y91410D01*
Y92610D01*
X-199610Y95700D01*
G01X-189100Y68800D02*
X-185210D01*
X-183810Y70200D01*
X-103930D01*
X-72250Y38520D01*
G01X-176110Y76400D02*
Y92200D01*
X-179610Y95700D01*
G01X-170970Y8520D02*
X-160650Y-1800D01*
X-131020D01*
X-112530Y-20290D01*
X-106710D01*
X-104270Y-17850D01*
G01X-170520Y5510D02*
X-162110Y-2900D01*
X-131480D01*
X-112580Y-21800D01*
X-105440D01*
X-102880Y-19240D01*
G01X-176200Y10200D02*
X-173400Y13000D01*
X-113540D01*
X-105660Y5120D01*
G01X-170990Y11110D02*
X-159180Y-700D01*
X-130560D01*
X-112360Y-18900D01*
X-108100D01*
X-105660Y-16460D01*
G01X-165800Y11200D02*
Y7600D01*
X-158600Y400D01*
X-130100D01*
X-114980Y-14720D01*
X-112280D01*
X-109840Y-12280D01*
G01X-163360Y43070D02*
Y45080D01*
G01X-170240Y68400D02*
X-168340Y66500D01*
X-105800D01*
X-75040Y35740D01*
G01X-173120Y68400D02*
X-170120Y65400D01*
X-107480D01*
X-76430Y34350D01*
G01X-176110Y68400D02*
X-172010Y64300D01*
X-109160D01*
X-77820Y32960D01*
G01X-163360Y50980D02*
X-166380D01*
G01X-163360Y47050D02*
X-166330D01*
G01X-170550Y49020D02*
X-163360D01*
G01X-170240Y76400D02*
Y85070D01*
X-159610Y95700D01*
G01X-173120Y76400D02*
Y92190D01*
X-169610Y95700D01*
G01X-167520Y68400D02*
X-104920D01*
X-73650Y37130D01*
G01X-149610Y95700D02*
X-152700Y92610D01*
Y91220D01*
X-167520Y76400D01*
G01X-135610Y-96700D02*
X-126900D01*
G01X-135610Y-90800D02*
X-126900D01*
G01X-135610Y-37650D02*
X-144600D01*
G01X-111230Y-10890D02*
X-133300Y11180D01*
G01X-150680Y42240D02*
Y39270D01*
G01X-102110Y44650D02*
X-112380Y54920D01*
X-147840D01*
G01X-112110Y44650D02*
X-120410Y52950D01*
X-147840D01*
G01Y47050D02*
X-141600D01*
G01X-89700Y-70100D02*
X-116300Y-96700D01*
X-126900D01*
G01X-89990Y-67600D02*
X-113190Y-90800D01*
X-126900D01*
G01Y-84400D02*
X-126510D01*
G01X-108990Y-53200D02*
X-103890Y-58300D01*
X-96500D01*
X-80300Y-74500D01*
Y-114630D01*
X-73820Y-121110D01*
X-73230D01*
G01X-108440Y2330D02*
X-112010Y5900D01*
G01X-107050Y3730D02*
X-112110Y8790D01*
G01X-106150Y-53150D02*
X-102100Y-57200D01*
X-96040D01*
X-79200Y-74040D01*
Y-101160D01*
X-73820Y-106540D01*
X-73230D01*
G01X-26770D02*
X-43580D01*
X-95120Y-55000D01*
X-98790D01*
X-100620Y-53170D01*
G01X-26770Y-121110D02*
X-27360D01*
X-30490Y-117980D01*
X-33700D01*
X-95580Y-56100D01*
X-100500D01*
X-103420Y-53180D01*
G01X-26770Y-95520D02*
X-53040D01*
X-95440Y-53120D01*
X-97780D01*
G01X-87560Y-34560D02*
X-94250Y-41250D01*
G01X-84780Y-37330D02*
X-91420Y-43970D01*
G01X-86180Y-35940D02*
X-94220Y-43980D01*
G01X-83390Y-38730D02*
X-91130Y-46470D01*
G01X-88950Y-33160D02*
X-96990Y-41200D01*
G01X-90350Y-31770D02*
X-97040Y-38460D01*
G01X-101480Y-20630D02*
X-106230Y-25380D01*
G01X-108000Y92500D02*
X-96300D01*
X-52070Y48270D01*
G01X-98000Y90600D02*
X-95960D01*
X-61450Y56090D01*
Y49330D01*
X-62510Y48270D01*
G01X-79210Y-42910D02*
X-82500Y-46200D01*
Y-56700D01*
X-68600Y-70600D01*
X-48300D01*
X-46000Y-68300D01*
G01X-57490Y-64790D02*
X-66920D01*
X-70000Y-61710D01*
Y-58740D01*
X-66690Y-55430D01*
G01X-77820Y-44300D02*
X-81100Y-47580D01*
Y-56540D01*
X-68140Y-69500D01*
X-49790D01*
X-46730Y-66440D01*
X-44160D01*
G01X-70860Y-51260D02*
X-75690Y-56090D01*
G01X-72250Y-49860D02*
X-75990Y-53600D01*
G01X-58440Y-67550D02*
X-60100Y-65890D01*
X-68460D01*
X-78400Y-55950D01*
Y-50440D01*
X-75040Y-47080D01*
G01X-61200Y-67690D02*
X-68220D01*
X-79700Y-56210D01*
Y-48960D01*
X-76430Y-45690D01*
G01X-68080Y-54040D02*
X-71500Y-57460D01*
G01X13170Y-101140D02*
X7830Y-95800D01*
X-610D01*
X-11710Y-84700D01*
X-34040D01*
X-42530Y-76210D01*
G01X3170Y-101140D02*
X-12170Y-85800D01*
X-36480D01*
X-44450Y-77830D01*
G01X-40300Y-74000D02*
X-37600D01*
X-21200Y-57600D01*
X10260D01*
X12060Y-55800D01*
G01X-52070Y-59610D02*
X-55600Y-63140D01*
G01X-42330Y-49860D02*
X-39390Y-52800D01*
G01X-47890Y-55430D02*
X-43760Y-59560D01*
G01X-49290Y-56820D02*
X-46350Y-59760D01*
G01X-46500Y-54040D02*
X-43560Y-56980D01*
G01X-36760Y32960D02*
X-40820Y28900D01*
G01X-37700Y84400D02*
Y40360D01*
X-40930Y37130D01*
G01X-45880Y48890D02*
X-49290Y45480D01*
G01X-38460Y-72140D02*
X-22120Y-55800D01*
X8100D01*
G01X63270Y-69900D02*
X-27390D01*
X-28990Y-71500D01*
G01X-33410Y-72700D02*
X-31910Y-74200D01*
X63070D01*
G01X-30790Y-69750D02*
X-25540Y-64500D01*
X-8700D01*
G01X-25090Y-67100D02*
X-7990D01*
X-6390Y-65500D01*
X63170D01*
G01X18490Y-43900D02*
X1820D01*
X-17270Y-24810D01*
G01X155670Y15000D02*
X147700Y7030D01*
Y-14610D01*
X116610Y-45700D01*
X-1940D01*
X-20050Y-27590D01*
G01X158500Y-19000D02*
X149550D01*
X115650Y-52900D01*
X-5890D01*
X-25630Y-33160D01*
G01X153000Y-21000D02*
X149110D01*
X116110Y-54000D01*
X-7580D01*
X-27020Y-34560D01*
G01X155670Y5000D02*
X149900Y-770D01*
Y-15530D01*
X116130Y-49300D01*
X-6700D01*
X-24230Y-31770D01*
G01X-36760Y32960D02*
X-33600Y36120D01*
Y72700D01*
X-20700Y85600D01*
Y92400D01*
G01X-33980Y30170D02*
X-26310Y37840D01*
X-17340D01*
X-16220Y38960D01*
G01X-35370Y31570D02*
X-27920Y39020D01*
Y48420D01*
X-26800Y49540D01*
G01X-32200Y84400D02*
X-36400Y80200D01*
Y38880D01*
X-39540Y35740D01*
G01X-26500Y84400D02*
X-35000Y75900D01*
Y37500D01*
X-38150Y34350D01*
G01X-26800Y49540D02*
X-18850Y57490D01*
G01X21200Y-43900D02*
X19400Y-42100D01*
X2800D01*
X-15880Y-23420D01*
G01X144800Y27700D02*
Y-14390D01*
X119290Y-39900D01*
X6170D01*
X-13100Y-20630D01*
G01X146600Y25800D02*
Y-14150D01*
X119750Y-41000D01*
X4480D01*
X-14490Y-22030D01*
G01X17000Y92300D02*
Y28260D01*
X-7530Y3730D01*
G01X12140Y92300D02*
Y26180D01*
X-8920Y5120D01*
G01X-8270Y46910D02*
X-16220Y38960D01*
G01X21200Y-55800D02*
X72970D01*
X87000Y-69830D01*
Y-95240D01*
X100360Y-108600D01*
X117810D01*
X125270Y-101140D01*
G01X18490Y-55810D02*
X20280Y-57600D01*
X72290D01*
X85300Y-70610D01*
Y-96400D01*
X99500Y-110600D01*
X125810D01*
X135270Y-101140D01*
G01X12060Y-47500D02*
X116370D01*
X148800Y-15070D01*
Y4810D01*
X153990Y10000D01*
X158600D01*
G01X8100Y-51100D02*
X115890D01*
X151990Y-15000D01*
X155670D01*
G01X125270Y100690D02*
X129660Y96300D01*
X138100D01*
X151800Y82600D01*
Y50540D01*
X167300Y35040D01*
Y31070D01*
G01X169100Y29200D02*
Y34800D01*
X152900Y51000D01*
Y83060D01*
X135270Y100690D01*
G54D37*
X80540Y28990D03*
X87270D03*
X94000D03*
X100730D03*
X107460D03*
G54D19*
X-168120Y111590D03*
X-165560D03*
X-163000D03*
X-160440D03*
X-157880D03*
G54D28*
X-16220Y38960D03*
X-26800Y49540D03*
G54D47*
G01X-160520Y42240D02*
Y35530D01*
G01Y42240D02*
Y52950D01*
G01D02*
X-163360D01*
G01X-111230Y-450D02*
X-106900Y-4780D01*
G01X-109840Y940D02*
X-107260Y-1640D01*
X-104340D01*
X-103500Y-800D01*
G01X-94800Y-19800D02*
Y-22300D01*
X-97310Y-24810D01*
G01X-95920Y-26200D02*
X-91720Y-22000D01*
G01X-95920Y14860D02*
X-98860Y17800D01*
G01X-97310Y13470D02*
X-93140Y9300D01*
G01X-82000Y28780D02*
X-85960Y32740D01*
G01X-62710Y-50790D02*
Y-54240D01*
X-65290Y-56820D01*
G01X-63900Y-58220D02*
X-66840Y-61160D01*
G01X-62510Y-59610D02*
X-58200Y-55300D01*
G01X-82000Y-40120D02*
X-84940Y-43060D01*
G01X-80600Y-41510D02*
X-76390Y-37300D01*
G01X-65290Y45480D02*
X-60610Y40800D01*
G01X-83390Y27390D02*
X-79200Y23200D01*
G01X-63900Y46880D02*
X-66840Y49820D01*
G01X-66000Y90800D02*
X-48100Y72900D01*
Y49460D01*
X-50680Y46880D01*
G01X-66000Y101000D02*
Y101100D01*
G01X-66200Y90800D02*
X-66000D01*
G01X-41600Y-41720D02*
X-39340D01*
X-36760Y-44300D01*
G01X-45110Y41310D02*
X-41910Y44510D01*
G01X-43720Y39920D02*
X-47500Y36140D01*
G01X-47890Y44090D02*
X-51100Y40880D01*
G01X-46500Y42700D02*
X-49170Y40030D01*
G01X-46500Y42700D02*
X-43600Y45600D01*
Y92200D01*
G01X-22840Y-30380D02*
X-19900Y-33320D01*
G01X-35370Y-42910D02*
X-39600Y-38680D01*
G01X-21450Y-28980D02*
X-25800Y-24630D01*
G01X-24230Y20430D02*
X-21290Y23370D01*
G01X-25630Y21820D02*
X-29650Y17800D01*
G01X-11700Y-19240D02*
X-15840Y-15100D01*
G01X-3350Y-10890D02*
X-7600Y-6640D01*
G01X-10310Y6510D02*
X-14520Y2300D01*
G54D29*
X-14530Y61810D03*
X-18850Y57490D03*
X-8270Y46910D03*
X-3950Y51230D03*
G54D38*
X85520Y59750D03*
Y87310D03*
X134700Y-9250D03*
Y18310D03*
G54D48*
G01X94000Y-12890D02*
X83610D01*
X81540Y-14960D01*
X45770D01*
G01X45650Y26500D02*
X41350D01*
G02X36810Y28380I0J6422D01*
G01X36110Y29080D01*
G02X34230Y33620I4542J4540D01*
G01Y47700D01*
G01D02*
Y68880D01*
G01D02*
Y76990D01*
G01D02*
Y88060D01*
G01X94000Y28990D02*
Y-12890D01*
G01X98880Y43480D02*
X94000Y38600D01*
Y28990D01*
G01X80540D02*
Y43480D01*
G01D02*
X87270D01*
G01X85600Y59700D02*
Y53510D01*
X80540Y48450D01*
Y43480D01*
G01X85520Y59750D02*
Y68460D01*
X90880Y73820D01*
G01D02*
G02X102150Y78490I11270J-11264D01*
G01X110830D01*
G01X127570Y-78840D02*
X105270Y-101140D01*
G01Y100690D02*
X127440Y78520D01*
G01X127570Y-61600D02*
Y-78840D01*
G01X155670Y-25000D02*
X130230Y-50440D01*
G03X127570Y-56850I6408J-6416D01*
G01Y-61600D01*
G01X155670Y25000D02*
X129940Y50730D01*
G02X127440Y56760I6022J6030D01*
G01Y61280D01*
G01Y78520D02*
Y61280D01*
G01X155270Y-101140D02*
X158380Y-98030D01*
G03X160790Y-92210I-5822J5820D01*
G01Y-78840D01*
G01Y-61600D02*
Y-78840D01*
G01X175670Y-30000D02*
Y-38860D01*
G02X170110Y-52280I-18976J0D01*
G01X160790Y-61600D01*
G01X175670Y30000D02*
Y35420D01*
G03X172540Y42980I-10695J0D01*
G01X162760Y52760D01*
G02X160790Y57510I4742J4750D01*
G01Y61280D01*
G01Y78520D02*
Y61280D01*
G01X155270Y100690D02*
X158380Y97580D01*
G02X160790Y91760I-5822J-5820D01*
G01Y78520D01*
G54D39*
X155670Y-25000D03*
Y-5000D03*
Y-15000D03*
Y5000D03*
Y15000D03*
Y35000D03*
Y25000D03*
X175670Y-30000D03*
Y0D03*
Y-10000D03*
Y-20000D03*
Y20000D03*
Y10000D03*
Y30000D03*
G54D49*
G01X-157880Y111590D02*
X-137890D01*
G01X-168120D02*
Y107680D01*
M02*
